<svg width="48" height="23" viewBox="0 0 48 23" fill="none" xmlns="http://www.w3.org/2000/svg">
<path d="M1.368 9.008V11.216H3.768V16.352C2.808 16.592 1.848 16.808 0.84 17L1.392 19.184C3.984 18.536 6.384 17.744 8.64 16.808V14.624C7.776 14.984 6.912 15.32 6.024 15.656V11.216H8.376V9.008H6.024V3.92H8.616V1.736H0.912V3.92H3.768V9.008H1.368ZM9.552 1.016V6.272H21.384V1.016H9.552ZM19.272 4.544H17.904V2.744H19.272V4.544ZM16.176 4.544H14.808V2.744H16.176V4.544ZM13.08 4.544H11.64V2.744H13.08V4.544ZM8.88 7.376V9.32H22.104V7.376H8.88ZM9.936 10.376V15.368H13.128C11.832 16.664 9.936 17.552 7.392 18.056L8.568 19.808C9.528 19.592 10.416 19.304 11.28 18.92V20.096C11.28 20.408 11.016 20.648 10.512 20.792L11.184 22.496C13.176 22.088 15.12 21.584 17.04 20.96L16.608 19.064C15.504 19.448 14.376 19.808 13.248 20.12V17.816C13.944 17.312 14.568 16.712 15.144 16.016C16.584 18.632 18.888 20.768 22.056 22.424L22.968 20.504C21.888 19.976 20.904 19.376 19.992 18.704C20.904 18.2 21.72 17.528 22.488 16.712L21.12 15.344C20.304 16.256 19.464 16.976 18.6 17.48C17.976 16.856 17.424 16.136 16.968 15.368H21.072V10.376H9.936ZM19.008 13.64H12V12.104H19.008V13.64ZM33.144 2V3.872H35.16C35.448 4.52 35.688 5.216 35.928 5.984H32.424V7.88H46.968V5.984H43.104C43.392 5.312 43.656 4.592 43.848 3.872H46.272V2H40.656C40.488 1.304 40.296 0.655999 40.104 0.079999L37.68 0.487999C37.896 0.943999 38.112 1.448 38.304 2H33.144ZM40.896 5.984H38.088C37.872 5.24 37.656 4.544 37.44 3.872H41.76C41.568 4.592 41.28 5.288 40.896 5.984ZM33.768 8.984V16.904H36.144C35.88 17.72 35.424 18.416 34.776 18.944C33.912 19.616 32.52 20.144 30.6 20.504L31.464 22.544C33.816 21.968 35.496 21.224 36.504 20.288C37.368 19.4 37.968 18.272 38.256 16.904H40.296V19.952C40.296 21.416 40.992 22.16 42.432 22.16H45.072C45.792 22.16 46.344 21.992 46.728 21.656C47.088 21.296 47.352 20.216 47.496 18.416L45.48 17.768C45.432 18.968 45.336 19.664 45.192 19.904C45.072 20.096 44.904 20.216 44.688 20.216H43.056C42.696 20.216 42.528 19.976 42.528 19.52V16.904H45.456V8.984H33.768ZM43.368 15.056H35.856V13.712H43.368V15.056ZM35.856 12.128V10.784H43.368V12.128H35.856ZM32.52 14.6C31.608 15.032 30.72 15.416 29.808 15.752V8.192H31.704V5.984H29.808V0.439999H27.528V5.984H25.224V8.192H27.528V16.496C26.736 16.712 25.944 16.904 25.152 17.072L25.752 19.568C28.152 18.848 30.408 17.96 32.52 16.904V14.6Z" fill="#2D3942"/>
</svg>
