<svg width="209" height="206" viewBox="0 0 209 206" fill="none" xmlns="http://www.w3.org/2000/svg">
<path fill-rule="evenodd" clip-rule="evenodd" d="M198.832 115.651C193.534 115.236 189.38 110.582 189.429 105.282C189.432 105.014 189.433 104.745 189.433 104.477C189.433 57.5519 151.292 19.5119 104.243 19.5119C57.1946 19.5119 19.054 57.5519 19.054 104.477C19.054 143.161 44.9745 175.806 80.438 186.08C83.7849 187.049 86.2613 189.848 87.0043 193.244C88.3964 199.608 83.5905 206.615 77.2815 204.935C32.7782 193.083 -0.00049058 152.598 -0.000492683 104.477C-0.000495193 47.0561 46.6711 0.507582 104.243 0.507579C161.816 0.507577 208.487 47.0561 208.487 104.477C208.487 105.509 208.472 106.539 208.442 107.564C208.297 112.547 203.815 116.042 198.832 115.651Z" fill="#4F7D96"/>
</svg>
