<svg width="51" height="83" viewBox="0 0 51 83" fill="none" xmlns="http://www.w3.org/2000/svg">
<path d="M4.24983 81.5603L4.18701 54.1807L4.18602 53.8821C4.18234 52.9342 4.35989 51.995 4.70855 51.1179C5.0572 50.2408 5.57013 49.443 6.21802 48.7702C6.86592 48.0974 7.63609 47.5628 8.48455 47.1967C9.33301 46.8307 10.2431 46.6405 11.1629 46.637L12.2062 46.6389L27.0043 46.6032L27.4023 46.5832C30.205 46.5775 32.9791 46.0028 35.5663 44.8921C38.1534 43.7814 40.5028 42.1564 42.4803 40.1098C44.4579 38.0632 46.0247 35.6353 47.0915 32.9646C48.1582 30.2939 48.7039 27.4329 48.6974 24.5448C48.6908 21.6568 48.1322 18.7984 47.0534 16.1328C45.9746 13.4673 44.3967 11.0469 42.41 9.00988C40.4232 6.97285 38.0664 5.35911 35.4743 4.26084C32.8822 3.16257 30.1055 2.60128 27.3028 2.60903L26.1812 2.61097L0.835761 2.67274H0.460938C0.689916 1.95332 1.00812 1.26739 1.40764 0.631967L1.69947 0.641957L26.2913 0.584159L27.298 0.580184C30.3599 0.57083 33.3936 1.18326 36.2257 2.38249C39.0578 3.58171 41.6329 5.34422 43.8037 7.56931C45.9746 9.79441 47.6987 12.4385 48.8776 15.3504C50.0564 18.2624 50.6669 21.3852 50.6741 24.5403C50.6814 27.6955 50.0852 30.8212 48.9197 33.7388C47.7542 36.6565 46.0423 39.3089 43.8816 41.5446C41.721 43.7802 39.154 45.5552 36.3274 46.7682C33.5008 47.9812 30.47 48.6084 27.4081 48.614L26.899 48.6319L11.1687 48.6657C10.5076 48.6687 9.8535 48.8058 9.24381 49.0692C8.63413 49.3327 8.08078 49.7173 7.61537 50.2011C7.14995 50.6849 6.7816 51.2585 6.53133 51.8891C6.28107 52.5196 6.1538 53.1948 6.15679 53.876V54.1747L6.2206 82.0481L6.20803 82.4741C5.52157 82.2527 4.86494 81.943 4.25369 81.5523" fill="#1B7892"/>
</svg>
