<svg width="105" height="91" viewBox="0 0 105 91" fill="none" xmlns="http://www.w3.org/2000/svg">
<path d="M104.959 70.7861C104.959 63.0795 100.519 56.1885 93.8833 52.8655L91.4435 34.0891C91.4408 34.0667 91.4377 34.0446 91.4346 34.0221C89.8801 22.9106 83.7314 13.0422 74.564 6.94691C68.1786 2.70148 60.3169 0.363281 52.4273 0.363281C44.5377 0.363281 36.6764 2.70148 30.2906 6.94725C21.1232 13.0422 14.9745 22.9109 13.42 34.0225C13.4166 34.0473 13.4131 34.0722 13.41 34.0967L10.9713 53.0264C4.46907 56.3964 0.23877 63.1379 0.23877 70.7861C0.23877 81.8238 9.19939 90.8032 20.2138 90.8032H84.9833C95.9981 90.8032 104.959 81.8238 104.959 70.7861ZM37.9111 18.4573C42.0032 15.7368 47.2942 14.1763 52.4273 14.1763C57.5605 14.1763 62.8514 15.7368 66.9436 18.4573C72.8173 22.3626 76.7653 28.7214 77.7795 35.9079L80.7575 58.8286C81.1379 61.7579 83.3355 64.1203 86.2249 64.7063C89.093 65.2879 91.1744 67.845 91.1744 70.7865C91.1744 74.2076 88.3969 76.9906 84.9833 76.9906H20.2142C16.8002 76.9906 14.0231 74.2073 14.0231 70.7865C14.0231 67.9234 16.0404 65.3818 18.8196 64.7429C21.6315 64.0965 23.7442 61.7631 24.1137 58.8955L27.0758 35.9048C28.0907 28.72 32.0387 22.3619 37.9111 18.4573ZM67.4091 57.6872C67.4091 53.8728 64.3236 50.7808 60.5171 50.7808H43.2872C39.4807 50.7808 36.3952 53.8728 36.3952 57.6872C36.3952 61.5017 39.4807 64.5938 43.2872 64.5938H60.5171C64.3236 64.5938 67.4091 61.5017 67.4091 57.6872Z" fill="#8DBAD3"/>
</svg>
