<svg width="150" height="146" viewBox="0 0 150 146" fill="none" xmlns="http://www.w3.org/2000/svg">
<path d="M149.026 72.8228C149.026 77.4691 145.248 81.2355 140.587 81.2355H46.66C47.7569 102.691 52.9924 121.71 57.0406 134.661C58.427 139.097 55.9441 143.814 51.4946 145.196C50.6592 145.456 49.8133 145.579 48.9817 145.579C45.3862 145.579 42.054 143.27 40.9279 139.667C36.5426 125.635 30.8574 104.916 29.7634 81.2351H8.95185C4.29144 81.2351 0.513672 77.4687 0.513672 72.8223C0.513672 68.176 4.29144 64.4096 8.95185 64.4096H29.8043C30.9966 41.0689 36.6363 20.6533 40.9984 6.77487C42.3919 2.34094 47.1274 -0.128194 51.5735 1.26285C56.0209 2.65221 58.4962 7.37217 57.1026 11.8061C53.0823 24.5968 47.8983 43.3 46.7055 64.41H103.158C101.965 43.3 96.7811 24.5968 92.7615 11.8065C91.368 7.37259 93.8433 2.65221 98.2906 1.26327C102.738 -0.124409 107.472 2.34221 108.866 6.77529C113.228 20.6538 118.868 41.0693 120.06 64.41H140.587C145.248 64.41 149.026 68.1764 149.026 72.8228Z" fill="#4F7D96"/>
</svg>
