<svg width="52" height="87" viewBox="0 0 52 87" fill="none" xmlns="http://www.w3.org/2000/svg">
<path d="M5.19305 86.8566C5.39396 86.8706 5.59883 86.8785 5.8036 86.8785C6.25726 86.8926 6.71129 86.8713 7.16183 86.8148L7.15797 86.1877L7.09426 58.165L7.09614 57.8664C7.09268 57.5711 7.20193 57.2863 7.40035 57.0733C7.59877 56.8603 7.87048 56.7361 8.1569 56.7276C8.1569 56.7276 10.0407 56.7036 10.0407 56.7255L24.0195 56.6917L24.4242 56.6718C31.6437 56.6505 38.5595 53.6758 43.6512 48.4016C48.7428 43.1274 51.5935 35.9856 51.5765 28.5462C51.5594 21.1068 48.6761 13.9788 43.5604 8.72946C38.4447 3.48009 31.5154 0.538989 24.2958 0.552783L5.62396 0.570622C3.60036 0.573341 1.64268 1.3123 0.0961914 2.65717L0.603374 2.67113L23.2003 2.61537L24.3074 2.6114C27.6227 2.60336 30.9072 3.26829 33.9731 4.56823C37.0391 5.86817 39.8265 7.77766 42.1763 10.1877C44.5262 12.5977 46.3923 15.461 47.6682 18.6142C48.9442 21.7674 49.6049 25.1487 49.6127 28.565C49.6205 31.9813 48.9752 35.3657 47.7137 38.5251C46.4522 41.6844 44.5991 44.5568 42.2603 46.9782C39.9216 49.3995 37.1429 51.3225 34.0829 52.6373C31.0229 53.9521 27.7416 54.633 24.4262 54.641L24.0137 54.6609L10.431 54.6947L8.17333 54.7166C7.36351 54.7188 6.58765 55.0522 6.0163 55.6436C5.44494 56.2349 5.12485 57.0359 5.12637 57.8704L5.12538 58.1689L5.19117 86.8785" fill="#1B7892"/>
</svg>
