<?xml version="1.0" encoding="UTF-8"?>
<svg xmlns="http://www.w3.org/2000/svg" xmlns:xlink="http://www.w3.org/1999/xlink" width="126pt" height="29pt" viewBox="0 0 126 29" version="1.1">
<defs>
<filter id="alpha" filterUnits="objectBoundingBox" x="0%" y="0%" width="100%" height="100%">
  <feColorMatrix type="matrix" in="SourceGraphic" values="0 0 0 0 1 0 0 0 0 1 0 0 0 0 1 0 0 0 1 0"/>
</filter>
<mask id="mask0">
  <g filter="url(#alpha)">
<rect x="0" y="0" width="126" height="29" style="fill:rgb(0%,0%,0%);fill-opacity:0.6;stroke:none;"/>
  </g>
</mask>
<clipPath id="clip1">
  <rect width="126" height="29"/>
</clipPath>
<g id="surface6" clip-path="url(#clip1)">
<path style=" stroke:none;fill-rule:nonzero;fill:rgb(100%,100%,100%);fill-opacity:1;" d="M 4.949219 14.679688 C 9.449219 14.953125 11.160156 14.320312 11.160156 14.320312 C 15.390625 12.507812 14.398438 7.882812 14.398438 7.882812 C 13.320312 3.988281 9.539062 3.714844 9.539062 3.714844 L 0.898438 3.804688 L 0.898438 17.671875 L 1.171875 17.671875 C 1.980469 14.046875 4.949219 14.679688 4.949219 14.679688 "/>
</g>
<mask id="mask1">
  <g filter="url(#alpha)">
<rect x="0" y="0" width="126" height="29" style="fill:rgb(0%,0%,0%);fill-opacity:0.6;stroke:none;"/>
  </g>
</mask>
<clipPath id="clip2">
  <rect width="126" height="29"/>
</clipPath>
<g id="surface9" clip-path="url(#clip2)">
<path style=" stroke:none;fill-rule:nonzero;fill:rgb(100%,100%,100%);fill-opacity:1;" d="M 22.230469 17.398438 L 18.179688 17.492188 C 18.179688 17.492188 14.398438 18.304688 16.289062 22.382812 C 16.289062 22.382812 17.101562 23.742188 19.171875 23.652344 L 26.101562 23.652344 L 26.101562 14.046875 L 25.828125 14.046875 C 25.738281 14.953125 25.46875 17.492188 22.230469 17.398438 "/>
</g>
</defs>
<g id="surface1">
<use xlink:href="#surface6" mask="url(#mask0)"/>
<use xlink:href="#surface9" mask="url(#mask1)"/>
<path style=" stroke:none;fill-rule:nonzero;fill:rgb(100%,100%,100%);fill-opacity:1;" d="M 3.328125 26.28125 C 3.421875 26.28125 3.421875 26.28125 3.511719 26.28125 C 3.691406 26.28125 3.78125 26.28125 3.960938 26.28125 L 3.960938 17.761719 C 3.960938 17.582031 4.140625 17.398438 4.320312 17.398438 L 9.089844 17.398438 C 13.589844 17.398438 17.28125 13.683594 17.191406 9.152344 C 17.191406 4.621094 13.5 0.90625 9 0.996094 L 3.421875 0.996094 C 2.878906 0.996094 2.25 1.269531 1.800781 1.632812 L 9 1.632812 C 13.230469 1.632812 16.558594 5.074219 16.558594 9.242188 C 16.558594 13.414062 13.140625 16.855469 9 16.855469 L 4.230469 16.855469 C 3.691406 16.855469 3.328125 17.308594 3.328125 17.761719 L 3.328125 26.28125 "/>
<path style=" stroke:none;fill-rule:nonzero;fill:rgb(100%,100%,100%);fill-opacity:1;" d="M 2.160156 25.917969 L 2.160156 17.761719 C 2.160156 16.585938 3.058594 15.679688 4.230469 15.679688 L 9.089844 15.679688 C 12.601562 15.679688 15.480469 12.777344 15.480469 9.242188 C 15.480469 5.710938 12.601562 2.808594 9.089844 2.808594 L 1.078125 2.808594 C 1.171875 2.628906 1.261719 2.355469 1.351562 2.175781 L 9.089844 2.175781 C 12.960938 2.175781 16.109375 5.347656 16.109375 9.242188 C 16.109375 13.140625 12.960938 16.3125 9.089844 16.3125 L 4.230469 16.3125 C 3.421875 16.3125 2.699219 17.039062 2.699219 17.851562 L 2.699219 26.191406 C 2.519531 26.101562 2.339844 26.007812 2.160156 25.917969 "/>
<path style=" stroke:none;fill-rule:nonzero;fill:rgb(100%,100%,100%);fill-opacity:1;" d="M 24.839844 1.539062 L 24.839844 14.410156 C 24.839844 15.585938 23.851562 16.492188 22.769531 16.492188 L 18.71875 16.492188 C 16.558594 16.492188 14.761719 18.304688 14.761719 20.480469 C 14.761719 22.65625 16.558594 24.46875 18.71875 24.46875 L 25.921875 24.46875 C 25.828125 24.648438 25.738281 24.921875 25.648438 25.101562 L 18.71875 25.101562 C 16.199219 25.101562 14.21875 23.109375 14.21875 20.570312 C 14.21875 18.035156 16.199219 16.039062 18.71875 16.039062 L 22.769531 16.039062 C 23.578125 16.039062 24.300781 15.316406 24.300781 14.5 L 24.300781 1.085938 C 24.480469 1.179688 24.75 1.269531 24.929688 1.359375 L 24.929688 1.539062 Z M 24.839844 1.539062 "/>
<path style=" stroke:none;fill-rule:nonzero;fill:rgb(100%,100%,100%);fill-opacity:1;" d="M 23.671875 1.085938 L 23.671875 14.410156 C 23.671875 14.953125 23.21875 15.316406 22.769531 15.316406 L 18.808594 15.316406 C 16.019531 15.316406 13.679688 17.671875 13.679688 20.480469 C 13.679688 23.289062 16.019531 25.648438 18.808594 25.648438 L 25.199219 25.648438 C 24.75 26.101562 24.121094 26.28125 23.488281 26.28125 L 18.808594 26.28125 C 15.660156 26.28125 13.050781 23.742188 13.050781 20.480469 C 13.050781 17.21875 15.570312 14.679688 18.808594 14.679688 L 22.769531 14.679688 C 22.949219 14.679688 23.039062 14.5 23.039062 14.410156 L 23.039062 0.996094 C 23.128906 0.996094 23.308594 0.996094 23.398438 0.996094 C 23.488281 0.996094 23.578125 0.996094 23.671875 0.996094 Z M 23.671875 1.085938 "/>
<path style=" stroke:none;fill-rule:nonzero;fill:rgb(100%,100%,100%);fill-opacity:1;" d="M 9.089844 3.351562 L 0.898438 3.351562 L 0.898438 3.988281 L 9.179688 3.988281 C 12.058594 4.078125 14.308594 6.433594 14.21875 9.335938 C 14.128906 12.144531 11.878906 14.410156 9 14.5 L 4.230469 14.5 C 2.429688 14.5 0.898438 15.949219 0.898438 17.851562 L 0.898438 23.742188 C 0.898438 24.378906 1.171875 25.011719 1.53125 25.464844 L 1.53125 17.851562 C 1.53125 16.402344 2.699219 15.132812 4.230469 15.132812 L 9.179688 15.132812 C 12.421875 15.132812 15.03125 12.507812 14.941406 9.242188 C 14.851562 5.980469 12.328125 3.351562 9.089844 3.351562 "/>
<path style=" stroke:none;fill-rule:nonzero;fill:rgb(100%,100%,100%);fill-opacity:1;" d="M 26.101562 23.289062 L 18.808594 23.289062 C 17.28125 23.289062 16.019531 22.023438 16.019531 20.480469 C 16.019531 18.941406 17.28125 17.671875 18.808594 17.671875 L 22.859375 17.671875 C 24.660156 17.671875 26.191406 16.222656 26.191406 14.320312 L 26.101562 3.445312 C 26.101562 2.808594 25.921875 2.265625 25.46875 1.8125 L 25.46875 14.226562 C 25.46875 15.769531 24.210938 16.945312 22.769531 17.039062 L 18.898438 17.039062 C 17.101562 17.039062 15.570312 18.578125 15.570312 20.390625 C 15.570312 22.203125 17.101562 23.742188 18.898438 23.742188 L 26.101562 23.742188 Z M 26.101562 23.289062 "/>
<path style=" stroke:none;fill-rule:nonzero;fill:rgb(100%,100%,100%);fill-opacity:1;" d="M 123.210938 8.699219 L 119.160156 19.574219 L 114.929688 8.699219 L 112.050781 8.699219 L 117.808594 22.835938 L 115.289062 28.910156 L 116.730469 28.910156 C 117.628906 28.910156 118.351562 28.367188 118.710938 27.550781 L 126.089844 8.699219 C 126.089844 8.699219 123.210938 8.699219 123.210938 8.699219 Z M 123.210938 8.699219 "/>
<path style=" stroke:none;fill-rule:nonzero;fill:rgb(100%,100%,100%);fill-opacity:1;" d="M 70.289062 8.429688 C 69.390625 8.429688 68.488281 8.699219 67.589844 9.152344 C 66.960938 9.515625 66.421875 9.96875 66.058594 10.511719 L 66.058594 8.789062 L 63.449219 8.789062 L 63.449219 23.5625 L 66.058594 23.5625 L 66.058594 14.773438 C 66.148438 13.503906 66.511719 12.597656 67.230469 11.78125 C 67.859375 11.148438 68.671875 10.785156 69.660156 10.785156 C 72 10.785156 73.171875 12.054688 73.171875 14.773438 L 73.171875 23.5625 L 75.78125 23.5625 L 75.78125 14.5 C 75.78125 10.511719 73.980469 8.429688 70.289062 8.429688 "/>
<path style=" stroke:none;fill-rule:nonzero;fill:rgb(100%,100%,100%);fill-opacity:1;" d="M 89.820312 10.875 C 88.738281 9.242188 87.210938 8.429688 85.320312 8.429688 C 83.25 8.429688 81.539062 9.242188 80.371094 10.785156 C 79.289062 12.234375 78.75 13.957031 78.75 16.132812 C 78.75 18.304688 79.289062 20.210938 80.371094 21.570312 C 81.628906 23.109375 83.25 23.925781 85.410156 23.925781 C 87.390625 23.925781 88.921875 23.199219 89.910156 21.75 L 89.910156 23.5625 L 92.429688 23.5625 L 92.429688 3.261719 L 89.820312 3.261719 Z M 88.738281 12.234375 C 89.460938 13.230469 89.910156 14.5 89.910156 16.132812 L 89.910156 16.3125 C 89.910156 17.851562 89.550781 19.121094 88.921875 20.117188 C 88.199219 21.117188 87.03125 21.75 85.769531 21.660156 C 84.328125 21.660156 83.25 21.117188 82.53125 20.117188 C 81.898438 19.121094 81.539062 17.851562 81.539062 16.132812 C 81.539062 14.410156 81.898438 13.140625 82.53125 12.234375 C 83.25 11.148438 84.328125 10.695312 85.859375 10.695312 C 86.941406 10.695312 88.109375 11.238281 88.738281 12.234375 "/>
<path style=" stroke:none;fill-rule:nonzero;fill:rgb(100%,100%,100%);fill-opacity:1;" d="M 106.378906 10.875 C 105.300781 9.242188 103.769531 8.429688 101.878906 8.429688 C 99.808594 8.429688 98.101562 9.242188 96.929688 10.785156 C 95.851562 12.234375 95.308594 13.957031 95.308594 16.132812 C 95.308594 18.304688 95.851562 20.210938 96.929688 21.570312 C 98.191406 23.109375 99.808594 23.925781 101.96875 23.925781 C 103.949219 23.925781 105.480469 23.199219 106.46875 21.75 L 106.46875 23.5625 L 108.988281 23.5625 L 108.988281 3.261719 L 106.378906 3.261719 Z M 105.300781 12.144531 C 106.019531 13.140625 106.46875 14.410156 106.46875 16.039062 L 106.46875 16.3125 C 106.46875 17.851562 106.109375 19.121094 105.480469 20.117188 C 104.761719 21.117188 103.589844 21.75 102.328125 21.660156 C 100.890625 21.660156 99.808594 21.117188 99.089844 20.117188 C 98.460938 19.121094 98.101562 17.851562 98.101562 16.132812 C 98.101562 14.410156 98.460938 13.140625 99.089844 12.234375 C 99.808594 11.148438 100.890625 10.695312 102.421875 10.695312 C 103.589844 10.695312 104.578125 11.238281 105.300781 12.144531 "/>
<path style=" stroke:none;fill-rule:nonzero;fill:rgb(100%,100%,100%);fill-opacity:1;" d="M 53.550781 8.429688 C 49.320312 8.429688 46.261719 11.691406 46.261719 16.132812 C 46.261719 20.664062 49.320312 23.925781 53.550781 23.925781 C 57.78125 23.925781 60.839844 20.664062 60.839844 16.132812 C 60.839844 11.691406 57.78125 8.429688 53.550781 8.429688 M 58.050781 16.132812 C 58.050781 18.667969 56.609375 21.476562 53.550781 21.476562 C 50.488281 21.476562 49.050781 18.667969 49.050781 16.132812 C 49.050781 13.59375 50.488281 10.785156 53.550781 10.785156 C 56.609375 10.875 58.050781 13.59375 58.050781 16.132812 "/>
<path style=" stroke:none;fill-rule:nonzero;fill:rgb(100%,100%,100%);fill-opacity:1;" d="M 39.238281 3.261719 L 33.300781 3.261719 C 32.21875 3.261719 31.320312 4.167969 31.320312 5.257812 L 31.320312 21.476562 C 31.320312 22.566406 32.21875 23.472656 33.300781 23.472656 L 34.019531 23.472656 L 34.019531 15.316406 L 39.238281 15.316406 C 42.929688 15.316406 45.539062 12.867188 45.539062 9.242188 C 45.539062 5.617188 42.929688 3.261719 39.238281 3.261719 M 34.019531 5.800781 L 38.96875 5.800781 C 41.21875 5.800781 42.660156 7.25 42.660156 9.335938 C 42.660156 11.417969 41.21875 12.867188 38.96875 12.867188 L 34.019531 12.867188 Z M 34.019531 5.800781 "/>
</g>
</svg>
