<svg width="144" height="40" viewBox="0 0 144 40" fill="none" xmlns="http://www.w3.org/2000/svg">
<path d="M6.33861 21.6619C13.4615 22.0322 16.1653 21.0312 16.1653 21.0312C22.8935 18.145 21.3311 10.9158 21.3311 10.9158C19.6049 4.73551 13.641 4.4187 13.641 4.4187L0.00317383 4.45095L0.0552285 26.2592L0.517072 26.2583C1.69028 20.6711 6.33861 21.6619 6.33861 21.6619Z" fill="#6ACFED"/>
<path d="M33.8808 25.9403L27.5136 26.0287C27.5136 26.0287 21.5907 27.3309 24.4768 33.6917C24.4768 33.6917 25.733 35.7508 29.0451 35.6689L39.9855 35.6504L39.9496 20.4857L39.4832 20.4792C39.5242 22.1433 39.0692 26.0434 33.8808 25.9403" fill="#6ACFED"/>
<path d="M3.90519 39.9881C4.00095 39.9946 4.0986 39.9983 4.1962 39.9983C4.41243 40.0048 4.62884 39.9949 4.84359 39.9688L4.84175 39.6787L4.81185 26.7177L4.81228 26.5796C4.81072 26.443 4.86283 26.3113 4.95738 26.2128C5.05194 26.1143 5.18139 26.0568 5.31788 26.0528C5.31788 26.0528 6.21577 26.0418 6.21577 26.0519L12.8777 26.0363L13.0706 26.0261C16.5113 26.0161 19.8072 24.6402 22.2337 22.2008C24.6603 19.7615 26.0188 16.4584 26.0108 13.0177C26.0027 9.57704 24.6287 6.28036 22.1908 3.85242C19.7528 1.42448 16.4505 0.064009 13.0098 0.0700886L4.11058 0.0792831C3.14589 0.0796655 2.2125 0.421577 1.47583 1.04442L1.718 1.04993L12.4881 1.02508L13.0149 1.0223C14.595 1.01855 16.1605 1.32608 17.6218 1.92731C19.0831 2.52855 20.4117 3.41172 21.5317 4.52641C22.6517 5.6411 23.5411 6.96547 24.1493 8.42391C24.7574 9.88235 25.0724 11.4463 25.0761 13.0265C25.0799 14.6066 24.7724 16.172 24.1711 17.6333C23.5699 19.0947 22.6867 20.4232 21.572 21.5432C20.4573 22.6632 19.133 23.5527 17.6745 24.1609C16.2161 24.769 14.6521 25.084 13.072 25.0877L12.8758 25.0969L6.40225 25.1126L5.3257 25.1227C5.13456 25.1231 4.94537 25.1612 4.76893 25.2347C4.5925 25.3082 4.43227 25.4158 4.29741 25.5512C4.16255 25.6867 4.05569 25.8474 3.98294 26.0241C3.91019 26.2009 3.87297 26.3903 3.87341 26.5814L3.87294 26.7196L3.90429 39.9983" fill="white"/>
<path d="M2.0259 39.3883L1.99596 26.7239L1.99549 26.5858C1.99382 26.1474 2.07852 25.713 2.24474 25.3074C2.41096 24.9018 2.65546 24.5329 2.96427 24.2218C3.27307 23.9107 3.64013 23.6635 4.0445 23.4942C4.44886 23.325 4.8826 23.2371 5.32095 23.2355L5.8182 23.2364L12.8715 23.2198L13.0612 23.2106C14.3969 23.2076 15.7188 22.9416 16.9516 22.4277C18.1844 21.9138 19.3039 21.1621 20.2461 20.2155C21.1884 19.2689 21.9349 18.146 22.4432 16.9109C22.9514 15.6757 23.2114 14.3526 23.2083 13.017C23.2051 11.6814 22.9389 10.3595 22.4249 9.12674C21.9108 7.89401 21.1589 6.77462 20.2122 5.83249C19.2655 4.89035 18.1425 4.14393 16.9073 3.63584C15.6721 3.12775 14.3489 2.86794 13.0133 2.87126L12.4787 2.87215L0.398626 2.90073L0.219971 2.90162C0.329467 2.56863 0.481277 2.25108 0.671677 1.95676L0.8103 1.96228L12.5317 1.9347L13.011 1.93192C15.9573 1.92501 18.7857 3.0888 20.8739 5.16727C22.9621 7.24573 24.1392 10.0686 24.1461 13.0149C24.153 15.9612 22.9892 18.7896 20.9107 20.8778C18.8323 22.966 16.0094 24.1431 13.0631 24.15L12.8213 24.1583L5.32368 24.1739C4.68731 24.1767 4.07812 24.4322 3.63013 24.8842C3.18213 25.3361 2.93203 25.9476 2.93483 26.5839V26.7221L2.96524 39.614L2.95968 39.811C2.63239 39.7085 2.31928 39.5653 2.02774 39.3847" fill="white"/>
<path d="M38.048 0.872867L38.0955 20.9148L38.0936 21.1772C38.0947 21.617 38.0092 22.0528 37.8419 22.4595C37.6746 22.8663 37.4288 23.2361 37.1185 23.5478C36.8082 23.8595 36.4396 24.107 36.0336 24.2762C35.6277 24.4455 35.1924 24.533 34.7526 24.534L34.4947 24.5349L28.8352 24.5487L28.4024 24.5561C26.7426 24.561 25.1527 25.2248 23.9822 26.4015C22.8117 27.5783 22.1564 29.1717 22.1604 30.8314C22.1644 32.4912 22.8273 34.0815 24.0034 35.2526C25.1795 36.4237 26.7725 37.0799 28.4323 37.0769L29.233 37.0741L39.6495 37.0492L39.8088 37.0428C39.7057 37.3744 39.5602 37.6914 39.376 37.9858L39.2374 37.9886L29.2422 38.0125L28.4346 38.0153C26.5252 38.0198 24.6922 37.2656 23.3389 35.9187C21.9856 34.5718 21.2228 32.7424 21.2183 30.833C21.2138 28.9237 21.9679 27.0907 23.3149 25.7374C24.6618 24.3841 26.4912 23.6213 28.4005 23.6167L28.7597 23.6241L34.4647 23.6103L34.7502 23.6112C35.3937 23.6095 36.01 23.3523 36.4639 22.8962C36.9177 22.4401 37.1718 21.8225 37.1704 21.1791L37.1663 20.936L37.1179 0.433609L37.1064 0.21167C37.437 0.321081 37.7522 0.472411 38.0444 0.661961L38.048 0.872867Z" fill="white"/>
<path d="M36.17 0.205276L36.2189 20.9471L36.2161 21.1819C36.2165 21.3751 36.1789 21.5665 36.1054 21.7452C36.0319 21.9239 35.9239 22.0863 35.7875 22.2232C35.6512 22.3601 35.4893 22.4688 35.3109 22.5431C35.1326 22.6175 34.9413 22.6559 34.7481 22.6563L34.2702 22.6591L28.9422 22.671L28.4445 22.6784C28.4297 22.6775 28.4145 22.6775 28.3994 22.6775C26.2416 22.6837 24.1747 23.5465 22.6529 25.0762C21.1311 26.606 20.2791 28.6774 20.2842 30.8352C20.2893 32.9929 21.151 35.0603 22.6799 36.5829C24.2088 38.1055 26.2798 38.9586 28.4375 38.9547L29.2383 38.9583L38.3019 38.9372L38.5626 38.9335C37.821 39.5706 36.876 39.9215 35.8984 39.9226L35.553 39.9235L29.2406 39.9382L28.4399 39.9401C26.02 39.9458 23.697 38.9899 21.9819 37.2829C20.2669 35.5758 19.3001 33.2573 19.2945 30.8375C19.2888 28.4177 20.2446 26.0947 21.9517 24.3796C23.6587 22.6645 25.9772 21.6978 28.397 21.6921H28.7005L34.5621 21.6783L34.7463 21.67C34.81 21.6699 34.8731 21.6572 34.9319 21.6327C34.9907 21.6082 35.0441 21.5724 35.0891 21.5272C35.134 21.4821 35.1696 21.4285 35.1939 21.3695C35.2181 21.3106 35.2304 21.2475 35.2302 21.1838L35.2344 20.9213L35.1856 0.300144L35.18 0.0238397C35.3872 0.00177348 35.5958 -0.00498743 35.804 0.00361194C35.926 0.00361194 36.0476 0.00912859 36.1673 0.018323L36.17 0.205276Z" fill="white"/>
<path d="M12.9799 3.80788L12.2804 3.80882L0 3.83551L0.0023104 4.80894L0.245421 4.8071L12.4582 4.77763L12.5995 4.77301L12.9449 4.77207L13.1806 4.77574C15.355 4.82272 17.4233 5.72487 18.937 7.28658C20.4507 8.8483 21.2879 10.9437 21.267 13.1185C21.2461 15.2934 20.3688 17.3723 18.8254 18.9046C17.2819 20.437 15.1967 21.2992 13.0218 21.3044L12.832 21.3127L5.93022 21.3293L5.2819 21.3311C3.88584 21.3332 2.54777 21.8897 1.56199 22.8782C0.57621 23.8667 0.0234617 25.2064 0.0253201 26.6024L0.0464908 35.1881L0.0432846 35.9129C0.0478768 36.8976 0.407749 37.8476 1.05675 38.5882L1.04939 38.112L1.02219 26.724L1.02129 26.5858C1.01999 26.0247 1.12922 25.4689 1.34276 24.95C1.55629 24.4311 1.86994 23.9594 2.26579 23.5618C2.66165 23.1641 3.13195 22.8483 3.64986 22.6324C4.16776 22.4166 4.72311 22.3048 5.28421 22.3036L5.79485 22.2962L12.7809 22.2796L13.024 22.2704C15.4713 22.263 17.8155 21.2841 19.5413 19.549C21.2671 17.8138 22.2332 15.4644 22.2274 13.0171C22.2215 10.5698 21.2441 8.22501 19.51 6.49812C17.776 4.77122 15.4271 3.80357 12.9799 3.80788" fill="white"/>
<path d="M39.9847 35.177L39.7821 35.1788L29.2735 35.2037L28.4447 35.1982C27.2842 35.1981 26.1711 34.7378 25.3496 33.9182C24.5281 33.0985 24.0653 31.9865 24.0626 30.8261C24.0599 29.6656 24.5176 28.5515 25.3353 27.728C26.1531 26.9046 27.264 26.4392 28.4244 26.4338L28.7283 26.4264L34.2769 26.4126L34.7742 26.4071C36.1591 26.4038 37.4861 25.8505 38.4631 24.8688C39.4401 23.8871 39.9871 22.5576 39.9838 21.1726L39.9387 4.10249C39.9377 3.14505 39.6011 2.21826 38.9873 1.4834L38.9929 1.80021L39.038 20.9958L39.0398 21.1017C39.0413 21.6733 38.9301 22.2395 38.7127 22.7682C38.4953 23.2968 38.1758 23.7774 37.7726 24.1825C37.3693 24.5876 36.8902 24.9093 36.3626 25.1292C35.835 25.3491 35.2693 25.4629 34.6977 25.4641L34.5048 25.4742L28.7624 25.4871L28.4221 25.4945C27.0108 25.4979 25.6586 26.0617 24.663 27.0621C23.6674 28.0624 23.1099 29.4173 23.1133 30.8287C23.1167 32.24 23.6805 33.5922 24.6809 34.5878C25.6812 35.5834 27.0361 36.1409 28.4475 36.1375L29.2413 36.1357L39.8392 36.1099L39.987 36.1117L39.9847 35.177Z" fill="white"/>
<path d="M103.991 10.0491L104.213 10.1173V7.93472L104.108 7.89049C103.566 7.68346 102.989 7.58519 102.41 7.60132C101.585 7.58672 100.782 7.86836 100.146 8.39515C99.792 8.73157 99.4693 9.09964 99.182 9.49476V9.41187C99.182 9.41187 99.194 7.92274 99.182 7.92274H97.0243C97.0128 7.92274 97.034 20.1985 97.0455 20.1985L99.182 20.2041V13.6729C99.1466 12.6864 99.4689 11.7202 100.09 10.9526C100.33 10.5957 100.655 10.304 101.036 10.1036C101.417 9.90319 101.841 9.80031 102.272 9.80416C102.854 9.79853 103.433 9.88111 103.991 10.0491" fill="white"/>
<path d="M113.445 20.1951L113.61 20.1932V18.2427H111.745C111.044 18.2427 110.689 17.7952 110.689 16.9129V9.84028H113.055V7.95057H110.689V4.72827H108.52V7.95057H106.587V9.84028H108.52V17.2988C108.52 19.1553 109.479 20.1951 111.294 20.1951C111.686 20.1951 112.011 20.196 112.292 20.1969C112.508 20.1978 112.699 20.1987 112.875 20.1987C113.079 20.1987 113.264 20.1978 113.445 20.1951Z" fill="white"/>
<path d="M89.6391 12.7927C87.8309 12.8157 86.4081 13.1648 85.4103 13.8296C84.8613 14.1545 84.4119 14.6236 84.1111 15.1861C83.8102 15.7486 83.6693 16.3828 83.7038 17.0197C83.6933 17.4987 83.7922 17.9737 83.9932 18.4086C84.1941 18.8435 84.4917 19.2268 84.8633 19.5292C85.7026 20.1876 86.7523 20.5194 87.8176 20.463C88.8816 20.4754 89.9311 20.2148 90.8658 19.706C91.4496 19.3844 91.975 18.9666 92.4198 18.4702L92.4756 18.4066V20.1398H94.4942V12.3369C94.556 11.1223 94.1639 9.92809 93.3941 8.98654C92.5336 8.0546 91.2609 7.60148 89.5024 7.60148C88.2735 7.54414 87.054 7.84008 85.9882 8.45425C85.4836 8.77247 85.0523 9.1941 84.7228 9.69129C84.3932 10.1885 84.1729 10.7499 84.0763 11.3386L84.0437 11.4988L86.1512 11.6591L86.1797 11.5402C86.246 11.2051 86.3817 10.8876 86.5782 10.6081C86.7746 10.3287 87.0274 10.0934 87.3203 9.91758C87.944 9.54805 88.6634 9.37209 89.3873 9.41203C91.3875 9.41203 92.36 10.3458 92.36 12.2678V12.7494L89.6391 12.7927ZM92.36 15.2893C92.3453 15.7509 92.226 16.2031 92.0111 16.6118C91.7961 17.0205 91.4911 17.3751 91.119 17.6487C90.3139 18.3511 89.2787 18.7332 88.2103 18.7225C87.6008 18.7475 86.9998 18.5722 86.4993 18.2234C86.3034 18.0802 86.1451 17.8918 86.0379 17.6742C85.9307 17.4566 85.8777 17.2162 85.8836 16.9737C85.8836 15.3299 87.1513 14.5093 89.7593 14.4642L92.36 14.42V15.2893Z" fill="white"/>
<path d="M55.0648 18.2342C54.1062 18.2325 53.1591 18.0247 52.2879 17.6247C51.4167 17.2248 50.6416 16.6421 50.0154 15.9163L49.8607 15.7367L48.3716 17.6421L48.4784 17.7627C50.0246 19.5033 52.3366 20.4629 54.9902 20.4629C59.6436 20.4629 61.3022 17.8456 61.3022 15.3978C61.3022 11.7658 57.9869 10.866 55.3236 10.1431C53.2612 9.58318 51.4797 9.10059 51.4797 7.62067C51.4797 6.18407 52.8003 5.18117 54.6918 5.18117C55.5598 5.15142 56.4241 5.3076 57.2267 5.63924C58.0294 5.97088 58.7519 6.47031 59.3457 7.10403L59.4972 7.2735L60.9937 5.44918L60.8749 5.32484C60.0938 4.53109 59.1564 3.90824 58.122 3.49575C57.0876 3.08327 55.9788 2.89015 54.8659 2.92863C51.4401 2.92863 48.9522 4.95372 48.9522 7.745C48.9522 11.0898 51.9539 11.8974 54.6025 12.6102C56.8413 13.2125 58.7733 13.7319 58.7733 15.547C58.7733 16.8465 57.7999 18.2342 55.0648 18.2342" fill="white"/>
<path d="M76.6517 7.60159C75.8868 7.57612 75.1313 7.77527 74.4783 8.17443C73.849 8.52997 73.3185 9.03709 72.9349 9.64973C72.2161 8.29047 70.9609 7.60159 69.1997 7.60159C68.5899 7.6007 67.988 7.73912 67.44 8.0063C66.8919 8.27348 66.4121 8.66236 66.0372 9.14324V7.92302H63.8325V20.139H66.0372V12.7367C66.0118 11.9102 66.291 11.1033 66.8218 10.4694C67.0473 10.1694 67.3412 9.92762 67.6791 9.76423C68.0169 9.60084 68.3889 9.52054 68.764 9.53002C70.4751 9.53002 71.3076 10.497 71.3076 12.4843V20.139H73.5123V12.5304C73.4686 11.7278 73.741 10.94 74.2711 10.3358C74.4916 10.0732 74.7689 9.86418 75.0821 9.72457C75.3953 9.58497 75.7362 9.51844 76.0789 9.53002C77.0518 9.53002 77.7246 9.77129 78.1399 10.2686C78.6021 10.9106 78.8217 11.6957 78.7597 12.4843V20.139H80.9643V12.1868C81.0175 10.9564 80.5956 9.75265 79.786 8.82459C79.3757 8.41621 78.8856 8.09683 78.3463 7.8864C77.807 7.67597 77.2301 7.57902 76.6517 7.60159" fill="white"/>
<path d="M117.908 27.9758C114.868 27.9758 112.662 30.3048 112.662 33.5142C112.662 36.7365 114.868 39.0747 117.908 39.0747C120.947 39.0747 123.154 36.7365 123.154 33.5142C123.154 30.3048 120.947 27.9758 117.908 27.9758V27.9758ZM121.111 33.5142C121.111 35.3312 120.109 37.2872 117.908 37.2872C115.707 37.2872 114.704 35.3312 114.704 33.5142C114.704 31.7074 115.707 29.7633 117.908 29.7633C120.109 29.7633 121.111 31.7074 121.111 33.5142" fill="white"/>
<path d="M106.155 27.9758C103.115 27.9758 100.909 30.3048 100.909 33.5142C100.909 36.7365 103.115 39.0747 106.155 39.0747C109.195 39.0747 111.401 36.7365 111.401 33.5142C111.401 30.3048 109.195 27.9758 106.155 27.9758V27.9758ZM109.359 33.5142C109.359 35.3312 108.356 37.2872 106.155 37.2872C103.954 37.2872 102.951 35.3312 102.951 33.5142C102.951 31.7074 103.954 29.7633 106.155 29.7633C108.356 29.7633 109.359 31.7074 109.359 33.5142" fill="white"/>
<path d="M59.4033 24.3381H49.6232C49.2852 24.3385 48.9613 24.4729 48.7223 24.7118C48.4834 24.9508 48.349 25.2748 48.3486 25.6127V26.2435H52.8165V37.3719C52.8168 37.7486 52.9666 38.1097 53.2329 38.3761C53.4992 38.6425 53.8603 38.7924 54.237 38.7929H54.9143V26.2435H59.4033V24.3381Z" fill="white"/>
<path d="M64.3276 27.949C61.3461 27.949 59.0986 30.3314 59.0986 33.492C59.0986 36.7677 61.3268 39.0562 64.5173 39.0562C65.2906 39.0732 66.0596 38.937 66.78 38.6553C67.5003 38.3737 68.1578 37.9522 68.7144 37.4151L68.836 37.2963L67.8372 35.937L67.6756 36.1018C67.2786 36.501 66.8063 36.8172 66.2859 37.0321C65.7656 37.2469 65.2078 37.3561 64.6449 37.3534C62.3711 37.3534 61.3719 35.6755 61.2016 34.2167H69.4295V33.6191C69.4295 30.2274 67.379 27.949 64.3276 27.949V27.949ZM61.1795 32.6411C61.3489 31.1915 62.3914 29.6518 64.3059 29.6518C65.1192 29.6355 65.9063 29.9399 66.4969 30.4993C67.0875 31.0587 67.4341 31.8281 67.4619 32.6411H61.1795Z" fill="white"/>
<path d="M85.2915 35.904V29.7246H87.3664V28.0209H85.2915V25.1956H83.3424V28.0209H81.6475V29.7246H83.3424V36.2429C83.3424 37.895 84.215 38.8058 85.799 38.8058C86.1425 38.8058 86.4275 38.8067 86.6743 38.8076H86.7369C86.9008 38.8076 87.0482 38.8086 87.1854 38.8086C87.364 38.8086 87.5266 38.8076 87.6854 38.8058L87.8535 38.8039V37.0459H86.1949C85.5954 37.0459 85.2915 36.6619 85.2915 35.904" fill="white"/>
<path d="M95.0234 27.9723C94.3923 27.9615 93.7687 28.111 93.2111 28.4067C92.6535 28.7024 92.1799 29.1346 91.8347 29.6631V24.0906H89.8911V38.7986H91.7357V37.5765C92.1061 38.0708 92.5926 38.4662 93.1523 38.7275C93.7119 38.9889 94.3274 39.1082 94.9442 39.0748C95.6403 39.0996 96.3324 38.9596 96.9642 38.6662C97.596 38.3729 98.1496 37.9345 98.5799 37.3868C99.3948 36.2563 99.8101 34.8867 99.7606 33.4941C99.8027 32.1267 99.3874 30.7843 98.5804 29.6797C98.1716 29.1266 97.6338 28.682 97.0138 28.3844C96.3939 28.0868 95.7105 27.9453 95.0234 27.9723V27.9723ZM97.7783 33.4941C97.8258 34.4728 97.5833 35.4439 97.0812 36.2854C96.819 36.6549 96.4673 36.9517 96.0591 37.1482C95.6508 37.3447 95.1994 37.4344 94.7471 37.4089C94.3109 37.4293 93.8767 37.3386 93.4852 37.1451C93.0938 36.9516 92.7579 36.6618 92.5093 36.3029C91.9887 35.5122 91.7318 34.577 91.7753 33.6313V33.4342C91.7186 32.4455 92.0109 31.4683 92.6013 30.6733L92.6073 30.6669C92.8404 30.3349 93.153 30.0667 93.5165 29.8868C93.88 29.7069 94.2829 29.6211 94.6882 29.6373C95.1426 29.6089 95.5969 29.6956 96.0089 29.8894C96.4209 30.0832 96.7774 30.3779 97.0452 30.7461C97.5813 31.5582 97.8386 32.5228 97.7783 33.4941" fill="white"/>
<path d="M134.556 28.2246H132.016L126.907 33.39V24.3318H124.94V38.8208H126.907V35.7918L128.414 34.3221L131.997 38.8123L132.004 38.8208H134.525L129.829 33.0575L134.517 28.2651L134.556 28.2246Z" fill="white"/>
<path d="M80.2086 28.2759L80.2647 28.2014H77.9123L75.1625 31.9461L72.448 28.2207L72.4339 28.2014H70.0598L73.9229 33.3852L69.9037 38.7689L69.8467 38.8443H72.2005L75.1625 34.8025L78.1316 38.825L78.1452 38.8443H80.4995L76.4021 33.3842L80.2086 28.2759Z" fill="white"/>
<path d="M143.849 35.7961C143.849 33.3714 141.636 32.8428 139.858 32.4173L139.853 32.4339L139.857 32.4173H139.856C138.602 32.1171 137.519 31.8583 137.519 31.058C137.519 30.2228 138.373 29.6398 139.595 29.6398C140.138 29.6218 140.679 29.7218 141.18 29.9327C141.682 30.1437 142.131 30.4607 142.498 30.8619L142.659 31.0562L143.616 29.6352L143.627 29.6186L143.621 29.6122H143.621L143.525 29.5127C143.438 29.4234 143.343 29.3332 143.238 29.242C142.223 28.3813 140.925 27.9281 139.595 27.9702C136.846 27.9702 135.616 29.5422 135.616 31.1004C135.616 33.3428 137.64 33.8346 139.427 34.2693C140.779 34.5971 141.946 34.8808 141.946 35.8385C141.946 36.8055 141.086 37.4059 139.701 37.4059C139.097 37.4034 138.501 37.2786 137.947 37.0389C137.393 36.7993 136.893 36.4498 136.478 36.0116L136.319 35.8284L135.286 37.2963L135.394 37.4087C135.95 37.9677 136.616 38.4046 137.351 38.6915C138.085 38.9783 138.871 39.1088 139.659 39.0746L139.662 39.0737L139.666 39.0746C142.207 39.0746 143.849 37.7918 143.849 35.8063L143.848 35.8017L143.849 35.7961" fill="white"/>
</svg>
