<svg width="165" height="40" viewBox="0 0 165 40" fill="none" xmlns="http://www.w3.org/2000/svg">
<path d="M6.3381 21.6615C13.4615 22.0317 16.1651 21.0316 16.1651 21.0316C22.8934 18.1438 21.3312 10.9149 21.3312 10.9149C19.6046 4.73548 13.6405 4.41821 13.6405 4.41821L0.00341797 4.45046L0.0554699 26.2594L0.516346 26.2585C1.69001 20.6706 6.3381 21.6615 6.3381 21.6615" fill="#6ACFED"/>
<path d="M33.8812 25.94L27.5134 26.0293C27.5134 26.0293 21.5908 27.3314 24.4768 33.6919C24.4768 33.6919 25.7329 35.7509 29.0457 35.6699L39.9856 35.6515L39.9497 20.4861L39.4828 20.4792C39.5243 22.1433 39.0693 26.044 33.8812 25.94Z" fill="#6ACFED"/>
<path d="M3.9039 39.9877C4.00056 39.9951 4.0982 39.9978 4.1958 39.9978C4.41202 40.0048 4.62846 39.9949 4.84315 39.9683L4.84131 39.6792L4.81095 26.7175L4.81184 26.5794C4.81041 26.4428 4.86254 26.3112 4.95705 26.2126C5.05157 26.1141 5.18093 26.0565 5.31742 26.0522C5.31742 26.0522 6.21526 26.0411 6.21526 26.0513L12.8768 26.0356L13.0702 26.0264C16.5109 26.0163 19.8068 24.6404 22.2333 22.2011C24.6599 19.7618 26.0185 16.4587 26.0104 13.018C26.0023 9.57729 24.6283 6.28061 22.1904 3.85267C19.7524 1.42473 16.4502 0.0642544 13.0095 0.0703328L4.11018 0.0785838C3.14538 0.0792998 2.21195 0.421331 1.4751 1.04414L1.71683 1.04965L12.4873 1.02386L13.015 1.02155C16.2064 1.01404 19.2701 2.27463 21.532 4.52599C23.794 6.77735 25.069 9.83506 25.0765 13.0265C25.084 16.2179 23.8234 19.2816 21.5721 21.5435C19.3207 23.8055 16.263 25.0805 13.0716 25.088L12.875 25.0972L6.40127 25.112L5.32524 25.123C5.13411 25.1234 4.94492 25.1615 4.76849 25.235C4.59206 25.3085 4.43184 25.4161 4.29699 25.5515C4.16214 25.687 4.05528 25.8477 3.98254 26.0244C3.90979 26.2012 3.87258 26.3906 3.87302 26.5817L3.87255 26.7198L3.9039 39.9978" fill="white"/>
<path d="M2.02553 39.3883L1.99559 26.7245L1.99464 26.5863C1.99144 25.701 2.34 24.8506 2.96367 24.2222C3.58734 23.5938 4.43505 23.2388 5.3204 23.2353L5.81763 23.2363L12.8706 23.2197L13.0603 23.2114C14.3961 23.2087 15.7183 22.9429 16.9514 22.4292C18.1845 21.9154 19.3043 21.1638 20.2468 20.2172C21.1894 19.2706 21.9362 18.1476 22.4446 16.9123C22.953 15.677 23.2131 14.3536 23.21 13.0178C23.2069 11.682 22.9406 10.3599 22.4265 9.12695C21.9123 7.89405 21.1602 6.77453 20.2133 5.83233C19.2664 4.89013 18.1431 4.14371 16.9076 3.63572C15.6721 3.12773 14.3487 2.86811 13.0129 2.8717L12.4783 2.87259L0.397867 2.9007L0.21875 2.90159C0.328611 2.56868 0.480559 2.25117 0.670904 1.95678L0.809049 1.96235L12.5308 1.93472L13.0106 1.93288C15.9555 1.9277 18.7821 3.09216 20.8688 5.17029C22.9555 7.24841 24.1316 10.0701 24.1385 13.0151C24.1455 15.9601 22.9827 18.7873 20.9059 20.8753C18.829 22.9632 16.008 24.141 13.063 24.1498L12.8204 24.159L5.32224 24.1746C5.00721 24.176 4.69552 24.2393 4.40499 24.3612C4.11446 24.483 3.85077 24.6608 3.62898 24.8846C3.4072 25.1083 3.23167 25.3736 3.11241 25.6652C2.99315 25.9568 2.93251 26.269 2.93394 26.584V26.7222L2.96388 39.6139L2.95883 39.811C2.63129 39.7088 2.31799 39.5655 2.02642 39.3846" fill="white"/>
<path d="M38.048 0.872833L38.0954 20.9151L38.0936 21.1771C38.0956 22.0654 37.7448 22.9181 37.1182 23.5477C36.4916 24.1774 35.6405 24.5323 34.7522 24.5346L34.4944 24.5355L28.8347 24.5488L28.4029 24.5557C27.5803 24.557 26.766 24.7203 26.0066 25.0364C25.2472 25.3525 24.5575 25.8151 23.9769 26.3979C23.3964 26.9806 22.9364 27.6721 22.6232 28.4327C22.31 29.1933 22.1498 30.0082 22.1517 30.8308C22.1536 31.6533 22.3176 32.4675 22.6343 33.2266C22.951 33.9858 23.4142 34.6751 23.9975 35.2552C24.5807 35.8352 25.2725 36.2947 26.0334 36.6072C26.7943 36.9198 27.6093 37.0794 28.4318 37.0768L29.233 37.074L39.6494 37.0492L39.8087 37.0436C39.7054 37.3749 39.5599 37.6915 39.3759 37.9857L39.2373 37.9894L29.2418 38.0124L28.4342 38.0161C26.5247 38.0206 24.6916 37.2664 23.3381 35.9194C21.9847 34.5723 21.2218 32.7428 21.2173 30.8333C21.2128 28.9238 21.967 27.0907 23.314 25.7373C24.6611 24.3839 26.4906 23.621 28.4001 23.6165L28.7597 23.6243L34.464 23.6109H34.7495C35.0681 23.6103 35.3835 23.5468 35.6776 23.4242C35.9717 23.3016 36.2388 23.1223 36.4636 22.8964C36.6884 22.6706 36.8665 22.4027 36.9877 22.108C37.1089 21.8133 37.1708 21.4976 37.17 21.1789L37.1658 20.9358L37.117 0.433598L37.106 0.21167C37.4367 0.321229 37.7521 0.472708 38.0443 0.662409L38.048 0.872833Z" fill="white"/>
<path d="M36.1691 0.205747L36.2179 20.9469L36.2151 21.1817C36.216 21.5719 36.0618 21.9464 35.7865 22.2229C35.5113 22.4994 35.1374 22.6552 34.7473 22.6561L34.2689 22.6588L28.9403 22.6708L28.4439 22.6782H28.3979C26.2399 22.6841 24.1726 23.5468 22.6506 25.0767C21.1286 26.6065 20.2765 28.6782 20.2816 30.8362C20.2868 32.9941 21.1487 35.0617 22.678 36.5843C24.2073 38.1069 26.2786 38.9598 28.4366 38.9554L29.2373 38.9582L38.3009 38.937L38.5615 38.9333C37.82 39.5707 36.8748 39.9216 35.897 39.9224L35.5517 39.9232L29.2391 39.938L28.4384 39.9398C26.0187 39.9455 23.6959 38.9898 21.9809 37.2828C20.2658 35.5758 19.2992 33.2575 19.2935 30.8378C19.2878 28.4181 20.2436 26.0952 21.9505 24.3802C23.6575 22.6652 25.9759 21.6985 28.3956 21.6928L28.699 21.6919L34.5608 21.6781L34.7445 21.6707C34.8084 21.6706 34.8715 21.6578 34.9304 21.6333C34.9893 21.6087 35.0428 21.5728 35.0879 21.5276C35.1329 21.4823 35.1686 21.4287 35.1928 21.3696C35.2171 21.3106 35.2295 21.2474 35.2294 21.1836L35.233 20.9221L35.1847 0.300138L35.1783 0.0238482C35.3857 0.00176698 35.5946 -0.00499356 35.8031 0.00362155C35.9251 0.00362155 36.0466 0.00913792 36.1663 0.0192748L36.1691 0.205747Z" fill="white"/>
<path d="M12.9801 3.80862H12.2802L0 3.83578L0.00183879 4.80869L0.245408 4.80685L12.4575 4.7778L12.5989 4.77276L12.9447 4.77229L13.1804 4.77554C15.3548 4.82273 17.423 5.72501 18.9366 7.2868C20.4503 8.84858 21.2874 10.944 21.2665 13.1188C21.2456 15.2936 20.3683 17.3726 18.825 18.905C17.2816 20.4374 15.1964 21.2998 13.0215 21.3051L12.8314 21.3134L5.93038 21.329L5.28072 21.3309C3.88481 21.3332 2.54696 21.8898 1.56141 22.8784C0.575867 23.8669 0.0233277 25.2065 0.0253187 26.6024L0.0455926 35.1881L0.0432823 35.9129C0.047778 36.8977 0.407255 37.8478 1.05575 38.5889L1.04839 38.1119L1.02213 26.7244L1.02124 26.5863C1.01979 26.0252 1.12891 25.4693 1.34234 24.9504C1.55577 24.4314 1.86934 23.9596 2.26514 23.5619C2.66094 23.1642 3.13121 22.8483 3.6491 22.6324C4.16699 22.4164 4.72235 22.3046 5.28346 22.3033L5.79408 22.296L12.7812 22.2794L13.0238 22.2702C14.236 22.2673 15.4358 22.0257 16.5546 21.5592C17.6735 21.0926 18.6894 20.4103 19.5446 19.5511C20.3997 18.6919 21.0772 17.6727 21.5385 16.5517C21.9997 15.4306 22.2356 14.2297 22.2327 13.0175C22.2299 11.8053 21.9883 10.6056 21.5217 9.48674C21.0552 8.36791 20.3728 7.35193 19.5137 6.4968C18.6545 5.64167 17.6353 4.96415 16.5142 4.50291C15.3932 4.04167 14.1923 3.80575 12.9801 3.80862" fill="white"/>
<path d="M39.9845 35.1771L39.782 35.1789L29.273 35.2038L28.4447 35.1982C27.2832 35.1999 26.1686 34.7404 25.3458 33.9207C24.5229 33.101 24.0592 31.9881 24.0564 30.8267C24.0537 29.6652 24.5121 28.5502 25.3311 27.7266C26.15 26.903 27.2625 26.4382 28.4239 26.4344L28.7278 26.4261L34.2765 26.4132L34.7733 26.4076C36.1584 26.4043 37.4854 25.8509 38.4625 24.8693C39.4396 23.8876 39.9867 22.558 39.9836 21.173L39.9385 4.1033C39.9377 3.14569 39.6012 2.21865 38.9877 1.4834L38.9923 1.80019L39.037 20.9957L39.0397 21.1016C39.0411 21.6732 38.9299 22.2394 38.7125 22.768C38.4951 23.2967 38.1756 23.7773 37.7724 24.1824C37.3693 24.5876 36.8902 24.9093 36.3627 25.1293C35.8351 25.3494 35.2694 25.4633 34.6978 25.4647L34.5044 25.4739L28.7619 25.4877L28.4221 25.4951C27.0108 25.4984 25.6587 26.0622 24.6631 27.0624C23.6675 28.0627 23.11 29.4175 23.1133 30.8287C23.1166 32.24 23.6804 33.5922 24.6806 34.5878C25.6809 35.5834 27.0357 36.1408 28.4469 36.1375L29.2412 36.1357L39.839 36.1108L39.9868 36.1117L39.9845 35.1771Z" fill="white"/>
<path d="M71.1128 5.62817H50.6907C50.3468 5.62812 50.0062 5.69583 49.6885 5.82742C49.3707 5.95902 49.082 6.15192 48.8388 6.39512C48.5956 6.63832 48.4026 6.92704 48.271 7.24481C48.1394 7.56257 48.0717 7.90315 48.0718 8.24708V9.51976H57.4236V32.8628C57.4236 33.2468 57.4992 33.6271 57.6462 33.9818C57.7931 34.3366 58.0085 34.659 58.2801 34.9305C58.5516 35.202 58.874 35.4173 59.2288 35.5642C59.5836 35.7111 59.9639 35.7867 60.3479 35.7866H61.7154V9.51976H71.1128V5.62817Z" fill="white"/>
<path d="M100.243 30.2579V17.2773L104.587 17.2755V13.8066L100.244 13.8126L100.243 7.9314H96.2616L96.266 13.8126L92.7148 13.8139V17.2828L96.2616 17.2773V30.966C96.2616 34.3741 98.0223 36.2822 101.354 36.2822C102.074 36.2822 102.67 36.284 103.187 36.2859C103.583 36.2868 103.933 36.2877 104.257 36.2877C104.631 36.2877 104.969 36.2868 105.303 36.2822L105.612 36.2877L105.61 32.6973H102.183C100.896 32.6973 100.243 31.8767 100.243 30.2579" fill="white"/>
<path d="M117.663 13.2468C111.349 13.2468 106.764 18.0896 106.764 24.7604C106.764 31.457 111.349 36.3182 117.663 36.3182C123.98 36.3182 128.564 31.457 128.564 24.7604C128.564 18.0896 123.98 13.2468 117.663 13.2468V13.2468ZM124.45 24.7604C124.45 28.6023 122.326 32.737 117.663 32.737C113.003 32.737 110.879 28.6023 110.879 24.7604C110.879 20.9398 113.003 16.8281 117.663 16.8281C122.326 16.8281 124.45 20.9398 124.45 24.7604Z" fill="white"/>
<path d="M156.604 22.5559C153.94 21.9196 151.64 21.3698 151.64 19.622C151.64 17.8207 153.465 16.5629 156.076 16.5629C158.58 16.5629 160.877 17.5307 162.222 19.1533L162.484 19.4682L164.403 16.619L164.23 16.4404C162.81 14.9835 160.241 13.2468 156.076 13.2468C150.383 13.2468 147.834 16.4938 147.834 19.7113C147.834 24.3359 152.038 25.3571 155.745 26.2587C158.612 26.9549 161.088 27.5571 161.088 29.6328C161.088 31.7121 159.253 33.0031 156.298 33.0031C155.021 32.9982 153.759 32.7341 152.587 32.227C151.416 31.7198 150.359 30.9801 149.482 30.0527L149.225 29.7561L147.17 32.6753L147.344 32.8576C149.553 35.1533 152.535 36.3182 156.209 36.3182C161.484 36.3182 164.893 33.6588 164.893 29.5444C164.893 24.5367 160.297 23.439 156.604 22.5559" fill="white"/>
<path d="M85.4097 27.1037L85.4093 27.1111C85.2333 28.7107 84.5282 30.2057 83.4059 31.3591C82.9437 31.8405 82.3909 32.2259 81.7792 32.4928C81.1675 32.7597 80.509 32.903 79.8417 32.9144C78.0368 32.9144 76.7052 32.4392 75.8838 31.5009C75.09 30.5938 74.6876 29.1435 74.6876 27.1903V13.8459H70.7896V27.3533C70.7896 33.3021 73.4895 36.3179 78.8149 36.3179C80.0722 36.3344 81.3161 36.0584 82.4483 35.5117C83.5806 34.9649 84.5703 34.1625 85.3392 33.1676C85.344 33.1614 85.3506 33.1569 85.3581 33.1547C85.3655 33.1524 85.3735 33.1526 85.3809 33.1551C85.3883 33.1577 85.3947 33.1625 85.3992 33.1688C85.4037 33.1752 85.4061 33.1828 85.406 33.1906V35.7866H89.3036V13.8459H85.406L85.4097 27.1037Z" fill="white"/>
<path d="M141.421 13.31C139.946 13.2836 138.51 13.7868 137.374 14.7281C136.722 15.2418 136.163 15.8632 135.721 16.5652C135.7 16.5975 135.651 16.6979 135.651 16.6979V13.8846H131.793V35.7865H135.651V24.1615C135.588 22.3984 136.164 20.6718 137.272 19.2993C137.702 18.6614 138.284 18.14 138.965 17.782C139.646 17.4239 140.405 17.2403 141.174 17.2476C142.214 17.2376 143.25 17.3848 144.246 17.6841L144.643 17.8066V13.9058L144.455 13.8266C143.488 13.4566 142.456 13.281 141.421 13.31" fill="white"/>
</svg>
