<svg width="16" height="16" viewBox="0 0 16 16" fill="none" xmlns="http://www.w3.org/2000/svg">
<path d="M9.4158 8.00409L13.7158 3.71409C13.9041 3.52579 14.0099 3.27039 14.0099 3.00409C14.0099 2.73779 13.9041 2.4824 13.7158 2.29409C13.5275 2.10579 13.2721 2 13.0058 2C12.7395 2 12.4841 2.10579 12.2958 2.29409L8.0058 6.59409L3.7158 2.29409C3.52749 2.10579 3.2721 2 3.0058 2C2.7395 2 2.4841 2.10579 2.2958 2.29409C2.10749 2.4824 2.00171 2.73779 2.00171 3.00409C2.00171 3.27039 2.10749 3.52579 2.2958 3.71409L6.5958 8.00409L2.2958 12.2941C2.20207 12.3871 2.12768 12.4977 2.07691 12.6195C2.02614 12.7414 2 12.8721 2 13.0041C2 13.1361 2.02614 13.2668 2.07691 13.3887C2.12768 13.5105 2.20207 13.6211 2.2958 13.7141C2.38876 13.8078 2.49936 13.8822 2.62122 13.933C2.74308 13.9838 2.87379 14.0099 3.0058 14.0099C3.13781 14.0099 3.26852 13.9838 3.39038 13.933C3.51223 13.8822 3.62284 13.8078 3.7158 13.7141L8.0058 9.41409L12.2958 13.7141C12.3888 13.8078 12.4994 13.8822 12.6212 13.933C12.7431 13.9838 12.8738 14.0099 13.0058 14.0099C13.1378 14.0099 13.2685 13.9838 13.3904 13.933C13.5122 13.8822 13.6228 13.8078 13.7158 13.7141C13.8095 13.6211 13.8839 13.5105 13.9347 13.3887C13.9855 13.2668 14.0116 13.1361 14.0116 13.0041C14.0116 12.8721 13.9855 12.7414 13.9347 12.6195C13.8839 12.4977 13.8095 12.3871 13.7158 12.2941L9.4158 8.00409Z" fill="#576168"/>
</svg>
