<svg width="74" height="85" viewBox="0 0 74 85" fill="none" xmlns="http://www.w3.org/2000/svg">
<rect x="7.5" y="0.5" width="59" height="59" rx="7.5" stroke="#2D3942"/>
<path d="M50.1509 30.8629L38.4589 17.3884C38.3532 17.2665 38.2225 17.1687 38.0757 17.1017C37.9289 17.0347 37.7695 17 37.6081 17C37.4468 17 37.2873 17.0347 37.1405 17.1017C36.9937 17.1687 36.8631 17.2665 36.7574 17.3884L25.0689 30.8629C25.0336 30.9035 25.0107 30.9535 25.0029 31.0067C24.9952 31.06 25.0029 31.1144 25.0252 31.1634C25.0474 31.2124 25.0833 31.2539 25.1286 31.2831C25.1738 31.3123 25.2264 31.3278 25.2803 31.3279H28.1337C28.2957 31.3279 28.4507 31.2575 28.5599 31.1342L36.2712 22.2463V42.0829C36.2712 42.2379 36.3981 42.3647 36.5531 42.3647H38.6667C38.8217 42.3647 38.9485 42.2379 38.9485 42.0829V22.2463L46.6598 31.1342C46.7655 31.2575 46.9205 31.3279 47.0861 31.3279H49.9395C50.179 31.3279 50.3094 31.0461 50.1509 30.8629Z" fill="#2D3942"/>
<path d="M1.66602 81C1.58008 81 1.51758 80.9805 1.47852 80.9414C1.43945 80.9023 1.41992 80.8438 1.41992 80.7656V72.5977C1.41992 72.5117 1.43945 72.4492 1.47852 72.4102C1.51758 72.3633 1.58008 72.3398 1.66602 72.3398H4.95898C5.81055 72.3398 6.45117 72.543 6.88086 72.9492C7.31055 73.3555 7.52539 73.9062 7.52539 74.6016C7.52539 75.0469 7.41992 75.4297 7.20898 75.75C7.00586 76.0703 6.76367 76.3008 6.48242 76.4414C6.82617 76.6133 7.11523 76.875 7.34961 77.2266C7.58398 77.5703 7.70117 77.9961 7.70117 78.5039C7.70117 78.9492 7.5957 79.3711 7.38477 79.7695C7.18164 80.1602 6.88086 80.4648 6.48242 80.6836C6.08398 80.8945 5.60742 81 5.05273 81H1.66602ZM4.7832 76.0195C5.30664 76.0195 5.70117 75.8945 5.9668 75.6445C6.24023 75.3867 6.37695 75.0391 6.37695 74.6016C6.37695 74.1562 6.24023 73.8281 5.9668 73.6172C5.70117 73.3984 5.30664 73.2891 4.7832 73.2891H2.54492V76.0195H4.7832ZM4.90039 80.0508C5.41602 80.0508 5.81836 79.9023 6.10742 79.6055C6.39648 79.3008 6.54102 78.9336 6.54102 78.5039C6.54102 78.0195 6.39648 77.6406 6.10742 77.3672C5.81836 77.0938 5.41602 76.957 4.90039 76.957H2.54492V80.0508H4.90039ZM10.4238 75.457C10.8457 74.8867 11.4902 74.6055 12.3574 74.6133C13.2168 74.6133 13.8848 74.9141 14.3613 75.5156V74.9531C14.3613 74.8516 14.3809 74.7773 14.4199 74.7305C14.4512 74.6992 14.5215 74.6836 14.6309 74.6836H15.1465C15.248 74.6836 15.3145 74.6992 15.3457 74.7305C15.3926 74.7773 15.416 74.8516 15.416 74.9531V80.7422C15.416 80.8516 15.3965 80.9219 15.3574 80.9531C15.3262 80.9844 15.2559 81 15.1465 81H14.6777C14.5762 81 14.502 80.9805 14.4551 80.9414C14.416 80.9023 14.3965 80.8359 14.3965 80.7422V80.1914C13.9434 80.8164 13.2715 81.125 12.3809 81.1172C11.4746 81.1094 10.8184 80.832 10.4121 80.2852C9.99023 79.707 9.75977 79 9.7207 78.1641L9.69727 77.7891L9.7207 77.5664C9.75195 76.7461 9.98633 76.043 10.4238 75.457ZM14.3379 78.2344C14.3457 78.0078 14.3457 77.7422 14.3379 77.4375C14.3223 76.9375 14.1504 76.4961 13.8223 76.1133C13.502 75.7227 13.1309 75.5273 12.709 75.5273C12.0684 75.5273 11.6035 75.7148 11.3145 76.0898C11.0332 76.4648 10.8691 76.9648 10.8223 77.5898L10.8105 77.8125C10.8105 79.4062 11.3965 80.1953 12.5684 80.1797C13.1465 80.1797 13.5801 79.9883 13.8691 79.6055C14.1582 79.2227 14.3145 78.7656 14.3379 78.2344ZM18.3965 80.3906C17.9121 79.9062 17.6582 79.2305 17.6348 78.3633L17.623 77.8828L17.6348 77.4023C17.6582 76.5273 17.9082 75.8477 18.3848 75.3633C18.8691 74.8789 19.541 74.6367 20.4004 74.6367C20.9785 74.6367 21.4629 74.7422 21.8535 74.9531C22.252 75.1562 22.5488 75.4062 22.7441 75.7031C22.9316 75.9922 23.0371 76.2969 23.0605 76.6172C23.0684 76.7266 23.0488 76.8086 23.002 76.8633C22.9785 76.8867 22.9082 76.8984 22.791 76.8984H22.2402C22.1465 76.8984 22.0879 76.8867 22.0645 76.8633C22.0488 76.8477 22.0176 76.7812 21.9707 76.6641C21.8301 76.2734 21.6309 75.9922 21.373 75.8203C21.1152 75.6484 20.7949 75.5625 20.4121 75.5625C19.9043 75.5625 19.502 75.7188 19.2051 76.0312C18.9004 76.3516 18.7402 76.8281 18.7246 77.4609L18.7129 77.8828L18.7246 78.3047C18.7402 78.9375 18.9004 79.4102 19.2051 79.7227C19.502 80.0352 19.9043 80.1914 20.4121 80.1914C20.8027 80.1914 21.123 80.1094 21.373 79.9453C21.584 79.8047 21.7793 79.5273 21.959 79.1133C22.0137 78.9883 22.0488 78.918 22.0645 78.9023C22.0879 78.8789 22.1543 78.8672 22.2637 78.8672H22.8027C22.8965 78.8672 22.9668 78.8906 23.0137 78.9375C23.0527 78.9766 23.0684 79.043 23.0605 79.1367C23.0449 79.4336 22.9395 79.7344 22.7441 80.0391C22.5488 80.3438 22.252 80.6016 21.8535 80.8125C21.4629 81.0156 20.9785 81.1172 20.4004 81.1172C19.541 81.1172 18.873 80.875 18.3965 80.3906ZM25.5723 80.9297C25.5332 80.8906 25.5137 80.8281 25.5137 80.7422V72.5391C25.5137 72.4531 25.5293 72.3906 25.5605 72.3516C25.5996 72.3125 25.666 72.293 25.7598 72.293H26.3223C26.4004 72.293 26.4629 72.3125 26.5098 72.3516C26.5566 72.3984 26.5801 72.4609 26.5801 72.5391V76.9453L28.9824 74.9648C29.084 74.8867 29.1621 74.832 29.2168 74.8008C29.2637 74.7773 29.3457 74.7656 29.4629 74.7656H30.0605C30.1543 74.7656 30.2168 74.7812 30.248 74.8125C30.3027 74.8594 30.3262 74.9219 30.3184 75C30.3184 75.0781 30.2676 75.1562 30.166 75.2344L27.3652 77.543L30.4707 80.5195C30.5723 80.6133 30.623 80.6992 30.623 80.7773C30.623 80.8398 30.5996 80.8945 30.5527 80.9414C30.5215 80.9805 30.459 81 30.3652 81H29.7676C29.6348 81 29.5488 80.9922 29.5098 80.9766C29.4785 80.9609 29.4043 80.9023 29.2871 80.8008L26.5801 78.2227V80.7422C26.5801 80.8203 26.5566 80.8867 26.5098 80.9414C26.4707 80.9805 26.4082 81 26.3223 81H25.7598C25.6816 81 25.6191 80.9766 25.5723 80.9297ZM36.9941 78.9023V75.6797H36.0215C35.9355 75.6797 35.873 75.6602 35.834 75.6211C35.8027 75.5898 35.7832 75.5312 35.7754 75.4453V75.0117C35.7754 74.9258 35.7949 74.8672 35.834 74.8359C35.8809 74.7891 35.9434 74.7656 36.0215 74.7656H36.9941V72.7383C36.9941 72.6367 37.0098 72.5703 37.041 72.5391C37.0801 72.5 37.1465 72.4805 37.2402 72.4805H37.791C37.8926 72.4805 37.9629 72.5 38.002 72.5391C38.041 72.5703 38.0605 72.6367 38.0605 72.7383V74.7656H39.5723C39.6504 74.7656 39.709 74.7852 39.748 74.8242C39.7949 74.8711 39.8223 74.9336 39.8301 75.0117V75.4453C39.8301 75.5234 39.8066 75.582 39.7598 75.6211C39.7129 75.6602 39.6504 75.6797 39.5723 75.6797H38.0605V78.8203C38.0605 79.2266 38.127 79.5352 38.2598 79.7461C38.3926 79.9492 38.6191 80.0508 38.9395 80.0508H39.6895C39.7832 80.0508 39.8457 80.0664 39.877 80.0977C39.916 80.1289 39.9355 80.1992 39.9355 80.3086V80.7422C39.9355 80.8203 39.916 80.8867 39.877 80.9414C39.8379 80.9805 39.7754 81 39.6895 81H38.8574C37.6152 81 36.9941 80.3008 36.9941 78.9023ZM44.709 81.1172C43.8262 81.1172 43.1465 80.8711 42.6699 80.3789C42.1934 79.8789 41.9395 79.2188 41.9082 78.3984L41.8965 77.8828L41.9082 77.3672C41.9395 76.5469 42.1973 75.8867 42.6816 75.3867C43.166 74.8867 43.8379 74.6367 44.6973 74.6367C45.5645 74.6367 46.2402 74.8867 46.7246 75.3867C47.209 75.8789 47.4668 76.5391 47.498 77.3672C47.5137 77.5469 47.5215 77.7188 47.5215 77.8828C47.5293 78.0469 47.5215 78.2188 47.498 78.3984C47.4668 79.2188 47.2129 79.8789 46.7363 80.3789C46.2676 80.8711 45.5918 81.1172 44.709 81.1172ZM44.6973 80.2148C45.2129 80.2148 45.6191 80.0547 45.916 79.7344C46.2207 79.4062 46.3848 78.9414 46.4082 78.3398C46.416 78.2617 46.4199 78.1094 46.4199 77.8828C46.4199 77.6562 46.416 77.5039 46.4082 77.4258C46.3848 76.8164 46.2207 76.3516 45.916 76.0312C45.6191 75.7031 45.2129 75.5391 44.6973 75.5391C44.1895 75.5391 43.7871 75.7031 43.4902 76.0312C43.1934 76.3516 43.0293 76.8164 42.998 77.4258L42.9863 77.8828L42.998 78.3398C43.0215 78.9492 43.1816 79.4141 43.4785 79.7344C43.7832 80.0547 44.1895 80.2148 44.6973 80.2148ZM54.373 78.9023V75.6797H53.4004C53.3145 75.6797 53.252 75.6602 53.2129 75.6211C53.1816 75.5898 53.1621 75.5312 53.1543 75.4453V75.0117C53.1543 74.9258 53.1738 74.8672 53.2129 74.8359C53.2598 74.7891 53.3223 74.7656 53.4004 74.7656H54.373V72.7383C54.373 72.6367 54.3887 72.5703 54.4199 72.5391C54.459 72.5 54.5254 72.4805 54.6191 72.4805H55.1699C55.2715 72.4805 55.3418 72.5 55.3809 72.5391C55.4199 72.5703 55.4395 72.6367 55.4395 72.7383V74.7656H56.9512C57.0293 74.7656 57.0879 74.7852 57.127 74.8242C57.1738 74.8711 57.2012 74.9336 57.209 75.0117V75.4453C57.209 75.5234 57.1855 75.582 57.1387 75.6211C57.0918 75.6602 57.0293 75.6797 56.9512 75.6797H55.4395V78.8203C55.4395 79.2266 55.5059 79.5352 55.6387 79.7461C55.7715 79.9492 55.998 80.0508 56.3184 80.0508H57.0684C57.1621 80.0508 57.2246 80.0664 57.2559 80.0977C57.2949 80.1289 57.3145 80.1992 57.3145 80.3086V80.7422C57.3145 80.8203 57.2949 80.8867 57.2559 80.9414C57.2168 80.9805 57.1543 81 57.0684 81H56.2363C54.9941 81 54.373 80.3008 54.373 78.9023ZM62.0879 81.1172C61.2051 81.1172 60.5254 80.8711 60.0488 80.3789C59.5723 79.8789 59.3184 79.2188 59.2871 78.3984L59.2754 77.8828L59.2871 77.3672C59.3184 76.5469 59.5762 75.8867 60.0605 75.3867C60.5449 74.8867 61.2168 74.6367 62.0762 74.6367C62.9434 74.6367 63.6191 74.8867 64.1035 75.3867C64.5879 75.8789 64.8457 76.5391 64.877 77.3672C64.8926 77.5469 64.9004 77.7188 64.9004 77.8828C64.9082 78.0469 64.9004 78.2188 64.877 78.3984C64.8457 79.2188 64.5918 79.8789 64.1152 80.3789C63.6465 80.8711 62.9707 81.1172 62.0879 81.1172ZM62.0762 80.2148C62.5918 80.2148 62.998 80.0547 63.2949 79.7344C63.5996 79.4062 63.7637 78.9414 63.7871 78.3398C63.7949 78.2617 63.7988 78.1094 63.7988 77.8828C63.7988 77.6562 63.7949 77.5039 63.7871 77.4258C63.7637 76.8164 63.5996 76.3516 63.2949 76.0312C62.998 75.7031 62.5918 75.5391 62.0762 75.5391C61.5684 75.5391 61.166 75.7031 60.8691 76.0312C60.5723 76.3516 60.4082 76.8164 60.377 77.4258L60.3652 77.8828L60.377 78.3398C60.4004 78.9492 60.5605 79.4141 60.8574 79.7344C61.1621 80.0547 61.5684 80.2148 62.0762 80.2148ZM67.6699 83.5898C67.5684 83.5898 67.502 83.5742 67.4707 83.543C67.4395 83.5117 67.4238 83.4453 67.4238 83.3438V75.0117C67.4238 74.9102 67.4395 74.8438 67.4707 74.8125C67.5098 74.7812 67.5801 74.7656 67.6816 74.7656H68.2207C68.3145 74.7656 68.3809 74.7812 68.4199 74.8125C68.459 74.8516 68.4785 74.918 68.4785 75.0117V75.5625C68.9395 74.9453 69.5996 74.6367 70.459 74.6367C71.3027 74.6367 71.9316 74.9023 72.3457 75.4336C72.7129 75.8945 72.9355 76.5625 73.0137 77.4375C73.0215 77.5234 73.0254 77.6602 73.0254 77.8477C73.0254 78.0273 73.0215 78.1641 73.0137 78.2578C72.9902 79.0469 72.7676 79.7109 72.3457 80.25C71.9238 80.7812 71.2949 81.0469 70.459 81.0469C69.5996 81.0469 68.9512 80.7422 68.5137 80.1328V83.3438C68.5137 83.4375 68.4941 83.5039 68.4551 83.543C68.4238 83.5742 68.3613 83.5898 68.2676 83.5898H67.6699ZM71.4902 79.5703C71.7168 79.2656 71.8613 78.8047 71.9238 78.1875C71.9316 78.1094 71.9355 77.9961 71.9355 77.8477C71.9355 76.332 71.3652 75.5742 70.2246 75.5742C69.6621 75.5742 69.2402 75.7578 68.959 76.125C68.709 76.4531 68.5605 76.8828 68.5137 77.4141C68.5059 77.5 68.502 77.6562 68.502 77.8828C68.502 78.1016 68.5059 78.2578 68.5137 78.3516C68.5293 78.8125 68.6816 79.2227 68.9707 79.582C69.2676 79.9336 69.6855 80.1094 70.2246 80.1094C70.8027 80.1094 71.2246 79.9297 71.4902 79.5703Z" fill="#2D3942"/>
</svg>
