<svg width="60" height="60" viewBox="0 0 60 60" fill="none" xmlns="http://www.w3.org/2000/svg">
<rect x="0.5" y="0.5" width="59" height="59" rx="7.5" stroke="#2D3942"/>
<path d="M43.1509 30.8629L31.4589 17.3884C31.3532 17.2665 31.2225 17.1687 31.0757 17.1017C30.9289 17.0347 30.7695 17 30.6081 17C30.4468 17 30.2873 17.0347 30.1405 17.1017C29.9937 17.1687 29.8631 17.2665 29.7574 17.3884L18.0689 30.8629C18.0336 30.9035 18.0107 30.9535 18.0029 31.0067C17.9952 31.06 18.0029 31.1144 18.0252 31.1634C18.0474 31.2124 18.0833 31.2539 18.1286 31.2831C18.1738 31.3123 18.2264 31.3278 18.2803 31.3279H21.1337C21.2957 31.3279 21.4507 31.2575 21.5599 31.1342L29.2712 22.2463V42.0829C29.2712 42.2379 29.3981 42.3647 29.5531 42.3647H31.6667C31.8217 42.3647 31.9485 42.2379 31.9485 42.0829V22.2463L39.6598 31.1342C39.7655 31.2575 39.9205 31.3279 40.0861 31.3279H42.9395C43.179 31.3279 43.3094 31.0461 43.1509 30.8629Z" fill="#2D3942"/>
</svg>
