<svg width="40" height="40" viewBox="0 0 40 40" fill="none" xmlns="http://www.w3.org/2000/svg">
<path fill-rule="evenodd" clip-rule="evenodd" d="M20 2.5C15.3587 2.5 10.9075 4.34375 7.62563 7.62563C4.34375 10.9075 2.5 15.3587 2.5 20C2.5 24.6413 4.34375 29.0925 7.62563 32.3744C10.9075 35.6563 15.3587 37.5 20 37.5C24.6413 37.5 29.0925 35.6563 32.3744 32.3744C35.6563 29.0925 37.5 24.6413 37.5 20C37.5 15.3587 35.6563 10.9075 32.3744 7.62563C29.0925 4.34375 24.6413 2.5 20 2.5ZM20 0C14.6957 -4.63719e-07 9.60859 2.10713 5.85786 5.85786C2.10714 9.60859 4.63719e-07 14.6957 0 20C-4.63719e-07 25.3043 2.10713 30.3914 5.85786 34.1421C9.60859 37.8929 14.6957 40 20 40C25.3043 40 30.3914 37.8929 34.1421 34.1421C37.8929 30.3914 40 25.3043 40 20C40 14.6957 37.8929 9.60859 34.1421 5.85786C30.3914 2.10714 25.3043 4.63719e-07 20 0Z" fill="white"/>
<path fill-rule="evenodd" clip-rule="evenodd" d="M28.3851 19.115C28.269 18.9986 28.1311 18.9062 27.9792 18.8432C27.8273 18.7802 27.6645 18.7478 27.5001 18.7478C27.3357 18.7478 27.1729 18.7802 27.021 18.8432C26.8692 18.9062 26.7312 18.9986 26.6151 19.115L20.0001 25.7325L13.3851 19.115C13.1504 18.8803 12.8321 18.7484 12.5001 18.7484C12.1682 18.7484 11.8498 18.8803 11.6151 19.115C11.3804 19.3497 11.2485 19.6681 11.2485 20C11.2485 20.332 11.3804 20.6503 11.6151 20.885L19.1151 28.385C19.2312 28.5014 19.3692 28.5938 19.521 28.6568C19.6729 28.7198 19.8357 28.7522 20.0001 28.7522C20.1645 28.7522 20.3273 28.7198 20.4792 28.6568C20.6311 28.5938 20.769 28.5014 20.8851 28.385L28.3851 20.885C28.5015 20.7689 28.5939 20.631 28.6569 20.4791C28.7199 20.3272 28.7524 20.1644 28.7524 20C28.7524 19.8356 28.7199 19.6728 28.6569 19.5209C28.5939 19.3691 28.5015 19.2311 28.3851 19.115Z" fill="white"/>
<path fill-rule="evenodd" clip-rule="evenodd" d="M20 11.25C19.6685 11.25 19.3505 11.3817 19.1161 11.6161C18.8817 11.8505 18.75 12.1685 18.75 12.5V25C18.75 25.3315 18.8817 25.6495 19.1161 25.8839C19.3505 26.1183 19.6685 26.25 20 26.25C20.3315 26.25 20.6495 26.1183 20.8839 25.8839C21.1183 25.6495 21.25 25.3315 21.25 25V12.5C21.25 12.1685 21.1183 11.8505 20.8839 11.6161C20.6495 11.3817 20.3315 11.25 20 11.25Z" fill="white"/>
</svg>
