<svg width="24" height="24" viewBox="0 0 24 24" fill="none" xmlns="http://www.w3.org/2000/svg">
<path fill-rule="evenodd" clip-rule="evenodd" d="M12 1.98165C6.46702 1.98165 1.98165 6.46702 1.98165 12C1.98165 17.533 6.46702 22.0183 12 22.0183C17.533 22.0183 22.0183 17.533 22.0183 12C22.0183 6.46702 17.533 1.98165 12 1.98165ZM0 12C0 5.37258 5.37258 0 12 0C18.6274 0 24 5.37258 24 12C24 18.6274 18.6274 24 12 24C5.37258 24 0 18.6274 0 12Z" fill="#2D3942"/>
<path fill-rule="evenodd" clip-rule="evenodd" d="M11.2994 6.71079C11.6863 6.32385 12.3137 6.32385 12.7006 6.71079L17.2878 11.2979C17.6747 11.6849 17.6747 12.3122 17.2878 12.6992L12.7006 17.2863C12.3137 17.6733 11.6863 17.6733 11.2994 17.2863C10.9124 16.8994 10.9124 16.272 11.2994 15.8851L14.1937 12.9908H7.40711C6.85989 12.9908 6.41628 12.5472 6.41628 12C6.41628 11.4528 6.85989 11.0092 7.40711 11.0092H14.1965L11.2994 8.11203C10.9124 7.72509 10.9124 7.09773 11.2994 6.71079Z" fill="#2D3942"/>
</svg>
