<svg id="Capa_1" enable-background="new 0 0 512 512" height="512" viewBox="0 0 512 512" width="512" xmlns="http://www.w3.org/2000/svg"><g><path d="m507.461 3.743-2.673-.792c-1.614-.188-3.32.109-4.914 1.01l-341.112 192.802c-5.571 3.149-3.336 11.644 3.063 11.644h90.113l105.272 14.931 142.118 60.907c5.999 2.571 12.672-1.829 12.672-8.356v-264.854c0-3.331-1.922-6-4.539-7.292z" fill="#b3e59f"/><path d="m8.138 509.103c-2.69 0-5.317-1.329-6.865-3.762-2.413-3.79-1.294-8.813 2.492-11.222l80.087-50.964 8.981-13.239-1.42-9.443 13.708-41.115c3.024-9.087 9.841-16.405 18.69-20.067 8.833-3.663 18.833-3.317 27.413.972 10.778 5.393 17.587 15.794 18.206 27.833.627 12.04-5.079 23.095-15.246 29.571l-56.737 36.103-.397 1.186c-2.96 8.873-1.516 18.329 3.96 25.932 5.484 7.599 14 11.96 23.373 11.96 24.151 0 46.722-11.901 60.365-31.841l90.38-132.098c2.524-3.698 7.579-4.659 11.294-2.119 3.706 2.532 4.651 7.591 2.119 11.294l-90.38 132.102c-16.674 24.369-44.254 38.916-73.777 38.916-14.659 0-27.984-6.821-36.555-18.71-5.413-7.516-8.309-16.19-8.54-25.067l-66.793 42.508c-1.358.862-2.866 1.27-4.358 1.27zm128.317-136.074c-2.183 0-4.365.425-6.421 1.278-4.5 1.861-7.96 5.575-9.5 10.194l-7.378 22.137-14.906 16.779 7.348 5.902 39.857-25.365c5.167-3.286 8.063-8.901 7.746-15.02-.317-6.111-3.77-11.397-9.246-14.131-2.357-1.179-4.929-1.774-7.5-1.774z" fill="#b3e59f"/><path d="m506.494 3.338c-.548-.19-1.116-.321-1.706-.388l-252.85 205.457 31.492 62.984 63.237-54.391 160.794-213.257z" fill="#95d6a4"/><path d="m506.494 3.338-223.064 268.053 10.92 21.839c2.849 5.698 10.771 6.239 14.368.982l198.743-290.469c-.251-.124-.705-.309-.967-.405z" fill="#78c2a4"/><path d="m105.598 429.318 7.558-22.68-21.742 13.836-7.562 22.681-.982.625z" fill="#95d6a4"/></g></svg>