<svg width="66" height="66" viewBox="0 0 66 66" fill="none" xmlns="http://www.w3.org/2000/svg">
<g filter="url(#filter0_d)">
<circle cx="33" cy="33" r="25" fill="#EA4B65"/>
</g>
<path d="M50.9306 40.1947L46.7615 23.6645C46.7341 23.6096 46.7341 23.5547 46.7066 23.4998C47.3924 22.2367 48.1329 20.6166 48.6815 18.7494C48.6815 18.7494 49.2575 16.8547 48.0506 16.1957C48.0506 16.1957 47.0632 15.6466 46.1855 16.388C46.1855 16.388 45.8838 16.5802 45.7192 17.1843C45.7192 17.1843 45.1432 19.6281 43.7444 22.1817L17.6327 28.7993C16.4807 29.1013 15.7676 30.2821 16.0693 31.4353L20.2384 47.9655C20.5401 49.1187 21.7195 49.8327 22.8715 49.5306L49.3946 42.8307C50.5192 42.5561 51.2323 41.3754 50.9306 40.1947ZM39.0542 32.2591L36.7502 35.966L38.5056 39.9475C38.5605 40.0299 38.533 40.1672 38.4507 40.2221C38.3959 40.3045 38.2862 40.332 38.1765 40.3045L33.9525 39.2611L30.716 42.1717C30.6611 42.2266 30.6063 42.2541 30.524 42.2541C30.4966 42.2541 30.4417 42.2541 30.4143 42.2266C30.3046 42.1991 30.2497 42.0893 30.2497 41.9795L29.9206 37.641L26.1629 35.4443C26.0806 35.3894 26.0258 35.2796 26.0258 35.1972C26.0258 35.0873 26.108 35.005 26.1903 34.95L30.2497 33.3025L31.1823 29.0464C31.2097 28.9366 31.292 28.8542 31.3743 28.8268C31.484 28.7993 31.5937 28.8268 31.6485 28.9091L34.4462 32.2316L38.7799 31.7923C38.8896 31.7923 38.9719 31.8198 39.0267 31.9296C39.0816 32.0394 39.109 32.1493 39.0542 32.2591ZM42.7296 29.2112C41.2484 29.2112 40.069 28.0304 40.069 26.5477C40.069 25.0924 41.221 23.9116 42.6747 23.8842C42.5101 24.1039 42.3456 24.3235 42.181 24.5432C42.181 24.5432 40.8644 26.1358 42.1261 27.1243C42.1261 27.1243 43.4153 28.1128 44.7044 26.5751C44.7044 26.5751 44.9238 26.3005 45.2804 25.7788C45.3627 26.026 45.3901 26.2731 45.3901 26.5202C45.3901 28.0304 44.2107 29.2112 42.7296 29.2112Z" fill="white"/>
<defs>
<filter id="filter0_d" x="0" y="0" width="66" height="66" filterUnits="userSpaceOnUse" color-interpolation-filters="sRGB">
<feFlood flood-opacity="0" result="BackgroundImageFix"/>
<feColorMatrix in="SourceAlpha" type="matrix" values="0 0 0 0 0 0 0 0 0 0 0 0 0 0 0 0 0 0 127 0"/>
<feOffset/>
<feGaussianBlur stdDeviation="4"/>
<feColorMatrix type="matrix" values="0 0 0 0 0 0 0 0 0 0 0 0 0 0 0 0 0 0 0.1 0"/>
<feBlend mode="normal" in2="BackgroundImageFix" result="effect1_dropShadow"/>
<feBlend mode="normal" in="SourceGraphic" in2="effect1_dropShadow" result="shape"/>
</filter>
</defs>
</svg>
