<svg width="22" height="22" viewBox="0 0 22 22" fill="none" xmlns="http://www.w3.org/2000/svg">
<path d="M10.125 16.2031C9.94792 16.026 9.85938 15.8125 9.85938 15.5625C9.85938 15.3125 9.94792 15.099 10.125 14.9219C10.3021 14.7448 10.5156 14.6562 10.7656 14.6562C11.0156 14.6562 11.2292 14.7448 11.4062 14.9219C11.5833 15.099 11.6719 15.3125 11.6719 15.5625C11.6719 15.8125 11.5833 16.026 11.4062 16.2031C11.2292 16.3802 11.0156 16.4688 10.7656 16.4688C10.5156 16.4688 10.3021 16.3802 10.125 16.2031ZM10.4375 13.7812C10.3333 13.7812 10.2448 13.75 10.1719 13.6875C10.1094 13.625 10.0781 13.5365 10.0781 13.4219V12.7656C10.0781 12.224 10.2188 11.7396 10.5 11.3125C10.7292 10.9688 11.1198 10.5052 11.6719 9.92188C12.1094 9.45312 12.3958 9.13542 12.5312 8.96875C12.6562 8.80208 12.7656 8.51042 12.8594 8.09375C12.8698 8.05208 12.875 7.98438 12.875 7.89062C12.875 7.38021 12.6667 6.97917 12.25 6.6875C11.8333 6.39583 11.3281 6.25 10.7344 6.25C10.1302 6.25 9.625 6.40625 9.21875 6.71875C8.82292 7.02083 8.55729 7.53125 8.42188 8.25C8.38021 8.47917 8.23958 8.59375 8 8.59375H7.34375C7.25 8.59375 7.16667 8.5625 7.09375 8.5C7.03125 8.4375 7 8.35417 7 8.25C7.02083 7.66667 7.1875 7.125 7.5 6.625C7.8125 6.125 8.25521 5.72917 8.82812 5.4375C9.40104 5.14583 10.0521 5 10.7812 5C11.5625 5 12.2188 5.13542 12.75 5.40625C13.2917 5.66667 13.6875 6.01562 13.9375 6.45312C14.1979 6.88021 14.3281 7.33333 14.3281 7.8125C14.3281 8.35417 14.2031 8.82292 13.9531 9.21875C13.7135 9.61458 13.349 10.0729 12.8594 10.5938C12.4531 11.0312 12.1458 11.401 11.9375 11.7031C11.7292 12.026 11.6146 12.3646 11.5938 12.7188C11.5833 13.0208 11.5729 13.2448 11.5625 13.3906C11.5312 13.651 11.3958 13.7812 11.1562 13.7812H10.4375Z" fill="#576168"/>
<circle cx="11" cy="11" r="10" stroke="#576168" stroke-width="1.5"/>
</svg>
