<svg width="60" height="60" viewBox="0 0 60 60" fill="none" xmlns="http://www.w3.org/2000/svg">
<path d="M59.881 43.6976L52.734 15.2092C52.687 15.1145 52.687 15.0199 52.64 14.9253C53.8155 12.7484 55.085 9.95634 56.0254 6.73838C56.0254 6.73838 57.0128 3.47309 54.9439 2.33734C54.9439 2.33734 53.2512 1.39088 51.7466 2.6686C51.7466 2.6686 51.2294 2.99986 50.9473 4.04097C50.9473 4.04097 49.9598 8.25271 47.5618 12.6537L2.79893 24.0586C0.824091 24.5791 -0.398425 26.614 0.118793 28.6016L7.26581 57.09C7.78303 59.0776 9.80488 60.308 11.7797 59.7874L57.2479 48.2406C59.1757 47.7674 60.3982 45.7325 59.881 43.6976ZM39.5214 30.0213L35.5718 36.4099L38.581 43.2717C38.6751 43.4137 38.6281 43.6503 38.487 43.7449C38.393 43.8869 38.2049 43.9342 38.0168 43.8869L30.7757 42.0886L25.2274 47.1049C25.1334 47.1995 25.0393 47.2468 24.8983 47.2468C24.8512 47.2468 24.7572 47.2468 24.7102 47.1995C24.5221 47.1522 24.4281 46.9629 24.4281 46.7736L23.8638 39.2966L17.4221 35.5107C17.281 35.4161 17.187 35.2268 17.187 35.0848C17.187 34.8955 17.3281 34.7536 17.4691 34.6589L24.4281 31.8195L26.0267 24.4845C26.0738 24.2952 26.2148 24.1532 26.3559 24.1059C26.544 24.0586 26.732 24.1059 26.8261 24.2479L31.6221 29.974L39.0512 29.2168C39.2393 29.2168 39.3804 29.2641 39.4744 29.4534C39.5685 29.6427 39.6155 29.832 39.5214 30.0213ZM45.8221 24.7684C43.283 24.7684 41.2612 22.7335 41.2612 20.1781C41.2612 17.67 43.236 15.6351 45.7281 15.5878C45.4459 15.9664 45.1638 16.3449 44.8817 16.7235C44.8817 16.7235 42.6247 19.4683 44.7877 21.1719C44.7877 21.1719 46.9976 22.8755 49.2075 20.2254C49.2075 20.2254 49.5837 19.7522 50.1949 18.8531C50.336 19.279 50.383 19.7049 50.383 20.1308C50.383 22.7335 48.3612 24.7684 45.8221 24.7684Z" fill="#EA4B65"/>
</svg>
