<svg width="25" height="24" viewBox="0 0 25 24" fill="none" xmlns="http://www.w3.org/2000/svg">
<path d="M13.033 19.3232C13.139 18.9275 13.1174 18.5264 12.9944 18.1653C13.8142 18.1022 14.5451 17.5313 14.7698 16.6927C14.8758 16.2969 14.8542 15.8959 14.7312 15.5348C15.551 15.4717 16.2818 14.9008 16.5065 14.0621C16.6005 13.7117 16.5943 13.3571 16.5055 13.0299L19.653 13.8733C20.7151 14.1579 21.8101 13.5256 22.0947 12.4636C22.3793 11.4016 21.747 10.3065 20.685 10.0219L12.5009 7.82901L14.2039 6.49178C15.2142 5.69851 15.4922 4.26019 14.8503 3.14705C14.438 2.43287 13.5224 2.18752 12.8082 2.59985L4.11345 7.61975C3.07577 8.21886 2.33363 9.18614 2.02352 10.3435L1.41905 12.5994C0.636564 15.5197 2.3754 18.5314 5.29568 19.3139L10.5913 20.7329C11.6533 21.0174 12.7484 20.3852 13.033 19.3232ZM5.55372 18.3511C3.16493 17.711 1.74185 15.2461 2.38193 12.8574L2.98614 10.6024C3.22737 9.70211 3.8046 8.94969 4.61159 8.48381L13.3063 3.4639C13.5443 3.32645 13.8496 3.40824 13.987 3.6463C14.2055 4.02474 14.2511 4.46317 14.1438 4.86373C14.0565 5.18918 13.868 5.48849 13.5882 5.70864L11.1014 7.66041C10.9527 7.77638 10.883 7.9672 10.9209 8.15283C10.9592 8.33745 11.0981 8.48513 11.2801 8.53389L20.427 10.9848C20.9575 11.1269 21.274 11.6751 21.1318 12.2056C20.9897 12.7361 20.4415 13.0526 19.911 12.9104L12.6898 10.9755C12.424 10.9043 12.1506 11.0622 12.0793 11.3279C12.0081 11.5937 12.166 11.8672 12.4318 11.9384L14.8389 12.5833C15.3694 12.7255 15.6858 13.2737 15.5437 13.8041C15.4015 14.3347 14.8534 14.6511 14.3229 14.509L11.9158 13.864C11.6501 13.7928 11.3766 13.9507 11.3054 14.2164C11.2342 14.4822 11.3921 14.7557 11.6578 14.8269L13.1021 15.2139C13.6326 15.356 13.949 15.9042 13.8069 16.4347C13.6647 16.9652 13.1166 17.2816 12.5861 17.1395L11.1418 16.7525C10.8761 16.6813 10.6026 16.8392 10.5314 17.1049C10.4602 17.3707 10.6181 17.6442 10.8838 17.7154L11.3653 17.8444C11.8958 17.9865 12.2122 18.5347 12.0701 19.0652C11.928 19.5957 11.3798 19.9122 10.8493 19.77L5.55372 18.3511V18.3511Z" fill="#F3A024"/>
</svg>
