<svg width="36" height="36" viewBox="0 0 36 36" fill="none" xmlns="http://www.w3.org/2000/svg">
<circle cx="18" cy="18" r="18" fill="white"/>
<path d="M18 21.3558C19.844 21.3558 21.3389 19.8609 21.3389 18.0168C21.3389 16.1728 19.844 14.6779 18 14.6779C16.156 14.6779 14.6611 16.1728 14.6611 18.0168C14.6611 19.8609 16.156 21.3558 18 21.3558Z" fill="#6ACFED"/>
<path fill-rule="evenodd" clip-rule="evenodd" d="M13.3827 8C10.4099 8 8 10.4099 8 13.3827V22.6173C8 25.5901 10.4099 28 13.3827 28H22.6173C25.5901 28 28 25.5901 28 22.6173V13.3827C28 10.4099 25.5901 8 22.6173 8H13.3827ZM18.0084 23.677C21.1391 23.677 23.677 21.1391 23.677 18.0084C23.677 14.8777 21.1391 12.3398 18.0084 12.3398C14.8777 12.3398 12.3398 14.8777 12.3398 18.0084C12.3398 21.1391 14.8777 23.677 18.0084 23.677ZM25.9142 11.2969C25.9142 11.9379 25.3946 12.4575 24.7536 12.4575C24.1126 12.4575 23.5929 11.9379 23.5929 11.2969C23.5929 10.6559 24.1126 10.1362 24.7536 10.1362C25.3946 10.1362 25.9142 10.6559 25.9142 11.2969Z" fill="#6ACFED"/>
</svg>
