<svg width="24" height="24" viewBox="0 0 24 24" fill="none" xmlns="http://www.w3.org/2000/svg">
<path fill-rule="evenodd" clip-rule="evenodd" d="M22.0184 12C22.0184 6.46702 17.533 1.98165 12 1.98165C6.467 1.98165 1.9817 6.46702 1.9817 12C1.9817 17.533 6.467 22.0183 12 22.0183C17.533 22.0183 22.0184 17.533 22.0184 12ZM12 0C18.6274 0 24 5.37258 24 12C24 18.6274 18.6274 24 12 24C5.3726 24 0 18.6274 0 12C0 5.37258 5.3726 0 12 0Z" fill="#6ACFED"/>
<path fill-rule="evenodd" clip-rule="evenodd" d="M17.2893 11.2994C17.6762 11.6863 17.6762 12.3137 17.2893 12.7006L12.7022 17.2878C12.3152 17.6747 11.6879 17.6747 11.3009 17.2878L6.71375 12.7006C6.32675 12.3137 6.32675 11.6863 6.71375 11.2994C7.10065 10.9124 7.72805 10.9124 8.11495 11.2994L11.0093 14.1937V7.40709C11.0093 6.85987 11.4529 6.41626 12.0001 6.41626C12.5473 6.41626 12.9909 6.85987 12.9909 7.40709V14.1965L15.888 11.2994C16.275 10.9124 16.9023 10.9124 17.2893 11.2994Z" fill="#6ACFED"/>
</svg>
