<svg width="48" height="48" viewBox="0 0 48 48" fill="none" xmlns="http://www.w3.org/2000/svg">
<path d="M27.66 38C27.3612 38.001 27.066 37.935 26.796 37.807C26.526 37.6789 26.2882 37.492 26.1 37.26L16.44 25.26C16.1458 24.9021 15.985 24.4532 15.985 23.99C15.985 23.5267 16.1458 23.0778 16.44 22.72L26.44 10.72C26.7794 10.3115 27.2673 10.0547 27.7961 10.0059C28.325 9.95717 28.8515 10.1205 29.26 10.46C29.6684 10.7994 29.9252 11.2873 29.974 11.8161C30.0228 12.345 29.8594 12.8715 29.52 13.28L20.58 24L29.22 34.72C29.4645 35.0135 29.6199 35.371 29.6676 35.7501C29.7154 36.1292 29.6536 36.5141 29.4895 36.8591C29.3253 37.2042 29.0658 37.495 28.7416 37.6972C28.4174 37.8994 28.042 38.0044 27.66 38Z" fill="#576168"/>
</svg>
