<svg width="48" height="48" viewBox="0 0 48 48" fill="none" xmlns="http://www.w3.org/2000/svg">
<path d="M20.3399 38C20.6387 38.001 20.9339 37.935 21.2039 37.807C21.4738 37.6789 21.7117 37.492 21.8999 37.26L31.5599 25.26C31.8541 24.9021 32.0149 24.4532 32.0149 23.99C32.0149 23.5267 31.8541 23.0778 31.5599 22.72L21.5599 10.72C21.2204 10.3115 20.7326 10.0547 20.2038 10.0059C19.6749 9.95717 19.1484 10.1205 18.7399 10.46C18.3315 10.7994 18.0746 11.2873 18.0259 11.8161C17.9771 12.345 18.1404 12.8715 18.4799 13.28L27.4199 24L18.7799 34.72C18.5354 35.0135 18.38 35.371 18.3322 35.7501C18.2845 36.1292 18.3463 36.5141 18.5104 36.8591C18.6745 37.2042 18.9341 37.495 19.2583 37.6972C19.5825 37.8994 19.9578 38.0044 20.3399 38Z" fill="#576168"/>
</svg>
