<svg width="88" height="66" viewBox="0 0 88 66" fill="none" xmlns="http://www.w3.org/2000/svg">
<path fill-rule="evenodd" clip-rule="evenodd" d="M43.76 3.5012C43.76 1.79568 42.5023 0.413086 40.9507 0.413086H26.479C21.578 0.413086 17.605 4.78039 17.605 10.1677C17.605 14.4431 20.1071 18.076 23.5895 19.3936C24.4953 19.7363 25.4674 19.9224 26.479 19.9224H49.4494H49.6262H63.8333H65.4781C66.8968 19.9224 68.0469 21.1866 68.0469 22.7461C68.0469 24.3056 66.8968 25.5698 65.4781 25.5698H63.8333H49.6262H49.4494H26.479H22.762H19.0247H18.7726C18.6016 25.5698 18.4318 25.5756 18.2633 25.587C8.54624 26.0257 0.791016 34.8238 0.791016 45.613C0.791016 56.6825 8.95452 65.6561 19.0247 65.6561C19.4188 65.6561 19.81 65.6423 20.1979 65.6153H45.6212C47.1728 65.6153 48.4306 64.2327 48.4306 62.5271C48.4306 60.8216 47.1728 59.439 45.6212 59.439H20.1979C20.0791 59.439 19.9603 59.4432 19.8418 59.4514C19.5724 59.4702 19.2999 59.4798 19.0247 59.4798C12.0576 59.4798 6.40968 53.2714 6.40968 45.613C6.40968 38.1499 11.7752 32.0614 18.4939 31.758C18.532 31.7563 18.5701 31.7542 18.6081 31.7516C18.6618 31.748 18.7166 31.7461 18.7726 31.7461H19.0247H49.6262H65.4781C69.9999 31.7461 73.6655 27.7167 73.6655 22.7461C73.6655 17.7756 69.9999 13.7462 65.4781 13.7462H49.4494H26.479C24.6811 13.7462 23.2236 12.144 23.2236 10.1677C23.2236 8.19144 24.6811 6.58932 26.479 6.58932H40.9507C42.5023 6.58932 43.76 5.20673 43.76 3.5012ZM50.2988 3.5012C50.2988 5.20673 51.5566 6.58932 53.1081 6.58932H66.1786C66.2893 6.58932 66.397 6.59517 66.5018 6.60629C66.8061 6.63856 67.1123 6.64348 67.4173 6.621C67.7019 6.60003 67.9896 6.58932 68.2804 6.58932C75.4333 6.58932 81.5774 13.2645 81.5774 21.976C81.5774 30.6875 75.4333 37.3627 68.2804 37.3627C68.1497 37.3627 68.0195 37.3605 67.8899 37.3562C67.7492 37.3516 67.6083 37.3527 67.4677 37.3597C67.4278 37.3617 67.3873 37.3627 67.3463 37.3627H37.162H33.4918C31.9403 37.3627 30.6825 38.7453 30.6825 40.4508C30.6825 42.1563 31.9403 43.5389 33.4918 43.5389H37.162H37.1657H61.7416H67.3463C67.4718 43.5389 67.5966 43.5358 67.7207 43.5297C67.9066 43.5358 68.0932 43.5389 68.2804 43.5389C68.4185 43.5389 68.5562 43.5372 68.6936 43.5339C78.9496 43.2833 87.1961 33.7275 87.1961 21.976C87.1961 10.0671 78.7273 0.413086 68.2804 0.413086C68.1549 0.413086 68.0296 0.41448 67.9046 0.417255C67.5384 0.42539 67.1718 0.421471 66.8053 0.417553C66.5964 0.415319 66.3875 0.413086 66.1786 0.413086H53.1081C51.5566 0.413086 50.2988 1.79568 50.2988 3.5012ZM61.7416 65.6153H57.7787C56.2271 65.6153 54.9693 64.2327 54.9693 62.5271C54.9693 60.8216 56.2271 59.439 57.7787 59.439H61.7416C63.1526 59.439 64.2964 58.1817 64.2964 56.6307C64.2964 55.0797 63.1526 53.8224 61.7416 53.8224H37.1657H28.32H21.3414C17.2065 53.8224 13.8545 50.1378 13.8545 45.5925C13.8545 41.0473 17.2065 37.3627 21.3414 37.3627C22.8891 37.3627 24.1437 38.7495 24.1437 40.4508C24.1437 42.1521 22.8891 43.5389 21.3414 43.5389C20.3096 43.5389 19.4732 44.4584 19.4732 45.5925C19.4732 46.7267 20.3096 47.6462 21.3414 47.6462H24.5942H28.32H37.162H37.1657H61.7416C63.7254 47.6462 65.5442 48.4231 66.9598 49.7152C68.7654 51.3632 69.9151 53.8494 69.9151 56.6307C69.9151 61.5927 66.2557 65.6153 61.7416 65.6153Z" fill="#4F7D96"/>
</svg>
