<svg width="94" height="92" viewBox="0 0 94 92" fill="none" xmlns="http://www.w3.org/2000/svg">
<path fill-rule="evenodd" clip-rule="evenodd" d="M88.9836 51.8087C86.6125 51.6227 84.7534 49.5401 84.7755 47.1681C84.7766 47.0481 84.7772 46.928 84.7772 46.8078C84.7772 25.8075 67.7081 8.78346 46.6523 8.78345C25.5965 8.78345 8.52747 25.8075 8.52747 46.8078C8.52748 64.12 20.1277 78.7299 35.9987 83.3276C37.4965 83.7615 38.6047 85.0142 38.9373 86.534C39.5603 89.3817 37.4095 92.5176 34.586 91.7657C14.6695 86.462 -1.02877e-06 68.3435 -1.97012e-06 46.8078C-3.09339e-06 21.1103 20.887 0.278464 46.6523 0.278463C72.4177 0.278462 93.3046 21.1103 93.3046 46.8078C93.3046 47.2699 93.2979 47.7305 93.2845 48.1895C93.2192 50.4196 91.2137 51.9837 88.9836 51.8087Z" fill="#4F7D96"/>
</svg>
