<svg width="47" height="42" viewBox="0 0 47 42" fill="none" xmlns="http://www.w3.org/2000/svg">
<path d="M46.9913 32.3288C46.9913 28.8799 45.0042 25.796 42.0347 24.3088L40.9429 15.9058C40.9416 15.8958 40.9402 15.8859 40.9389 15.8758C40.2432 10.9031 37.4914 6.48672 33.3888 3.75887C30.5311 1.85891 27.0128 0.8125 23.4819 0.8125C19.9511 0.8125 16.4329 1.85891 13.5751 3.75902C9.47239 6.48672 6.72067 10.9033 6.02499 15.876C6.02345 15.8871 6.02191 15.8983 6.02052 15.9092L4.92912 24.3808C2.01916 25.889 0.125977 28.906 0.125977 32.3288C0.125977 37.2685 4.13612 41.2871 9.06541 41.2871H38.0517C42.9812 41.2871 46.9913 37.2685 46.9913 32.3288ZM16.9855 8.91011C18.8168 7.69262 21.1847 6.99424 23.4819 6.99424C25.7792 6.99424 28.147 7.69262 29.9784 8.91011C32.607 10.6578 34.3739 13.5036 34.8278 16.7198L36.1605 26.9775C36.3308 28.2885 37.3142 29.3457 38.6074 29.608C39.8909 29.8682 40.8224 31.0126 40.8224 32.329C40.8224 33.8601 39.5794 35.1055 38.0517 35.1055H9.06557C7.53772 35.1055 6.29488 33.8599 6.29488 32.329C6.29488 31.0477 7.19767 29.9102 8.44145 29.6243C9.69987 29.335 10.6454 28.2908 10.8107 27.0075L12.1364 16.7184C12.5905 13.503 14.3574 10.6575 16.9855 8.91011ZM30.1867 26.4667C30.1867 24.7596 28.8059 23.3758 27.1024 23.3758H19.3914C17.6879 23.3758 16.3071 24.7596 16.3071 26.4667C16.3071 28.1738 17.6879 29.5576 19.3914 29.5576H27.1024C28.8059 29.5576 30.1867 28.1738 30.1867 26.4667Z" fill="#8DBAD3"/>
</svg>
