<svg width="67" height="66" viewBox="0 0 67 66" fill="none" xmlns="http://www.w3.org/2000/svg">
<path d="M66.6716 32.9625C66.6716 35.0418 64.9809 36.7274 62.8952 36.7274H20.8599C21.3508 46.3295 23.6938 54.8408 25.5055 60.6371C26.126 62.6223 25.0148 64.7332 23.0235 65.3518C22.6497 65.4679 22.2711 65.5231 21.8989 65.5231C20.2898 65.5231 18.7986 64.4896 18.2946 62.8772C16.332 56.5977 13.7877 47.3252 13.2981 36.7272H3.98435C1.89867 36.7272 0.208008 35.0417 0.208008 32.9623C0.208008 30.8829 1.89867 29.1973 3.98435 29.1973H13.3164C13.85 18.7517 16.374 9.61508 18.3261 3.40404C18.9498 1.41972 21.0691 0.314712 23.0588 0.937247C25.0491 1.55903 26.1569 3.67135 25.5333 5.65567C23.734 11.3799 21.414 19.7501 20.8803 29.1975H46.1445C45.6108 19.7501 43.2906 11.3799 41.4917 5.65586C40.868 3.67154 41.9758 1.55903 43.9662 0.937434C45.9567 0.316406 48.0752 1.42029 48.6989 3.40423C50.6508 9.61527 53.175 18.7519 53.7085 29.1975H62.8952C64.9809 29.1975 66.6716 30.8831 66.6716 32.9625Z" fill="#4F7D96"/>
</svg>
