<svg width="32" height="32" viewBox="0 0 32 32" fill="none" xmlns="http://www.w3.org/2000/svg">
<path d="M28.8659 2C29.6001 2 30.1953 2.59518 30.1953 3.32938L30.1953 3.99406C30.1953 4.72826 29.6001 5.32344 28.8659 5.32344C28.1317 5.32344 27.5366 4.72826 27.5366 3.99406L27.5366 3.32938C27.5366 2.59518 28.1317 2 28.8659 2Z" fill="#4F7D96"/>
<path d="M3.27549 2C4.03591 2 4.65234 2.61644 4.65234 3.37685L4.65234 3.94659C4.65234 4.707 4.0359 5.32344 3.27549 5.32344C2.51507 5.32344 1.89864 4.707 1.89864 3.94659L1.89864 3.37685C1.89864 2.61644 2.51507 2 3.27549 2Z" fill="#4F7D96"/>
<path d="M28.8659 27.543C29.6001 27.543 30.1953 28.1382 30.1953 28.8723L30.1953 29.537C30.1953 30.2712 29.6001 30.8664 28.8659 30.8664C28.1317 30.8664 27.5366 30.2712 27.5366 29.537L27.5366 28.8723C27.5366 28.1382 28.1317 27.543 28.8659 27.543Z" fill="#4F7D96"/>
<path d="M3.27549 27.543C4.03591 27.543 4.65234 28.1594 4.65234 28.9198L4.65234 29.4896C4.65234 30.25 4.0359 30.8664 3.27549 30.8664C2.51507 30.8664 1.89864 30.25 1.89864 29.4896L1.89864 28.9198C1.89864 28.1594 2.51507 27.543 3.27549 27.543Z" fill="#4F7D96"/>
<path fill-rule="evenodd" clip-rule="evenodd" d="M30.1958 26.4033V6.55765C30.1958 5.98078 29.7282 5.51314 29.1513 5.51314H28.4866C27.9098 5.51314 27.4421 5.98078 27.4421 6.55765V26.4033C27.4421 26.9802 27.9098 27.4479 28.4866 27.4479H29.1513C29.7282 27.4479 30.1958 26.9802 30.1958 26.4033ZM4.55786 26.4033L4.55786 6.55765C4.55786 5.98078 4.09022 5.51314 3.51335 5.51314H2.84867C2.2718 5.51314 1.80415 5.98078 1.80415 6.55765L1.80415 26.4033C1.80415 26.9802 2.2718 27.4479 2.84866 27.4479H3.51335C4.09022 27.4479 4.55786 26.9802 4.55786 26.4033ZM32 6.55765C32 4.98437 30.7246 3.70898 29.1513 3.70898H28.4866C26.9134 3.70898 25.638 4.98437 25.638 6.55765V26.4033C25.638 27.9766 26.9134 29.252 28.4866 29.252H29.1513C30.7246 29.252 32 27.9766 32 26.4033V6.55765ZM6.36202 6.55765C6.36202 4.98438 5.08663 3.70898 3.51335 3.70898L2.84867 3.70898C1.27539 3.70898 9.36253e-07 4.98437 8.67483e-07 6.55765L0 26.4033C0 27.9766 1.27539 29.252 2.84866 29.252H3.51335C5.08663 29.252 6.36202 27.9766 6.36202 26.4033L6.36202 6.55765Z" fill="#4F7D96"/>
<path fill-rule="evenodd" clip-rule="evenodd" d="M7.2153 6.93784C7.2153 6.41341 7.64043 5.98828 8.16485 5.98828L18.2301 5.98828C18.7546 5.98828 19.1797 6.41341 19.1797 6.93784C19.1797 7.46226 18.7546 7.88739 18.2301 7.88739L8.16485 7.88739C7.64043 7.88739 7.2153 7.46226 7.2153 6.93784ZM7.2153 25.9289C7.2153 26.4534 7.64043 26.8785 8.16485 26.8785L18.2301 26.8785C18.7546 26.8785 19.1797 26.4534 19.1797 25.9289C19.1797 25.4045 18.7546 24.9794 18.2301 24.9794L8.16485 24.9794C7.64043 24.9794 7.2153 25.4045 7.2153 25.9289Z" fill="#4F7D96"/>
<path d="M21.0892 20.1864C20.3897 20.2604 19.8342 20.3098 19.4228 20.3345C19.0195 20.3592 18.6986 20.3468 18.4599 20.2975C18.2213 20.2563 18.032 20.174 17.8921 20.0506C17.7604 19.9354 17.6164 19.7708 17.46 19.5568C17.2708 19.3017 17.1062 19.0754 16.9663 18.8779C16.8264 18.6804 16.6947 18.4952 16.5712 18.3224C15.6578 19.3182 14.5262 19.8613 13.1766 19.9518C12.8145 19.9683 12.6252 19.9271 12.6088 19.8284C12.5923 19.7296 12.7281 19.6226 13.0161 19.5074C13.3041 19.4004 13.5881 19.2688 13.8679 19.1124C14.1477 18.9561 14.411 18.7832 14.6579 18.594C14.913 18.4047 15.1475 18.2072 15.3615 18.0014C15.5837 17.7957 15.7771 17.5858 15.9417 17.3719C15.6372 16.911 15.3903 16.5366 15.201 16.2486C15.0118 15.9523 14.8472 15.7178 14.7073 15.5449C14.5756 15.3721 14.4522 15.2446 14.3369 15.1623C14.2217 15.0717 14.0901 15.0018 13.9419 14.9524C13.6045 14.829 13.4605 14.6973 13.5099 14.5574C13.5675 14.4093 13.802 14.327 14.2135 14.3105C14.4192 14.3023 14.5962 14.3105 14.7443 14.3352C14.8924 14.3599 15.0241 14.4134 15.1393 14.4957C15.2545 14.5697 15.3656 14.6808 15.4726 14.829C15.5878 14.9771 15.7195 15.1746 15.8676 15.4215C15.917 15.5038 16.0034 15.6355 16.1269 15.8165C16.2503 15.9976 16.3861 16.1868 16.5342 16.3843C16.7811 15.8906 16.9704 15.4215 17.102 14.9771C17.2337 14.5327 17.3284 14.1048 17.386 13.6933C17.4024 13.6028 17.3942 13.5452 17.3613 13.5205C17.3284 13.4876 17.2502 13.4835 17.1267 13.5081C16.9375 13.5411 16.7605 13.574 16.5959 13.6069C16.4313 13.6398 16.2297 13.6892 15.9911 13.755C15.6948 13.8456 15.4603 13.9114 15.2875 13.9525C15.1146 13.9937 14.9747 14.0184 14.8677 14.0266C14.7608 14.0348 14.6702 14.0225 14.5962 13.9896C14.5303 13.9567 14.4522 13.9073 14.3616 13.8414C14.016 13.6028 13.8514 13.4505 13.8679 13.3847C13.8926 13.3106 14.053 13.2654 14.3493 13.2489C14.6126 13.2325 14.8883 13.2078 15.1764 13.1749C15.4726 13.1337 15.7689 13.072 16.0651 12.9897C16.3861 12.8992 16.6741 12.8086 16.9292 12.7181C17.1843 12.6194 17.386 12.4959 17.5341 12.3478C17.5999 12.282 17.6617 12.2326 17.7193 12.1997C17.7769 12.1667 17.8468 12.1544 17.9291 12.1626C18.0114 12.1709 18.106 12.1997 18.213 12.249C18.3282 12.2902 18.4723 12.3519 18.6451 12.4342C18.9166 12.5823 19.1265 12.7099 19.2746 12.8169C19.4228 12.9156 19.5133 13.0061 19.5462 13.0884C19.5874 13.1707 19.5709 13.253 19.4968 13.3353C19.431 13.4094 19.324 13.4958 19.1759 13.5946C19.0524 13.6768 18.9331 13.8332 18.8179 14.0636C18.7027 14.2858 18.5998 14.5286 18.5093 14.7919C18.4188 15.0635 18.3324 15.3145 18.2501 15.5449C18.1678 15.7671 18.0772 15.9811 17.9785 16.1868C17.888 16.3843 17.7892 16.5777 17.6822 16.767C17.5752 16.9481 17.4559 17.1373 17.3242 17.3348C17.5629 17.5982 17.8098 17.8327 18.0649 18.0385C18.3282 18.2442 18.608 18.4376 18.9043 18.6186C19.2088 18.7915 19.538 18.9602 19.8918 19.1248C20.2457 19.2811 20.6448 19.4457 21.0892 19.6185C21.4102 19.742 21.5665 19.8572 21.5583 19.9642C21.5583 20.0711 21.402 20.1452 21.0892 20.1864Z" fill="#EAB604"/>
<path d="M13.3029 13.0067C13.3194 13.2042 13.3029 13.3606 13.2535 13.4758C13.2042 13.591 13.1342 13.6733 13.0437 13.7227C12.9614 13.7638 12.8627 13.7762 12.7474 13.7597C12.6405 13.7433 12.5335 13.698 12.4265 13.6239C12.2454 13.5005 12.0808 13.3565 11.9327 13.1919C11.7846 13.0191 11.6406 12.8339 11.5007 12.6364C11.3361 12.3977 11.2744 12.2414 11.3155 12.1673C11.3649 12.085 11.5789 12.0521 11.9574 12.0686C12.41 12.085 12.7392 12.1673 12.9449 12.3155C13.1507 12.4636 13.27 12.694 13.3029 13.0067ZM12.4265 15.4262C12.4347 15.8459 12.3442 16.1134 12.1549 16.2286C11.9739 16.3356 11.7805 16.2944 11.5747 16.1051C11.4184 15.957 11.2579 15.8006 11.0933 15.636C10.937 15.4715 10.7765 15.2698 10.6119 15.0312C10.472 14.8172 10.4391 14.6732 10.5131 14.5991C10.5954 14.5168 10.8135 14.488 11.1674 14.5127C11.6447 14.5539 11.9698 14.6526 12.1426 14.809C12.3154 14.9571 12.41 15.1629 12.4265 15.4262ZM13.1301 16.7717C12.768 17.6852 12.4923 18.4382 12.303 19.0307C12.122 19.615 12.0191 20.0512 11.9944 20.3392C11.9698 20.5861 11.9286 20.7712 11.871 20.8947C11.8216 21.0181 11.7434 21.0757 11.6365 21.0675C11.5377 21.0593 11.4101 20.9729 11.2538 20.8083C11.1057 20.6519 10.9246 20.4133 10.7106 20.0923C10.5543 19.8537 10.4391 19.6561 10.365 19.4998C10.2909 19.3434 10.2539 19.22 10.2539 19.1295C10.2539 19.0389 10.2909 18.9731 10.365 18.932C10.4391 18.8826 10.5461 18.8497 10.686 18.8332C10.8259 18.8167 10.9616 18.7674 11.0933 18.6851C11.2332 18.5945 11.3813 18.4176 11.5377 18.1543C11.6365 17.9897 11.7393 17.8169 11.8463 17.6358C11.9615 17.4548 12.0685 17.2778 12.1673 17.105C12.2742 16.9322 12.373 16.7758 12.4635 16.6359C12.554 16.4878 12.6322 16.3644 12.6981 16.2656C13.1671 15.5414 13.4428 15.2246 13.5251 15.3151C13.6074 15.4056 13.4757 15.8912 13.1301 16.7717Z" fill="#8DBAD3"/>
<path fill-rule="evenodd" clip-rule="evenodd" d="M6.83594 6.93784C6.83594 6.41341 7.26107 5.98828 7.78549 5.98828H24.1178C24.6423 5.98828 25.0674 6.41341 25.0674 6.93784C25.0674 7.46226 24.6423 7.88739 24.1178 7.88739H7.78549C7.26107 7.88739 6.83594 7.46226 6.83594 6.93784Z" fill="#4F7D96"/>
<path fill-rule="evenodd" clip-rule="evenodd" d="M6.83594 25.9281C6.83594 25.4036 7.26107 24.9785 7.78549 24.9785H24.1178C24.6423 24.9785 25.0674 25.4036 25.0674 25.9281C25.0674 26.4525 24.6423 26.8776 24.1178 26.8776H7.78549C7.26107 26.8776 6.83594 26.4525 6.83594 25.9281Z" fill="#4F7D96"/>
</svg>
