<svg width="32" height="32" viewBox="0 0 32 32" fill="none" xmlns="http://www.w3.org/2000/svg">
<path d="M16 21.9912C15.4939 21.9912 15.0837 21.6845 15.0837 21.3066V0.684634C15.0837 0.306481 15.4939 0 16 0C16.5062 0 16.9163 0.306481 16.9163 0.684634V21.3064C16.9163 21.6845 16.5062 21.9912 16 21.9912Z" fill="#4F7D96"/>
<path d="M19.125 25.5626H12.875C12.3572 25.5626 11.9375 25.1427 11.9375 24.6251C11.9375 23.4269 13.76 22.6953 16 22.6953C18.24 22.6953 20.0625 23.4269 20.0625 24.6251C20.0625 25.1427 19.6428 25.5626 19.125 25.5626Z" fill="#EAB604"/>
<path d="M25.256 28.1697H6.74384C6.33755 28.1697 5.97897 28.0672 5.8592 27.9169C5.73968 27.7667 5.88695 27.6037 6.22265 27.5152C6.86775 27.3451 11.0984 26.2283 11.6512 26.0821C11.8051 26.0413 11.9872 26.0195 12.1734 26.0195H19.8245C20.0105 26.0195 20.1924 26.0413 20.346 26.0819C20.9095 26.2306 25.3235 27.3954 25.7772 27.5152C26.1129 27.6037 26.2602 27.7667 26.1407 27.9169C26.0209 28.0672 25.6623 28.1697 25.256 28.1697V28.1697Z" fill="#4F7D96"/>
<path d="M8.17987 17.2187C7.76645 17.3689 7.30521 17.196 7.09239 16.8111L4.67805 12.4443L2.33825 16.6057C2.1248 16.9854 1.63753 17.1381 1.23144 16.9807V16.9807C0.704866 16.7766 0.529302 16.1691 0.807375 15.6776L3.84668 10.305C4.00033 10.0364 4.33312 9.86504 4.69844 9.86721C5.06351 9.86898 5.39363 10.0437 5.54291 10.3136L8.65692 15.9461C8.92267 16.4268 8.69611 17.0312 8.17987 17.2187V17.2187Z" fill="#8DBAD3"/>
<path d="M30.8759 17.2187C30.4625 17.3689 30.0013 17.196 29.7884 16.8111L27.3741 12.4443L25.0343 16.6057C24.8208 16.9854 24.3336 17.1381 23.9275 16.9807V16.9807C23.4009 16.7766 23.2253 16.1691 23.5034 15.6776L26.5427 10.305C26.6964 10.0364 27.0292 9.86504 27.3945 9.86721C27.7596 9.86898 28.0897 10.0437 28.239 10.3136L31.353 15.9461C31.6187 16.4268 31.3922 17.0312 30.8759 17.2187V17.2187Z" fill="#8DBAD3"/>
<path d="M5.17188 23.5039H4.20312C1.8855 23.5039 0 21.6184 0 19.3008C0 19.0657 0.0200195 18.8286 0.0598144 18.5962C0.136475 18.1458 0.526856 17.8164 0.983887 17.8164H8.39111C8.84814 17.8164 9.23853 18.1458 9.31543 18.5962C9.35498 18.8286 9.375 19.0657 9.375 19.3008C9.375 21.6184 7.4895 23.5039 5.17188 23.5039Z" fill="#4F7D96"/>
<path d="M27.7969 23.5039H26.8281C24.5105 23.5039 22.625 21.6184 22.625 19.3008C22.625 19.0657 22.645 18.8286 22.6848 18.5962C22.7615 18.1458 23.1519 17.8164 23.6089 17.8164H31.0161C31.4731 17.8164 31.8635 18.1458 31.9404 18.5962C31.98 18.8286 32 19.0657 32 19.3008C32 21.6184 30.1145 23.5039 27.7969 23.5039Z" fill="#4F7D96"/>
<path d="M27.6299 10.2576C26.1135 10.2576 25.0341 10.2335 24.1438 9.53512C23.3332 8.89949 22.8637 8.06302 22.4496 7.32478C21.7107 6.0088 21.4293 4.96904 18.9603 4.96904C18.5432 4.96904 17.9031 4.55105 17.9031 4.0353C17.9031 3.51956 18.5432 3.10156 18.9603 3.10156C22.2197 3.10156 22.8594 4.77962 23.6903 6.26022C24.4571 7.6263 25.1132 8.67186 27.7709 8.67186C28.188 8.67186 28.4758 9.01962 28.4758 9.53512C28.4758 10.0509 28.0469 10.2576 27.6299 10.2576Z" fill="#4F7D96"/>
<path d="M4.51092 10.2576C6.0274 10.2576 7.10674 10.2335 7.99704 9.53512C8.80769 8.89949 9.27713 8.06302 9.6913 7.32478C10.4302 6.0088 10.7116 4.96904 13.1805 4.96904C13.5976 4.96904 14.2378 4.55105 14.2378 4.0353C14.2378 3.51956 13.5976 3.10156 13.1805 3.10156C9.9212 3.10156 9.28145 4.77962 8.45054 6.26022C7.68375 7.6263 7.02768 8.67186 4.36995 8.67186C3.95283 8.67186 3.66511 9.01962 3.66511 9.53512C3.66511 10.0509 4.09399 10.2576 4.51092 10.2576Z" fill="#4F7D96"/>
</svg>
