<svg width="32" height="32" viewBox="0 0 32 32" fill="none" xmlns="http://www.w3.org/2000/svg">
<path fill-rule="evenodd" clip-rule="evenodd" d="M15.9525 5.09609C15.9525 4.49074 15.5061 4 14.9554 4H9.81882C8.07927 4 6.66908 5.55012 6.66908 7.4623C6.66908 8.97977 7.55718 10.2692 8.79321 10.7369C9.11471 10.8585 9.45974 10.9246 9.81881 10.9246H17.9719H18.0346H23.0773H23.6611C24.1646 10.9246 24.5728 11.3733 24.5728 11.9268C24.5728 12.4804 24.1646 12.9291 23.6611 12.9291H23.0773H18.0346H17.9719H9.81881H8.49952H7.173H7.08352C7.02282 12.9291 6.96254 12.9311 6.90276 12.9352C3.4538 13.0909 0.701172 16.2137 0.701172 20.0431C0.701172 23.9721 3.59871 27.1572 7.173 27.1572C7.31288 27.1572 7.45172 27.1523 7.5894 27.1427H16.6131C17.1638 27.1427 17.6103 26.652 17.6103 26.0466C17.6103 25.4413 17.1638 24.9505 16.6131 24.9505H7.5894C7.54724 24.9505 7.50509 24.952 7.46302 24.9549C7.36738 24.9616 7.27069 24.965 7.173 24.965C4.70012 24.965 2.69545 22.7614 2.69545 20.0431C2.69545 17.3942 4.59988 15.2332 6.98461 15.1255C6.99812 15.1249 7.01164 15.1241 7.02514 15.1232C7.04419 15.1219 7.06365 15.1213 7.08352 15.1213H7.173H18.0346H23.6611C25.266 15.1213 26.5671 13.6911 26.5671 11.9268C26.5671 10.1626 25.266 8.73241 23.6611 8.73241H17.9719H9.81881C9.18068 8.73241 8.66336 8.16376 8.66336 7.4623C8.66336 6.76083 9.18068 6.19218 9.81882 6.19218H14.9554C15.5061 6.19218 15.9525 5.70144 15.9525 5.09609ZM18.2734 5.09609C18.2734 5.70144 18.7198 6.19218 19.2705 6.19218H23.9097C23.949 6.19218 23.9872 6.19426 24.0244 6.1982C24.1324 6.20966 24.2411 6.2114 24.3494 6.20342C24.4504 6.19598 24.5525 6.19218 24.6557 6.19218C27.1945 6.19218 29.3753 8.56147 29.3753 11.6535C29.3753 14.7455 27.1945 17.1148 24.6557 17.1148C24.6093 17.1148 24.5631 17.114 24.5171 17.1125C24.4672 17.1109 24.4172 17.1113 24.3672 17.1138C24.3531 17.1145 24.3387 17.1148 24.3242 17.1148H13.6106H12.3079C11.7572 17.1148 11.3108 17.6056 11.3108 18.2109C11.3108 18.8163 11.7572 19.307 12.3079 19.307H13.6106H13.6119H22.3349H24.3242C24.3687 19.307 24.413 19.3059 24.457 19.3037C24.523 19.3059 24.5893 19.307 24.6557 19.307C24.7047 19.307 24.7536 19.3064 24.8024 19.3052C28.4426 19.2163 31.3696 15.8245 31.3696 11.6535C31.3696 7.42659 28.3637 4 24.6557 4C24.6111 4 24.5667 4.00049 24.5223 4.00148C24.3924 4.00437 24.2622 4.00298 24.1321 4.00159C24.058 4.00079 23.9838 4 23.9097 4H19.2705C18.7198 4 18.2734 4.49074 18.2734 5.09609ZM22.3349 27.1427H20.9282C20.3775 27.1427 19.9311 26.652 19.9311 26.0466C19.9311 25.4413 20.3775 24.9505 20.9282 24.9505H22.3349C22.8357 24.9505 23.2416 24.5043 23.2416 23.9538C23.2416 23.4033 22.8357 22.957 22.3349 22.957H13.6119H10.4722H7.99529C6.52766 22.957 5.33791 21.6492 5.33791 20.0359C5.33791 18.4226 6.52766 17.1148 7.99529 17.1148C8.54462 17.1148 8.98994 17.6071 8.98994 18.2109C8.98994 18.8147 8.54462 19.307 7.99529 19.307C7.62907 19.307 7.33218 19.6333 7.33218 20.0359C7.33218 20.4385 7.62907 20.7648 7.99529 20.7648H9.14981H10.4722H13.6106H13.6119H22.3349C23.039 20.7648 23.6845 21.0406 24.187 21.4992C24.8278 22.0841 25.2359 22.9666 25.2359 23.9538C25.2359 25.715 23.9371 27.1427 22.3349 27.1427Z" fill="#4F7D96"/>
<path d="M5.65987 7.00572C5.65987 8.56865 4.39287 9.83565 2.82994 9.83565C1.26701 9.83565 0 8.56865 0 7.00572C0 5.44279 1.26701 4.17578 2.82994 4.17578C4.39287 4.17578 5.65987 5.44279 5.65987 7.00572Z" fill="#EAB604"/>
<path d="M32.0008 24.3129C32.0008 25.8157 30.7825 27.034 29.2797 27.034C27.7769 27.034 26.5586 25.8157 26.5586 24.3129C26.5586 22.8101 27.7769 21.5918 29.2797 21.5918C30.7825 21.5918 32.0008 22.8101 32.0008 24.3129Z" fill="#8DBAD3"/>
</svg>
