<svg width="32" height="32" viewBox="0 0 32 32" fill="none" xmlns="http://www.w3.org/2000/svg">
<path fill-rule="evenodd" clip-rule="evenodd" d="M24.87 9.8239L7.12997 9.8239C4.31728 9.8239 2.03713 12.0993 2.03713 14.9061L2.03713 23.8847C2.03713 26.6915 4.31728 28.9669 7.12997 28.9669L24.87 28.9669C27.6827 28.9669 29.9629 26.6915 29.9629 23.8847L29.9629 14.9061C29.9629 12.0993 27.6827 9.8239 24.87 9.8239ZM7.12997 7.79102C3.1922 7.79102 0 10.9766 0 14.9061L0 23.8847C0 27.8143 3.1922 30.9998 7.12997 30.9998L24.87 30.9998C28.8078 30.9998 32 27.8143 32 23.8847L32 14.9061C32 10.9766 28.8078 7.79102 24.87 7.79102L7.12997 7.79102Z" fill="#4F7D96"/>
<path fill-rule="evenodd" clip-rule="evenodd" d="M5.2892 13.0307C5.2892 12.4679 4.83358 12.0117 4.27155 12.0117C3.70952 12.0117 3.25391 12.4679 3.25391 13.0307V15.0687C3.25391 17.5073 5.22824 19.4842 7.66371 19.4842H7.76676C8.32879 19.4842 8.78441 19.028 8.78441 18.4653C8.78441 17.9025 8.32879 17.4463 7.76676 17.4463H7.66371C6.3523 17.4463 5.2892 16.3818 5.2892 15.0687V13.0307ZM26.4494 13.0307C26.4494 12.4679 26.905 12.0117 27.467 12.0117C28.0291 12.0117 28.4847 12.4679 28.4847 13.0307V15.0687C28.4847 17.5073 26.5103 19.4842 24.0749 19.4842H23.4952C22.9332 19.4842 22.4776 19.028 22.4776 18.4653C22.4776 17.9025 22.9332 17.4463 23.4952 17.4463H24.0749C25.3863 17.4463 26.4494 16.3818 26.4494 15.0687V13.0307Z" fill="#4F7D96"/>
<path fill-rule="evenodd" clip-rule="evenodd" d="M10.0351 5.99237C10.0351 6.54995 9.57956 7.00195 9.01757 7.00195C8.45558 7.00195 8 6.54995 8 5.99237C8 3.92811 9.68664 2.2547 11.7672 2.2547H13.9346C13.9525 2.2547 13.9703 2.25516 13.988 2.25607C14.0057 2.25516 14.0235 2.2547 14.0415 2.2547H20.0569C22.1375 2.2547 23.8242 3.92811 23.8242 5.99237C23.8242 6.54995 23.3686 7.00195 22.8066 7.00195C22.2446 7.00195 21.789 6.54995 21.789 5.99237C21.789 5.04327 21.0135 4.27388 20.0569 4.27388H14.0415C14.0235 4.27388 14.0057 4.27342 13.988 4.27251C13.9703 4.27342 13.9525 4.27388 13.9346 4.27388H11.7672C10.8106 4.27388 10.0351 5.04327 10.0351 5.99237Z" fill="#EAB604"/>
<path d="M9.58203 16.726C9.58203 16.1622 10.0347 15.7051 10.593 15.7051C11.1514 15.7051 11.604 16.1622 11.604 16.726V19.9589C11.604 20.5227 11.1514 20.9798 10.593 20.9798C10.0347 20.9798 9.58203 20.5227 9.58203 19.9589V16.726Z" fill="#8DBAD3"/>
<path d="M19.252 16.726C19.252 16.1622 19.7046 15.7051 20.2629 15.7051C20.8213 15.7051 21.2739 16.1622 21.2739 16.726V19.9589C21.2739 20.5227 20.8213 20.9798 20.2629 20.9798C19.7046 20.9798 19.252 20.5227 19.252 19.9589V16.726Z" fill="#8DBAD3"/>
<path fill-rule="evenodd" clip-rule="evenodd" d="M12.3086 18.8254C12.3086 18.2671 12.7681 17.8145 13.335 17.8145L17.6118 17.8145C18.1787 17.8145 18.6383 18.2671 18.6383 18.8254C18.6383 19.3838 18.1787 19.8364 17.6118 19.8364L13.335 19.8364C12.7681 19.8364 12.3086 19.3838 12.3086 18.8254Z" fill="#4F7D96"/>
</svg>
