<svg width="32" height="32" viewBox="0 0 32 32" fill="none" xmlns="http://www.w3.org/2000/svg">
<path d="M10.0418 24.8673L11.8063 18.9805C11.9452 18.5168 12.3719 18.1993 12.8559 18.1993V18.1993C13.6087 18.1993 14.1374 18.9409 13.8918 19.6525L10.487 29.5186C9.88737 31.172 8.8699 31.9987 7.43455 31.9987C7.31613 31.9987 7.19317 31.9913 7.06569 31.9764C6.64921 31.928 6.37165 31.5455 6.37165 31.1262V30.5461C6.37165 30.3193 6.56329 30.1398 6.78954 30.1545V30.1545C7.34673 30.1545 7.76462 30.0516 8.04321 29.8457C8.32786 29.6458 8.55195 29.3066 8.71547 28.8282L9.03343 27.9833L6.10215 19.6755C5.84789 18.9548 6.38252 18.1993 7.14671 18.1993V18.1993C7.63137 18.1993 8.05976 18.5144 8.2041 18.977L10.0418 24.8673Z" fill="#8DBAD3"/>
<path d="M18.0453 26.925C18.0453 27.5346 17.5511 28.0287 16.9415 28.0287V28.0287C16.3319 28.0287 15.8378 27.5346 15.8378 26.925V19.303C15.8378 18.6934 16.3319 18.1993 16.9415 18.1993V18.1993C17.5511 18.1993 18.0453 18.6934 18.0453 19.303V26.925Z" fill="#8DBAD3"/>
<path d="M21.5947 18.1993C22.162 18.1993 22.6305 18.6423 22.6623 19.2088L22.6693 19.3348C23.3961 18.4567 24.35 18.0176 25.531 18.0176C27.578 18.0176 28.6197 19.1895 28.656 21.5333V26.925C28.656 27.5346 28.1619 28.0287 27.5523 28.0287V28.0287C26.9427 28.0287 26.4485 27.5346 26.4485 26.925V21.6605C26.4485 21.0367 26.3122 20.5764 26.0397 20.2796C25.7732 19.9768 25.3341 19.8254 24.7224 19.8254C23.8322 19.8254 23.169 20.2282 22.7329 21.0336V26.925C22.7329 27.5346 22.2387 28.0287 21.6291 28.0287V28.0287C21.0196 28.0287 20.5254 27.5346 20.5254 26.925V19.2686C20.5254 18.678 21.0041 18.1993 21.5947 18.1993V18.1993Z" fill="#8DBAD3"/>
<path d="M6.29839 8.31236V12.0779C6.29839 12.7126 5.78388 13.2271 5.1492 13.2271V13.2271C4.51451 13.2271 4 12.7126 4 12.0779V0.979784C4 0.438663 4.43866 0 4.97979 0H9.06009C10.5378 0 11.7098 0.384579 12.5758 1.15374C13.4479 1.9229 13.884 2.94036 13.884 4.20614C13.884 5.50221 13.457 6.51059 12.6031 7.2313C11.7552 7.95201 10.5651 8.31236 9.03284 8.31236H6.29839ZM6.29839 6.4682H9.06009C9.8777 6.4682 10.5015 6.27742 10.9315 5.89587C11.3615 5.50826 11.5765 4.95108 11.5765 4.22431C11.5765 3.50966 11.3585 2.94036 10.9224 2.51642C10.4864 2.08642 9.88679 1.86536 9.12368 1.85325H6.29839V6.4682Z" fill="#4F7D96"/>
<path d="M18.0629 12.1233C18.0629 12.7329 17.5687 13.2271 16.9591 13.2271V13.2271C16.3495 13.2271 15.8553 12.7329 15.8553 12.1233V4.50139C15.8553 3.8918 16.3495 3.39762 16.9591 3.39762V3.39762C17.5687 3.39762 18.0629 3.8918 18.0629 4.50139V12.1233Z" fill="#4F7D96"/>
<path d="M21.6122 3.39762C22.1796 3.39762 22.6481 3.84068 22.6799 4.40712L22.6869 4.53319C23.4137 3.65502 24.3676 3.21593 25.5485 3.21593C27.5956 3.21593 28.6373 4.38784 28.6736 6.73165V12.1233C28.6736 12.7329 28.1795 13.2271 27.5699 13.2271V13.2271C26.9603 13.2271 26.4661 12.7329 26.4661 12.1233V6.85883C26.4661 6.23503 26.3298 5.77474 26.0573 5.47798C25.7908 5.17516 25.3517 5.02375 24.74 5.02375C23.8497 5.02375 23.1866 5.4265 22.7505 6.232V12.1233C22.7505 12.7329 22.2563 13.2271 21.6467 13.2271V13.2271C21.0371 13.2271 20.543 12.7329 20.543 12.1233V4.4669C20.543 3.87636 21.0217 3.39762 21.6122 3.39762V3.39762Z" fill="#4F7D96"/>
<path d="M14.6115 16.3201H19.4172C19.8136 16.3201 20.1349 15.9988 20.1349 15.6024C20.1349 15.2061 19.8136 14.8848 19.4172 14.8848H14.6115C14.2151 14.8848 13.8938 15.2061 13.8938 15.6024C13.8938 15.9988 14.2151 16.3201 14.6115 16.3201Z" fill="#EAB604"/>
<path d="M14.6289 1.51739H19.4347C19.831 1.51739 20.1523 1.19607 20.1523 0.79971C20.1523 0.403347 19.831 0.0820312 19.4347 0.0820312H14.6289C14.2326 0.0820312 13.9113 0.403347 13.9113 0.79971C13.9113 1.19607 14.2326 1.51739 14.6289 1.51739Z" fill="#EAB604"/>
</svg>
