<svg width="191" height="191" viewBox="0 0 191 191" fill="none" xmlns="http://www.w3.org/2000/svg">
<path d="M118.503 85.8392L85.8398 118.502C82.1556 122.186 76.1827 122.186 72.4985 118.502C68.8143 114.818 68.8143 108.845 72.4985 105.161L105.162 72.4978C108.846 68.8136 114.819 68.8136 118.503 72.4978C122.187 76.1817 122.187 82.155 118.503 85.8392Z" fill="#8DBAD3"/>
<path d="M86.9265 117.415C88.2847 123.247 86.6959 129.632 82.1591 134.169L53.1538 163.175C46.1709 170.157 34.809 170.157 27.826 163.175C20.843 156.192 20.8427 144.829 27.8256 137.846L56.8309 108.841C61.3677 104.304 67.7533 102.715 73.5852 104.074L87.9664 89.6924C73.8908 81.5076 55.5463 83.443 43.49 95.4996L14.4847 124.505C0.122485 138.867 0.122112 162.153 14.4847 176.516C28.8472 190.878 52.133 190.878 66.4955 176.516L95.5008 147.511C107.557 135.454 109.493 117.11 101.308 103.034L86.9265 117.415Z" fill="#4F7D96"/>
<path d="M136.659 79.6812L134.17 82.1583C129.633 86.6951 123.248 88.2842 117.416 86.9257L103.035 101.307C117.11 109.492 135.455 107.556 147.511 95.4996L176.516 66.4943C190.879 52.1321 190.879 28.846 176.516 14.4835C162.154 0.12091 138.868 0.12091 124.506 14.4835L95.5002 43.4888C83.4439 55.5451 81.5082 73.8896 89.693 87.9652L104.074 73.5844C102.715 67.7525 104.304 61.3669 108.841 56.8301L137.847 27.8248C144.829 20.8422 156.191 20.8422 163.175 27.8252C170.158 34.8081 170.158 46.17 163.175 53.153L163.181 53.159L160.513 55.8272" fill="#4F7D96"/>
<path d="M50.9351 56.2119C51.6639 56.9402 52.6187 57.3047 53.5735 57.3047C54.5283 57.3047 55.4831 56.9402 56.2118 56.2119C57.6689 54.7548 57.6689 52.3922 56.2118 50.9348L49.7087 44.4317C48.2513 42.975 45.8894 42.975 44.4316 44.4317C42.9746 45.8887 42.9746 48.2513 44.4316 49.7087L50.9351 56.2119Z" fill="#EAB604"/>
<path d="M35.6775 74.0194H44.8738C46.9342 74.0194 48.605 72.3486 48.605 70.2882C48.605 68.2278 46.9346 66.557 44.8738 66.557H35.6775C33.6171 66.557 31.9463 68.2278 31.9463 70.2882C31.9463 72.349 33.6168 74.0194 35.6775 74.0194Z" fill="#EAB604"/>
<path d="M70.2888 48.6047C72.3492 48.6047 74.02 46.9338 74.02 44.8735V35.6768C74.02 33.6164 72.3492 31.9456 70.2888 31.9456C68.2285 31.9456 66.5576 33.6164 66.5576 35.6768V44.8731C66.5576 46.9338 68.2281 48.6047 70.2888 48.6047Z" fill="#EAB604"/>
<path d="M139.571 134.294C138.114 132.837 135.752 132.837 134.294 134.294C132.837 135.751 132.837 138.113 134.294 139.571L140.797 146.074C141.526 146.802 142.481 147.167 143.435 147.167C144.39 147.167 145.345 146.802 146.074 146.074C147.531 144.617 147.531 142.254 146.074 140.797L139.571 134.294Z" fill="#EAB604"/>
<path d="M154.829 116.486H145.633C143.572 116.486 141.901 118.157 141.901 120.217C141.901 122.278 143.572 123.949 145.633 123.949H154.829C156.889 123.949 158.56 122.278 158.56 120.217C158.56 118.157 156.889 116.486 154.829 116.486Z" fill="#EAB604"/>
<path d="M120.218 141.901C118.157 141.901 116.486 143.572 116.486 145.632V154.829C116.486 156.889 118.157 158.56 120.218 158.56C122.278 158.56 123.949 156.889 123.949 154.829V145.632C123.949 143.571 122.278 141.901 120.218 141.901Z" fill="#EAB604"/>
</svg>
