<svg width="32" height="29" viewBox="0 0 32 29" fill="none" xmlns="http://www.w3.org/2000/svg">
<path d="M5.87756 25.1887C5.87756 26.7864 4.56183 28.0817 2.93878 28.0817C1.31574 28.0817 0 26.7864 0 25.1887V2.89303C0 1.29525 1.31574 0 2.93878 0C4.56183 0 5.87756 1.29525 5.87756 2.89303V25.1887Z" fill="#4F7D96"/>
<path fill-rule="evenodd" clip-rule="evenodd" d="M11.1025 13.7139V26.1611C11.1025 27.2216 11.9634 28.0812 13.0254 28.0812H22.0344C25.2277 28.0555 27.687 27.3483 29.4124 25.9597C31.1378 24.571 32.0005 22.5266 32.0005 19.8265C32.0005 18.2449 31.5821 16.9077 30.7451 15.8148C29.9771 14.7962 28.9406 14.0958 27.6356 13.7139H11.1025ZM16.8968 23.4331V15.8534H22.2082C24.8736 15.8919 26.2063 17.197 26.2063 19.7686C26.2063 20.913 25.82 21.813 25.0474 22.4688C24.2877 23.1117 23.2254 23.4331 21.8606 23.4331H16.8968Z" fill="#EAB604"/>
<path d="M11.1025 15.8538V1.92012C11.1025 0.859665 11.9634 0 13.0254 0H20.9528C24.365 0 26.9531 0.655754 28.7171 1.96726C30.4812 3.26591 31.3632 5.17531 31.3632 7.69546C31.3632 9.07126 31.0091 10.2863 30.3009 11.3407C29.5927 12.3822 28.6787 13.0006 27.4448 13.8232C24.1795 16 22.2082 15.8538 22.2082 15.8538H11.1025ZM16.8968 11.765H21.1846C24.1075 11.7136 25.5689 10.5499 25.5689 8.27407C25.5689 7.00114 25.1955 6.08822 24.4487 5.53533C23.7147 4.96959 22.5494 4.68671 20.9528 4.68671H16.8968V11.765Z" fill="#8DBAD3"/>
</svg>
