<svg height="512" viewBox="0 0 128 128" width="512" xmlns="http://www.w3.org/2000/svg"><g><path d="m77.16 97.169h-38.49v4.918a6.913 6.913 0 0 0 6.912 6.913h52.176a6.913 6.913 0 0 0 6.912-6.912v-58.839l-24.25-24.249h-34.838a6.912 6.912 0 0 0 -6.912 6.912v35.417h38.49a3.26 3.26 0 0 1 3.26 3.26v29.32a3.261 3.261 0 0 1 -3.26 3.26z" fill="#eaeae4"/><path d="m104.67 43.249-24.25-24.249v17.337a6.913 6.913 0 0 0 6.912 6.912z" fill="#babab9"/><rect fill="#f24646" height="35.84" rx="3.26" width="57.09" x="23.33" y="61.329"/><g fill="#fffcee"><path d="m36.839 81.778c3.128 0 5.438-2.015 5.438-4.871s-2.31-4.871-5.438-4.871h-6.488v14.425h3.087v-4.683zm-3.4-6.907h3.061c1.533 0 2.582.8 2.582 2.036s-1.049 2.037-2.582 2.037h-3.062z"/><path d="m58.845 79.238c0-4.22-3.443-7.2-8.293-7.2h-5.165v14.423h5.165c4.848 0 8.293-3.003 8.293-7.223zm-7.894 4.41h-2.478v-8.8h2.478a4.409 4.409 0 1 1 0 8.8z"/><path d="m73.399 74.829v-2.793h-11.107v14.425h3.107v-5.711h7.244v-2.793h-7.244v-3.128z"/></g></g></svg>