<svg width="32" height="32" viewBox="0 0 32 32" fill="none" xmlns="http://www.w3.org/2000/svg">
<path fill-rule="evenodd" clip-rule="evenodd" d="M17.2727 7.56254C17.2727 6.87971 16.7192 6.32617 16.0364 6.32617C15.3535 6.32617 14.8 6.87971 14.8 7.56254C14.8 8.24536 15.3535 8.7989 16.0364 8.7989C16.7192 8.7989 17.2727 8.24536 17.2727 7.56254ZM17.2727 21.5262C17.2727 20.8433 16.7192 20.2898 16.0364 20.2898C15.3535 20.2898 14.8 20.8433 14.8 21.5262C14.8 22.209 15.3535 22.7625 16.0364 22.7625C16.7192 22.7625 17.2727 22.209 17.2727 21.5262ZM5.63636 6.32617H11.8909C12.5737 6.32617 13.1273 6.87971 13.1273 7.56254C13.1273 8.24536 12.5737 8.7989 11.8909 8.7989H5.63636C4.99371 8.7989 4.47273 9.31988 4.47273 9.96254V19.1262C4.47273 19.7688 4.99371 20.2898 5.63636 20.2898H11.8909C12.5737 20.2898 13.1273 20.8433 13.1273 21.5262C13.1273 22.209 12.5737 22.7625 11.8909 22.7625H5.63636C3.62806 22.7625 2 21.1345 2 19.1262V9.96254C2 7.95423 3.62806 6.32617 5.63636 6.32617Z" fill="#8DBAD3"/>
<path fill-rule="evenodd" clip-rule="evenodd" d="M15.8065 32C15.0504 32 14.4375 31.3871 14.4375 30.631V1.369C14.4375 0.612923 15.0504 0 15.8065 0H16.0503C16.8064 0 17.4193 0.612922 17.4193 1.369V30.631C17.4193 31.3871 16.8064 32 16.0503 32H15.8065Z" fill="#EAB604"/>
<path d="M26.4362 20.2898H20.1817C19.4989 20.2898 18.9453 20.8433 18.9453 21.5262C18.9453 22.209 19.4989 22.7625 20.1817 22.7625H26.4362C28.4445 22.7625 30.0726 21.1345 30.0726 19.1262V9.96254C30.0726 7.95423 28.4445 6.32617 26.4362 6.32617H20.1817C19.4989 6.32617 18.9453 6.87971 18.9453 7.56254C18.9453 8.24536 19.4989 8.7989 20.1817 8.7989H26.4362C27.0789 8.7989 27.5999 9.31988 27.5999 9.96254V19.1262C27.5999 19.7688 27.0789 20.2898 26.4362 20.2898Z" fill="#4F7D96"/>
</svg>
