<svg width="32" height="32" viewBox="0 0 32 32" fill="none" xmlns="http://www.w3.org/2000/svg">
<path fill-rule="evenodd" clip-rule="evenodd" d="M9.3085 5.00001C9.76874 5.00177 10.1817 5.28303 10.3519 5.71062L16.2726 20.5827C16.503 21.1614 16.2206 21.8173 15.642 22.0476C15.0633 22.278 14.4074 21.9956 14.1771 21.417L9.2926 9.14766L2.17258 26.6408C1.93778 27.2177 1.27978 27.495 0.702896 27.2602C0.126015 27.0254 -0.151297 26.3674 0.0835043 25.7905L8.25964 5.7026C8.43314 5.27632 8.84827 4.99824 9.3085 5.00001Z" fill="#4F7D96"/>
<path fill-rule="evenodd" clip-rule="evenodd" d="M5.78027 19.8016C5.78027 19.1787 6.28518 18.6738 6.90802 18.6738H11.6304C12.2533 18.6738 12.7582 19.1787 12.7582 19.8016C12.7582 20.4244 12.2533 20.9293 11.6304 20.9293H6.90802C6.28518 20.9293 5.78027 20.4244 5.78027 19.8016Z" fill="#EAB604"/>
<path fill-rule="evenodd" clip-rule="evenodd" d="M17.4805 6.12774C17.4805 5.50491 17.9854 5 18.6082 5H23.9257C23.9391 5 23.9524 5.00024 23.9658 5.00071C24.0091 5.00225 24.0613 5.00364 24.1216 5.00524C24.8086 5.0235 26.55 5.06979 28.1872 5.68813C29.0929 6.03019 30.0324 6.56921 30.7587 7.43144C31.4993 8.31072 31.9596 9.45784 31.9971 10.8968C32.0328 12.266 31.7569 13.4079 31.1987 14.3321C30.6397 15.2577 29.848 15.8812 28.9918 16.2957C27.3346 17.0981 25.3273 17.1641 23.9257 17.1641C22.2959 17.1641 21.2584 17.1522 20.5317 17.1439C20.2152 17.1402 19.9577 17.1373 19.736 17.1363V26.5681C19.736 27.1909 19.231 27.6958 18.6082 27.6958C17.9854 27.6958 17.4805 27.1909 17.4805 26.5681V6.12774ZM19.736 14.8815C20.0078 14.8823 20.3211 14.8857 20.7023 14.8898C21.4494 14.8978 22.4573 14.9086 23.9257 14.9086C25.3392 14.9086 26.8665 14.8188 28.0089 14.2657C28.5524 14.0025 28.9767 13.6484 29.268 13.166C29.5603 12.6822 29.7692 11.9857 29.7424 10.9556C29.7173 9.99539 29.4243 9.34827 29.0336 8.88446C28.6286 8.4036 28.0589 8.05069 27.3902 7.79814C26.1307 7.32244 24.7546 7.28114 24.0515 7.26003C23.9992 7.25846 23.9506 7.257 23.9061 7.25549H19.736V14.8815Z" fill="#8DBAD3"/>
</svg>
