<svg width="33" height="33" viewBox="0 0 33 33" fill="none" xmlns="http://www.w3.org/2000/svg">
<path fill-rule="evenodd" clip-rule="evenodd" d="M16.4075 3.07513L12.2052 0.648926L9.75883 4.88616H4.88664V9.75834L0.649414 12.2047L3.07561 16.407L0.649414 20.6093L4.88664 23.0557V27.8731H9.79916L12.2052 32.0405L16.4075 29.6143L20.6098 32.0405L23.0158 27.8731H27.8736V23.0153L32.041 20.6093L29.6148 16.407L32.041 12.2047L27.8736 9.79867V4.88616H23.0562L20.6098 0.648926L16.4075 3.07513ZM3.82072 16.0507L1.77103 12.5006L5.31564 10.4541L5.70547 10.1827V9.80254V5.70498H9.80303H10.2455L10.4546 5.31515L12.501 1.77055L16.0512 3.82023L16.4075 4.01379L16.7616 3.81637L20.3051 1.77055L22.3538 5.31901L22.5833 5.70498H22.9572H27.0498V9.80254V10.2873L27.3747 10.4541L30.9193 12.5006L28.8697 16.0507L28.6899 16.407L28.8735 16.7611L30.9193 20.3046L27.3709 22.3533L27.0498 22.5205V22.9567V27.0493H22.9572H22.521L22.3538 27.3704L20.3051 30.9188L16.7616 28.873L16.4075 28.6271L16.0512 28.8692L12.501 30.9188L10.4546 27.3742L10.2455 27.0493H9.80303H5.70547V22.9567V22.5828L5.3195 22.3533L1.77103 20.3046L3.81686 16.7611L4.01427 16.407L3.82072 16.0507Z" fill="#8DBAD3"/>
<path fill-rule="evenodd" clip-rule="evenodd" d="M20.4573 0.385529C20.6027 0.301533 20.7888 0.35138 20.8728 0.496866L23.2313 4.58201H27.8731C28.0411 4.58201 28.1773 4.71819 28.1773 4.88619V9.62309L32.1926 11.9413C32.3381 12.0253 32.3879 12.2113 32.3039 12.3568L29.9655 16.407L32.3039 20.4573C32.3879 20.6027 32.3381 20.7888 32.1926 20.8728L28.1773 23.191V27.8731C28.1773 28.0411 28.0411 28.1773 27.8731 28.1773H23.191L20.8728 32.1926C20.7888 32.3381 20.6027 32.3879 20.4573 32.3039L16.407 29.9655L12.3568 32.3039C12.2113 32.3879 12.0253 32.3381 11.9413 32.1926L9.62309 28.1773H4.88619C4.71819 28.1773 4.58201 28.0411 4.58201 27.8731V23.2313L0.496866 20.8728C0.35138 20.7888 0.301533 20.6027 0.385529 20.4573L2.72392 16.407L0.385529 12.3568C0.345193 12.287 0.334262 12.2039 0.355142 12.126C0.376022 12.0481 0.427001 11.9816 0.496866 11.9413L4.58201 9.58275V4.88619C4.58201 4.71819 4.71819 4.58201 4.88619 4.58201H9.58275L11.9413 0.496866C11.9816 0.427001 12.0481 0.376022 12.126 0.355142C12.2039 0.334262 12.287 0.345193 12.3568 0.385529L16.407 2.72392L20.4573 0.385529ZM12.3161 1.06447L10.0218 5.03827C9.96746 5.13239 9.86704 5.19036 9.75837 5.19036H5.19036V9.75837C5.19036 9.86704 5.13239 9.96746 5.03827 10.0218L1.06447 12.3161L3.33858 16.2549C3.39292 16.3491 3.39292 16.465 3.33858 16.5591L1.06447 20.498L5.03827 22.7923C5.13239 22.8466 5.19036 22.947 5.19036 23.0557V27.5689H9.7987C9.90737 27.5689 10.0078 27.6269 10.0621 27.721L12.3161 31.625L16.2549 29.3509C16.3491 29.2965 16.465 29.2965 16.5591 29.3509L20.498 31.625L22.752 27.721C22.8063 27.6269 22.9067 27.5689 23.0154 27.5689H27.5689V23.0154C27.5689 22.9067 27.6269 22.8063 27.721 22.752L31.625 20.498L29.3509 16.5591C29.2965 16.465 29.2965 16.3491 29.3509 16.2549L31.625 12.3161L27.721 10.0621C27.6269 10.0078 27.5689 9.90737 27.5689 9.7987V5.19036H23.0557C22.947 5.19036 22.8466 5.13239 22.7923 5.03827L20.498 1.06447L16.5591 3.33858C16.465 3.39292 16.3491 3.39292 16.2549 3.33858L12.3161 1.06447ZM20.3833 1.47676C20.4612 1.49764 20.5277 1.54862 20.568 1.61849L22.6147 5.16355L22.6167 5.16695L22.7559 5.40084H27.0493C27.2173 5.40084 27.3535 5.53702 27.3535 5.70501V10.1015L27.5132 10.1835C27.5176 10.1858 27.522 10.1882 27.5264 10.1907L31.071 12.2372C31.2165 12.3212 31.2663 12.5072 31.1823 12.6527L29.1369 16.1954L29.0311 16.4051L29.1399 16.615L31.1823 20.1525C31.2663 20.298 31.2165 20.484 31.071 20.568L27.5225 22.6167C27.5187 22.6189 27.5148 22.621 27.5109 22.6231L27.3535 22.7051V27.0493C27.3535 27.2173 27.2173 27.3535 27.0493 27.3535H22.7051L22.6231 27.5109C22.621 27.5148 22.6189 27.5187 22.6167 27.5225L20.568 31.071C20.484 31.2165 20.298 31.2663 20.1525 31.1823L16.609 29.1365C16.6017 29.1322 16.5945 29.1277 16.5876 29.1229L16.4051 28.9962L16.2217 29.1208C16.2181 29.1232 16.2145 29.1256 16.2108 29.1278C16.2082 29.1295 16.2055 29.1311 16.2028 29.1326L12.6527 31.1823C12.5072 31.2663 12.3212 31.2165 12.2372 31.071L10.1943 27.5327L10.079 27.3535H5.70501C5.53702 27.3535 5.40084 27.2173 5.40084 27.0493V22.7559L5.16695 22.6167L5.16355 22.6147L1.61849 20.568C1.473 20.484 1.42315 20.298 1.50715 20.1525L3.55183 16.611L3.66662 16.4051L3.55487 16.1994L1.50715 12.6527C1.46681 12.5828 1.45588 12.4998 1.47676 12.4219C1.49764 12.3439 1.54862 12.2775 1.61849 12.2372L5.15195 10.1971L5.40084 10.0238V5.70501C5.40084 5.53702 5.53702 5.40084 5.70501 5.40084H10.063L10.186 5.17142C10.1875 5.16862 10.1891 5.16584 10.1907 5.16309L12.2372 1.61849C12.2775 1.54862 12.3439 1.49764 12.4219 1.47676C12.4998 1.45588 12.5828 1.46681 12.6527 1.50715L16.1994 3.55487L16.4051 3.66662L16.611 3.55185L20.1525 1.50715C20.2224 1.46681 20.3054 1.45588 20.3833 1.47676ZM12.6119 2.18609L10.7199 5.46314L10.5131 5.84877C10.4601 5.94755 10.3571 6.00919 10.245 6.00919H6.00919V10.1827C6.00919 10.2823 5.96049 10.3755 5.8788 10.4324L5.48897 10.7037C5.48193 10.7086 5.47469 10.7132 5.46727 10.7175L2.18609 12.6119L4.08369 15.8986C4.085 15.9009 4.08629 15.9032 4.08754 15.9055L4.2811 16.2618C4.33086 16.3534 4.33025 16.4641 4.27949 16.5552L4.08208 16.9092L4.07983 16.9132L2.18609 20.1933L5.47113 22.0899L5.47452 22.0919L5.8605 22.3214C5.95269 22.3763 6.00919 22.4756 6.00919 22.5829V26.7451H10.245C10.3485 26.7451 10.4449 26.7977 10.5008 26.8847L10.7099 27.2097C10.7125 27.2138 10.7151 27.218 10.7175 27.2222L12.6119 30.5034L15.889 28.6113L16.2361 28.3755C16.3402 28.3048 16.4772 28.3055 16.5806 28.3773L16.9242 28.616L20.1933 30.5034L22.0866 27.2241L22.2508 26.9088C22.3031 26.8082 22.4071 26.7451 22.5205 26.7451H26.7451V22.5205C26.7451 22.4071 26.8082 22.3031 26.9088 22.2508L27.2241 22.0866L30.5034 20.1933L28.6096 16.9132C28.6073 16.9092 28.6051 16.9052 28.603 16.9011L28.4194 16.5471C28.3744 16.4603 28.3739 16.3573 28.4179 16.27L28.5976 15.9137C28.6002 15.9086 28.6029 15.9036 28.6058 15.8986L30.5034 12.6119L27.2287 10.7213L26.9104 10.5579C26.8089 10.5059 26.7451 10.4014 26.7451 10.2873V6.00919H22.5829C22.4756 6.00919 22.3763 5.95269 22.3214 5.8605L22.0919 5.47452L22.0899 5.47113L20.1933 2.18609L16.9132 4.07983L16.9092 4.08208L16.5552 4.27949C16.4641 4.33025 16.3534 4.33086 16.2618 4.2811L15.9055 4.08754C15.9032 4.08629 15.9009 4.085 15.8986 4.08368L12.6119 2.18609Z" fill="#8DBAD3"/>
<path fill-rule="evenodd" clip-rule="evenodd" d="M16.3915 6.42258L13.2492 4.6084L11.4199 7.77678H7.77678V11.4199L4.6084 13.2492L6.42258 16.3915L4.6084 19.5337L7.77678 21.363V24.9652H11.4501L13.2492 28.0814L16.3915 26.2672L19.5337 28.0814L21.3328 24.9652H24.9652V21.3328L28.0814 19.5337L26.2672 16.3915L28.0814 13.2492L24.9652 11.4501V7.77678H21.363L19.5337 4.6084L16.3915 6.42258ZM6.97973 16.125L5.44709 13.4704L8.09756 11.9402L8.38905 11.7373V11.453V8.38905H11.453H11.7838L11.9402 8.09756L13.4704 5.44709L16.125 6.97973L16.3915 7.12446L16.6562 6.97685L19.3059 5.44709L20.8378 8.10044L21.0094 8.38905H21.289H24.3492V11.453V11.8155L24.5922 11.9402L27.2427 13.4704L25.71 16.125L25.5756 16.3915L25.7129 16.6562L27.2427 19.3059L24.5893 20.8378L24.3492 20.9628V21.289V24.3492H21.289H20.9628L20.8378 24.5893L19.3059 27.2427L16.6562 25.7129L16.3915 25.529L16.125 25.71L13.4704 27.2427L11.9402 24.5922L11.7838 24.3492H11.453H8.38905V21.289V21.0094L8.10044 20.8378L5.44709 19.3059L6.97685 16.6562L7.12446 16.3915L6.97973 16.125Z" fill="#4F7D96"/>
<path fill-rule="evenodd" clip-rule="evenodd" d="M19.3495 4.28957C19.5254 4.18801 19.7503 4.24828 19.8519 4.42418L21.575 7.40868H24.9649C25.168 7.40868 25.3326 7.57333 25.3326 7.77644V11.2374L28.2649 12.9304C28.4408 13.0319 28.5011 13.2569 28.3995 13.4327L26.6915 16.3911L28.3995 19.3495C28.5011 19.5254 28.4408 19.7503 28.2649 19.8519L25.3326 21.5448V24.9649C25.3326 25.168 25.168 25.3326 24.9649 25.3326H21.5448L19.8519 28.2649C19.7503 28.4408 19.5254 28.5011 19.3495 28.3995L16.3911 26.6915L13.4327 28.3995C13.2569 28.5011 13.0319 28.4408 12.9304 28.2649L11.2374 25.3326H7.77644C7.57333 25.3326 7.40868 25.168 7.40868 24.9649V21.575L4.42418 19.8519C4.24828 19.7503 4.18801 19.5254 4.28957 19.3495L5.99759 16.3911L4.28957 13.4327C4.2408 13.3483 4.22758 13.2479 4.25283 13.1537C4.27807 13.0595 4.33971 12.9791 4.42418 12.9304L7.40868 11.2073V7.77644C7.40868 7.57333 7.57333 7.40868 7.77644 7.40868H11.2073L12.9304 4.42418C12.9791 4.33971 13.0595 4.27807 13.1537 4.25283C13.2479 4.22758 13.3483 4.2408 13.4327 4.28957L16.3911 5.99759L19.3495 4.28957ZM13.6047 5.94912L12.2612 8.27609L12.1076 8.56253C12.0436 8.68195 11.919 8.75648 11.7835 8.75648H8.75648V11.7369C8.75648 11.8573 8.6976 11.97 8.59883 12.0387L8.30733 12.2417C8.29883 12.2476 8.29008 12.2531 8.2811 12.2583L5.94912 13.6047L7.29789 15.9408C7.29948 15.9436 7.30103 15.9464 7.30255 15.9492L7.44728 16.2156C7.50744 16.3263 7.5067 16.4601 7.44533 16.5702L7.29772 16.835C7.29683 16.8366 7.29592 16.8382 7.295 16.8398L5.94912 19.1709L8.28398 20.5189L8.28809 20.5213L8.5767 20.693C8.68817 20.7593 8.75648 20.8794 8.75648 21.0091V23.9811H11.7835C11.9086 23.9811 12.0251 24.0447 12.0928 24.1499L12.2491 24.3929C12.2523 24.3978 12.2554 24.4029 12.2583 24.408L13.6047 26.74L15.9292 25.3979L16.1845 25.2245C16.3104 25.139 16.4759 25.1398 16.6009 25.2266L16.8531 25.4017L19.1709 26.74L20.5149 24.412L20.6363 24.179C20.6997 24.0574 20.8254 23.9811 20.9625 23.9811H23.9811V20.9625C23.9811 20.8254 24.0574 20.6997 24.179 20.6363L24.412 20.5149L26.74 19.1709L25.3941 16.8398C25.3913 16.835 25.3886 16.8301 25.3861 16.8252L25.2488 16.5604C25.1944 16.4556 25.1937 16.331 25.2469 16.2255L25.3813 15.9591C25.3844 15.9529 25.3877 15.9468 25.3912 15.9408L26.74 13.6047L24.4158 12.2629L24.1809 12.1423C24.0583 12.0793 23.9811 11.953 23.9811 11.8151V8.75648H21.0091C20.8794 8.75648 20.7593 8.68817 20.693 8.5767L20.5213 8.28809L20.5189 8.28398L19.1709 5.94912L16.8398 7.295C16.8382 7.29592 16.8366 7.29683 16.835 7.29772L16.5702 7.44534C16.4601 7.5067 16.3263 7.50744 16.2156 7.44728L15.9492 7.30255C15.9464 7.30103 15.9436 7.29948 15.9408 7.29789L13.6047 5.94912Z" fill="#4F7D96"/>
<path fill-rule="evenodd" clip-rule="evenodd" d="M16.373 10.248L14.4422 9.1333L13.3182 11.0801H11.0796V13.3187L9.13281 14.4427L10.2476 16.3735L9.13281 18.3043L11.0796 19.4283V21.6417H13.3368L14.4422 23.5564L16.373 22.4417L18.3038 23.5564L19.4093 21.6417H21.6412V19.4098L23.556 18.3043L22.4412 16.3735L23.556 14.4427L21.6412 13.3372V11.0801H19.4278L18.3038 9.1333L16.373 10.248ZM10.5899 16.2098L9.64815 14.5786L11.2768 13.6384L11.4559 13.5137V13.339V11.4564H13.3385H13.5418L13.6379 11.2772L14.5782 9.64864L16.2093 10.5904L16.373 10.6793L16.5357 10.5886L18.1638 9.64864L19.1051 11.279L19.2106 11.4564H19.3823H21.2627V13.339V13.5617L21.412 13.6384L23.0406 14.5786L22.0989 16.2098L22.0163 16.3735L22.1006 16.5362L23.0406 18.1643L21.4102 19.1056L21.2627 19.1824V19.3828V21.2632H19.3823H19.1819L19.1051 21.4107L18.1638 23.0411L16.5357 22.1011L16.373 21.9881L16.2093 22.0994L14.5782 23.0411L13.6379 21.4125L13.5418 21.2632H13.3385H11.4559V19.3828V19.211L11.2785 19.1056L9.64815 18.1643L10.5881 16.5362L10.6788 16.3735L10.5899 16.2098Z" fill="#EAB604"/>
<path fill-rule="evenodd" clip-rule="evenodd" d="M18.0539 8.6999C18.2931 8.5618 18.599 8.64375 18.7371 8.88294L19.7167 10.5797H21.6414C21.9176 10.5797 22.1415 10.8036 22.1415 11.0798V13.0482L23.8062 14.0093C24.0454 14.1474 24.1273 14.4533 23.9892 14.6924L23.0188 16.3732L23.9892 18.0539C24.1273 18.2931 24.0454 18.599 23.8062 18.7371L22.1415 19.6982V21.6414C22.1415 21.9176 21.9176 22.1415 21.6414 22.1415H19.6982L18.7371 23.8062C18.599 24.0454 18.2931 24.1273 18.0539 23.9892L16.3732 23.0188L14.6924 23.9892C14.4533 24.1273 14.1474 24.0454 14.0093 23.8062L13.0482 22.1415H11.0798C10.8036 22.1415 10.5797 21.9176 10.5797 21.6414V19.7167L8.88294 18.7371C8.64375 18.599 8.5618 18.2931 8.6999 18.0539L9.67027 16.3732L8.6999 14.6924C8.63358 14.5776 8.61561 14.4411 8.64994 14.313C8.68426 14.1849 8.76808 14.0756 8.88294 14.0093L10.5797 13.0297V11.0798C10.5797 10.8036 10.8036 10.5797 11.0798 10.5797H13.0297L14.0093 8.88294C14.0756 8.76808 14.1849 8.68426 14.313 8.64994C14.4411 8.61561 14.5776 8.63358 14.6924 8.6999L16.3732 9.67027L18.0539 8.6999ZM17.9809 10.3315L16.7859 11.0214C16.7837 11.0226 16.7816 11.0239 16.7794 11.0251L16.6167 11.1158C16.467 11.1992 16.2851 11.2002 16.1345 11.1184L15.9708 11.0295C15.967 11.0274 15.9632 11.0253 15.9594 11.0232L14.7614 10.3315L14.0751 11.5202L13.9827 11.6924C13.8956 11.8548 13.7263 11.9561 13.542 11.9561H11.9561V13.5134C11.9561 13.677 11.8761 13.8303 11.7418 13.9238L11.5626 14.0485C11.5511 14.0565 11.5392 14.0641 11.527 14.0711L10.3315 14.7614L11.0232 15.9594C11.0253 15.9632 11.0274 15.967 11.0295 15.9708L11.1184 16.1345C11.2002 16.2851 11.1992 16.467 11.1158 16.6167L11.0251 16.7794C11.0239 16.7816 11.0226 16.7837 11.0214 16.7859L10.3315 17.9809L11.5287 18.6722C11.5306 18.6732 11.5325 18.6743 11.5343 18.6754L11.7117 18.7809C11.8632 18.8711 11.9561 19.0344 11.9561 19.2107V20.7628H13.542C13.7121 20.7628 13.8705 20.8493 13.9626 20.9923L14.0586 21.1416C14.063 21.1484 14.0671 21.1552 14.0711 21.1621L14.7614 22.3577L15.9436 21.6751L16.0922 21.5742C16.2633 21.4579 16.4885 21.459 16.6585 21.5771L16.804 21.6782L17.9809 22.3577L18.6667 21.1698L18.7386 21.0319C18.8247 20.8665 18.9956 20.7628 19.1821 20.7628H20.7628V19.1821C20.7628 18.9956 20.8665 18.8247 21.0319 18.7386L21.1698 18.6667L22.3577 17.9809L21.6677 16.7859C21.664 16.7794 21.6603 16.7728 21.6569 16.7661L21.5725 16.6034C21.4986 16.4608 21.4976 16.2914 21.57 16.1479L21.6525 15.9842C21.6568 15.9758 21.6613 15.9676 21.666 15.9594L22.3577 14.7614L21.1728 14.0773L21.0345 14.0063C20.8677 13.9207 20.7628 13.7489 20.7628 13.5614V11.9561H19.2107C19.0344 11.9561 18.8711 11.8632 18.7809 11.7117L18.6754 11.5343C18.6743 11.5325 18.6732 11.5306 18.6722 11.5287L17.9809 10.3315Z" fill="#EAB604"/>
</svg>
