<svg width="32" height="32" viewBox="0 0 32 32" fill="none" xmlns="http://www.w3.org/2000/svg">
<path d="M15.8196 30.5254C15.0268 30.5254 14.235 30.3904 13.4836 30.1208L8.14173 28.204C6.12229 27.4794 4.87774 25.484 5.11519 23.3516L5.5601 19.3565C5.63061 18.7236 6.20117 18.2675 6.83382 18.3381C7.46682 18.4086 7.9228 18.9788 7.85233 19.6118L7.40743 23.607C7.2887 24.6731 7.91098 25.6708 8.92073 26.0331L14.2626 27.9499C15.2365 28.2994 16.313 28.3098 17.2937 27.9794L23.1557 25.9729C23.4364 25.8712 23.6901 25.7271 23.8898 25.5557C24.3731 25.1409 25.1012 25.1965 25.516 25.6798C25.9308 26.1631 25.8753 26.8911 25.3919 27.3059C24.9794 27.66 24.473 27.9506 23.9277 28.1463C23.9223 28.1482 18.0354 30.1632 18.0354 30.1632C17.3184 30.4049 16.5685 30.5254 15.8196 30.5254ZM18.7781 18.6448L20.1884 17.9555C20.7606 17.6758 20.9978 16.9853 20.7181 16.4131C20.4385 15.8409 19.748 15.604 19.1757 15.8833L17.7667 16.572C16.4921 17.1929 15.0302 17.1929 13.7556 16.5719L4.46108 12.0442C3.73929 11.6926 3.3077 11.0008 3.30643 10.1937C3.30522 9.38659 3.73479 8.69351 4.45555 8.33971L13.7431 3.78037C15.0255 3.15077 16.4966 3.15077 17.7791 3.78037L27.0667 8.33965C27.7585 8.67927 28.1958 9.3475 28.2365 10.1274C28.2764 10.8897 27.9315 11.5764 27.3141 11.9643C26.7747 12.3031 26.6122 13.0149 26.9509 13.5542C27.2897 14.0935 28.0016 14.2561 28.5408 13.9173C29.8767 13.0783 30.6239 11.6164 30.5397 10.0069C30.4546 8.3799 29.5362 6.98266 28.083 6.26929L18.7955 1.71C16.8671 0.763332 14.6552 0.763332 12.7267 1.71L3.43916 6.26929C1.93209 7.00907 0.997468 8.51419 1.00001 10.1972C1.00254 11.8802 1.94172 13.3824 3.45098 14.1176L12.7455 18.6454C13.7036 19.1123 14.732 19.3457 15.7608 19.3457C16.7897 19.3456 17.8191 19.112 18.7781 18.6448Z" fill="#4F7D96"/>
<path d="M22.449 12.127L17.0677 9.47275C16.8762 8.72587 16.1985 8.17383 15.3919 8.17383C14.4365 8.17383 13.6621 8.94833 13.6621 9.90365C13.6621 10.859 14.4365 11.6335 15.3919 11.6335C15.6084 11.6335 15.8156 11.5937 16.0065 11.5211L21.4287 14.1955C22.222 14.5868 22.7148 15.3794 22.7148 16.264V21.6087C22.7148 22.2456 23.2311 22.7619 23.868 22.7619C24.505 22.7619 25.0213 22.2456 25.0213 21.6087V16.264C25.0213 14.4948 24.0356 12.9096 22.449 12.127Z" fill="#EAB604"/>
</svg>
