<svg width="32" height="34" viewBox="0 0 32 34" fill="none" xmlns="http://www.w3.org/2000/svg">
<path d="M26.8872 23.5C26.1385 23.5 25.5254 24.1079 25.4223 24.8495C25.2463 26.1155 24.787 27.9611 23.5885 28.9714C22.3684 30.2356 20.6513 30.958 18.8437 30.958C15.0931 30.958 12.0654 27.9331 12.0654 24.1858V20.0559C14.5056 19.7849 16.8102 18.6563 18.5274 16.9407C20.5609 14.909 21.6906 12.2002 21.6906 9.26557V2.85448C21.6906 2.08693 21.1031 1.50009 20.335 1.50009H18.7521C18.0041 1.50009 17.3977 2.10649 17.3977 2.85452V2.85452C17.3977 3.60256 18.0041 4.20896 18.7521 4.20896H18.9793V9.26548C18.9793 11.4777 18.1207 13.5094 16.6295 15.0444C15.0931 16.5794 13.0144 17.4372 10.8454 17.4372C6.37177 17.4372 2.71142 13.7803 2.71142 9.31059V4.20887H2.84823C3.59627 4.20887 4.20267 3.60247 4.20267 2.85444V2.85444C4.20267 2.1064 3.59627 1.5 2.84823 1.5H1.35562C0.587382 1.5 0 2.08693 0 2.85439V9.3105C0 14.7734 4.06696 19.3333 9.35409 20.0557V24.1857C9.35409 29.4228 13.6018 33.6667 18.8437 33.6667C21.4195 33.6667 23.8144 32.6734 25.5316 30.8675C27.3107 28.9965 27.9224 26.4087 28.1327 24.8504C28.2329 24.1084 27.636 23.4999 26.8872 23.5V23.5Z" fill="#4F7D96"/>
<path d="M32 16.666C32 13.9183 29.7478 11.666 27 11.666C24.2521 11.666 22 13.9183 22 16.666C22 18.9633 23.5315 20.9002 25.6486 21.4858C26.099 21.6209 26.5495 21.666 27 21.666C27.4504 21.666 27.9009 21.5759 28.3513 21.4858C30.4685 20.9002 32 18.9633 32 16.666Z" fill="#8DBAD3"/>
<path d="M5 4.29573C5 5.07265 5.61392 5.66667 6.41667 5.66667C7.21941 5.66667 7.83333 5.07256 7.83333 4.29573V1.37094C7.83333 0.594107 7.2195 0 6.41667 0C5.61383 0 5 0.594107 5 1.37094V1.46235V4.20432V4.29573Z" fill="#EAB604"/>
<path d="M16.4999 1.37094C16.4999 0.594107 15.9221 0 15.1666 0C14.4111 0 13.8333 0.594107 13.8333 1.37094V4.29573C13.8333 5.07265 14.4111 5.66667 15.1666 5.66667C15.9221 5.66667 16.4999 5.07256 16.4999 4.29573V4.20432V1.46235V1.37094Z" fill="#EAB604"/>
</svg>
