<svg width="32" height="32" viewBox="0 0 32 32" fill="none" xmlns="http://www.w3.org/2000/svg">
<path fill-rule="evenodd" clip-rule="evenodd" d="M25.2633 13.1861C26.8066 11.6509 29.3024 11.6509 30.8457 13.1861C31.8419 14.182 32.2305 15.633 31.865 16.9926C31.4995 18.3521 30.4355 19.4137 29.0738 19.7774C27.7121 20.141 26.2596 19.7516 25.2633 18.7557L24.0388 17.5327L22.9695 18.5981C22.5383 19.0278 21.8401 19.0274 21.4093 18.5972C20.9779 18.1664 20.9783 17.4677 21.4102 17.0373L22.4775 15.9738V15.9735V15.9732L24.4615 13.9918C24.4621 13.9912 24.4621 13.9901 24.4615 13.9894C24.4608 13.9887 24.4608 13.9876 24.4615 13.9869L25.2633 13.1861ZM23.0442 10.4993C22.6132 10.9299 21.9142 10.9299 21.4832 10.4993C21.0521 10.0688 21.0521 9.37081 21.4832 8.9403L22.257 8.16744C22.9354 7.48854 22.9354 6.38933 22.257 5.71044C21.5704 5.05495 20.4889 5.05495 19.8023 5.71044L17.5634 7.94645C17.5631 7.9468 17.5631 7.94736 17.5634 7.94771C17.5637 7.94806 17.5638 7.94862 17.5634 7.94897L16.0036 9.50675C16.0032 9.50709 16.0027 9.50709 16.0023 9.50675C16.002 9.5064 16.0014 9.5064 16.0011 9.50675L14.9626 10.5462C14.5317 10.9775 13.8321 10.9779 13.4007 10.547C12.9699 10.1169 12.9695 9.41955 13.3998 8.98889L14.2477 8.14022C14.2479 8.14002 14.2482 8.14002 14.2484 8.14022C14.2486 8.14041 14.2489 8.14041 14.2491 8.14022L16.4576 5.93454C16.4579 5.93428 16.4579 5.93387 16.4576 5.93362C16.4574 5.93336 16.4574 5.93295 16.4576 5.9327L18.2413 4.1514C18.9783 3.41108 19.9816 2.99642 21.0269 3.00002C22.6236 2.99815 24.0639 3.95786 24.6751 5.43095C25.2864 6.90405 24.9481 8.59987 23.8181 9.72648L23.0442 10.4993ZM7.97015 14.4146L9.02663 13.3571C9.45713 12.9262 10.156 12.9258 10.587 13.3563C11.0177 13.7863 11.0177 14.4836 10.587 14.9137L9.52634 15.973C9.52599 15.9734 9.52599 15.9739 9.52634 15.9743C9.52669 15.9746 9.52669 15.9752 9.52634 15.9755L7.4991 18.0001C7.49898 18.0002 7.49898 18.0004 7.4991 18.0006C7.49922 18.0007 7.49922 18.0009 7.4991 18.001L6.74004 18.7557C5.61179 19.8844 3.91366 20.2229 2.438 19.6132C0.962346 19.0035 0 17.5658 0 15.9709C0 14.376 0.962346 12.9383 2.438 12.3286C3.91366 11.7189 5.61179 12.0574 6.74004 13.1861L7.97015 14.4146ZM10.5892 22.9381C11.0203 22.5076 11.0203 21.8096 10.5892 21.3791C10.1581 20.9486 9.45919 20.9486 9.02811 21.3791L7.68882 22.7166C6.14975 24.2572 6.14975 26.7512 7.68882 28.2917C9.22998 29.8269 11.7245 29.8269 13.2657 28.2917L15.6868 25.8688C15.6877 25.8679 15.6877 25.8665 15.6868 25.8655C15.6859 25.8646 15.6859 25.8631 15.6868 25.8622L17.8919 23.6601C17.8933 23.6586 17.8957 23.6586 17.8972 23.6601C17.8987 23.6616 17.9011 23.6616 17.9026 23.6601L18.6489 22.9131C19.0618 22.4998 19.0614 21.8306 18.6481 21.4178L18.6166 21.3864C18.1852 20.9555 17.4856 20.9559 17.0546 21.3873L16.0071 22.4357C16.0041 22.4387 15.9993 22.4387 15.9962 22.4357C15.9932 22.4327 15.9884 22.4327 15.9853 22.4357L14.4365 23.9825C14.4343 23.9847 14.4343 23.9884 14.4365 23.9906C14.4388 23.9929 14.4388 23.9965 14.4365 23.9988L11.7046 26.7327C11.018 27.3882 9.93651 27.3882 9.2499 26.7327C8.57154 26.0538 8.57154 24.9546 9.2499 24.2757L10.5892 22.9381ZM2.71875 17.2021C3.40744 17.8578 4.49027 17.8578 5.17897 17.2021L6.18813 16.1943C6.31015 16.0724 6.31015 15.8749 6.18813 15.753L5.17897 14.7451C4.49027 14.0895 3.40744 14.0895 2.71875 14.7451C2.04039 15.424 2.04039 16.5233 2.71875 17.2021ZM26.8244 17.2021C27.5131 17.8578 28.5959 17.8578 29.2846 17.2021C29.948 16.521 29.9405 15.434 29.2677 14.7621C28.5949 14.0902 27.5065 14.0826 26.8244 14.7451L25.8153 15.753C25.6932 15.8749 25.6932 16.0724 25.8153 16.1943L26.8244 17.2021Z" fill="#4F7D96"/>
<path fill-rule="evenodd" clip-rule="evenodd" d="M17.7867 15.6568C17.7864 15.6571 17.786 15.6571 17.7858 15.6568C17.7855 15.6566 17.7851 15.6566 17.7848 15.6568L15.6147 17.8384C15.6145 17.8385 15.6145 17.8388 15.6147 17.8389C15.6148 17.8391 15.6148 17.8393 15.6147 17.8395L14.8654 18.5927C14.4514 19.0088 13.7803 19.0088 13.3663 18.5927L13.3489 18.5752C12.9254 18.1494 12.9254 17.459 13.3489 17.0332L14.2036 16.174H14.2039H14.2042L16.1737 14.1942L16.8911 13.4747C17.3148 13.0498 18.0009 13.0501 18.4241 13.4756L18.4889 13.5407C18.877 13.9309 18.8767 14.5636 18.4881 14.9533L17.7867 15.6568Z" fill="#EAB604"/>
<path fill-rule="evenodd" clip-rule="evenodd" d="M18.9049 17.4053C18.4945 16.9903 17.829 16.9903 17.4185 17.4053L17.3457 17.4789C16.943 17.8859 16.943 18.5458 17.3457 18.9528L18.0739 19.689C18.0743 19.6894 18.075 19.6894 18.0754 19.689C18.0758 19.6886 18.0765 19.6886 18.0769 19.689L20.2621 21.898C20.2625 21.8984 20.2625 21.8991 20.2621 21.8995C20.2617 21.8999 20.2617 21.9006 20.2621 21.901L22.623 24.2877C23.2939 24.9674 23.2927 26.0682 22.6203 26.7464C21.9479 27.4246 20.859 27.4234 20.1881 26.7436L18.864 25.4052C18.4381 24.9746 17.7476 24.9746 17.3217 25.4052C16.8958 25.8357 16.8958 26.5338 17.3217 26.9643L18.6485 28.3055C20.1755 29.8293 22.633 29.8213 24.1503 28.2875C25.6675 26.7537 25.6755 24.2695 24.1681 22.7258L21.8365 20.3688H21.8363H21.836L19.6495 18.1585L19.6495 18.1582V18.158L18.9049 17.4053ZM13.5171 11.9575C13.5167 11.9578 13.5167 11.9584 13.5171 11.9587L14.4687 12.9207C14.8949 13.3516 14.8949 14.0501 14.4687 14.481L14.3535 14.5974C13.9906 14.9643 13.4021 14.964 13.0396 14.5967L12.3846 13.9331V13.9328V13.9325L12.1142 13.6592L11.9713 13.5145L10.4262 11.9527L8.21518 9.71735C6.7078 8.17366 6.71577 5.68941 8.23302 4.15563C9.75028 2.62185 12.2078 2.61379 13.7348 4.13759L14.4931 4.90418C14.9198 5.33548 14.9198 6.03476 14.4931 6.46607C14.0665 6.89737 13.3747 6.89737 12.9481 6.46607L12.1898 5.69948C11.5102 5.0428 10.4398 5.0428 9.76024 5.69948C9.08884 6.37962 9.08884 7.48084 9.76024 8.16098L11.9707 10.3956C11.9711 10.3959 11.9717 10.3959 11.972 10.3956C11.9724 10.3952 11.9729 10.3952 11.9733 10.3956L13.5171 11.9562C13.5174 11.9565 13.5174 11.9571 13.5171 11.9575ZM22.5323 14.5955C22.1064 15.026 21.4158 15.026 20.9899 14.5955L20.1009 13.6968C20.1001 13.696 20.1001 13.6946 20.1009 13.6938C20.1017 13.6929 20.1017 13.6916 20.1009 13.6907L17.9172 11.4832C17.9164 11.4824 17.915 11.4824 17.9142 11.4832C17.9134 11.4841 17.912 11.4841 17.9112 11.4832L17.2334 10.7981C16.8583 10.4189 16.8583 9.80414 17.2334 9.42496L17.4506 9.20542C17.8084 8.84374 18.3886 8.84407 18.746 9.20615L19.3936 9.86251L19.5373 10.0079L19.9203 10.396C19.9204 10.3961 19.9206 10.3961 19.9208 10.396C19.9209 10.3959 19.9211 10.3959 19.9212 10.396L21.4658 11.9574C21.4659 11.9576 21.4659 11.9578 21.4658 11.9579C21.4657 11.958 21.4657 11.9582 21.4658 11.9583L22.5323 13.0364C22.9582 13.4669 22.9582 14.165 22.5323 14.5955ZM13.5164 19.9938L14.5688 21.0601C14.9944 21.4912 14.994 22.1893 14.568 22.6199C14.1416 23.0509 13.4504 23.0509 13.0241 22.6199L11.9715 21.5558H11.9713H11.971L10.4262 19.9942L10.4262 19.994V19.9937L9.37479 18.9309C8.94846 18.4999 8.94846 17.8011 9.37479 17.3702C9.80078 16.9395 10.4913 16.9391 10.9178 17.3693L11.9714 18.4319L13.5164 19.9938Z" fill="#8DBAD3"/>
</svg>
