<svg width="32" height="32" viewBox="0 0 32 32" fill="none" xmlns="http://www.w3.org/2000/svg">
<g clip-path="url(#clip0)">
<path fill-rule="evenodd" clip-rule="evenodd" d="M20.0304 5.04123C20.0304 5.00066 19.9975 4.96777 19.9569 4.96777C18.3346 4.96777 16.7989 5.5306 15.5739 6.56372C14.3489 5.5306 12.8133 4.96777 11.1909 4.96777H4.5C4.16578 4.96777 3.89487 5.23816 3.89487 5.57173V6.77964H0.687654C0.353438 6.77964 0.0825195 7.05003 0.0825195 7.38359V27.3141C0.0825195 27.6477 0.353438 27.9181 0.687654 27.9181H25.7402H26.6479H30.4603C30.7945 27.9181 31.0654 27.6477 31.0654 27.3141V14.0829C31.0654 13.7487 30.7945 13.4778 30.4603 13.4778C30.126 13.4778 29.8551 13.7487 29.8551 14.0829V26.7102H26.6479H25.7402H16.1791V25.7598C17.2128 24.8129 18.5449 24.2943 19.9569 24.2943H26.6479C26.9821 24.2943 27.253 24.024 27.253 23.6904V14.0829C27.253 13.7487 26.9821 13.4778 26.6479 13.4778C26.3137 13.4778 26.0428 13.7487 26.0428 14.0829V23.0864H19.9569C18.5918 23.0864 17.288 23.485 16.1791 24.2269V7.64118C17.2128 6.69424 18.5449 6.17568 19.9569 6.17568C19.9975 6.17568 20.0304 6.1428 20.0304 6.10223V5.04123ZM11.1909 6.17568H5.10514V23.0864H11.1909C12.5561 23.0864 13.8599 23.485 14.9688 24.2269V7.64118C13.935 6.69424 12.603 6.17568 11.1909 6.17568ZM1.29279 7.98755V26.7102H14.9688V25.7598C13.935 24.8129 12.603 24.2943 11.1909 24.2943H4.5C4.16578 24.2943 3.89487 24.024 3.89487 23.6904V7.98755H1.29279Z" fill="#4F7D96"/>
<path fill-rule="evenodd" clip-rule="evenodd" d="M3.81235 5.57166C3.81235 5.19268 4.12012 4.88574 4.49945 4.88574H11.1904C12.8088 4.88574 14.3424 5.43935 15.5734 6.45688C16.8044 5.43935 18.338 4.88574 19.9564 4.88574C20.0422 4.88574 20.1118 4.95533 20.1118 5.04116V6.10217C20.1118 6.188 20.0422 6.25758 19.9564 6.25758C18.5769 6.25758 17.2753 6.75966 16.2605 7.67734V24.0754C17.3549 23.3779 18.6271 23.0044 19.9564 23.0044H25.9603V14.0828C25.9603 13.7033 26.2679 13.3957 26.6474 13.3957C27.0269 13.3957 27.3345 13.7033 27.3345 14.0828V23.6903C27.3345 24.0693 27.0267 24.3762 26.6474 24.3762H19.9564C18.5769 24.3762 17.2753 24.8783 16.2605 25.796V26.6281H29.7726V14.0828C29.7726 13.7033 30.0803 13.3957 30.4597 13.3957C30.8392 13.3957 31.1468 13.7033 31.1468 14.0828V27.3141C31.1468 27.693 30.8391 28 30.4597 28H0.6871C0.307766 28 0 27.693 0 27.3141V7.38353C0 7.00455 0.307766 6.69761 0.6871 6.69761H3.81235V5.57166ZM4.49945 5.04967C4.21035 5.04967 3.97628 5.28352 3.97628 5.57166V6.86154H0.6871C0.398001 6.86154 0.163931 7.09538 0.163931 7.38353V27.3141C0.163931 27.6022 0.398001 27.8361 0.6871 27.8361H30.4597C30.7488 27.8361 30.9829 27.6022 30.9829 27.3141V14.0828C30.9829 13.7939 30.7487 13.5597 30.4597 13.5597C30.1708 13.5597 29.9366 13.7939 29.9366 14.0828V26.7921H16.0966V25.7237L16.1232 25.6993C17.1721 24.7385 18.5239 24.2123 19.9564 24.2123H26.6474C26.9365 24.2123 27.1706 23.9785 27.1706 23.6903V14.0828C27.1706 13.7939 26.9363 13.5597 26.6474 13.5597C26.3585 13.5597 26.1242 13.7939 26.1242 14.0828V23.1683H19.9564C18.6074 23.1683 17.3195 23.5621 16.2241 24.2949L16.0966 24.3803V7.60504L16.1232 7.58068C17.17 6.62176 18.5186 6.09574 19.9479 6.09366V5.04968C18.3479 5.05164 16.8343 5.60751 15.6263 6.62632L15.5734 6.67088L15.5206 6.62632C14.3104 5.6057 12.7935 5.04967 11.1904 5.04967H4.49945ZM5.02262 6.09365H11.1904C12.6229 6.09365 13.9747 6.61985 15.0237 7.58068L15.0503 7.60504V24.3803L14.9227 24.2949C13.8274 23.5621 12.5394 23.1683 11.1904 23.1683H5.02262V6.09365ZM5.18655 6.25758V23.0044H11.1904C12.5197 23.0044 13.792 23.3779 14.8863 24.0754V7.67734C13.8715 6.75966 12.5699 6.25758 11.1904 6.25758H5.18655ZM1.21027 7.90552H3.97628V23.6903C3.97628 23.9785 4.21035 24.2123 4.49945 24.2123H11.1904C12.6229 24.2123 13.9747 24.7385 15.0237 25.6993L15.0503 25.7237V26.7921H1.21027V7.90552ZM1.3742 8.06945V26.6281H14.8863V25.796C13.8715 24.8783 12.5699 24.3762 11.1904 24.3762H4.49945C4.12012 24.3762 3.81235 24.0693 3.81235 23.6903V8.06945H1.3742Z" fill="#4F7D96" stroke="#4F7D96" stroke-width="0.5"/>
<path fill-rule="evenodd" clip-rule="evenodd" d="M28.1641 3.86953C28.1641 3.3893 27.7748 3 27.2946 3C26.8144 3 26.4251 3.3893 26.4251 3.86952V6.22874H24.0659C23.5856 6.22874 23.1963 6.61804 23.1963 7.09827C23.1963 7.5785 23.5856 7.9678 24.0659 7.9678H26.4251V10.327C26.4251 10.8072 26.8144 11.1965 27.2946 11.1965C27.7748 11.1965 28.1641 10.8072 28.1641 10.327V7.9678H30.5233C31.0036 7.9678 31.3929 7.5785 31.3929 7.09827C31.3929 6.61804 31.0036 6.22874 30.5233 6.22874H28.1641V3.86953Z" fill="#EAB604"/>
</g>
<defs>
<clipPath id="clip0">
<rect width="32" height="32" fill="white"/>
</clipPath>
</defs>
</svg>
