<svg width="32" height="32" viewBox="0 0 32 32" fill="none" xmlns="http://www.w3.org/2000/svg">
<path fill-rule="evenodd" clip-rule="evenodd" d="M15.8691 19.0293C15.2916 19.0293 14.8263 19.521 14.9637 20.082C15.5478 22.4653 17.5411 24.2206 19.9102 24.2206C22.2792 24.2206 24.2725 22.4653 24.8566 20.0819C24.994 19.521 24.5287 19.0293 23.9512 19.0293C23.4339 19.0293 23.0163 19.431 22.8541 19.9222C22.3819 21.3517 21.15 22.2463 19.9102 22.2463C18.6704 22.2463 17.4384 21.3517 16.9663 19.9222C16.804 19.431 16.3864 19.0293 15.8691 19.0293Z" fill="#4F7D96"/>
<path fill-rule="evenodd" clip-rule="evenodd" d="M22.3359 17.909C20.232 16.9004 18.3348 17.514 17.754 17.862C17.2474 18.1656 16.5906 18.001 16.287 17.4944C15.9834 16.9878 16.148 16.331 16.6546 16.0274C17.7313 15.3822 20.392 14.6052 23.2605 15.9804C23.7931 16.2357 24.0178 16.8744 23.7625 17.407C23.5072 17.9396 22.8685 18.1643 22.3359 17.909Z" fill="#4F7D96"/>
<path fill-rule="evenodd" clip-rule="evenodd" d="M14.3188 15.4121C13.3837 15.4121 12.8131 14.4375 13.4717 13.7737C15.0201 12.2127 17.415 11.2751 19.9191 11.2751C22.4232 11.2751 24.8181 12.2127 26.3665 13.7737C27.0251 14.4375 26.4545 15.4121 25.5194 15.4121C25.1614 15.4121 24.8257 15.254 24.5581 15.0162C23.489 14.0662 21.8759 13.4139 19.9191 13.4139C17.9623 13.4139 16.3492 14.0662 15.2801 15.0162C15.0125 15.254 14.6768 15.4121 14.3188 15.4121Z" fill="#4F7D96"/>
<path fill-rule="evenodd" clip-rule="evenodd" d="M11.4039 8.57119C11.8285 8.14287 12.5085 8.12234 12.9226 8.52534L14.9125 10.462C15.3266 10.865 15.3181 11.5389 14.8934 11.9672C14.4687 12.3955 13.7888 12.4161 13.3747 12.0131L11.3848 10.0764C10.9707 9.67343 10.9792 8.99951 11.4039 8.57119Z" fill="#8DBAD3"/>
<path fill-rule="evenodd" clip-rule="evenodd" d="M20.0047 6.13383C20.6587 6.13675 21.1859 6.56031 21.1822 7.07987L21.1645 9.57982C21.1608 10.0994 20.6277 10.5182 19.9737 10.5153C19.3197 10.5123 18.7925 10.0888 18.7962 9.56923L18.8139 7.06928C18.8176 6.54972 19.3507 6.13091 20.0047 6.13383Z" fill="#8DBAD3"/>
<path fill-rule="evenodd" clip-rule="evenodd" d="M28.4242 8.49502C27.9996 8.0667 27.3196 8.04617 26.9056 8.44916L24.9156 10.3858C24.5015 10.7888 24.5101 11.4627 24.9347 11.891C25.3594 12.3194 26.0393 12.3399 26.4534 11.9369L28.4434 10.0002C28.8575 9.59725 28.8489 8.92334 28.4242 8.49502Z" fill="#8DBAD3"/>
<path fill-rule="evenodd" clip-rule="evenodd" d="M1 6.76645C1 6.22126 1.44196 5.7793 1.98715 5.7793H10.2134C10.7586 5.7793 11.2005 6.22126 11.2005 6.76645C11.2005 7.31163 10.7586 7.75359 10.2134 7.75359H1.98715C1.44196 7.75359 1 7.31163 1 6.76645ZM3.89854 8.40712C4.38911 8.64497 4.59397 9.23547 4.35612 9.72604C4.25035 9.94419 4.07481 10.5515 4.12975 11.097C4.15556 11.3532 4.22608 11.5334 4.31799 11.653C4.39784 11.757 4.54251 11.8809 4.86038 11.9507C5.12723 12.0093 5.35786 12.1758 5.4974 12.4107C5.63694 12.6456 5.67291 12.9278 5.59674 13.1901C5.24418 14.4045 4.7524 17.3577 5.59292 20.1127C5.75201 20.6342 5.45825 21.1859 4.93679 21.345C4.41533 21.5041 3.86364 21.2103 3.70455 20.6889C2.87771 17.9787 3.13918 15.1875 3.48748 13.5097C3.19779 13.3355 2.95195 13.1156 2.75238 12.8558C2.37396 12.3633 2.21614 11.7986 2.1654 11.2948C2.06723 10.3203 2.34573 9.34711 2.57962 8.8647C2.81747 8.37414 3.40797 8.16927 3.89854 8.40712ZM8.52537 8.84422C9.04713 9.00233 9.34192 9.55347 9.18382 10.0752C8.82512 11.2589 8.77399 12.8175 8.91202 14.3197C9.05016 15.8231 9.36448 17.1338 9.64301 17.798C9.85385 18.3007 9.61719 18.8792 9.11442 19.0901C8.61165 19.3009 8.03316 19.0642 7.82232 18.5615C7.4385 17.6462 7.09472 16.1188 6.94601 14.5004C6.79718 12.8807 6.83044 11.0336 7.29437 9.50267C7.45247 8.98091 8.00361 8.68611 8.52537 8.84422ZM11.9553 19.1001C12.2346 19.2346 12.4345 19.4925 12.4951 19.7965C12.646 20.5537 12.9568 21.5911 13.4787 22.4955C14.0046 23.4069 14.6753 24.068 15.5034 24.3053C16.0275 24.4556 16.3306 25.0022 16.1803 25.5263C16.0301 26.0504 15.4835 26.3534 14.9594 26.2032C13.4438 25.7688 12.4268 24.6227 11.7687 23.4823C11.3781 22.8055 11.0893 22.0898 10.8816 21.4333L5.05387 24.4402L8.2889 30.5508C8.54398 31.0326 8.36017 31.63 7.87834 31.8851C7.39651 32.1402 6.79912 31.9564 6.54404 31.4745L2.84223 24.4822C2.71889 24.2492 2.69385 23.9766 2.77271 23.7251C2.85156 23.4735 3.02776 23.264 3.26203 23.1431L11.0743 19.1122C11.3498 18.9701 11.676 18.9656 11.9553 19.1001ZM19.4869 28.2246C16.7727 29.5171 14.212 31.0479 13.3002 31.7817C12.8754 32.1235 12.254 32.0563 11.9122 31.6315C11.5704 31.2068 11.6376 30.5854 12.0624 30.2436C13.1541 29.365 15.8788 27.756 18.638 26.4421C20.0286 25.7799 21.4647 25.1748 22.7449 24.7668C23.9702 24.3763 25.2353 24.1035 26.1913 24.2843C28.0424 24.6345 29.0137 26.1292 29.5064 27.4603C30.0054 28.8086 30.1209 30.2469 30.1209 31.0126C30.1209 31.5578 29.6789 31.9998 29.1337 31.9998C28.5886 31.9998 28.1466 31.5578 28.1466 31.0126C28.1466 30.3876 28.0456 29.2015 27.6548 28.1456C27.2577 27.0726 26.666 26.3835 25.8243 26.2242C25.4024 26.1444 24.5632 26.2595 23.3444 26.6479C22.1806 27.0188 20.833 27.5836 19.4869 28.2246Z" fill="#4F7D96"/>
<path fill-rule="evenodd" clip-rule="evenodd" d="M6.04381 0.000246836C6.39492 -0.00759118 6.72376 0.171706 6.90736 0.471092L8.78205 3.52808C9.06706 3.99284 8.92135 4.60064 8.45659 4.88565C7.99184 5.17066 7.38403 5.02495 7.09902 4.5602L6.10959 2.94677L5.23775 4.52213C4.97377 4.99914 4.37307 5.17183 3.89606 4.90784C3.41905 4.64386 3.24636 4.04316 3.51034 3.56615L5.20214 0.509159C5.37219 0.201878 5.6927 0.00808485 6.04381 0.000246836Z" fill="#F2C94C"/>
</svg>
