<svg width="32" height="32" viewBox="0 0 32 32" fill="none" xmlns="http://www.w3.org/2000/svg">
<path fill-rule="evenodd" clip-rule="evenodd" d="M6.19967 3C6.9399 3 7.53997 3.60007 7.53997 4.3403V28.6332C7.53997 29.3734 6.9399 29.9735 6.19967 29.9735C5.45945 29.9735 4.85938 29.3734 4.85938 28.6332V4.3403C4.85938 3.60007 5.45945 3 6.19967 3Z" fill="#4F7D96"/>
<path fill-rule="evenodd" clip-rule="evenodd" d="M19.9526 13.5263C20.5236 13.9974 20.6045 14.8421 20.1334 15.4131C18.8727 16.941 17.4743 17.8344 15.9914 18.2402C14.5282 18.6407 13.0936 18.5362 11.7979 18.2579C10.604 18.0014 9.45083 17.578 8.46491 17.2159C8.39323 17.1896 8.32243 17.1636 8.25257 17.138C7.15626 16.7364 6.34502 16.4604 5.69695 16.3965C4.75782 16.3039 4.08485 16.6195 3.58646 17.0577C3.05403 17.5258 2.73291 18.1311 2.61523 18.4929C2.38626 19.1968 1.63 19.5819 0.926079 19.3529C0.222155 19.1239 -0.162874 18.3677 0.0660927 17.6638C0.311712 16.9086 0.875331 15.8721 1.8164 15.0446C2.79151 14.1872 4.18081 13.5534 5.96001 13.7289C7.0109 13.8325 8.15507 14.2475 9.17444 14.6209C9.23272 14.6422 9.29088 14.6635 9.34892 14.6848C10.3713 15.0598 11.3584 15.4217 12.3608 15.6371C13.4053 15.8614 14.3748 15.9035 15.2838 15.6547C16.1729 15.4114 17.1147 14.8597 18.0658 13.707C18.5369 13.1361 19.3817 13.0551 19.9526 13.5263Z" fill="#EAB604"/>
<path fill-rule="evenodd" clip-rule="evenodd" d="M19.0991 3C19.8393 3 20.4394 3.60007 20.4394 4.3403V28.6332C20.4394 29.3734 19.8393 29.9735 19.0991 29.9735C18.3589 29.9735 17.7588 29.3734 17.7588 28.6332V4.3403C17.7588 3.60007 18.3589 3 19.0991 3Z" fill="#4F7D96"/>
<path fill-rule="evenodd" clip-rule="evenodd" d="M26.1096 3.32806C28.1185 3.03211 29.5787 3.61865 30.6461 4.65803C31.0769 5.07763 31.0861 5.76708 30.6665 6.19797C30.2469 6.62885 29.5574 6.63799 29.1266 6.2184C28.5536 5.66049 27.7758 5.28409 26.4271 5.48279C25.9324 5.55566 25.4673 5.74928 25.1502 6.01081C24.8516 6.25704 24.7121 6.53162 24.7121 6.85336C24.7121 7.33387 24.8478 7.63757 25.1033 7.85075C25.3959 8.0949 26.0239 8.37006 27.3176 8.37006C28.8522 8.37006 30.074 8.67891 30.9083 9.43114C31.7722 10.21 32 11.2598 32 12.2146C32 13.3605 31.4947 14.3436 30.5623 15.0002C29.6748 15.6252 28.4833 15.9004 27.1414 15.9004C25.7047 15.9004 24.561 15.4788 23.6991 14.7569C22.8525 14.0479 22.3591 13.118 22.081 12.2268C21.9018 11.6527 22.222 11.042 22.7961 10.8628C23.3702 10.6837 23.9809 11.0038 24.1601 11.5779C24.3523 12.1939 24.6573 12.7185 25.0975 13.0872C25.5224 13.443 26.154 13.7224 27.1414 13.7224C28.2237 13.7224 28.9171 13.4949 29.3083 13.2194C29.6546 12.9755 29.822 12.6602 29.822 12.2146C29.822 11.5777 29.6729 11.2498 29.4499 11.0488C29.1975 10.8211 28.6225 10.548 27.3176 10.548C25.7719 10.548 24.5527 10.2279 23.7079 9.52302C22.826 8.78715 22.5342 7.788 22.5342 6.85336C22.5342 5.75996 23.066 4.90652 23.7644 4.33053C24.4443 3.76985 25.3017 3.44708 26.1096 3.32806Z" fill="#4F7D96"/>
<path fill-rule="evenodd" clip-rule="evenodd" d="M24.1173 16.9785C24.7187 16.9745 25.2098 17.4588 25.2141 18.0602L25.2871 28.2008C25.2914 28.8022 24.8074 29.293 24.2059 29.297C23.6045 29.3011 23.1135 28.8168 23.1091 28.2154L23.0362 18.0748C23.0318 17.4734 23.5159 16.9826 24.1173 16.9785Z" fill="#8DBAD3"/>
<path fill-rule="evenodd" clip-rule="evenodd" d="M30.9532 17.6642C31.4239 18.0389 31.5021 18.7242 31.1279 19.1949L30.2757 18.5165L29.4236 17.8381C29.7977 17.3674 30.4826 17.2896 30.9532 17.6642ZM30.2757 18.5165C29.4236 17.8381 29.4236 17.8381 29.4236 17.8381L25.7744 22.4288C25.4003 22.8995 25.4785 23.5848 25.9492 23.9595C26.4198 24.3341 27.1047 24.2563 27.4788 23.7856L31.1278 19.195L31.1279 19.1949C31.128 19.1949 31.1279 19.1949 30.2757 18.5165Z" fill="#8DBAD3"/>
<path fill-rule="evenodd" clip-rule="evenodd" d="M25.9572 22.9451C26.1621 22.3795 26.7866 22.0869 27.352 22.2914C29.0132 22.8923 30.2177 23.708 30.9635 24.7855C31.7201 25.8785 31.9114 27.1051 31.805 28.3322C31.753 28.9314 31.2252 29.3754 30.626 29.3239C30.0268 29.2723 29.5832 28.7448 29.6352 28.1455C29.7108 27.2735 29.5648 26.5928 29.1725 26.026C28.7695 25.4437 28.0134 24.8473 26.61 24.3396C26.0445 24.1351 25.7523 23.5107 25.9572 22.9451Z" fill="#8DBAD3"/>
</svg>
