<svg width="32" height="32" viewBox="0 0 32 32" fill="none" xmlns="http://www.w3.org/2000/svg">
<path d="M24.9352 14.0273C24.9352 14.6521 24.4272 15.1585 23.8006 15.1585H11.1715C11.3189 18.0434 12.0229 20.6005 12.5672 22.3419C12.7536 22.9384 12.4198 23.5726 11.8215 23.7584C11.7092 23.7933 11.5954 23.8099 11.4836 23.8099C11.0002 23.8099 10.5522 23.4994 10.4007 23.015C9.81111 21.1283 9.0467 18.3425 8.8996 15.1584H6.10136C5.47474 15.1584 4.9668 14.652 4.9668 14.0273C4.9668 13.4026 5.47474 12.8961 6.10136 12.8961H8.9051C9.06542 9.75784 9.8237 7.01284 10.4102 5.14679C10.5976 4.55062 11.2343 4.21863 11.8321 4.40566C12.4301 4.59247 12.7629 5.2271 12.5755 5.82327C12.035 7.54306 11.338 10.0578 11.1776 12.8962H18.768C18.6076 10.0578 17.9106 7.54306 17.3701 5.82333C17.1827 5.22716 17.5156 4.59247 18.1135 4.40572C18.7116 4.21914 19.348 4.55079 19.5354 5.14685C20.1219 7.01289 20.8802 9.7579 21.0405 12.8962H23.8006C24.4272 12.8962 24.9352 13.4026 24.9352 14.0273Z" fill="#4F7D96"/>
<path d="M30.4396 25.8555C30.4396 24.8193 29.8426 23.8928 28.9505 23.446L28.6224 20.9214C28.6221 20.9184 28.6216 20.9154 28.6212 20.9124C28.4122 19.4183 27.5855 18.0915 26.3529 17.2719C25.4943 16.7011 24.4373 16.3867 23.3765 16.3867C22.3156 16.3867 21.2586 16.7011 20.4 17.272C19.1674 18.0915 18.3407 19.4184 18.1317 20.9124C18.1312 20.9158 18.1308 20.9191 18.1303 20.9224L17.8024 23.4676C16.9282 23.9207 16.3594 24.8272 16.3594 25.8555C16.3594 27.3396 17.5642 28.5469 19.0451 28.5469H27.7538C29.2348 28.5469 30.4396 27.3396 30.4396 25.8555ZM21.4247 18.8196C21.9749 18.4538 22.6863 18.244 23.3765 18.244C24.0666 18.244 24.778 18.4538 25.3283 18.8196C26.118 19.3447 26.6489 20.1996 26.7852 21.1659L27.1856 24.2477C27.2368 24.6416 27.5322 24.9593 27.9208 25.038C28.3064 25.1162 28.5862 25.4601 28.5862 25.8556C28.5862 26.3156 28.2128 26.6897 27.7538 26.6897H19.0452C18.5862 26.6897 18.2128 26.3155 18.2128 25.8556C18.2128 25.4706 18.484 25.1289 18.8577 25.043C19.2358 24.956 19.5198 24.6423 19.5695 24.2567L19.9678 21.1655C20.1042 20.1995 20.6351 19.3446 21.4247 18.8196ZM25.3908 24.0943C25.3908 23.5814 24.976 23.1657 24.4642 23.1657H22.1475C21.6357 23.1657 21.2208 23.5814 21.2208 24.0943C21.2208 24.6072 21.6357 25.0229 22.1475 25.0229H24.4642C24.976 25.0229 25.3908 24.6072 25.3908 24.0943Z" fill="#8DBAD3"/>
<path d="M25.9521 30.0536C26.0135 29.5643 25.6422 29.1207 25.1227 29.0629C24.6033 29.0052 24.1322 29.3548 24.0708 29.8441C24.0442 30.0564 23.8378 30.2165 23.5907 30.2165C23.3436 30.2165 23.1372 30.0564 23.1106 29.8441C23.0492 29.3548 22.5783 29.0051 22.0587 29.0629C21.5393 29.1207 21.1679 29.5643 21.2293 30.0536C21.3686 31.1636 22.3838 32.0007 23.5907 32.0007C24.7976 32.0007 25.8127 31.1636 25.9521 30.0536Z" fill="#EAB604"/>
<path fill-rule="evenodd" clip-rule="evenodd" d="M27.7343 15.4828C27.0219 15.4269 26.4634 14.8012 26.47 14.0885C26.4703 14.0525 26.4705 14.0164 26.4705 13.9803C26.4705 7.67095 21.3423 2.55623 15.0163 2.55623C8.69025 2.55623 3.562 7.67095 3.562 13.9803C3.562 19.1816 7.04717 23.571 11.8155 24.9523C12.2655 25.0827 12.5984 25.459 12.6983 25.9157C12.8855 26.7712 12.2393 27.7134 11.391 27.4875C5.4073 25.894 1 20.4505 0.999999 13.9803C0.999999 6.25973 7.27529 0.000987732 15.0163 0.000987394C22.7572 0.000987056 29.0325 6.25973 29.0325 13.9803C29.0325 14.1191 29.0305 14.2575 29.0265 14.3954C29.0069 15.0654 28.4043 15.5353 27.7343 15.4828Z" fill="#4F7D96"/>
</svg>
