<svg width="32" height="34" viewBox="0 0 32 34" fill="none" xmlns="http://www.w3.org/2000/svg">
<path d="M4.95117 21.0254H14.3286" stroke="#8DBAD3" stroke-width="1.38925" stroke-linecap="round" stroke-linejoin="round"/>
<path d="M4.95117 24.6719H16.5861" stroke="#8DBAD3" stroke-width="1.38925" stroke-linecap="round" stroke-linejoin="round"/>
<path d="M4.96677 17.3263C4.99102 17.3505 5.05165 17.3625 5.17292 17.3625L5.81562 17.3625C5.93688 17.3625 6.02177 17.3142 6.07027 17.1934L6.76148 15.3331L10.8723 15.3331L11.5757 17.1934C11.5878 17.2417 11.6242 17.278 11.6727 17.3021C11.7212 17.3505 11.7818 17.3625 11.8303 17.3625L12.4973 17.3625C12.5579 17.3625 12.6185 17.3505 12.667 17.3021C12.7398 17.2538 12.764 17.1934 12.7519 17.133L12.7034 16.976L9.5748 8.67714C9.52629 8.56842 9.44141 8.50802 9.30802 8.50802L8.32578 8.50802C8.19239 8.50802 8.10751 8.5805 8.059 8.7013L4.95464 16.976L4.88188 17.1572C4.86976 17.2055 4.89401 17.2659 4.96677 17.3263ZM7.12527 14.3063L8.82296 9.70393L10.5207 14.3063L7.12527 14.3063Z" fill="#EAB604"/>
<path d="M14.916 17.3021C14.9645 17.3505 15.0251 17.3625 15.1221 17.3625L15.7648 17.3625C15.8618 17.3625 15.9346 17.3505 15.9831 17.3021C16.0073 17.2659 16.0316 17.1934 16.0316 17.0968L16.0316 13.6903L18.275 13.6903C19.1966 13.6903 19.9363 13.4728 20.4699 13.0259C21.0034 12.5789 21.2823 11.9266 21.2823 11.0689C21.2823 10.2113 21.0155 9.55897 20.482 9.11202C19.9484 8.66506 19.2087 8.43555 18.275 8.43555L15.1221 8.43555C15.0251 8.43555 14.9645 8.45971 14.916 8.50803C14.8675 8.55635 14.8553 8.61674 14.8553 8.71338L14.8553 17.0968C14.8553 17.2055 14.8675 17.278 14.916 17.3021ZM18.2143 12.6876L16.0316 12.6876L16.0316 9.43817L18.2143 9.43817C18.8328 9.43817 19.2936 9.58313 19.6089 9.86097C19.9242 10.1388 20.0818 10.5374 20.0818 11.0689C20.0818 12.1561 19.4634 12.6876 18.2143 12.6876Z" fill="#EAB604"/>
<path fill-rule="evenodd" clip-rule="evenodd" d="M14.7331 8.32407C14.8415 8.21615 14.9744 8.17578 15.1228 8.17578L18.2757 8.17578C19.2507 8.17578 20.0561 8.4157 20.6497 8.91296C21.2557 9.42058 21.543 10.154 21.543 11.069C21.543 11.9872 21.2415 12.7191 20.6376 13.225C20.0425 13.7235 19.2359 13.9501 18.2757 13.9501L16.2923 13.9501L16.2923 17.0968C16.2923 17.2299 16.2601 17.3567 16.1999 17.4465L16.1856 17.4679L16.1674 17.4861C16.038 17.615 15.8663 17.6223 15.7655 17.6223L15.1228 17.6223C15.0192 17.6223 14.8795 17.6127 14.7593 17.5103C14.6699 17.4486 14.6326 17.3579 14.6167 17.2969C14.5987 17.2284 14.5961 17.1554 14.5961 17.0968L14.5961 8.7134C14.5961 8.60223 14.6073 8.44943 14.7331 8.32407ZM15.1163 8.69541C15.1161 8.70073 15.1161 8.7067 15.1161 8.7134L15.1161 17.0968C15.1161 17.0988 15.1161 17.1008 15.1161 17.1027C15.1182 17.1028 15.1205 17.1028 15.1228 17.1028L15.7655 17.1028C15.7678 17.1028 15.7701 17.1028 15.7723 17.1027C15.7723 17.1008 15.7723 17.0988 15.7723 17.0968L15.7723 13.4305L18.2757 13.4305C19.1588 13.4305 19.8316 13.2222 20.3035 12.8268C20.7668 12.4388 21.0231 11.866 21.0231 11.069C21.0231 10.2686 20.7768 9.69739 20.3157 9.3111C19.8422 8.91446 19.1682 8.69534 18.2757 8.69534L15.1228 8.69534C15.1205 8.69534 15.1183 8.69537 15.1163 8.69541ZM8.00445 8.35219C8.09852 8.2811 8.20974 8.24826 8.32651 8.24826L9.30875 8.24826C9.41561 8.24826 9.52202 8.2729 9.61615 8.33434C9.71015 8.39568 9.77278 8.48124 9.813 8.57138L9.81613 8.5784L12.9502 16.8918L13.005 17.069L13.0076 17.0819C13.0426 17.2567 12.9626 17.4084 12.8321 17.5043C12.7183 17.6055 12.5864 17.6223 12.498 17.6223L11.831 17.6223C11.7506 17.6223 11.6289 17.604 11.5214 17.5148C11.4434 17.4677 11.3639 17.3906 11.3291 17.2746L10.6933 15.5929L6.94302 15.5929L6.31356 17.287L6.3123 17.2902C6.2725 17.3893 6.20865 17.4796 6.11125 17.542C6.01542 17.6034 5.91099 17.6223 5.81635 17.6223L5.17365 17.6223C5.1071 17.6223 5.04368 17.6192 4.98782 17.6091C4.94197 17.6008 4.86224 17.5815 4.795 17.5208C4.69138 17.4324 4.58354 17.2808 4.63042 17.094L4.63473 17.0769L4.71296 16.882L7.81732 8.60735L7.81843 8.60459C7.85513 8.51317 7.91316 8.42118 8.00445 8.35219ZM8.30194 8.7958L5.19778 17.07L5.18461 17.1028L5.81635 17.1028C5.82069 17.1028 5.82431 17.1026 5.82726 17.1024C5.82772 17.1014 5.82821 17.1003 5.82872 17.0991L6.58139 15.0734L11.0528 15.0734L11.8117 17.0808L11.8271 17.0884L11.8415 17.1028L12.4712 17.1028L12.458 17.0602L9.33565 8.77783C9.33373 8.774 9.33214 8.77138 9.33102 8.76972C9.32752 8.76894 9.32044 8.76782 9.30875 8.76782L8.32651 8.76782C8.32198 8.76782 8.31879 8.7681 8.31673 8.76838C8.31388 8.77199 8.30843 8.78012 8.30194 8.7958ZM8.82369 8.95275L10.8943 14.5661L6.75308 14.5661L8.82369 8.95275ZM15.7723 9.17841L18.2151 9.17841C18.8711 9.17841 19.4025 9.33208 19.7816 9.66615C20.1664 10.0052 20.3425 10.4831 20.3425 11.069C20.3425 11.662 20.1722 12.1495 19.7874 12.4824C19.4099 12.8089 18.8702 12.9474 18.2151 12.9474L15.7723 12.9474L15.7723 9.17841ZM16.2923 9.69797L16.2923 12.4279L18.2151 12.4279C18.8089 12.4279 19.203 12.3006 19.447 12.0896C19.6836 11.8849 19.8225 11.5631 19.8225 11.069C19.8225 10.5918 19.6834 10.2724 19.4376 10.0558C19.1862 9.8342 18.796 9.69797 18.2151 9.69797L16.2923 9.69797ZM8.82369 10.4551L7.49891 14.0466L10.1485 14.0466L8.82369 10.4551Z" fill="#EAB604"/>
<path d="M19.5822 31.6294H6.62968C3.50178 31.6294 0.957031 29.0867 0.957031 25.9614V6.54879C0.957031 3.42349 3.50178 0.880859 6.62968 0.880859H19.4877C22.6156 0.880859 25.1603 3.42349 25.1603 6.54879V18.7112C25.1603 19.2329 24.7371 19.6559 24.2149 19.6559C23.6927 19.6559 23.2695 19.2329 23.2695 18.7112V6.54879C23.2695 4.46526 21.573 2.77017 19.4877 2.77017H6.62968C4.54442 2.77017 2.84791 4.46526 2.84791 6.54879V25.9614C2.84791 28.045 4.54442 29.7401 6.62968 29.7401H19.5822C20.1044 29.7401 20.5277 30.163 20.5277 30.6847C20.5277 31.2064 20.1044 31.6294 19.5822 31.6294Z" fill="#4F7D96"/>
<path d="M16.2826 20.1235C16.2826 19.7715 16.3172 19.4171 16.3878 19.0644C16.4428 18.7892 16.6581 18.5742 16.9334 18.5192C18.7018 18.1657 20.5189 18.7154 21.7942 19.9896L30.7006 28.8886C30.831 29.0189 30.9043 29.1956 30.9043 29.38C30.9043 29.5643 30.831 29.7411 30.7006 29.8714L27.7495 32.82C27.4779 33.0914 27.0375 33.0914 26.7659 32.82L17.8595 23.921C16.8389 22.9013 16.2826 21.5344 16.2826 20.1235ZM17.6857 19.8159C17.597 20.9687 18.0126 22.1083 18.8432 22.9381L27.2577 31.3457L29.225 29.38L20.8105 20.9725C19.98 20.1426 18.8395 19.7272 17.6857 19.8159Z" fill="#4F7D96"/>
<path fill-rule="evenodd" clip-rule="evenodd" d="M30.8109 29.3807C30.8109 29.2214 30.7476 29.0687 30.6349 28.9561L21.7285 20.0571C20.4756 18.8053 18.6905 18.2653 16.9531 18.6125C16.7152 18.6601 16.5292 18.8459 16.4817 19.0836C16.4123 19.4302 16.3783 19.7784 16.3783 20.1242C16.3783 21.5102 16.9248 22.853 17.9275 23.8549L26.8339 32.7539C27.0686 32.9884 27.4491 32.9884 27.6838 32.7539L30.6349 29.8053C30.7476 29.6927 30.8109 29.54 30.8109 29.3807ZM30.7686 28.8225C30.9168 28.9705 31 29.1713 31 29.3807C31 29.5901 30.9168 29.7909 30.7686 29.9389L27.8176 32.8875C27.509 33.1958 27.0087 33.1958 26.7002 32.8875L17.7938 23.9885C16.7553 22.951 16.1892 21.56 16.1892 20.1242C16.1892 19.766 16.2244 19.4054 16.2962 19.0466C16.3588 18.734 16.6033 18.4897 16.916 18.4273C18.7154 18.0676 20.5646 18.627 21.8622 19.9235L30.7686 28.8225C30.7686 28.8225 30.7686 28.8225 30.7686 28.8225ZM29.3599 29.3807L27.2588 31.48L18.7775 23.0057C17.9273 22.1562 17.5018 20.9895 17.5926 19.8094L17.5988 19.7287L17.6796 19.7225C18.8608 19.6316 20.0284 20.0569 20.8786 20.9064L29.3599 29.3807ZM29.0925 29.3807L20.7449 21.04C19.9535 20.2493 18.8741 19.844 17.7757 19.9054C17.7143 21.0028 18.1199 22.0814 18.9112 22.8721L27.2588 31.2128L29.0925 29.3807Z" fill="#4F7D96"/>
</svg>
