<svg width="32" height="32" viewBox="0 0 32 32" fill="none" xmlns="http://www.w3.org/2000/svg">
<path fill-rule="evenodd" clip-rule="evenodd" d="M21.384 9.93801C21.9569 10.3977 22.4076 10.9916 22.6963 11.667C22.985 12.3426 23.1028 13.079 23.0391 13.811C22.9754 14.5429 22.7323 15.2479 22.3312 15.8635C21.9301 16.4791 21.3835 16.9862 20.7396 17.3401C20.0958 17.694 19.3747 17.8836 18.6401 17.8923C17.9055 17.9009 17.1801 17.7283 16.5282 17.3896C15.8762 17.051 15.3178 16.5568 14.9023 15.9509C14.4869 15.3449 14.2272 14.6458 14.1464 13.9156L14.1456 13.9156C14.0943 13.394 14.1266 12.9157 14.2143 12.4867C14.4113 11.5627 14.8968 10.7205 15.6062 10.0854C16.4066 9.36886 17.4373 8.96475 18.5096 8.94531V8.94656C18.9954 8.93122 20.2418 9.11454 21.384 9.93801ZM22.0603 13.4135C22.0609 14.1037 21.8558 14.7783 21.4713 15.3514C21.0868 15.9245 20.5403 16.37 19.9015 16.6311C19.2628 16.8921 18.5607 16.957 17.885 16.8173C17.2092 16.6775 16.5904 16.3396 16.1075 15.8466C16.468 15.9199 16.8403 15.912 17.1975 15.8237C17.5546 15.7354 17.8876 15.5687 18.1725 15.3359C18.4573 15.103 18.6869 14.8098 18.8445 14.4773C19.0021 14.1448 19.0839 13.7815 19.0839 13.4135C19.0839 13.0456 19.0021 12.6823 18.8445 12.3498C18.6869 12.0173 18.4573 11.7241 18.1725 11.4912C17.8876 11.2584 17.5546 11.0917 17.1975 11.0034C16.8403 10.9151 16.468 10.9072 16.1075 10.9804C16.5904 10.4875 17.2092 10.1495 17.885 10.0098C18.5607 9.87012 19.2628 9.93494 19.9015 10.196C20.5403 10.4571 21.0868 10.9026 21.4713 11.4757C21.8558 12.0488 22.0609 12.7234 22.0603 13.4135ZM16.599 11.9239C16.8936 11.9239 17.1816 12.0113 17.4265 12.1749C17.6714 12.3386 17.8623 12.5713 17.9751 12.8435C18.0878 13.1157 18.1173 13.4152 18.0598 13.7042C18.0024 13.9931 17.8605 14.2586 17.6522 14.4669C17.4439 14.6752 17.1785 14.8171 16.8896 14.8746C16.6007 14.9321 16.3012 14.9026 16.029 14.7898C15.7569 14.6771 15.5242 14.4861 15.3606 14.2412C15.1969 13.9962 15.1095 13.7082 15.1095 13.4135C15.1095 13.0185 15.2665 12.6396 15.5458 12.3602C15.8251 12.0808 16.204 11.9239 16.599 11.9239Z" fill="#4F7D96" stroke="#4F7D96" stroke-width="0.659466"/>
<path d="M13.1806 13.4292C13.1806 13.7026 12.96 13.9247 12.6866 13.9267L8.97471 13.953C8.79593 13.9543 8.62254 13.7489 8.53323 13.594C8.38042 13.329 8.57847 12.9608 8.88439 12.9586L12.6796 12.9317C12.9557 12.9297 13.1806 13.153 13.1806 13.4292Z" fill="#4F7D96" stroke="#4F7D96" stroke-width="0.659466"/>
<path d="M30.6065 10.6935L30.9714 9.59864C30.9963 9.52403 31.0031 9.44459 30.9912 9.36685C30.9793 9.28911 30.9492 9.2153 30.9032 9.1515C30.8573 9.08769 30.7968 9.03571 30.7269 8.99984C30.6569 8.96398 30.5794 8.94524 30.5008 8.94518H25.6983L30.5435 3.83417C30.7734 3.60442 30.9251 3.30813 30.9773 2.98728C31.0294 2.66644 30.9792 2.33732 30.8339 2.04659L30.8225 2.02573C30.7096 1.8078 30.5465 1.61983 30.3467 1.47731C30.1469 1.33479 29.9161 1.2418 29.6733 1.20601C29.4306 1.17022 29.1827 1.19265 28.9503 1.27146C28.7179 1.35027 28.5076 1.48319 28.3366 1.65928L26.0324 4.18722V3.48311C26.0324 3.08803 25.8755 2.70913 25.5962 2.42977C25.3168 2.1504 24.938 1.99346 24.543 1.99346C24.1479 1.99346 23.7691 2.1504 23.4898 2.42977C23.2104 2.70913 23.0535 3.08803 23.0535 3.48311V7.24995L21.8117 8.49192C21.5931 8.71055 21.6864 9.09929 21.9451 9.26854C22.1355 9.39311 22.3561 9.35286 22.5169 9.19189L23.901 7.80659C23.9941 7.71349 24.0465 7.58721 24.0465 7.45552V3.48311C24.0465 3.35142 24.0988 3.22512 24.1919 3.132C24.285 3.03887 24.4113 2.98656 24.543 2.98656C24.6746 2.98656 24.8009 3.03887 24.894 3.132C24.9871 3.22512 25.0394 3.35142 25.0394 3.48311V5.46932C25.0394 5.56949 25.0697 5.66733 25.1263 5.74999C25.1829 5.83265 25.2631 5.89626 25.3565 5.93246C25.4499 5.96866 25.5521 5.97576 25.6496 5.95284C25.7471 5.92991 25.8354 5.87802 25.9028 5.80399L29.0545 2.34402C29.1169 2.28184 29.1932 2.23537 29.2771 2.20845C29.361 2.18153 29.45 2.17492 29.537 2.18918C29.6239 2.20344 29.7062 2.23815 29.7771 2.29045C29.848 2.34275 29.9054 2.41115 29.9447 2.49001L29.9522 2.50391C30.0009 2.60974 30.0155 2.7281 29.994 2.8426C29.9724 2.9571 29.9158 3.06208 29.832 3.14297L23.587 9.67787C23.4933 9.77585 23.5628 9.93828 23.6983 9.93828H25.5977H29.8117L29.6627 10.3797C29.5135 10.8296 29.2264 11.221 28.8421 11.4983C28.4577 11.7757 27.9958 11.9248 27.5219 11.9245C27.4296 11.9244 27.3392 11.9501 27.2607 11.9986C27.1822 12.0471 27.1188 12.1165 27.0775 12.1991L26.0845 14.1853C26.0467 14.261 26.0289 14.3452 26.0327 14.4297C26.0365 14.5143 26.0619 14.5965 26.1064 14.6685C26.1509 14.7404 26.2131 14.7999 26.2871 14.841C26.361 14.8822 26.4443 14.9038 26.5289 14.9038H29.8117L29.6627 15.3452C29.5135 15.7951 29.2264 16.1865 28.8421 16.4639C28.4577 16.7412 27.9958 16.8903 27.5219 16.89C27.4292 16.8895 27.3382 16.915 27.2592 16.9635C27.1803 17.012 27.1165 17.0817 27.075 17.1646L26.0821 19.1508C26.0441 19.2267 26.0263 19.3111 26.0302 19.3959C26.0342 19.4806 26.0598 19.563 26.1046 19.635C26.1494 19.7071 26.2119 19.7665 26.2862 19.8075C26.3605 19.8485 26.4441 19.8698 26.5289 19.8693H29.8117L29.6627 20.3107C29.5135 20.7606 29.2264 21.1521 28.8421 21.4294C28.4577 21.7067 27.9958 21.8558 27.5219 21.8555C27.4292 21.855 27.3382 21.8805 27.2592 21.929C27.1803 21.9775 27.1165 22.0472 27.075 22.1301L26.0821 24.1163C26.0441 24.1922 26.0263 24.2766 26.0302 24.3614C26.0342 24.4461 26.0598 24.5285 26.1046 24.6005C26.1494 24.6726 26.2119 24.732 26.2862 24.773C26.3605 24.814 26.4441 24.8353 26.5289 24.8348H29.8117L29.6627 25.2763C29.5135 25.7262 29.2264 26.1176 28.8421 26.3949C28.4577 26.6722 26.6296 27.6313 25.9067 27.6313C25.8141 27.6308 25.7231 27.6562 25.6441 27.7047C25.5651 27.7533 25.5013 27.8229 25.4599 27.9059L25.6441 30.2106H22.909C22.3992 30.2111 21.8971 30.0855 21.4476 29.8449C20.9981 29.6043 20.6151 29.2562 20.3327 28.8317L19.4132 27.4522C19.3679 27.3843 19.3065 27.3285 19.2344 27.29C19.1623 27.2514 19.0819 27.2313 19.0002 27.2313H17.0142C16.9294 27.2308 16.8458 27.2521 16.7716 27.2931C16.6973 27.3341 16.6347 27.3935 16.5899 27.4656C16.5451 27.5376 16.5195 27.62 16.5156 27.7047C16.5116 27.7895 16.5295 27.8739 16.5674 27.9498L17.2039 29.2175C16.6366 29.2108 16.0822 29.0473 15.6019 28.7453C15.1216 28.4432 14.7341 28.0143 14.4822 27.5059C14.4407 27.4229 14.3769 27.3533 14.298 27.3047C14.219 27.2562 14.128 27.2308 14.0353 27.2313H12.0494C11.9648 27.2312 11.8815 27.2528 11.8076 27.294C11.7336 27.3352 11.6715 27.3946 11.6269 27.4666C11.5824 27.5386 11.557 27.6208 11.5532 27.7054C11.5494 27.7899 11.5672 27.8741 11.6051 27.9498L12.2391 29.2175C11.6717 29.2108 11.1173 29.0473 10.637 28.7453C10.1567 28.4432 9.76923 28.0143 9.51734 27.5059C9.47592 27.4229 9.41211 27.3533 9.33314 27.3047C9.25417 27.2562 9.16319 27.2308 9.07051 27.2313H7.08458C6.99994 27.2312 6.91669 27.2528 6.84275 27.294C6.76881 27.3352 6.70663 27.3946 6.6621 27.4666C6.61758 27.5386 6.5922 27.6208 6.58837 27.7054C6.58454 27.7899 6.60239 27.8741 6.64022 27.9498L7.27423 29.2175C6.70691 29.2108 6.15249 29.0473 5.67219 28.7453C5.19189 28.4432 4.8044 28.0143 4.55251 27.5059L4.48975 27.3809C4.40702 27.2161 4.24013 27.1104 4.05581 27.1061C3.68022 27.0974 3.43024 27.4914 3.5982 27.8275L3.65934 27.9498C3.99703 28.6311 4.51893 29.2041 5.1658 29.6037C5.81267 30.0033 6.5586 30.2136 7.31892 30.2106H8.07754C8.16218 30.2106 8.24543 30.189 8.31937 30.1478C8.39331 30.1066 8.45549 30.0472 8.50002 29.9752C8.54454 29.9032 8.56992 29.8211 8.57375 29.7365C8.57758 29.6519 8.55973 29.5678 8.5219 29.4921L7.88789 28.2244H8.77659C9.13813 28.8318 9.65175 29.3344 10.2668 29.6827C10.8818 30.031 11.577 30.213 12.2837 30.2106H13.0424C13.127 30.2106 13.2103 30.189 13.2842 30.1478C13.3581 30.1066 13.4203 30.0472 13.4648 29.9752C13.5094 29.9032 13.5348 29.8211 13.5386 29.7365C13.5424 29.6519 13.5246 29.5678 13.4867 29.4921L12.8527 28.2244H13.7414C14.103 28.8318 14.6166 29.3344 15.2316 29.6827C15.8466 30.031 16.5418 30.213 17.2486 30.2106H18.0072C18.0921 30.211 18.1756 30.1898 18.2499 30.1487C18.3242 30.1077 18.3867 30.0484 18.4315 29.9763C18.4763 29.9042 18.5019 29.8219 18.5059 29.7371C18.5098 29.6524 18.492 29.568 18.454 29.4921L17.8175 28.2244H18.7346L19.5066 29.3823C19.8794 29.9431 20.3852 30.4029 20.9789 30.7207C21.5726 31.0385 22.2356 31.2044 22.909 31.2037H25.9509C26.0436 31.2042 26.6668 30.9337 26.6668 30.9337L26.5289 28.467C27.6017 28.3315 29.06 27.4983 29.5518 27.1061C30.0437 26.7139 30.411 26.1872 30.609 25.5901L30.9739 24.4977C30.9993 24.4227 31.0064 24.3428 30.9947 24.2645C30.9829 24.1863 30.9526 24.1119 30.9064 24.0478C30.8601 23.9836 30.7991 23.9314 30.7285 23.8956C30.658 23.8597 30.5799 23.8413 30.5008 23.8417H27.3322L27.8361 22.8337C28.4623 22.7736 29.0575 22.5328 29.5493 22.1406C30.0412 21.7484 30.4085 21.2217 30.6065 20.6246L30.9714 19.5322C30.9968 19.4574 31.0039 19.3777 30.9923 19.2996C30.9807 19.2216 30.9506 19.1474 30.9046 19.0833C30.8586 19.0191 30.7979 18.9669 30.7277 18.9309C30.6575 18.8949 30.5797 18.8761 30.5008 18.8762H27.3322L27.8361 17.8682C28.4623 17.8081 29.0575 17.5673 29.5493 17.1751C30.0412 16.7829 30.4085 16.2562 30.6065 15.6591L30.9714 14.5642C30.9963 14.4896 31.0031 14.4101 30.9912 14.3324C30.9793 14.2546 30.9492 14.1808 30.9032 14.117C30.8573 14.0532 30.7968 14.0012 30.7269 13.9654C30.6569 13.9295 30.5794 13.9108 30.5008 13.9107H27.3322L27.8361 12.9027C28.4623 12.8426 29.0575 12.6018 29.5493 12.2096C30.0412 11.8174 30.4085 11.2907 30.6065 10.6935Z" fill="#4F7D96" stroke="#4F7D96" stroke-width="0.659466"/>
<path d="M4.18633 9.97329C4.18633 10.1344 4.08225 10.2674 3.9357 10.3342C3.64176 10.4684 3.19336 10.3076 3.19336 9.98445V8.44848C3.19533 6.73707 3.87597 5.09632 5.08595 3.88616C6.29594 2.67601 7.93646 1.99528 9.64764 1.99331H15.4267C16.1202 1.99256 16.804 1.83109 17.4246 1.52159L18.3624 1.05235C18.4208 1.0232 18.4843 1.00583 18.5493 1.00123C18.6144 0.996639 18.6797 1.00491 18.7416 1.02556C18.8035 1.04622 18.8607 1.07886 18.9099 1.12163C18.9592 1.16439 18.9995 1.21644 19.0287 1.2748C19.0578 1.33316 19.0752 1.39669 19.0798 1.46177C19.0844 1.52684 19.0761 1.59218 19.0555 1.65406C19.0348 1.71594 19.0022 1.77314 18.9594 1.8224C18.9167 1.87167 18.8646 1.91202 18.8063 1.94117L17.8689 2.40992C17.1103 2.78812 16.2744 2.98544 15.4267 2.98641H9.64764C8.19973 2.98812 6.81162 3.56414 5.78779 4.5881C4.76397 5.61207 4.18803 7.00038 4.18633 8.44848V9.97329Z" fill="#EAB604"/>
<path d="M6.17226 9.984V9.44159C6.17357 8.25675 6.64477 7.12081 7.48246 6.283C8.32015 5.44519 9.45593 4.97393 10.6406 4.97262H15.4267C16.1202 4.97187 16.804 4.8104 17.4246 4.5009L18.3624 4.03166C18.4208 4.00251 18.4843 3.98514 18.5493 3.98054C18.6144 3.97595 18.6797 3.98422 18.7416 4.00487C18.8035 4.02553 18.8607 4.05817 18.9099 4.10094C18.9592 4.1437 18.9995 4.19575 19.0287 4.25411C19.0578 4.31247 19.0752 4.376 19.0798 4.44108C19.0844 4.50615 19.0761 4.57149 19.0555 4.63337C19.0348 4.69525 19.0022 4.75245 18.9594 4.80171C18.9167 4.85098 18.8646 4.89134 18.8063 4.92048L17.8689 5.38923C17.1103 5.76743 16.2744 5.96475 15.4267 5.96572H10.6406C9.71924 5.96691 8.83595 6.33349 8.18445 6.98509C7.53294 7.63668 7.16641 8.52009 7.16522 9.44159V9.98812C7.16522 10.3065 6.72849 10.4727 6.43571 10.3475C6.28539 10.2832 6.17226 10.1475 6.17226 9.984Z" fill="#EAB604"/>
<path d="M4.18633 9.97329C4.18633 10.1344 4.08225 10.2674 3.9357 10.3342C3.64176 10.4684 3.19336 10.3076 3.19336 9.98445V8.44848C3.19533 6.73707 3.87597 5.09632 5.08595 3.88616C6.29594 2.67601 7.93646 1.99528 9.64764 1.99331H15.4267C16.1202 1.99256 16.804 1.83109 17.4246 1.52159L18.3624 1.05235C18.4208 1.0232 18.4843 1.00583 18.5493 1.00123C18.6144 0.996639 18.6797 1.00491 18.7416 1.02556C18.8035 1.04622 18.8607 1.07886 18.9099 1.12163C18.9592 1.16439 18.9995 1.21644 19.0287 1.2748C19.0578 1.33316 19.0752 1.39669 19.0798 1.46177C19.0844 1.52684 19.0761 1.59218 19.0555 1.65406C19.0348 1.71594 19.0022 1.77314 18.9594 1.8224C18.9167 1.87167 18.8646 1.91202 18.8063 1.94117L17.8689 2.40992C17.1103 2.78812 16.2744 2.98544 15.4267 2.98641H9.64764C8.19973 2.98812 6.81162 3.56414 5.78779 4.5881C4.76397 5.61207 4.18803 7.00038 4.18633 8.44848V9.97329Z" stroke="#EAB604" stroke-width="0.659466"/>
<path d="M6.17226 9.984V9.44159C6.17357 8.25675 6.64477 7.12081 7.48246 6.283C8.32015 5.44519 9.45593 4.97393 10.6406 4.97262H15.4267C16.1202 4.97187 16.804 4.8104 17.4246 4.5009L18.3624 4.03166C18.4208 4.00251 18.4843 3.98514 18.5493 3.98054C18.6144 3.97595 18.6797 3.98422 18.7416 4.00487C18.8035 4.02553 18.8607 4.05817 18.9099 4.10094C18.9592 4.1437 18.9995 4.19575 19.0287 4.25411C19.0578 4.31247 19.0752 4.376 19.0798 4.44108C19.0844 4.50615 19.0761 4.57149 19.0555 4.63337C19.0348 4.69525 19.0022 4.75245 18.9594 4.80171C18.9167 4.85098 18.8646 4.89134 18.8063 4.92048L17.8689 5.38923C17.1103 5.76743 16.2744 5.96475 15.4267 5.96572H10.6406C9.71924 5.96691 8.83595 6.33349 8.18445 6.98509C7.53294 7.63668 7.16641 8.52009 7.16522 9.44159V9.98812C7.16522 10.3065 6.72849 10.4727 6.43571 10.3475C6.28539 10.2832 6.17226 10.1475 6.17226 9.984Z" stroke="#EAB604" stroke-width="0.659466"/>
<path fill-rule="evenodd" clip-rule="evenodd" d="M5.87471 13.7497C5.92016 13.6077 5.95981 13.4669 5.96458 13.2804C5.96821 13.1382 5.95395 13.0475 5.92862 12.918C5.80257 12.2737 5.33522 11.7503 4.96604 11.5396V11.5393C4.66805 11.3615 4.32748 11.2676 3.98038 11.2676C3.63045 11.2676 3.28714 11.363 2.98742 11.5437C2.98742 11.5437 3.36156 11.3583 2.98742 11.5434C2.61327 11.7285 2.1496 12.2009 2.02237 12.9533C2.00558 13.0526 1.99624 13.1531 1.99445 13.2538C1.99442 13.3415 2.00039 13.4291 2.01232 13.516C1.62997 13.7309 1.32971 14.0666 1.15856 14.4705C0.987412 14.8744 0.955053 15.3236 1.06655 15.7479C1.17805 16.1721 1.42711 16.5474 1.77471 16.8149C2.12231 17.0825 2.54881 17.2271 2.98742 17.2262V17.7228C2.98876 18.0772 2.97006 18.9424 3.2011 19.2112C3.43215 19.4799 3.8978 19.6869 4.24799 19.7413C4.59817 19.7958 6.59712 19.7647 6.59712 19.7647H9.11061C9.50564 19.7647 9.88512 19.8538 10.1638 20.201C10.2992 20.3697 10.3463 20.4517 10.3334 20.6676C10.3219 20.8597 10.2878 20.9872 10.1638 21.1343C9.87693 21.4747 9.50564 21.5706 9.11061 21.5706C9.11061 21.5706 8.13918 21.567 6.66834 21.5706C5.49354 21.5735 3.97577 21.5833 3.05807 21.5893L3.05613 21.5893L3.05437 21.5893C3.05437 21.5893 4.90046 21.5777 4.47687 21.5804C4.05327 21.5832 2.56328 21.5262 2.26205 21.594C1.87782 21.6804 1.64577 21.7883 1.37569 22.0749C0.946668 22.5302 1.01288 23.2862 1.0011 23.6324C0.989311 23.9787 1.07113 24.2799 1.31115 24.5922C1.56065 24.9168 1.7959 25.0834 2.20025 25.1478C2.36323 25.1737 2.909 25.1608 3.06576 25.1608C2.7935 25.1633 3.33596 25.1635 3.06557 25.1608C5.62114 25.1648 9.60951 25.171 9.60951 25.171C10.7946 25.171 11.9311 24.7002 12.7691 23.8621C13.6071 23.024 14.0779 21.8873 14.0779 20.7021C14.0779 19.5168 13.6071 18.3801 12.7691 17.542C11.9311 16.7039 10.7946 16.2331 9.60951 16.2331H6.68324C6.85832 15.9415 6.95327 15.6089 6.9585 15.2688C6.96374 14.9288 6.9407 14.6152 6.71303 14.2966C6.48578 13.9785 6.05325 13.765 5.87471 13.7497ZM2.3341 15.9881C2.51493 16.1463 2.74713 16.2334 2.98742 16.2331C3.23196 16.2314 3.46727 16.1394 3.64823 15.9749C3.7394 15.8928 3.85772 15.8474 3.98038 15.8474C4.10304 15.8474 4.22136 15.8928 4.31253 15.9749C4.42339 16.076 4.5558 16.1506 4.69973 16.193C4.84366 16.2354 4.99535 16.2445 5.14332 16.2196C5.29129 16.1947 5.43167 16.1365 5.55383 16.0494C5.67599 15.9623 5.77674 15.8485 5.84845 15.7167C5.92017 15.5849 5.96097 15.4385 5.96777 15.2885C5.97457 15.1386 5.94719 14.9891 5.88771 14.8514C5.82823 14.7136 5.7382 14.5912 5.62443 14.4933C5.51066 14.3955 5.37613 14.3248 5.23102 14.2866C5.16337 14.2683 5.10037 14.2358 5.04618 14.1913C4.99198 14.1469 4.94781 14.0914 4.91657 14.0287C4.88534 13.9659 4.86774 13.8972 4.86495 13.8272C4.86216 13.7571 4.87423 13.6873 4.90037 13.6222C4.96159 13.4715 4.98484 13.3079 4.96805 13.1461C4.95126 12.9842 4.89496 12.8289 4.80409 12.694C4.71323 12.559 4.59058 12.4484 4.44695 12.3719C4.30332 12.2954 4.1431 12.2554 3.98038 12.2554C3.81767 12.2554 3.65745 12.2954 3.51381 12.3719C3.37018 12.4484 3.24754 12.559 3.15667 12.694C3.0658 12.8289 3.0095 12.9842 2.99271 13.1461C2.97593 13.3079 2.99917 13.4715 3.0604 13.6222C3.08654 13.6873 3.09861 13.7571 3.09581 13.8272C3.09302 13.8972 3.07543 13.9659 3.04419 14.0287C3.01296 14.0914 2.96878 14.1469 2.91459 14.1913C2.86039 14.2358 2.79739 14.2683 2.72974 14.2866C2.49765 14.3488 2.29611 14.4934 2.16269 14.6932C2.02928 14.8931 1.97311 15.1347 2.00465 15.3729C2.03618 15.6112 2.15328 15.8298 2.3341 15.9881ZM2.13987 24.0325C2.40594 24.2774 3.66944 24.1779 3.80112 24.1779H9.60951C10.5312 24.1779 11.4152 23.8117 12.067 23.1599C12.7187 22.508 13.0849 21.6239 13.0849 20.7021C13.0849 19.7802 12.7187 18.8961 12.067 18.2443C11.4152 17.5924 10.5312 17.2262 9.60951 17.2262H4.47687C4.34519 17.2262 4.21891 17.2785 4.1258 17.3716C4.03269 17.4648 3.98038 17.5911 3.98038 17.7228C3.98038 17.8545 3.97468 18.5283 4.06779 18.6214C4.1609 18.7145 4.34519 18.7716 4.47687 18.7716H9.11061C9.76899 18.7716 10.392 18.9279 10.8659 19.4987C11.188 19.8866 11.3436 20.198 11.3334 20.7021C11.3237 21.1811 11.1729 21.4686 10.8659 21.8365C10.3906 22.4063 9.76899 22.5637 9.11061 22.5637H3.13444C3.00277 22.5637 2.41559 22.5216 2.13987 22.801C1.87021 23.0742 1.70522 23.6324 2.13987 24.0325Z" fill="#8DBAD3"/>
<path d="M3.06576 25.1608C2.909 25.1608 2.36323 25.1737 2.20025 25.1478C1.7959 25.0834 1.56065 24.9168 1.31115 24.5922C1.07113 24.2799 0.989311 23.9787 1.0011 23.6324C1.01288 23.2862 0.946668 22.5302 1.37569 22.0749C1.64577 21.7883 1.87782 21.6804 2.26205 21.594C2.56328 21.5262 4.05327 21.5832 4.47687 21.5804C4.90046 21.5777 3.05437 21.5893 3.05437 21.5893L3.05613 21.5893L3.05807 21.5893C3.97577 21.5833 5.49354 21.5735 6.66834 21.5706C8.13918 21.567 9.11061 21.5706 9.11061 21.5706C9.50564 21.5706 9.87693 21.4747 10.1638 21.1343C10.2878 20.9872 10.3219 20.8597 10.3334 20.6676C10.3463 20.4517 10.2992 20.3697 10.1638 20.201C9.88512 19.8538 9.50564 19.7647 9.11061 19.7647H6.59712C6.59712 19.7647 4.59817 19.7958 4.24799 19.7413C3.8978 19.6869 3.43215 19.4799 3.2011 19.2112C2.97006 18.9424 2.98876 18.0772 2.98742 17.7228V17.2262C2.54881 17.2271 2.12231 17.0825 1.77471 16.8149C1.42711 16.5474 1.17805 16.1721 1.06655 15.7479C0.955053 15.3236 0.987412 14.8744 1.15856 14.4705C1.32971 14.0666 1.62997 13.7309 2.01232 13.516C2.00039 13.4291 1.99442 13.3415 1.99445 13.2538C1.99624 13.1531 2.00558 13.0526 2.02237 12.9533C2.1496 12.2009 2.61327 11.7285 2.98742 11.5434C3.36156 11.3583 2.98742 11.5437 2.98742 11.5437C3.28714 11.363 3.63045 11.2676 3.98038 11.2676C4.32748 11.2676 4.66805 11.3615 4.96604 11.5393V11.5396C5.33522 11.7503 5.80257 12.2737 5.92862 12.918C5.95395 13.0475 5.96821 13.1382 5.96458 13.2804C5.95981 13.4669 5.92016 13.6077 5.87471 13.7497C6.05325 13.765 6.48578 13.9785 6.71303 14.2966C6.9407 14.6152 6.96374 14.9288 6.9585 15.2688C6.95327 15.6089 6.85832 15.9415 6.68324 16.2331H9.60951C10.7946 16.2331 11.9311 16.7039 12.7691 17.542C13.6071 18.3801 14.0779 19.5168 14.0779 20.7021C14.0779 21.8873 13.6071 23.024 12.7691 23.8621C11.9311 24.7002 10.7946 25.171 9.60951 25.171C9.60951 25.171 5.62114 25.1648 3.06557 25.1608M3.06576 25.1608L3.06557 25.1608M3.06576 25.1608C2.7935 25.1633 3.33596 25.1635 3.06557 25.1608M2.98742 16.2331C2.74713 16.2334 2.51493 16.1463 2.3341 15.9881C2.15328 15.8298 2.03618 15.6112 2.00465 15.3729C1.97311 15.1347 2.02928 14.8931 2.16269 14.6932C2.29611 14.4934 2.49765 14.3488 2.72974 14.2866C2.79739 14.2683 2.86039 14.2358 2.91459 14.1913C2.96878 14.1469 3.01296 14.0914 3.04419 14.0287C3.07543 13.9659 3.09302 13.8972 3.09581 13.8272C3.09861 13.7571 3.08654 13.6873 3.0604 13.6222C2.99917 13.4715 2.97593 13.3079 2.99271 13.1461C3.0095 12.9842 3.0658 12.8289 3.15667 12.694C3.24754 12.559 3.37018 12.4484 3.51381 12.3719C3.65745 12.2954 3.81767 12.2554 3.98038 12.2554C4.1431 12.2554 4.30332 12.2954 4.44695 12.3719C4.59058 12.4484 4.71323 12.559 4.80409 12.694C4.89496 12.8289 4.95126 12.9842 4.96805 13.1461C4.98484 13.3079 4.96159 13.4715 4.90037 13.6222C4.87423 13.6873 4.86216 13.7571 4.86495 13.8272C4.86774 13.8972 4.88534 13.9659 4.91657 14.0287C4.94781 14.0914 4.99198 14.1469 5.04618 14.1913C5.10037 14.2358 5.16337 14.2683 5.23102 14.2866C5.37613 14.3248 5.51066 14.3955 5.62443 14.4933C5.7382 14.5912 5.82823 14.7136 5.88771 14.8514C5.94719 14.9891 5.97457 15.1386 5.96777 15.2885C5.96097 15.4385 5.92017 15.5849 5.84845 15.7167C5.77674 15.8485 5.67599 15.9623 5.55383 16.0494C5.43167 16.1365 5.29129 16.1947 5.14332 16.2196C4.99535 16.2445 4.84366 16.2354 4.69973 16.193C4.5558 16.1506 4.42339 16.076 4.31253 15.9749C4.22136 15.8928 4.10304 15.8474 3.98038 15.8474C3.85772 15.8474 3.7394 15.8928 3.64823 15.9749C3.46727 16.1394 3.23196 16.2314 2.98742 16.2331ZM3.80112 24.1779C3.66944 24.1779 2.40594 24.2774 2.13987 24.0325C1.70522 23.6324 1.87021 23.0742 2.13987 22.801C2.41559 22.5216 3.00277 22.5637 3.13444 22.5637H9.11061C9.76899 22.5637 10.3906 22.4063 10.8659 21.8365C11.1729 21.4686 11.3237 21.1811 11.3334 20.7021C11.3436 20.198 11.188 19.8866 10.8659 19.4987C10.392 18.9279 9.76899 18.7716 9.11061 18.7716H4.47687C4.34519 18.7716 4.1609 18.7145 4.06779 18.6214C3.97468 18.5283 3.98038 17.8545 3.98038 17.7228C3.98038 17.5911 4.03269 17.4648 4.1258 17.3716C4.21891 17.2785 4.34519 17.2262 4.47687 17.2262H9.60951C10.5312 17.2262 11.4152 17.5924 12.067 18.2443C12.7187 18.8961 13.0849 19.7802 13.0849 20.7021C13.0849 21.6239 12.7187 22.508 12.067 23.1599C11.4152 23.8117 10.5312 24.1779 9.60951 24.1779H3.80112Z" stroke="#8DBAD3" stroke-width="0.659466"/>
</svg>
