<svg width="32" height="32" viewBox="0 0 32 32" fill="none" xmlns="http://www.w3.org/2000/svg">
<g clip-path="url(#clip0)">
<path d="M16.4535 12.0036H8.25684C7.78756 12.0036 7.38086 11.6261 7.38086 11.1229C7.38086 10.6196 7.75628 10.2422 8.25684 10.2422H16.4222C16.8915 10.2422 17.2982 10.6196 17.2982 11.1229C17.2982 11.6261 16.9228 12.0036 16.4535 12.0036Z" fill="#4F7D96"/>
<path d="M15.1395 19.0172H8.25684C7.78756 19.0172 7.38086 18.6398 7.38086 18.1366C7.38086 17.6333 7.75628 17.2559 8.25684 17.2559H15.1395C15.6088 17.2559 16.0155 17.6333 16.0155 18.1366C16.0155 18.6398 15.6088 19.0172 15.1395 19.0172Z" fill="#4F7D96"/>
<path d="M11.0725 22.5075H8.25684C7.78756 22.5075 7.38086 22.13 7.38086 21.6268C7.38086 21.1235 7.75628 20.7461 8.25684 20.7461H11.0725C11.5418 20.7461 11.9485 21.1235 11.9485 21.6268C11.9485 22.13 11.5418 22.5075 11.0725 22.5075Z" fill="#8DBAD3"/>
<path d="M13.325 15.5251H8.25684C7.78756 15.5251 7.38086 15.1476 7.38086 14.6444C7.38086 14.1411 7.75628 13.7637 8.25684 13.7637H13.2937C13.763 13.7637 14.1697 14.1411 14.1697 14.6444C14.1697 15.1476 13.7943 15.5251 13.325 15.5251Z" fill="#8DBAD3"/>
<path d="M22.3039 31H2.87598C2.37542 31 2 30.6226 2 30.1508V7.34707C2 7.1269 2.09385 6.90672 2.25028 6.74946L6.44246 2.28308C6.59888 2.12581 6.81788 2 7.06816 2H22.3039C22.7732 2 23.1799 2.37744 23.1799 2.88069V12.7885C23.1799 13.2603 22.8045 13.6692 22.3039 13.6692C21.8034 13.6692 21.4279 13.2918 21.4279 12.7885V3.72993H7.44358L3.72067 7.69306V29.3015H21.4592V23.231C21.4592 22.7592 21.8346 22.3503 22.3352 22.3503C22.8358 22.3503 23.2112 22.7278 23.2112 23.231V30.1508C23.1799 30.6226 22.7732 31 22.3039 31Z" fill="#4F7D96"/>
<path d="M7.38101 8.66832H2.87598C2.37542 8.66832 2 8.29088 2 7.81908C2 7.34728 2.37542 6.93838 2.87598 6.93838H6.53631V2.84944C6.53631 2.37764 6.91173 1.96875 7.41229 1.96875C7.91285 1.96875 8.28827 2.34619 8.28827 2.84944V7.78762C8.2257 8.29088 7.85028 8.66832 7.38101 8.66832Z" fill="#4F7D96"/>
<path d="M14.9198 25.59C14.7321 25.59 14.5757 25.5271 14.4505 25.3698C14.2941 25.2125 14.2628 24.9924 14.2941 24.7722L15.1388 21.5954C15.2327 21.2494 15.5768 21.0607 15.8896 21.1551C16.2338 21.2494 16.4215 21.5954 16.3276 21.9099L15.7645 24.1746L18.0483 23.7971C18.3924 23.7342 18.7053 23.9859 18.7678 24.3004C18.8304 24.6464 18.5801 24.9609 18.2673 25.0238L15.0137 25.5585C14.9824 25.59 14.9511 25.59 14.9198 25.59Z" fill="#F2C94C"/>
<path d="M27.8732 16.248C27.6542 16.248 27.4352 16.1536 27.3101 15.9964C27.0285 15.6818 27.0285 15.1786 27.3727 14.8955L28.3112 14.0463C28.4676 13.9205 28.4676 13.7317 28.4676 13.6374C28.4676 13.4487 28.3738 13.2599 28.2487 13.1027L27.8732 12.6938C27.7168 12.5365 27.5604 12.4422 27.3727 12.4107C27.2788 12.4107 27.0911 12.4107 26.966 12.5365L26.0274 13.3858C25.7146 13.6688 25.214 13.6688 24.9325 13.3228C24.6509 13.0083 24.6509 12.5051 24.995 12.222L25.9336 11.3727C26.3716 10.9638 26.9347 10.7751 27.5604 10.838C28.1235 10.9009 28.6866 11.1526 29.0933 11.6244L29.4688 12.0333C29.8755 12.4736 30.0945 13.0398 30.0945 13.6374C30.0945 14.235 29.8442 14.8012 29.4375 15.21L28.4989 16.0593C28.2487 16.1536 28.0609 16.248 27.8732 16.248Z" fill="#F2C94C"/>
<path d="M28.3429 14.9914L25.9339 12.3493C25.8088 12.192 25.5898 12.0977 25.4021 12.0977C25.1831 12.0977 24.9954 12.1606 24.8389 12.3178L15.3909 20.9675C15.2658 21.0619 15.2032 21.2191 15.1719 21.3764C15.1719 21.4393 15.1406 21.4708 15.1406 21.5337C15.1406 21.7224 15.2032 21.9426 15.3596 22.0998L17.7686 24.7419C17.925 24.8992 18.144 24.9935 18.3317 24.9935C18.3943 24.9935 18.4255 24.9935 18.4881 24.9935C18.6133 24.9621 18.7697 24.8992 18.8635 24.8048L28.3116 16.1237C28.6244 15.8092 28.6557 15.3374 28.3429 14.9914ZM18.3943 23.1063L17.0177 21.5966L25.3082 13.9849L26.6848 15.4946L18.3943 23.1063Z" fill="#8DBAD3"/>
</g>
<defs>
<clipPath id="clip0">
<rect width="28" height="29" fill="white" transform="translate(2 2)"/>
</clipPath>
</defs>
</svg>
