<svg width="48" height="48" viewBox="0 0 48 48" fill="none" xmlns="http://www.w3.org/2000/svg">
<circle cx="24" cy="24" r="24" fill="#EBF2F5"/>
<path d="M15.852 32.3638C15.852 33.6403 14.8008 34.6751 13.5041 34.6751C12.2074 34.6751 11.1562 33.6403 11.1562 32.3638V14.5513C11.1562 13.2748 12.2074 12.24 13.5041 12.24C14.8008 12.24 15.852 13.2748 15.852 14.5513V32.3638Z" fill="#4F7D96"/>
<path fill-rule="evenodd" clip-rule="evenodd" d="M20.0254 23.1968V33.1413C20.0254 33.9885 20.7132 34.6753 21.5616 34.6753H28.7591C31.3103 34.6547 33.2751 34.0898 34.6536 32.9803C36.0321 31.8709 36.7213 30.2376 36.7213 28.0804C36.7213 26.8168 36.387 25.7485 35.7183 24.8753C35.1046 24.0615 34.2764 23.5019 33.2338 23.1968H20.0254ZM24.6546 30.9618V24.9062H28.898C31.0274 24.937 32.0921 25.9796 32.0921 28.0341C32.0921 28.9484 31.7835 29.6674 31.1663 30.1913C30.5593 30.705 29.7107 30.9618 28.6202 30.9618H24.6546Z" fill="#EAB604"/>
<path d="M20.0254 24.906V13.774C20.0254 12.9268 20.7132 12.24 21.5616 12.24H27.895C30.6211 12.24 32.6888 12.7639 34.0981 13.8117C35.5074 14.8492 36.2121 16.3747 36.2121 18.3881C36.2121 19.4872 35.9292 20.458 35.3634 21.3003C34.7976 22.1324 34.0674 22.6264 33.0816 23.2836C30.4729 25.0228 28.898 24.906 28.898 24.906H20.0254ZM24.6546 21.6393H28.0802C30.4153 21.5982 31.5829 20.6686 31.5829 18.8503C31.5829 17.8334 31.2846 17.104 30.6879 16.6623C30.1016 16.2103 29.1706 15.9843 27.895 15.9843H24.6546V21.6393Z" fill="#8DBAD3"/>
</svg>
