<svg width="48" height="48" viewBox="0 0 48 48" fill="none" xmlns="http://www.w3.org/2000/svg">
<circle cx="24" cy="24" r="24" fill="#EBF2F5"/>
<path d="M32.8516 22.1575C32.8516 22.7595 32.3621 23.2476 31.7582 23.2476H19.5871C19.7292 26.0278 20.4076 28.4922 20.9322 30.1705C21.1118 30.7453 20.7901 31.3565 20.2135 31.5356C20.1053 31.5692 19.9957 31.5852 19.8879 31.5852C19.422 31.5852 18.9902 31.286 18.8443 30.8191C18.276 29.0009 17.5394 26.3161 17.3976 23.2475H14.7008C14.0969 23.2475 13.6074 22.7595 13.6074 22.1574C13.6074 21.5553 14.0969 21.0673 14.7008 21.0673H17.4029C17.5574 18.0428 18.2882 15.3973 18.8534 13.599C19.034 13.0244 19.6476 12.7045 20.2237 12.8847C20.8 13.0648 21.1208 13.6764 20.9402 14.2509C20.4193 15.9083 19.7475 18.3319 19.593 21.0673H26.9081C26.7535 18.3319 26.0817 15.9083 25.5609 14.251C25.3803 13.6764 25.7011 13.0648 26.2773 12.8848C26.8537 12.705 27.4671 13.0246 27.6477 13.599C28.2129 15.3974 28.9437 18.0429 29.0982 21.0673H31.7582C32.3621 21.0673 32.8516 21.5554 32.8516 22.1575Z" fill="#4F7D96"/>
<path d="M38.1555 33.5553C38.1555 32.5567 37.5802 31.6638 36.7204 31.2332L36.4042 28.8001C36.4039 28.7972 36.4035 28.7943 36.4031 28.7914C36.2016 27.3516 35.4049 26.0729 34.217 25.283C33.3896 24.7329 32.3709 24.4299 31.3485 24.4299C30.3262 24.4299 29.3075 24.7329 28.48 25.2831C27.2921 26.0729 26.4954 27.3517 26.294 28.7915C26.2935 28.7947 26.2931 28.7979 26.2927 28.8011L25.9767 31.254C25.1341 31.6907 24.5859 32.5642 24.5859 33.5553C24.5859 34.9856 25.7471 36.1491 27.1743 36.1491H35.5671C36.9944 36.1491 38.1555 34.9856 38.1555 33.5553ZM29.4675 26.7745C29.9978 26.422 30.6834 26.2198 31.3485 26.2198C32.0137 26.2198 32.6993 26.422 33.2295 26.7745C33.9906 27.2806 34.5022 28.1046 34.6337 29.0358L35.0195 32.0058C35.0688 32.3854 35.3536 32.6916 35.728 32.7675C36.0997 32.8428 36.3694 33.1742 36.3694 33.5554C36.3694 33.9987 36.0095 34.3593 35.5671 34.3593H27.1743C26.732 34.3593 26.3721 33.9986 26.3721 33.5554C26.3721 33.1844 26.6335 32.855 26.9936 32.7722C27.358 32.6885 27.6318 32.3861 27.6796 32.0145L28.0635 29.0354C28.195 28.1044 28.7066 27.2805 29.4675 26.7745ZM33.2899 31.858C33.2899 31.3637 32.89 30.963 32.3968 30.963H30.1641C29.6709 30.963 29.2711 31.3637 29.2711 31.858C29.2711 32.3522 29.6709 32.7529 30.1641 32.7529H32.3968C32.89 32.7529 33.2899 32.3522 33.2899 31.858Z" fill="#8DBAD3"/>
<path d="M33.8314 37.6033C33.8906 37.1318 33.5327 36.7043 33.032 36.6486C32.5315 36.593 32.0775 36.9299 32.0183 37.4015C31.9926 37.6061 31.7937 37.7603 31.5556 37.7603C31.3175 37.7603 31.1185 37.6061 31.0929 37.4015C31.0337 36.9299 30.5799 36.5929 30.0792 36.6486C29.5786 36.7043 29.2206 37.1318 29.2798 37.6033C29.4141 38.6731 30.3925 39.4798 31.5556 39.4798C32.7187 39.4798 33.697 38.6731 33.8314 37.6033Z" fill="#EAB604"/>
<path fill-rule="evenodd" clip-rule="evenodd" d="M35.5479 23.5603C34.8614 23.5064 34.3231 22.9034 34.3295 22.2166C34.3298 22.1819 34.33 22.1471 34.33 22.1123C34.33 16.0318 29.3877 11.1025 23.2911 11.1025C17.1945 11.1025 12.2523 16.0318 12.2523 22.1123C12.2523 27.1249 15.6111 31.3551 20.2064 32.6864C20.6401 32.812 20.961 33.1747 21.0573 33.6148C21.2377 34.4393 20.6149 35.3473 19.7974 35.1296C14.0307 33.5939 9.7832 28.3478 9.7832 22.1123C9.7832 14.6717 15.8309 8.63996 23.2911 8.63996C30.7513 8.63996 36.7991 14.6717 36.7991 22.1123C36.7991 22.2461 36.7971 22.3794 36.7932 22.5123C36.7743 23.1581 36.1936 23.6109 35.5479 23.5603Z" fill="#4F7D96"/>
</svg>
