<svg width="48" height="48" viewBox="0 0 48 48" fill="none" xmlns="http://www.w3.org/2000/svg">
<circle cx="24" cy="24" r="24" fill="#EBF2F5"/>
<path d="M24.0716 38.2589C23.2743 38.2589 22.4781 38.1231 21.7226 37.852L16.3512 35.9247C14.3206 35.196 13.0691 33.1896 13.3079 31.0454L13.7553 27.0282C13.8262 26.3918 14.3999 25.9332 15.036 26.0041C15.6725 26.075 16.131 26.6484 16.0602 27.2849L15.6128 31.3022C15.4934 32.3742 16.1191 33.3774 17.1345 33.7417L22.5059 35.6691C23.4852 36.0206 24.5677 36.031 25.5538 35.6988L31.4482 33.6812C31.7305 33.579 31.9856 33.434 32.1864 33.2617C32.6724 32.8445 33.4045 32.9005 33.8216 33.3864C34.2387 33.8724 34.1829 34.6045 33.6969 35.0216C33.282 35.3776 32.7728 35.6698 32.2245 35.8666C32.2191 35.8685 26.2996 37.8947 26.2996 37.8947C25.5787 38.1377 24.8246 38.2589 24.0716 38.2589ZM27.0464 26.3125L28.4645 25.6194C29.0399 25.3382 29.2784 24.6438 28.9972 24.0684C28.716 23.4931 28.0216 23.2549 27.4462 23.5358L26.0294 24.2282C24.7478 24.8526 23.2777 24.8526 21.9962 24.2282L12.6502 19.6754C11.9244 19.3218 11.4904 18.6262 11.4891 17.8147C11.4879 17.0031 11.9198 16.3062 12.6446 15.9504L21.9836 11.3658C23.273 10.7327 24.7523 10.7327 26.0419 11.3658L35.3809 15.9503C36.0765 16.2918 36.5162 16.9638 36.5572 17.748C36.5972 18.5146 36.2505 19.205 35.6296 19.5951C35.0873 19.9357 34.9238 20.6515 35.2645 21.1938C35.6051 21.7361 36.321 21.8996 36.8632 21.5589C38.2064 20.7152 38.9578 19.2453 38.8731 17.6268C38.7875 15.9908 37.8641 14.5858 36.4028 13.8685L27.0639 9.284C25.1249 8.33209 22.9007 8.33209 20.9616 9.284L11.6226 13.8685C10.1072 14.6124 9.16738 16.1258 9.16993 17.8182C9.17248 19.5105 10.1169 21.021 11.6345 21.7603L20.9804 26.3132C21.9439 26.7826 22.9779 27.0173 24.0124 27.0173C25.047 27.0172 26.0821 26.7823 27.0464 26.3125Z" fill="#4F7D96"/>
<path d="M27.1402 19.9724L21.7291 17.3034C21.5365 16.5524 20.8552 15.9973 20.0441 15.9973C19.0834 15.9973 18.3047 16.7761 18.3047 17.7367C18.3047 18.6973 19.0834 19.4761 20.0441 19.4761C20.2617 19.4761 20.4701 19.4361 20.6621 19.3631L26.1143 22.0523C26.9119 22.4458 27.4075 23.2427 27.4075 24.1322V29.5065C27.4075 30.147 27.9267 30.6661 28.5671 30.6661C29.2075 30.6661 29.7267 30.147 29.7267 29.5065V24.1322C29.7267 22.3532 28.7356 20.7592 27.1402 19.9724Z" fill="#EAB604"/>
</svg>
