<svg width="48" height="48" viewBox="0 0 48 48" fill="none" xmlns="http://www.w3.org/2000/svg">
<circle cx="24" cy="24" r="24" fill="#EBF2F5"/>
<path d="M15.9336 27.3765H23.762" stroke="#8DBAD3" stroke-width="1.15977" stroke-linecap="round" stroke-linejoin="round"/>
<path d="M15.9336 30.4209H25.6467" stroke="#8DBAD3" stroke-width="1.15977" stroke-linecap="round" stroke-linejoin="round"/>
<path d="M15.9503 24.2879C15.9705 24.308 16.0212 24.3181 16.1224 24.3181L16.6589 24.3181C16.7602 24.3181 16.831 24.2778 16.8715 24.1769L17.4486 22.6239L20.8804 22.6239L21.4675 24.1769C21.4776 24.2173 21.508 24.2475 21.5485 24.2677C21.589 24.308 21.6396 24.3181 21.6801 24.3181L22.2369 24.3181C22.2875 24.3181 22.3381 24.308 22.3786 24.2677C22.4393 24.2274 22.4596 24.1769 22.4495 24.1265L22.409 23.9954L19.7972 17.0674C19.7567 16.9767 19.6858 16.9262 19.5744 16.9262L18.7545 16.9262C18.6431 16.9262 18.5722 16.9867 18.5317 17.0876L15.9402 23.9954L15.8794 24.1467C15.8693 24.187 15.8896 24.2374 15.9503 24.2879ZM17.7523 21.7668L19.1695 17.9246L20.5868 21.7668L17.7523 21.7668Z" fill="#EAB604"/>
<path d="M24.256 24.2677C24.2965 24.308 24.3472 24.3181 24.4281 24.3181L24.9647 24.3181C25.0457 24.3181 25.1064 24.308 25.1469 24.2677C25.1671 24.2374 25.1874 24.1769 25.1874 24.0963L25.1874 21.2524L27.0602 21.2524C27.8296 21.2524 28.4471 21.0709 28.8925 20.6978C29.338 20.3247 29.5708 19.7801 29.5708 19.0641C29.5708 18.3481 29.3481 17.8036 28.9026 17.4305C28.4572 17.0573 27.8397 16.8657 27.0602 16.8657L24.4281 16.8657C24.3472 16.8657 24.2965 16.8859 24.256 16.9262C24.2156 16.9666 24.2054 17.017 24.2054 17.0977L24.2054 24.0963C24.2054 24.187 24.2156 24.2475 24.256 24.2677ZM27.0096 20.4154L25.1874 20.4154L25.1874 17.7027L27.0096 17.7027C27.5259 17.7027 27.9106 17.8237 28.1738 18.0557C28.437 18.2876 28.5686 18.6204 28.5686 19.0641C28.5686 19.9717 28.0523 20.4154 27.0096 20.4154Z" fill="#EAB604"/>
<path fill-rule="evenodd" clip-rule="evenodd" d="M24.1015 16.7727C24.192 16.6826 24.303 16.6489 24.4269 16.6489L27.0589 16.6489C27.8728 16.6489 28.5452 16.8492 29.0408 17.2643C29.5467 17.6881 29.7865 18.3004 29.7865 19.0642C29.7865 19.8308 29.5348 20.4418 29.0307 20.8641C28.5338 21.2803 27.8605 21.4694 27.0589 21.4694L25.4032 21.4694L25.4032 24.0963C25.4032 24.2075 25.3763 24.3133 25.326 24.3883L25.3141 24.4062L25.2989 24.4213C25.1909 24.5289 25.0475 24.5351 24.9634 24.5351L24.4269 24.5351C24.3403 24.5351 24.2237 24.527 24.1234 24.4415C24.0488 24.39 24.0176 24.3143 24.0043 24.2634C23.9893 24.2062 23.9871 24.1453 23.9871 24.0963L23.9871 17.0977C23.9871 17.0049 23.9965 16.8774 24.1015 16.7727ZM24.4214 17.0827C24.4213 17.0872 24.4212 17.0921 24.4212 17.0977L24.4212 24.0963C24.4212 24.098 24.4212 24.0997 24.4212 24.1013C24.423 24.1013 24.4249 24.1013 24.4269 24.1013L24.9634 24.1013C24.9653 24.1013 24.9672 24.1013 24.969 24.1013C24.969 24.0997 24.9691 24.098 24.9691 24.0963L24.9691 21.0357L27.0589 21.0357C27.7961 21.0357 28.3578 20.8617 28.7518 20.5317C29.1385 20.2077 29.3524 19.7296 29.3524 19.0642C29.3524 18.396 29.1469 17.9192 28.7619 17.5967C28.3666 17.2656 27.804 17.0827 27.0589 17.0827L24.4269 17.0827C24.4249 17.0827 24.4231 17.0827 24.4214 17.0827ZM18.4843 16.7962C18.5628 16.7368 18.6557 16.7094 18.7532 16.7094L19.5732 16.7094C19.6624 16.7094 19.7512 16.73 19.8298 16.7813C19.9083 16.8325 19.9605 16.9039 19.9941 16.9792L19.9967 16.985L22.6131 23.9252L22.6588 24.0731L22.661 24.0839C22.6903 24.2298 22.6235 24.3565 22.5145 24.4365C22.4195 24.521 22.3094 24.5351 22.2356 24.5351L21.6788 24.5351C21.6117 24.5351 21.5101 24.5197 21.4203 24.4453C21.3552 24.406 21.2889 24.3416 21.2598 24.2448L20.729 22.8409L17.5982 22.8409L17.0727 24.2551L17.0717 24.2578C17.0385 24.3405 16.9852 24.4159 16.9038 24.468C16.8238 24.5192 16.7367 24.5351 16.6576 24.5351L16.1211 24.5351C16.0656 24.5351 16.0126 24.5325 15.966 24.524C15.9277 24.5171 15.8611 24.501 15.805 24.4503C15.7185 24.3765 15.6285 24.2499 15.6676 24.094L15.6712 24.0797L15.7365 23.917L18.3281 17.0092L18.329 17.0069C18.3597 16.9306 18.4081 16.8538 18.4843 16.7962ZM18.7327 17.1665L16.1413 24.0739L16.1303 24.1013L16.6576 24.1013C16.6613 24.1013 16.6643 24.1012 16.6668 24.101C16.6671 24.1002 16.6676 24.0992 16.668 24.0982L17.2963 22.4071L21.0291 22.4071L21.6627 24.083L21.6755 24.0894L21.6875 24.1013L22.2132 24.1013L22.2022 24.0657L19.5956 17.1515C19.594 17.1483 19.5927 17.1461 19.5918 17.1448C19.5888 17.1441 19.5829 17.1432 19.5732 17.1432L18.7532 17.1432C18.7494 17.1432 18.7467 17.1434 18.745 17.1436C18.7426 17.1467 18.7381 17.1534 18.7327 17.1665ZM19.1682 17.2976L20.8968 21.9837L17.4396 21.9837L19.1682 17.2976ZM24.9691 17.4859L27.0083 17.4859C27.5559 17.4859 27.9996 17.6142 28.3161 17.8931C28.6373 18.1762 28.7843 18.5751 28.7843 19.0642C28.7843 19.5593 28.6422 19.9663 28.3209 20.2442C28.0057 20.5168 27.5553 20.6324 27.0083 20.6324L24.9691 20.6324L24.9691 17.4859ZM25.4032 17.9197L25.4032 20.1986L27.0083 20.1986C27.5041 20.1986 27.8331 20.0924 28.0368 19.9162C28.2343 19.7454 28.3502 19.4767 28.3502 19.0642C28.3502 18.6659 28.2341 18.3992 28.0289 18.2184C27.819 18.0334 27.4933 17.9197 27.0083 17.9197L25.4032 17.9197ZM19.1682 18.5518L18.0623 21.55L20.2742 21.55L19.1682 18.5518Z" fill="#EAB604"/>
<path d="M28.1502 36.2292H17.3372C14.726 36.2292 12.6016 34.1065 12.6016 31.4975V15.2915C12.6016 12.6824 14.726 10.5598 17.3372 10.5598H28.0713C30.6825 10.5598 32.8069 12.6824 32.8069 15.2915V25.4449C32.8069 25.8804 32.4535 26.2335 32.0176 26.2335C31.5817 26.2335 31.2283 25.8804 31.2283 25.4449V15.2915C31.2283 13.5521 29.8121 12.137 28.0713 12.137H17.3372C15.5964 12.137 14.1801 13.5521 14.1801 15.2915V31.4975C14.1801 33.2368 15.5964 34.6519 17.3372 34.6519H28.1502C28.5861 34.6519 28.9394 35.005 28.9394 35.4405C28.9394 35.8761 28.5861 36.2292 28.1502 36.2292Z" fill="#4F7D96"/>
<path d="M25.3971 26.6241C25.3971 26.3302 25.426 26.0344 25.4849 25.7399C25.5309 25.5102 25.7105 25.3307 25.9404 25.2848C27.4167 24.9897 28.9336 25.4486 29.9983 26.5123L37.4334 33.9413C37.5423 34.0501 37.6035 34.1976 37.6035 34.3515C37.6035 34.5054 37.5423 34.653 37.4334 34.7618L34.9699 37.2233C34.7431 37.4499 34.3755 37.4499 34.1487 37.2233L26.7135 29.7943C25.8615 28.943 25.3971 27.8019 25.3971 26.6241ZM26.5684 26.3673C26.4944 27.3297 26.8414 28.281 27.5347 28.9738L34.5593 35.9925L36.2016 34.3515L29.1771 27.3328C28.4837 26.64 27.5316 26.2932 26.5684 26.3673Z" fill="#4F7D96"/>
<path fill-rule="evenodd" clip-rule="evenodd" d="M37.5238 34.3515C37.5238 34.2186 37.4709 34.0911 37.3768 33.9971L29.9417 26.5681C28.8957 25.523 27.4055 25.0722 25.9551 25.3621C25.7565 25.4018 25.6012 25.5569 25.5615 25.7554C25.5036 26.0447 25.4752 26.3354 25.4752 26.6241C25.4752 27.7812 25.9314 28.9022 26.7685 29.7386L34.2037 37.1675C34.3996 37.3633 34.7173 37.3633 34.9133 37.1676L37.3768 34.7061C37.4709 34.612 37.5238 34.4845 37.5238 34.3515ZM37.4884 33.8855C37.6122 34.0091 37.6816 34.1767 37.6816 34.3515C37.6816 34.5263 37.6122 34.694 37.4884 34.8176L35.0249 37.2791C34.7673 37.5364 34.3497 37.5365 34.0921 37.2791L26.6569 29.8501C25.79 28.9839 25.3174 27.8227 25.3174 26.6241C25.3174 26.3251 25.3467 26.024 25.4067 25.7244C25.4589 25.4635 25.663 25.2596 25.9241 25.2074C27.4263 24.9072 28.97 25.3742 30.0533 26.4566L37.4884 33.8855C37.4884 33.8855 37.4884 33.8855 37.4884 33.8855ZM36.3125 34.3515L34.5585 36.1041L27.4781 29.0296C26.7684 28.3204 26.4131 27.3464 26.489 26.3613L26.4941 26.2939L26.5616 26.2887C27.5476 26.2128 28.5224 26.5679 29.2321 27.2771L36.3125 34.3515ZM36.0892 34.3515L29.1205 27.3886C28.4598 26.7285 27.5588 26.3902 26.6418 26.4414C26.5906 27.3576 26.9291 28.258 27.5897 28.918L34.5585 35.881L36.0892 34.3515Z" fill="#4F7D96"/>
</svg>
