<svg width="48" height="48" viewBox="0 0 48 48" fill="none" xmlns="http://www.w3.org/2000/svg">
<circle cx="24" cy="24" r="24" fill="#EBF2F5"/>
<path d="M33.3272 29.5716C32.6899 29.5716 32.1679 30.0891 32.079 30.7202C31.9283 31.7894 31.5367 33.3424 30.5192 34.1936C29.4806 35.2616 28.0188 35.8718 26.4802 35.8718C23.2874 35.8718 20.7101 33.3165 20.7101 30.151V26.6622C22.7873 26.4333 24.7492 25.4799 26.2109 24.0306C27.9419 22.3144 28.9036 20.026 28.9036 17.547V12.1313C28.9036 11.4829 28.4035 10.9871 27.7496 10.9871H26.3934C25.7615 10.9871 25.2492 11.4994 25.2492 12.1313C25.2492 12.7632 25.7615 13.2755 26.3934 13.2755H26.5956V17.547C26.5956 19.4158 25.8647 21.132 24.5954 22.4287C23.2875 23.7254 21.518 24.4501 19.6716 24.4501C15.8634 24.4501 12.7475 21.3608 12.7475 17.5851V13.2754H12.8728C13.5047 13.2754 14.017 12.7631 14.017 12.1312C14.017 11.4993 13.5047 10.9871 12.8728 10.9871H11.5934C10.9395 10.9871 10.4395 11.4829 10.4395 12.1312V17.585C10.4395 22.1998 13.9015 26.0518 18.4021 26.662V30.1508C18.4021 34.5749 22.018 38.1599 26.4802 38.1599C28.6728 38.1599 30.7115 37.3209 32.1732 35.7953C33.6845 34.2181 34.2062 32.038 34.3863 30.7207C34.4726 30.0893 33.9646 29.5716 33.3272 29.5716Z" fill="#4F7D96"/>
<path d="M37.6785 23.7992C37.6785 21.4781 35.7613 19.5754 33.4222 19.5754C31.0832 19.5754 29.166 21.4781 29.166 23.7992C29.166 25.7399 30.4697 27.3761 32.2719 27.8707C32.6553 27.9849 33.0388 28.023 33.4222 28.023C33.8056 28.023 34.1891 27.9469 34.5725 27.8707C36.3748 27.3761 37.6785 25.7399 37.6785 23.7992Z" fill="#8DBAD3"/>
<path d="M14.6953 13.3488C14.6953 14.0051 15.2179 14.5069 15.9012 14.5069C16.5846 14.5069 17.1072 14.005 17.1072 13.3488V10.8781C17.1072 10.2218 16.5847 9.71997 15.9012 9.71997C15.2178 9.71997 14.6953 10.2218 14.6953 10.8781V10.9553V13.2716V13.3488Z" fill="#EAB604"/>
<path d="M24.4848 10.8781C24.4848 10.2218 23.993 9.71997 23.3498 9.71997C22.7067 9.71997 22.2148 10.2218 22.2148 10.8781V13.3488C22.2148 14.0051 22.7067 14.5069 23.3498 14.5069C23.993 14.5069 24.4848 14.005 24.4848 13.3488V13.2716V10.9553V10.8781Z" fill="#EAB604"/>
</svg>
