<svg width="48" height="48" viewBox="0 0 48 48" fill="none" xmlns="http://www.w3.org/2000/svg">
<circle cx="24" cy="24" r="24" fill="#EBF2F5"/>
<path fill-rule="evenodd" clip-rule="evenodd" d="M23.8982 13.4661C23.8982 12.8553 23.4477 12.3601 22.8921 12.3601H17.7094C15.9542 12.3601 14.5313 13.9242 14.5313 15.8535C14.5313 17.3846 15.4274 18.6857 16.6745 19.1576C16.9989 19.2803 17.3471 19.347 17.7094 19.347H25.9357H25.999H31.087H31.676C32.1841 19.347 32.596 19.7997 32.596 20.3582C32.596 20.9167 32.1841 21.3695 31.676 21.3695H31.087H25.999H25.9357H17.7094H16.3782H15.0398H14.9495C14.8882 21.3695 14.8274 21.3715 14.7671 21.3756C11.2871 21.5327 8.50977 24.6836 8.50977 28.5475C8.50977 32.5118 11.4333 35.7255 15.0398 35.7255C15.1809 35.7255 15.321 35.7206 15.4599 35.7109H24.5647C25.1204 35.7109 25.5709 35.2157 25.5709 34.6049C25.5709 33.9941 25.1204 33.499 24.5647 33.499H15.4599C15.4174 33.499 15.3748 33.5005 15.3324 33.5034C15.2359 33.5102 15.1383 33.5136 15.0398 33.5136C12.5447 33.5136 10.522 31.2902 10.522 28.5475C10.522 25.8748 12.4435 23.6943 14.8497 23.5856C14.8633 23.585 14.877 23.5842 14.8906 23.5833C14.9098 23.582 14.9294 23.5813 14.9495 23.5813H15.0398H25.999H31.676C33.2954 23.5813 34.6082 22.1383 34.6082 20.3582C34.6082 18.5781 33.2954 17.1351 31.676 17.1351H25.9357H17.7094C17.0655 17.1351 16.5435 16.5613 16.5435 15.8535C16.5435 15.1458 17.0655 14.572 17.7094 14.572H22.8921C23.4477 14.572 23.8982 14.0768 23.8982 13.4661ZM26.2399 13.4661C26.2399 14.0768 26.6904 14.572 27.246 14.572H31.9269C31.9666 14.572 32.0051 14.5741 32.0427 14.5781C32.1517 14.5896 32.2613 14.5914 32.3706 14.5833C32.4725 14.5758 32.5755 14.572 32.6796 14.572C35.2413 14.572 37.4417 16.9626 37.4417 20.0824C37.4417 23.2022 35.2413 25.5928 32.6796 25.5928C32.6328 25.5928 32.5862 25.592 32.5398 25.5905C32.4894 25.5888 32.439 25.5893 32.3886 25.5918C32.3743 25.5925 32.3598 25.5928 32.3451 25.5928H21.5352H20.2209C19.6652 25.5928 19.2148 26.088 19.2148 26.6988C19.2148 27.3096 19.6652 27.8047 20.2209 27.8047H21.5352H21.5366H30.3379H32.3451C32.39 27.8047 32.4347 27.8036 32.4792 27.8014C32.5458 27.8036 32.6126 27.8047 32.6796 27.8047C32.7291 27.8047 32.7784 27.8041 32.8276 27.8029C36.5006 27.7132 39.4539 24.2909 39.4539 20.0824C39.4539 15.8175 36.421 12.3601 32.6796 12.3601C32.6347 12.3601 32.5898 12.3606 32.5451 12.3616C32.4139 12.3645 32.2826 12.3631 32.1514 12.3617C32.0765 12.3609 32.0017 12.3601 31.9269 12.3601H27.246C26.6904 12.3601 26.2399 12.8553 26.2399 13.4661ZM30.3379 35.7109H28.9187C28.363 35.7109 27.9126 35.2157 27.9126 34.6049C27.9126 33.9941 28.363 33.499 28.9187 33.499H30.3379C30.8432 33.499 31.2529 33.0487 31.2529 32.4933C31.2529 31.9378 30.8432 31.4875 30.3379 31.4875H21.5366H18.3687H15.8694C14.3886 31.4875 13.1882 30.1679 13.1882 28.5402C13.1882 26.9124 14.3886 25.5928 15.8694 25.5928C16.4237 25.5928 16.873 26.0895 16.873 26.6988C16.873 27.308 16.4237 27.8047 15.8694 27.8047C15.4999 27.8047 15.2004 28.134 15.2004 28.5402C15.2004 28.9464 15.4999 29.2756 15.8694 29.2756H17.0344H18.3687H21.5352H21.5366H30.3379C31.0484 29.2756 31.6997 29.5539 32.2067 30.0166C32.8533 30.6068 33.2651 31.4972 33.2651 32.4933C33.2651 34.2703 31.9545 35.7109 30.3379 35.7109Z" fill="#4F7D96"/>
<path d="M13.5115 15.3935C13.5115 16.9704 12.2331 18.2488 10.6562 18.2488C9.07918 18.2488 7.80078 16.9704 7.80078 15.3935C7.80078 13.8165 9.07918 12.5381 10.6562 12.5381C12.2331 12.5381 13.5115 13.8165 13.5115 15.3935Z" fill="#EAB604"/>
<path d="M40.0888 32.8552C40.0888 34.3715 38.8595 35.6007 37.3432 35.6007C35.8269 35.6007 34.5977 34.3715 34.5977 32.8552C34.5977 31.3388 35.8269 30.1096 37.3432 30.1096C38.8595 30.1096 40.0888 31.3388 40.0888 32.8552Z" fill="#8DBAD3"/>
</svg>
