<svg width="48" height="48" viewBox="0 0 48 48" fill="none" xmlns="http://www.w3.org/2000/svg">
<circle cx="24" cy="24" r="24" fill="#EBF2F5"/>
<path fill-rule="evenodd" clip-rule="evenodd" d="M16.9155 12.0095C17.4013 12.0114 17.8373 12.3083 18.0169 12.7596L24.2665 28.458C24.5097 29.0688 24.2117 29.7611 23.6009 30.0043C22.99 30.2475 22.2977 29.9494 22.0546 29.3386L16.8987 16.3876L9.38313 34.8527C9.13528 35.4616 8.44073 35.7543 7.83179 35.5065C7.22286 35.2586 6.93014 34.5641 7.17799 33.9552L15.8084 12.7512C15.9915 12.3012 16.4297 12.0077 16.9155 12.0095Z" fill="#4F7D96"/>
<path fill-rule="evenodd" clip-rule="evenodd" d="M13.1914 27.6335C13.1914 26.9761 13.7244 26.4431 14.3818 26.4431H19.3666C20.0241 26.4431 20.557 26.9761 20.557 27.6335C20.557 28.2909 20.0241 28.8239 19.3666 28.8239H14.3818C13.7244 28.8239 13.1914 28.2909 13.1914 27.6335Z" fill="#EAB604"/>
<path fill-rule="evenodd" clip-rule="evenodd" d="M25.541 13.1999C25.541 12.5425 26.074 12.0095 26.7314 12.0095H32.3443C32.3585 12.0095 32.3726 12.0098 32.3867 12.0103C32.4324 12.0119 32.4875 12.0134 32.5512 12.0151C33.2763 12.0343 35.1144 12.0832 36.8426 12.7359C37.7986 13.097 38.7904 13.6659 39.557 14.576C40.3387 15.5042 40.8246 16.715 40.8642 18.234C40.9019 19.6792 40.6107 20.8846 40.0214 21.8601C39.4313 22.8371 38.5957 23.4953 37.6919 23.9329C35.9426 24.7798 33.8238 24.8494 32.3443 24.8494C30.624 24.8494 29.5288 24.8369 28.7618 24.8281C28.4277 24.8243 28.1559 24.8211 27.9218 24.8201V34.7759C27.9218 35.4334 27.3889 35.9663 26.7314 35.9663C26.074 35.9663 25.541 35.4334 25.541 34.7759V13.1999ZM27.9218 22.44C28.2088 22.4409 28.5395 22.4444 28.9419 22.4488C29.7305 22.4572 30.7944 22.4686 32.3443 22.4686C33.8364 22.4686 35.4486 22.3738 36.6544 21.79C37.2281 21.5122 37.676 21.1384 37.9835 20.6292C38.292 20.1186 38.5125 19.3834 38.4842 18.296C38.4577 17.2825 38.1484 16.5994 37.736 16.1098C37.3085 15.6022 36.7072 15.2297 36.0014 14.9631C34.6719 14.461 33.2193 14.4174 32.4771 14.3951C32.4219 14.3935 32.3707 14.3919 32.3237 14.3903H27.9218V22.44Z" fill="#8DBAD3"/>
</svg>
