<svg width="48" height="48" viewBox="0 0 48 48" fill="none" xmlns="http://www.w3.org/2000/svg">
<circle cx="24" cy="24" r="24" fill="#EBF2F5"/>
<path fill-rule="evenodd" clip-rule="evenodd" d="M12.4134 14.5842C12.4134 14.1315 12.7809 13.7654 13.2333 13.7654H19.6457C21.1894 13.7654 22.6553 14.2788 23.8462 15.2248C25.037 14.2788 26.503 13.7654 28.0467 13.7654C28.2181 13.7654 28.3571 13.9043 28.3571 14.0758V15.0926C28.3571 15.264 28.2181 15.403 28.0467 15.403C26.7886 15.403 25.601 15.8521 24.6662 16.6745V32.0306C25.6831 31.4427 26.8414 31.1296 28.0467 31.1296H33.6392V22.741C33.6392 22.2881 34.0063 21.921 34.4591 21.921C34.9119 21.921 35.279 22.2881 35.279 22.741V31.9484C35.279 32.4011 34.9115 32.7673 34.4591 32.7673H28.0467C26.7886 32.7673 25.601 33.2163 24.6662 34.0388V34.6025H37.2928V22.741C37.2928 22.2881 37.6599 21.921 38.1127 21.921C38.5656 21.921 38.9327 22.2881 38.9327 22.741V35.4213C38.9327 35.874 38.5651 36.2401 38.1127 36.2401H9.5797C9.1273 36.2401 8.75977 35.874 8.75977 35.4213V16.3206C8.75977 15.8679 9.1273 15.5018 9.5797 15.5018H12.4134V14.5842ZM14.0533 15.403V31.1296H19.6457C20.851 31.1296 22.0093 31.4427 23.0263 32.0306V16.6745C22.0914 15.8521 20.9039 15.403 19.6457 15.403H14.0533ZM10.3996 17.1394V34.6025H23.0263V34.0388C22.0914 33.2163 20.9039 32.7673 19.6457 32.7673H13.2333C12.7809 32.7673 12.4134 32.4011 12.4134 31.9484V17.1394H10.3996Z" fill="#4F7D96"/>
<path fill-rule="evenodd" clip-rule="evenodd" d="M35.9133 12.9534C35.9133 12.4932 35.5402 12.1201 35.08 12.1201L-nan -nanL35.08 12.1201C34.6198 12.1201 34.2467 12.4932 34.2467 12.9534V15.2144H31.9857C31.5254 15.2144 31.1523 15.5875 31.1523 16.0477L-nan -nanL31.1523 16.0477C31.1523 16.508 31.5254 16.8811 31.9857 16.8811H34.2467V19.1421C34.2467 19.6023 34.6198 19.9754 35.08 19.9754L-nan -nanL35.08 19.9754C35.5402 19.9754 35.9133 19.6023 35.9133 19.1421V16.8811H38.1743C38.6345 16.8811 39.0076 16.508 39.0076 16.0477L-nan -nanL39.0076 16.0477C39.0076 15.5875 38.6345 15.2144 38.1743 15.2144H35.9133V12.9534Z" fill="#EAB604"/>
</svg>
