<svg width="48" height="48" viewBox="0 0 48 48" fill="none" xmlns="http://www.w3.org/2000/svg">
<circle cx="24" cy="24" r="24" fill="#EBF2F5"/>
<path d="M36.1243 10.5601C36.8172 10.5601 37.3789 11.1218 37.3789 11.8147L37.3789 12.442C37.3789 13.1349 36.8172 13.6966 36.1243 13.6966C35.4314 13.6966 34.8697 13.1349 34.8697 12.442L34.8697 11.8147C34.8697 11.1218 35.4314 10.5601 36.1243 10.5601Z" fill="#4F7D96"/>
<path d="M11.972 10.5601C12.6897 10.5601 13.2715 11.1418 13.2715 11.8595L13.2715 12.3972C13.2715 13.1149 12.6897 13.6966 11.972 13.6966C11.2544 13.6966 10.6726 13.1149 10.6726 12.3972L10.6726 11.8595C10.6726 11.1418 11.2544 10.5601 11.972 10.5601Z" fill="#4F7D96"/>
<path d="M36.1243 34.6667C36.8172 34.6667 37.3789 35.2285 37.3789 35.9214L37.3789 36.5487C37.3789 37.2416 36.8172 37.8033 36.1243 37.8033C35.4314 37.8033 34.8697 37.2416 34.8697 36.5487L34.8697 35.9214C34.8697 35.2285 35.4314 34.6667 36.1243 34.6667Z" fill="#4F7D96"/>
<path d="M11.972 34.6667C12.6897 34.6667 13.2715 35.2485 13.2715 35.9662L13.2715 36.5039C13.2715 37.2215 12.6897 37.8033 11.972 37.8033C11.2544 37.8033 10.6726 37.2215 10.6726 36.5039L10.6726 35.9662C10.6726 35.2485 11.2544 34.6667 11.972 34.6667Z" fill="#4F7D96"/>
<path fill-rule="evenodd" clip-rule="evenodd" d="M37.3788 33.5916V14.8618C37.3788 14.3174 36.9375 13.876 36.3931 13.876H35.7658C35.2213 13.876 34.78 14.3174 34.78 14.8618V33.5916C34.78 34.1361 35.2213 34.5774 35.7658 34.5774H36.3931C36.9375 34.5774 37.3788 34.1361 37.3788 33.5916ZM13.1824 33.5916L13.1824 14.8618C13.1824 14.3174 12.7411 13.876 12.1967 13.876H11.5693C11.0249 13.876 10.5836 14.3174 10.5836 14.8618L10.5836 33.5916C10.5836 34.1361 11.0249 34.5774 11.5693 34.5774H12.1967C12.7411 34.5774 13.1824 34.1361 13.1824 33.5916ZM39.0816 14.8618C39.0816 13.377 37.8779 12.1733 36.3931 12.1733H35.7658C34.2809 12.1733 33.0773 13.377 33.0773 14.8618V33.5916C33.0773 35.0765 34.2809 36.2801 35.7658 36.2801H36.3931C37.8779 36.2801 39.0816 35.0765 39.0816 33.5916V14.8618ZM14.8852 14.8618C14.8852 13.377 13.6815 12.1733 12.1967 12.1733L11.5693 12.1733C10.0845 12.1733 8.88086 13.377 8.88086 14.8618L8.88086 33.5916C8.88086 35.0765 10.0845 36.2801 11.5693 36.2801H12.1967C13.6815 36.2801 14.8852 35.0765 14.8852 33.5916L14.8852 14.8618Z" fill="#4F7D96"/>
<path fill-rule="evenodd" clip-rule="evenodd" d="M15.6908 15.2199C15.6908 14.725 16.092 14.3237 16.5869 14.3237L26.0863 14.3237C26.5812 14.3237 26.9824 14.725 26.9824 15.2199C26.9824 15.7148 26.5812 16.1161 26.0863 16.1161L16.5869 16.1161C16.092 16.1161 15.6908 15.7148 15.6908 15.2199ZM15.6908 33.1432C15.6908 33.6381 16.092 34.0393 16.5869 34.0393L26.0863 34.0393C26.5812 34.0393 26.9824 33.6381 26.9824 33.1432C26.9824 32.6482 26.5812 32.247 26.0863 32.247L16.5869 32.247C16.092 32.247 15.6908 32.6482 15.6908 33.1432Z" fill="#4F7D96"/>
<path d="M28.7842 27.7238C28.124 27.7937 27.5998 27.8403 27.2114 27.8636C26.8309 27.8869 26.528 27.8753 26.3027 27.8287C26.0775 27.7899 25.8989 27.7122 25.7668 27.5957C25.6426 27.487 25.5066 27.3316 25.3591 27.1297C25.1804 26.8889 25.0251 26.6753 24.8931 26.4889C24.761 26.3025 24.6368 26.1278 24.5203 25.9647C23.6581 26.9044 22.5902 27.4171 21.3165 27.5025C20.9747 27.518 20.7961 27.4792 20.7806 27.386C20.765 27.2928 20.8932 27.1918 21.165 27.0831C21.4368 26.9821 21.7048 26.8578 21.9689 26.7103C22.2329 26.5627 22.4815 26.3996 22.7145 26.221C22.9553 26.0423 23.1766 25.8559 23.3785 25.6618C23.5882 25.4676 23.7708 25.2695 23.9261 25.0676C23.6387 24.6327 23.4057 24.2793 23.2271 24.0074C23.0485 23.7278 22.8931 23.5065 22.7611 23.3434C22.6368 23.1803 22.5203 23.0599 22.4116 22.9822C22.3028 22.8968 22.1786 22.8308 22.0388 22.7842C21.7203 22.6677 21.5844 22.5434 21.631 22.4114C21.6854 22.2716 21.9067 22.1939 22.2951 22.1784C22.4892 22.1706 22.6562 22.1784 22.796 22.2017C22.9358 22.225 23.0601 22.2755 23.1688 22.3531C23.2776 22.423 23.3824 22.5279 23.4834 22.6677C23.5921 22.8075 23.7164 22.9939 23.8562 23.2269C23.9028 23.3046 23.9843 23.4288 24.1008 23.5997C24.2173 23.7706 24.3455 23.9492 24.4853 24.1356C24.7183 23.6696 24.8969 23.2269 25.0212 22.8075C25.1455 22.3881 25.2348 21.9842 25.2892 21.5959C25.3047 21.5104 25.2969 21.4561 25.2659 21.4328C25.2348 21.4017 25.161 21.3978 25.0445 21.4211C24.8659 21.4522 24.6989 21.4833 24.5436 21.5143C24.3882 21.5454 24.1979 21.592 23.9727 21.6541C23.6931 21.7396 23.4717 21.8017 23.3086 21.8405C23.1455 21.8794 23.0135 21.9027 22.9125 21.9104C22.8116 21.9182 22.7261 21.9065 22.6562 21.8755C22.5941 21.8444 22.5203 21.7978 22.4349 21.7357C22.1087 21.5104 21.9533 21.3668 21.9689 21.3046C21.9922 21.2347 22.1436 21.192 22.4232 21.1765C22.6718 21.1609 22.9319 21.1376 23.2038 21.1066C23.4834 21.0677 23.763 21.0095 24.0426 20.9318C24.3455 20.8464 24.6173 20.7609 24.8581 20.6755C25.0989 20.5823 25.2892 20.4658 25.429 20.326C25.4911 20.2639 25.5493 20.2173 25.6037 20.1862C25.6581 20.1551 25.7241 20.1435 25.8018 20.1513C25.8794 20.159 25.9688 20.1862 26.0697 20.2328C26.1785 20.2716 26.3144 20.3299 26.4775 20.4076C26.7338 20.5474 26.9318 20.6677 27.0716 20.7687C27.2114 20.8619 27.2969 20.9473 27.3279 21.025C27.3668 21.1027 27.3512 21.1804 27.2813 21.258C27.2192 21.3279 27.1182 21.4095 26.9784 21.5027C26.8619 21.5803 26.7493 21.7279 26.6406 21.9454C26.5318 22.1551 26.4348 22.3842 26.3493 22.6327C26.2639 22.889 26.1823 23.1259 26.1047 23.3434C26.027 23.5531 25.9416 23.755 25.8484 23.9492C25.7629 24.1356 25.6697 24.3181 25.5688 24.4968C25.4678 24.6676 25.3552 24.8463 25.2309 25.0327C25.4561 25.2812 25.6892 25.5025 25.9299 25.6967C26.1785 25.8909 26.4425 26.0734 26.7221 26.2443C27.0095 26.4074 27.3202 26.5666 27.6541 26.7219C27.9881 26.8695 28.3648 27.0248 28.7842 27.1879C29.0871 27.3044 29.2347 27.4132 29.2269 27.5141C29.2269 27.6151 29.0793 27.685 28.7842 27.7238Z" fill="#EAB604"/>
<path d="M21.4362 20.9489C21.4517 21.1353 21.4362 21.2828 21.3896 21.3916C21.343 21.5003 21.2769 21.578 21.1915 21.6246C21.1138 21.6634 21.0206 21.6751 20.9119 21.6595C20.8109 21.644 20.71 21.6013 20.609 21.5314C20.4381 21.4149 20.2828 21.279 20.143 21.1236C20.0032 20.9605 19.8673 20.7858 19.7353 20.5994C19.5799 20.3741 19.5217 20.2266 19.5605 20.1567C19.6071 20.079 19.809 20.0479 20.1663 20.0635C20.5935 20.079 20.9041 20.1567 21.0983 20.2965C21.2925 20.4363 21.4051 20.6537 21.4362 20.9489ZM20.609 23.2323C20.6168 23.6284 20.5313 23.8808 20.3527 23.9896C20.1818 24.0905 19.9993 24.0517 19.8052 23.873C19.6576 23.7332 19.5061 23.5857 19.3508 23.4303C19.2032 23.275 19.0518 23.0847 18.8964 22.8595C18.7644 22.6576 18.7333 22.5216 18.8032 22.4517C18.8809 22.3741 19.0867 22.3469 19.4207 22.3702C19.8712 22.409 20.178 22.5022 20.3411 22.6498C20.5042 22.7896 20.5935 22.9838 20.609 23.2323ZM21.2731 24.5022C20.9313 25.3643 20.6711 26.0749 20.4925 26.6341C20.3216 27.1856 20.2246 27.5972 20.2013 27.869C20.178 28.102 20.1391 28.2768 20.0848 28.3933C20.0382 28.5098 19.9644 28.5642 19.8634 28.5564C19.7702 28.5486 19.6498 28.4671 19.5022 28.3118C19.3624 28.1642 19.1916 27.9389 18.9896 27.636C18.8421 27.4108 18.7333 27.2244 18.6634 27.0768C18.5935 26.9293 18.5586 26.8128 18.5586 26.7273C18.5586 26.6419 18.5935 26.5798 18.6634 26.5409C18.7333 26.4943 18.8343 26.4633 18.9663 26.4477C19.0984 26.4322 19.2265 26.3856 19.3508 26.3079C19.4828 26.2225 19.6226 26.0555 19.7702 25.807C19.8634 25.6516 19.9605 25.4885 20.0615 25.3177C20.1702 25.1468 20.2712 24.9798 20.3644 24.8167C20.4653 24.6536 20.5585 24.506 20.644 24.374C20.7294 24.2342 20.8032 24.1177 20.8653 24.0245C21.308 23.341 21.5682 23.042 21.6459 23.1274C21.7235 23.2129 21.5993 23.6711 21.2731 24.5022Z" fill="#8DBAD3"/>
<path fill-rule="evenodd" clip-rule="evenodd" d="M15.334 15.2199C15.334 14.725 15.7352 14.3237 16.2301 14.3237H31.6441C32.1391 14.3237 32.5403 14.725 32.5403 15.2199C32.5403 15.7148 32.1391 16.1161 31.6441 16.1161H16.2301C15.7352 16.1161 15.334 15.7148 15.334 15.2199Z" fill="#4F7D96"/>
<path fill-rule="evenodd" clip-rule="evenodd" d="M15.334 33.1435C15.334 32.6485 15.7352 32.2473 16.2301 32.2473H31.6442C32.1391 32.2473 32.5403 32.6485 32.5403 33.1435C32.5403 33.6384 32.1391 34.0396 31.6442 34.0396H16.2301C15.7352 34.0396 15.334 33.6384 15.334 33.1435Z" fill="#4F7D96"/>
</svg>
