<svg width="48" height="48" viewBox="0 0 48 48" fill="none" xmlns="http://www.w3.org/2000/svg">
<circle cx="24" cy="24" r="24" fill="#EBF2F5"/>
<path fill-rule="evenodd" clip-rule="evenodd" d="M24.0658 10.1013L19.6643 7.56006L17.1019 11.9982H11.9987V17.1014L7.56055 19.6638L10.1018 24.0653L7.56055 28.4669L11.9987 31.0292V36.0751H17.1441L19.6643 40.4401L24.0658 37.8988L28.4674 40.4401L30.9875 36.0751H36.0756V30.987L40.4405 28.4669L37.8993 24.0653L40.4405 19.6638L36.0756 17.1436V11.9982H31.0297L28.4674 7.56006L24.0658 10.1013ZM10.8822 23.6921L8.73535 19.9736L12.448 17.8301L12.8563 17.5459V17.1477V12.8559H17.1482H17.6116L17.8306 12.4475L19.9741 8.73486L23.6926 10.8817L24.0658 11.0845L24.4367 10.8777L28.1482 8.73486L30.294 12.4516L30.5345 12.8559H30.9261H35.2127V17.1477V17.6554L35.5531 17.8301L39.2657 19.9736L37.1189 23.6921L36.9306 24.0653L37.1229 24.4362L39.2657 28.1477L35.549 30.2935L35.2127 30.4687V30.9256V35.2122H30.9261H30.4692L30.294 35.5485L28.1482 39.2653L24.4367 37.1224L24.0658 36.8649L23.6926 37.1184L19.9741 39.2653L17.8306 35.5526L17.6116 35.2122H17.1482H12.8563V30.9256V30.534L12.4521 30.2935L8.73535 28.1477L10.8782 24.4362L11.085 24.0653L10.8822 23.6921Z" fill="#8DBAD3"/>
<path fill-rule="evenodd" clip-rule="evenodd" d="M28.3084 7.28419C28.4607 7.19621 28.6556 7.24842 28.7436 7.40081L31.214 11.6796H36.0759C36.2518 11.6796 36.3945 11.8223 36.3945 11.9982V16.9597L40.6001 19.3879C40.7525 19.4759 40.8047 19.6707 40.7167 19.8231L38.2675 24.0654L40.7167 28.3076C40.8047 28.46 40.7525 28.6549 40.6001 28.7428L36.3945 31.171V36.0751C36.3945 36.2511 36.2518 36.3937 36.0759 36.3937H31.1717L28.7436 40.5994C28.6556 40.7518 28.4607 40.804 28.3084 40.716L24.0661 38.2667L19.8238 40.716C19.6715 40.804 19.4766 40.7518 19.3886 40.5994L16.9605 36.3937H11.999C11.823 36.3937 11.6804 36.2511 11.6804 36.0751V31.2132L7.40154 28.7428C7.24916 28.6549 7.19695 28.46 7.28492 28.3076L9.73419 24.0654L7.28492 19.8231C7.24268 19.7499 7.23123 19.663 7.2531 19.5813C7.27497 19.4997 7.32836 19.4301 7.40154 19.3879L11.6804 16.9175V11.9982C11.6804 11.8223 11.823 11.6796 11.999 11.6796H16.9182L19.3886 7.40081C19.4309 7.32763 19.5005 7.27423 19.5821 7.25236C19.6637 7.23049 19.7507 7.24194 19.8238 7.28419L24.0661 9.73346L28.3084 7.28419ZM19.7812 7.99532L17.3781 12.1575C17.3212 12.2561 17.216 12.3168 17.1022 12.3168H12.3176V17.1014C12.3176 17.2153 12.2569 17.3205 12.1583 17.3774L7.99606 19.7804L10.378 23.9061C10.4349 24.0046 10.4349 24.1261 10.378 24.2247L7.99606 28.3503L12.1583 30.7534C12.2569 30.8103 12.3176 30.9155 12.3176 31.0293V35.7565H17.1444C17.2583 35.7565 17.3634 35.8172 17.4203 35.9158L19.7812 40.0049L23.9068 37.6229C24.0054 37.566 24.1268 37.566 24.2254 37.6229L28.351 40.0049L30.7119 35.9158C30.7688 35.8172 30.8739 35.7565 30.9878 35.7565H35.7573V30.987C35.7573 30.8732 35.818 30.768 35.9166 30.7111L40.0056 28.3503L37.6237 24.2247C37.5668 24.1261 37.5668 24.0046 37.6237 23.9061L40.0056 19.7804L35.9166 17.4196C35.818 17.3627 35.7573 17.2575 35.7573 17.1437V12.3168H31.03C30.9162 12.3168 30.811 12.2561 30.7541 12.1575L28.351 7.99532L24.2254 10.3773C24.1268 10.4342 24.0054 10.4342 23.9068 10.3773L19.7812 7.99532ZM28.2309 8.42717C28.3125 8.44904 28.3821 8.50243 28.4244 8.57561L30.5681 12.2888L30.5702 12.2923L30.7159 12.5373H35.213C35.3889 12.5373 35.5316 12.6799 35.5316 12.8559V17.4609L35.6988 17.5467C35.7035 17.5491 35.7081 17.5516 35.7126 17.5542L39.4253 19.6978C39.5777 19.7857 39.6299 19.9806 39.5419 20.133L37.3996 23.8437L37.2887 24.0634L37.4027 24.2832L39.5419 27.9884C39.6299 28.1408 39.5777 28.3357 39.4253 28.4236L35.7086 30.5695C35.7046 30.5718 35.7006 30.574 35.6965 30.5761L35.5316 30.662V35.2122C35.5316 35.3882 35.3889 35.5308 35.213 35.5308H30.6628L30.5769 35.6957C30.5747 35.6998 30.5725 35.7039 30.5702 35.7079L28.4244 39.4246C28.3364 39.577 28.1415 39.6292 27.9892 39.5412L24.2777 37.3984C24.27 37.3939 24.2625 37.3892 24.2552 37.3841L24.0641 37.2514L23.8719 37.3819C23.8682 37.3845 23.8644 37.3869 23.8606 37.3893C23.8578 37.391 23.855 37.3927 23.8522 37.3943L20.1337 39.5412C19.9813 39.6292 19.7865 39.577 19.6985 39.4246L17.5588 35.7185L17.4381 35.5308H12.8566C12.6807 35.5308 12.538 35.3882 12.538 35.2122V30.7152L12.2931 30.5695L12.2895 30.5674L8.57634 28.4236C8.42396 28.3357 8.37175 28.1408 8.45973 27.9884L10.6014 24.279L10.7216 24.0634L10.6045 23.8479L8.45973 20.133C8.41748 20.0598 8.40603 19.9728 8.4279 19.8912C8.44977 19.8096 8.50317 19.74 8.57634 19.6978L12.2773 17.561L12.538 17.3795V12.8559C12.538 12.6799 12.6807 12.5373 12.8566 12.5373H17.4213L17.5501 12.297C17.5517 12.2941 17.5533 12.2912 17.555 12.2883L19.6985 8.57561C19.7407 8.50243 19.8103 8.44904 19.892 8.42717C19.9736 8.4053 20.0605 8.41675 20.1337 8.45899L23.8486 10.6038L24.0641 10.7209L24.2797 10.6006L27.9892 8.45899C28.0623 8.41675 28.1493 8.4053 28.2309 8.42717ZM20.091 9.17013L18.1093 12.6026L17.8927 13.0065C17.8372 13.1099 17.7293 13.1745 17.6119 13.1745H13.1752V17.5459C13.1752 17.6502 13.1242 17.7478 13.0387 17.8074L12.6303 18.0916C12.623 18.0968 12.6154 18.1016 12.6076 18.1061L9.17086 20.0903L11.1584 23.5329C11.1598 23.5353 11.1612 23.5377 11.1625 23.5401L11.3652 23.9133C11.4173 24.0092 11.4167 24.1252 11.3635 24.2205L11.1567 24.5914L11.1544 24.5955L9.17086 28.0311L12.6117 30.0176L12.6152 30.0197L13.0195 30.2602C13.1161 30.3176 13.1752 30.4217 13.1752 30.534V34.8936H17.6119C17.7203 34.8936 17.8212 34.9487 17.8799 35.0399L18.0988 35.3802C18.1016 35.3845 18.1043 35.3889 18.1068 35.3933L20.091 38.8301L23.5235 36.8483L23.8871 36.6013C23.9961 36.5273 24.1395 36.528 24.2478 36.6032L24.6078 36.8532L28.0318 38.8301L30.0149 35.3953L30.1869 35.0651C30.2418 34.9597 30.3507 34.8936 30.4695 34.8936H34.8944V30.4687C34.8944 30.35 34.9604 30.241 35.0658 30.1862L35.396 30.0142L38.8308 28.0311L36.8473 24.5955C36.8449 24.5914 36.8426 24.5871 36.8404 24.5829L36.648 24.212C36.6009 24.1212 36.6003 24.0132 36.6464 23.9219L36.8347 23.5487C36.8374 23.5433 36.8402 23.5381 36.8432 23.5329L38.8308 20.0903L35.4009 18.11L35.0675 17.9389C34.9612 17.8844 34.8944 17.7749 34.8944 17.6555V13.1745H30.5347C30.4224 13.1745 30.3183 13.1153 30.2609 13.0188L30.0205 12.6145L30.0184 12.6109L28.0318 9.17013L24.5963 11.1537L24.5921 11.156L24.2212 11.3628C24.1259 11.4159 24.01 11.4166 23.914 11.3645L23.5408 11.1617C23.5384 11.1604 23.536 11.1591 23.5336 11.1577L20.091 9.17013Z" fill="#8DBAD3"/>
<path fill-rule="evenodd" clip-rule="evenodd" d="M24.0488 13.6072L20.7575 11.707L18.8415 15.0256H15.0256V18.8415L11.707 20.7575L13.6072 24.0488L11.707 27.3401L15.0256 29.2561V33.0291H18.8731L20.7575 36.293L24.0488 34.3928L27.3401 36.293L29.2245 33.0291H33.0291V29.2245L36.293 27.3401L34.3928 24.0488L36.293 20.7575L33.0291 18.8731V15.0256H29.2561L27.3401 11.707L24.0488 13.6072ZM14.1908 23.7697L12.5855 20.9893L15.3616 19.3864L15.6669 19.1739V18.8762V15.6669H18.8762H19.2227L19.3864 15.3616L20.9893 12.5855L23.7697 14.1908L24.0488 14.3424L24.3261 14.1878L27.1014 12.5855L28.7059 15.3647L28.8857 15.6669H29.1785H32.3838V18.8762V19.2558L32.6384 19.3864L35.4145 20.9893L33.8092 23.7697L33.6684 24.0488L33.8122 24.3261L35.4145 27.1014L32.6353 28.7059L32.3838 28.8369V29.1785V32.3838H29.1785H28.8369L28.7059 32.6353L27.1014 35.4145L24.3261 33.8122L24.0488 33.6196L23.7697 33.8092L20.9893 35.4145L19.3864 32.6384L19.2227 32.3838H18.8762H15.6669V29.1785V28.8857L15.3647 28.7059L12.5855 27.1014L14.1878 24.3261L14.3424 24.0488L14.1908 23.7697Z" fill="#4F7D96"/>
<path fill-rule="evenodd" clip-rule="evenodd" d="M27.148 11.3734C27.3322 11.2671 27.5678 11.3302 27.6742 11.5144L29.479 14.6405H33.0296C33.2423 14.6405 33.4148 14.8129 33.4148 15.0257V18.6508L36.4861 20.424C36.6703 20.5303 36.7334 20.7659 36.6271 20.9502L34.8381 24.0488L36.6271 27.1475C36.7334 27.3317 36.6703 27.5673 36.4861 27.6737L33.4148 29.4469V33.0291C33.4148 33.2418 33.2423 33.4143 33.0296 33.4143H29.4474L27.6742 36.4856C27.5678 36.6698 27.3322 36.733 27.148 36.6266L24.0493 34.8376L20.9507 36.6266C20.7664 36.733 20.5308 36.6698 20.4245 36.4856L18.6512 33.4143H15.0261C14.8134 33.4143 14.6409 33.2418 14.6409 33.0291V29.4785L11.5149 27.6737C11.3307 27.5673 11.2676 27.3317 11.3739 27.1475L13.1629 24.0488L11.3739 20.9502C11.3229 20.8617 11.309 20.7565 11.3355 20.6579C11.3619 20.5592 11.4265 20.4751 11.5149 20.424L14.6409 18.6192V15.0257C14.6409 14.8129 14.8134 14.6405 15.0261 14.6405H18.6197L20.4245 11.5144C20.4755 11.426 20.5597 11.3614 20.6584 11.335C20.757 11.3085 20.8622 11.3224 20.9507 11.3734L24.0493 13.1625L27.148 11.3734ZM21.1308 13.1117L19.7236 15.549L19.5627 15.849C19.4956 15.9741 19.3651 16.0522 19.2232 16.0522H16.0526V19.1739C16.0526 19.3 15.991 19.418 15.8875 19.4901L15.5822 19.7026C15.5733 19.7088 15.5641 19.7146 15.5547 19.7201L13.1122 21.1303L14.5249 23.5772C14.5266 23.5801 14.5282 23.583 14.5298 23.5859L14.6814 23.8649C14.7444 23.9809 14.7436 24.1211 14.6793 24.2364L14.5247 24.5137C14.5238 24.5154 14.5228 24.5171 14.5219 24.5187L13.1122 26.9604L15.5578 28.3724L15.5621 28.3749L15.8644 28.5547C15.9811 28.6241 16.0526 28.7499 16.0526 28.8857V31.9987H19.2232C19.3542 31.9987 19.4763 32.0653 19.5472 32.1755L19.7109 32.43C19.7142 32.4352 19.7175 32.4404 19.7205 32.4458L21.1308 34.8883L23.5654 33.4827L23.8328 33.301C23.9647 33.2114 24.1381 33.2123 24.269 33.3033L24.5331 33.4867L26.9609 34.8883L28.3687 32.45L28.4958 32.2059C28.5621 32.0786 28.6938 31.9987 28.8374 31.9987H31.9992V28.8369C31.9992 28.6933 32.0791 28.5616 32.2064 28.4953L32.4505 28.3682L34.8888 26.9604L33.4791 24.5187C33.4762 24.5137 33.4734 24.5086 33.4708 24.5034L33.327 24.2261C33.27 24.1163 33.2693 23.9858 33.325 23.8753L33.4658 23.5963C33.4691 23.5898 33.4725 23.5834 33.4761 23.5772L34.8888 21.1303L32.4545 19.7248L32.2085 19.5985C32.08 19.5326 31.9992 19.4003 31.9992 19.2558V16.0522H28.8862C28.7504 16.0522 28.6246 15.9806 28.5552 15.8639L28.3754 15.5616L28.3728 15.5573L26.9609 13.1117L24.5192 14.5214C24.5176 14.5224 24.5159 14.5233 24.5142 14.5242L24.2369 14.6789C24.1216 14.7431 23.9814 14.7439 23.8654 14.6809L23.5864 14.5293C23.5834 14.5277 23.5805 14.5261 23.5777 14.5244L21.1308 13.1117Z" fill="#4F7D96"/>
<path fill-rule="evenodd" clip-rule="evenodd" d="M24.0308 17.6141L22.0084 16.4465L20.8311 18.4857H18.4864V20.8304L16.4473 22.0077L17.6149 24.03L16.4473 26.0524L18.4864 27.2297V29.548H20.8505L22.0084 31.5536L24.0308 30.386L26.0531 31.5536L27.211 29.548H29.5488V27.2103L31.5543 26.0524L30.3867 24.03L31.5543 22.0077L29.5488 20.8498V18.4857H27.2304L26.0531 16.4465L24.0308 17.6141ZM17.9734 23.8586L16.987 22.1501L18.6929 21.1652L18.8805 21.0346V20.8517V18.8797H20.8524H21.0653L21.1659 18.6921L22.1508 16.9863L23.8593 17.9727L24.0308 18.0659L24.2012 17.9709L25.9065 16.9863L26.8924 18.694L27.0029 18.8797H27.1828H29.1523V20.8517V21.085L29.3087 21.1652L31.0145 22.1501L30.0281 23.8586L29.9416 24.03L30.03 24.2004L31.0145 25.9057L29.3069 26.8917L29.1523 26.9721V27.1821V29.1516H27.1828H26.9729L26.8924 29.3061L25.9065 31.0138L24.2012 30.0293L24.0308 29.9109L23.8593 30.0274L22.1508 31.0138L21.1659 29.308L21.0653 29.1516H20.8524H18.8805V27.1821V27.0021L18.6947 26.8917L16.987 25.9057L17.9716 24.2004L18.0666 24.03L17.9734 23.8586Z" fill="#EAB604"/>
<path fill-rule="evenodd" clip-rule="evenodd" d="M25.7917 15.9929C26.0422 15.8482 26.3625 15.9341 26.5072 16.1846L27.5333 17.9618H29.5492C29.8385 17.9618 30.073 18.1964 30.073 18.4856V20.5474L31.8167 21.554C32.0672 21.6987 32.153 22.019 32.0084 22.2696L30.992 24.03L32.0084 25.7904C32.153 26.041 32.0672 26.3613 31.8167 26.506L30.073 27.5127V29.548C30.073 29.8373 29.8385 30.0718 29.5492 30.0718H27.5139L26.5072 31.8154C26.3625 32.066 26.0422 32.1518 25.7917 32.0072L24.0312 30.9908L22.2708 32.0072C22.0203 32.1518 21.6999 32.066 21.5553 31.8154L20.5486 30.0718H18.4869C18.1976 30.0718 17.9631 29.8373 17.9631 29.548V27.5321L16.1858 26.506C15.9353 26.3613 15.8494 26.041 15.9941 25.7904L17.0105 24.03L15.9941 22.2696C15.9246 22.1493 15.9058 22.0063 15.9418 21.8721C15.9777 21.7379 16.0655 21.6235 16.1858 21.554L17.9631 20.5279V18.4856C17.9631 18.1964 18.1976 17.9618 18.4869 17.9618H20.5292L21.5553 16.1846C21.6247 16.0643 21.7391 15.9765 21.8733 15.9405C22.0075 15.9046 22.1505 15.9234 22.2708 15.9929L24.0312 17.0093L25.7917 15.9929ZM25.7152 17.7018L24.4635 18.4244C24.4613 18.4257 24.459 18.427 24.4567 18.4283L24.2863 18.5233C24.1295 18.6107 23.9389 18.6118 23.7812 18.5261L23.6097 18.4329C23.6057 18.4308 23.6018 18.4286 23.5979 18.4263L22.343 17.7018L21.6241 18.9469L21.5274 19.1273C21.4362 19.2974 21.2588 19.4035 21.0658 19.4035H19.4047V21.0346C19.4047 21.206 19.3209 21.3665 19.1802 21.4645L18.9926 21.5951C18.9805 21.6035 18.968 21.6114 18.9552 21.6188L17.703 22.3418L18.4275 23.5966C18.4298 23.6006 18.432 23.6045 18.4342 23.6085L18.5273 23.78C18.613 23.9377 18.6119 24.1283 18.5245 24.2851L18.4295 24.4555C18.4283 24.4578 18.427 24.46 18.4257 24.4623L17.703 25.714L18.9571 26.438C18.959 26.4391 18.961 26.4403 18.9629 26.4414L19.1487 26.5519C19.3074 26.6463 19.4047 26.8174 19.4047 27.0021V28.6277H21.0658C21.244 28.6277 21.4099 28.7183 21.5063 28.8681L21.6069 29.0245C21.6115 29.0316 21.6158 29.0388 21.62 29.046L22.343 30.2982L23.5813 29.5833L23.7369 29.4776C23.9162 29.3558 24.152 29.357 24.33 29.4807L24.4825 29.5865L25.7152 30.2982L26.4335 29.054L26.5088 28.9096C26.599 28.7364 26.778 28.6277 26.9733 28.6277H28.629V26.9721C28.629 26.7768 28.7376 26.5977 28.9108 26.5075L29.0552 26.4323L30.2995 25.714L29.5768 24.4623C29.5729 24.4555 29.5691 24.4485 29.5654 24.4415L29.4771 24.2711C29.3996 24.1218 29.3986 23.9443 29.4744 23.7941L29.5609 23.6226C29.5654 23.6138 29.57 23.6052 29.575 23.5966L30.2995 22.3418L29.0585 21.6253L28.9136 21.5509C28.7389 21.4612 28.629 21.2813 28.629 21.0849V19.4035H27.0033C26.8186 19.4035 26.6475 19.3062 26.5531 19.1475L26.4426 18.9617C26.4415 18.9598 26.4403 18.9578 26.4392 18.9559L25.7152 17.7018Z" fill="#EAB604"/>
</svg>
