<svg width="48" height="48" viewBox="0 0 48 48" fill="none" xmlns="http://www.w3.org/2000/svg">
<circle cx="24" cy="24" r="24" fill="#EBF2F5"/>
<path fill-rule="evenodd" clip-rule="evenodd" d="M21.6363 16.4798C22.0759 16.3069 22.5711 16.2216 23.122 16.2216C24.3013 16.2216 25.2318 16.6199 25.9135 17.4278C26.5626 18.1901 26.8872 19.2029 26.8872 20.4545C26.8872 21.7062 26.5626 22.7075 25.9135 23.4699C25.5527 23.8915 25.1222 24.2015 24.622 24.4C25.1223 24.2015 25.5528 23.8915 25.9136 23.4699C26.5628 22.7075 26.8874 21.7061 26.8874 20.4545C26.8874 19.2028 26.5628 18.1901 25.9136 17.4277C25.232 16.6198 24.3015 16.2215 23.1222 16.2215C22.5712 16.2215 22.0759 16.3069 21.6363 16.4798ZM27.5267 20.4545C27.5267 19.0915 27.1714 17.9194 26.4013 17.0143C25.5818 16.0437 24.4623 15.5823 23.1222 15.5823C21.7737 15.5823 20.6495 16.0425 19.8385 17.0311C19.0718 17.9466 18.7285 19.1049 18.7285 20.4545C18.7285 21.7949 19.073 22.9539 19.841 23.8694L19.8418 23.8703C20.6493 24.8291 21.7684 25.3039 23.1222 25.3039C24.4622 25.3039 25.5802 24.8427 26.3993 23.8855L26.4004 23.8843C27.1703 22.9801 27.5267 21.8197 27.5267 20.4545ZM23.1222 18.0328C23.7665 18.0328 24.1806 18.2335 24.4689 18.5954C24.7767 18.9956 24.9714 19.5923 24.9714 20.4545C24.9714 21.3165 24.7768 21.8987 24.4729 22.2856C24.1801 22.6457 23.7596 22.8534 23.1222 22.8534C22.4897 22.8534 22.0612 22.6384 21.7666 22.2591C21.4575 21.8587 21.2729 21.284 21.2729 20.4545C21.2729 19.6128 21.4579 19.0387 21.7662 18.6389C22.0751 18.2434 22.4961 18.0328 23.1222 18.0328ZM22.1647 17.5613C21.8086 17.7018 21.508 17.9303 21.261 18.247C20.8391 18.7932 20.6335 19.5215 20.6335 20.4545C20.6335 21.3762 20.8391 22.1045 21.261 22.6507C21.6938 23.2082 22.3214 23.4927 23.122 23.4927C23.4895 23.4927 23.8183 23.4351 24.1083 23.3212C23.8183 23.4351 23.4896 23.4926 23.1222 23.4926C22.3215 23.4926 21.694 23.2081 21.2612 22.6506C20.8392 22.1044 20.6337 21.3762 20.6337 20.4545C20.6337 19.5214 20.8392 18.7932 21.2612 18.247C21.5081 17.9303 21.8087 17.7018 22.1647 17.5613Z" fill="#EAB604"/>
<path fill-rule="evenodd" clip-rule="evenodd" d="M35.3218 16.2191C35.9414 16.5922 36.3852 17.2112 36.6491 17.8048C36.9129 18.3985 36.706 19.256 35.7916 19.3879C34.2744 19.6068 34.6702 18.0027 32.9552 18.0027C30.8444 18.0027 30.7785 19.9156 30.7785 20.4383C30.7785 20.9611 30.8444 22.8179 32.9552 22.8179C34.1283 22.8179 34.0329 22.4792 35.009 21.8285C35.9851 21.1778 37.0828 22.4881 36.6491 23.2797C35.9985 24.467 34.8021 25.3189 32.6397 25.2585C31.636 25.2305 30.3359 24.7167 29.4704 23.6843C28.7257 22.8081 28.3379 21.6361 28.3379 20.4383C28.3379 19.1244 28.7407 18.2008 29.3446 17.4083C30.0996 16.4173 31.1348 15.8655 31.9242 15.6907C32.9552 15.4623 34.218 15.5544 35.3218 16.2191Z" fill="#EAB604"/>
<path d="M20.6072 27.303C20.2125 27.303 19.8926 27.6229 19.8926 28.0176V35.2863C19.8926 35.6131 20.1575 35.878 20.4843 35.878L-nan -nanL-nan -nanL20.4843 35.878C20.8111 35.878 21.076 35.6131 21.076 35.2863V32.6912C21.076 32.6272 21.1279 32.5753 21.1919 32.5753H25.7589C26.0535 32.5753 26.2924 32.3365 26.2924 32.0418L-nan -nanL-nan -nanL26.2924 32.0418C26.2924 31.7472 26.0535 31.5083 25.7589 31.5083H21.3829C21.2134 31.5083 21.076 31.3709 21.076 31.2015V29.1638C21.076 28.7254 21.4314 28.37 21.8699 28.37L26.417 28.37C26.7116 28.37 26.9505 28.1311 26.9505 27.8365L-nan -nanL-nan -nanL26.9505 27.8365C26.9505 27.5418 26.7116 27.303 26.417 27.303H20.6072Z" fill="#8DBAD3"/>
<path fill-rule="evenodd" clip-rule="evenodd" d="M19.2539 35.2861V28.0174C19.2539 27.2697 19.86 26.6636 20.6078 26.6636H26.4176C27.0653 26.6636 27.5903 27.1886 27.5903 27.8363C27.5903 28.4841 27.0653 29.0091 26.4176 29.0091L21.8704 29.0091C21.7851 29.0091 21.7159 29.0783 21.7159 29.1637V30.8689H25.7595C26.4072 30.8689 26.9322 31.394 26.9322 32.0417C26.9322 32.6894 26.4072 33.2145 25.7595 33.2145H21.7159V35.2861C21.7159 35.966 21.1647 36.5171 20.4849 36.5171C19.805 36.5171 19.2539 35.966 19.2539 35.2861ZM19.8932 28.0174C19.8932 27.6228 20.2131 27.3028 20.6078 27.3028H26.4176C26.7122 27.3028 26.9511 27.5417 26.9511 27.8363C26.9511 28.131 26.7122 28.3699 26.4176 28.3699L21.8704 28.3699C21.432 28.3699 21.0766 28.7253 21.0766 29.1637V31.2013C21.0766 31.3708 21.214 31.5082 21.3834 31.5082H25.7595C26.0541 31.5082 26.293 31.747 26.293 32.0417C26.293 32.3363 26.0541 32.5752 25.7595 32.5752H21.1925C21.1285 32.5752 21.0766 32.6271 21.0766 32.6911V35.2861C21.0766 35.6129 20.8117 35.8779 20.4849 35.8779C20.1581 35.8779 19.8932 35.6129 19.8932 35.2861V28.0174Z" fill="#8DBAD3"/>
<path d="M30.2625 27.303C29.9277 27.303 29.6562 27.5744 29.6562 27.9092V35.1146C29.6562 35.486 29.9574 35.7871 30.3288 35.7871H35.9893C36.2803 35.7871 36.5163 35.5512 36.5163 35.2602C36.5163 34.9691 36.2803 34.7332 35.9893 34.7332H31.4224C31.1166 34.7332 30.8687 34.4853 30.8687 34.1795V27.9092C30.8687 27.5744 30.5973 27.303 30.2625 27.303Z" fill="#8DBAD3"/>
<path fill-rule="evenodd" clip-rule="evenodd" d="M29.0176 35.1147V27.9093C29.0176 27.2215 29.5752 26.6638 30.2631 26.6638C30.951 26.6638 31.5086 27.2215 31.5086 27.9093V34.094H35.9899C36.634 34.094 37.1561 34.6162 37.1561 35.2603C37.1561 35.9044 36.634 36.4265 35.9899 36.4265H30.3294C29.6049 36.4265 29.0176 35.8392 29.0176 35.1147ZM29.6568 27.9093C29.6568 27.5745 29.9283 27.3031 30.2631 27.3031C30.5979 27.3031 30.8693 27.5745 30.8693 27.9093V34.1796C30.8693 34.4854 31.1172 34.7333 31.423 34.7333H35.9899C36.2809 34.7333 36.5169 34.9692 36.5169 35.2603C36.5169 35.5513 36.2809 35.7872 35.9899 35.7872H30.3294C29.958 35.7872 29.6568 35.4861 29.6568 35.1147V27.9093Z" fill="#8DBAD3"/>
<path d="M11.6295 12C10.5531 12 10.0001 12.4739 10 13.3584C9.99994 14.3165 10.6564 14.7169 11.7328 14.7169H14.2116C14.4877 14.7169 14.7115 14.9407 14.7115 15.2168V34.9336C14.7115 36.1974 15.2217 36.7714 16.1279 36.7714C17.0068 36.7714 17.4065 36.1974 17.4065 34.9336V15.2168C17.4065 14.9566 17.5664 14.7169 17.886 14.7169H36.337C37.4134 14.7169 37.9678 14.2076 37.9678 13.3584C37.9678 12.5594 37.4699 12 36.3935 12L11.6295 12Z" fill="#4F7D96"/>
</svg>
