<svg width="48" height="48" viewBox="0 0 48 48" fill="none" xmlns="http://www.w3.org/2000/svg">
<circle cx="24" cy="24" r="24" fill="#EBF2F5"/>
<path fill-rule="evenodd" clip-rule="evenodd" d="M32.9282 21.122C34.4193 19.6387 36.8306 19.6387 38.3217 21.122C39.2842 22.0842 39.6596 23.4861 39.3065 24.7997C38.9533 26.1133 37.9253 27.1389 36.6097 27.4903C35.2941 27.8416 33.8907 27.4653 32.9282 26.5031L31.745 25.3215L30.712 26.3509C30.2953 26.7661 29.6207 26.7657 29.2046 26.3501C28.7877 25.9338 28.7881 25.2587 29.2054 24.8429L30.2366 23.8154V23.8151V23.8148L32.1534 21.9005C32.1541 21.8998 32.1541 21.8988 32.1534 21.8981C32.1528 21.8975 32.1528 21.8964 32.1534 21.8958L32.9282 21.122ZM30.7841 18.5261C30.3676 18.9421 29.6924 18.9421 29.2759 18.5261C28.8594 18.1102 28.8594 17.4358 29.2759 17.0198L30.0236 16.2731C30.679 15.6172 30.679 14.5552 30.0236 13.8993C29.3602 13.2659 28.3153 13.2659 27.6519 13.8993L25.4887 16.0596C25.4884 16.06 25.4884 16.0605 25.4887 16.0608C25.4891 16.0612 25.4891 16.0617 25.4887 16.062L23.9817 17.5671C23.9813 17.5675 23.9808 17.5675 23.9805 17.5671C23.9801 17.5668 23.9796 17.5668 23.9793 17.5671L22.9759 18.5714C22.5596 18.9881 21.8836 18.9885 21.4668 18.5722C21.0507 18.1566 21.0503 17.4829 21.466 17.0668L22.2852 16.2468C22.2854 16.2466 22.2857 16.2466 22.2858 16.2468C22.286 16.247 22.2863 16.247 22.2865 16.2468L24.4204 14.1158C24.4206 14.1155 24.4206 14.1151 24.4204 14.1149C24.4201 14.1146 24.4201 14.1142 24.4204 14.114L26.1437 12.393C26.8558 11.6777 27.8251 11.2771 28.8351 11.2805C30.3777 11.2787 31.7693 12.206 32.3599 13.6292C32.9504 15.0525 32.6235 16.6909 31.5318 17.7794L30.7841 18.5261ZM16.22 22.3089L17.2408 21.2872C17.6567 20.8709 18.332 20.8705 18.7484 21.2864C19.1644 21.7019 19.1644 22.3756 18.7484 22.7912L17.7236 23.8146C17.7232 23.815 17.7232 23.8155 17.7236 23.8158C17.7239 23.8162 17.7239 23.8167 17.7236 23.8171L15.7649 25.7732C15.7648 25.7733 15.7648 25.7735 15.7649 25.7736C15.765 25.7737 15.765 25.7739 15.7649 25.774L15.0315 26.5031C13.9415 27.5937 12.3008 27.9207 10.8751 27.3316C9.44932 26.7426 8.51953 25.3535 8.51953 23.8126C8.51953 22.2717 9.44932 20.8826 10.8751 20.2935C12.3008 19.7045 13.9415 20.0315 15.0315 21.122L16.22 22.3089ZM18.7505 30.5441C19.167 30.1281 19.167 29.4538 18.7505 29.0378C18.334 28.6219 17.6587 28.6219 17.2422 29.0378L15.9482 30.3301C14.4612 31.8185 14.4612 34.2281 15.9482 35.7165C17.4372 37.1998 19.8474 37.1998 21.3364 35.7165L23.6756 33.3757C23.6765 33.3748 23.6765 33.3734 23.6756 33.3725C23.6747 33.3716 23.6747 33.3702 23.6756 33.3693L25.8061 31.2416C25.8075 31.2402 25.8098 31.2402 25.8113 31.2416C25.8127 31.2431 25.815 31.243 25.8164 31.2416L26.5375 30.5199C26.9364 30.1206 26.9361 29.4741 26.5367 29.0752L26.5063 29.0449C26.0894 28.6286 25.4135 28.629 24.9972 29.0457L23.9851 30.0587C23.9822 30.0616 23.9775 30.0616 23.9746 30.0587C23.9717 30.0558 23.967 30.0558 23.9641 30.0587L22.4677 31.5531C22.4655 31.5553 22.4655 31.5588 22.4677 31.561C22.4698 31.5632 22.4698 31.5667 22.4677 31.5689L19.8281 34.2103C19.1648 34.8436 18.1199 34.8436 17.4565 34.2103C16.8011 33.5543 16.8011 32.4923 17.4565 31.8364L18.7505 30.5441ZM11.1463 25.0022C11.8117 25.6356 12.8579 25.6356 13.5233 25.0022L14.4983 24.0284C14.6162 23.9107 14.6162 23.7198 14.4983 23.6021L13.5233 22.6283C12.8579 21.9949 11.8117 21.9949 11.1463 22.6283C10.4909 23.2842 10.4909 24.3462 11.1463 25.0022ZM34.4364 25.0022C35.1018 25.6356 36.148 25.6356 36.8134 25.0022C37.4543 24.3441 37.447 23.2938 36.797 22.6447C36.147 21.9955 35.0954 21.9882 34.4364 22.6283L33.4614 23.6021C33.3435 23.7198 33.3435 23.9107 33.4614 24.0284L34.4364 25.0022Z" fill="#4F7D96"/>
<path fill-rule="evenodd" clip-rule="evenodd" d="M25.7039 23.508C25.7037 23.5083 25.7033 23.5083 25.703 23.508C25.7028 23.5078 25.7024 23.5078 25.7021 23.508L23.6054 25.6158C23.6052 25.6159 23.6052 25.6162 23.6054 25.6163C23.6055 25.6165 23.6055 25.6167 23.6054 25.6168L22.8815 26.3445C22.4815 26.7466 21.8331 26.7466 21.4331 26.3445L21.4163 26.3276C21.0071 25.9162 21.0071 25.2492 21.4163 24.8379L22.2421 24.0077H22.2424H22.2427L24.1455 22.0949L24.8386 21.3997C25.248 20.9891 25.9108 20.9895 26.3198 21.4006L26.3824 21.4635C26.7574 21.8405 26.757 22.4518 26.3816 22.8283L25.7039 23.508Z" fill="#EAB604"/>
<path fill-rule="evenodd" clip-rule="evenodd" d="M26.7845 25.198C26.3879 24.7971 25.7449 24.7971 25.3483 25.198L25.278 25.2691C24.889 25.6623 24.889 26.2999 25.278 26.6931L25.9816 27.4044C25.982 27.4048 25.9826 27.4048 25.983 27.4044C25.9834 27.404 25.984 27.404 25.9844 27.4044L28.0957 29.5387C28.0961 29.5391 28.0961 29.5397 28.0957 29.5401C28.0954 29.5405 28.0954 29.5412 28.0957 29.5416L30.3768 31.8475C31.025 32.5042 31.0238 33.5678 30.3742 34.223C29.7245 34.8783 28.6724 34.8771 28.0242 34.2204L26.745 32.9272C26.3335 32.5112 25.6663 32.5112 25.2548 32.9272C24.8433 33.3432 24.8433 34.0176 25.2548 34.4336L26.5367 35.7294C28.0121 37.2017 30.3864 37.1939 31.8523 35.712C33.3183 34.2301 33.326 31.8299 31.8696 30.3384L29.6169 28.0612H29.6166H29.6164L27.5039 25.9257L27.5039 25.9254V25.9252L26.7845 25.198ZM21.5789 19.9344C21.5786 19.9348 21.5786 19.9353 21.5789 19.9357L22.4984 20.8651C22.9101 21.2814 22.9101 21.9563 22.4984 22.3726L22.387 22.4851C22.0364 22.8396 21.4678 22.8393 21.1176 22.4844L20.4847 21.8433V21.843V21.8427L20.2235 21.5786L20.0854 21.4389L18.5926 19.9298L16.4564 17.7701C15 16.2787 15.0077 13.8785 16.4736 12.3966C17.9396 10.9147 20.3139 10.9069 21.7893 12.3791L22.522 13.1198C22.9342 13.5365 22.9342 14.2121 22.522 14.6288C22.1097 15.0455 21.4414 15.0455 21.0292 14.6288L20.2965 13.8882C19.6399 13.2537 18.6058 13.2537 17.9492 13.8882C17.3005 14.5453 17.3005 15.6093 17.9492 16.2664L20.0849 18.4254C20.0852 18.4257 20.0858 18.4257 20.0861 18.4254C20.0865 18.425 20.087 18.425 20.0873 18.4254L21.5789 19.9332C21.5793 19.9335 21.5793 19.9341 21.5789 19.9344ZM30.2891 22.4832C29.8776 22.8992 29.2104 22.8992 28.7989 22.4832L27.94 21.6149C27.9392 21.6141 27.9392 21.6128 27.94 21.612C27.9408 21.6112 27.9408 21.6099 27.94 21.6091L25.8302 19.4763C25.8294 19.4755 25.8281 19.4755 25.8273 19.4763C25.8265 19.4771 25.8252 19.4771 25.8244 19.4763L25.1695 18.8143C24.8071 18.4479 24.8071 17.854 25.1695 17.4876L25.3794 17.2755C25.725 16.9261 26.2856 16.9264 26.6309 17.2762L27.2566 17.9104L27.3955 18.0509L27.7655 18.4258C27.7656 18.4259 27.7658 18.4259 27.7659 18.4258C27.7661 18.4257 27.7662 18.4257 27.7664 18.4258L29.2587 19.9344C29.2589 19.9345 29.2589 19.9347 29.2587 19.9348C29.2586 19.935 29.2586 19.9351 29.2587 19.9353L30.2891 20.9768C30.7006 21.3928 30.7006 22.0673 30.2891 22.4832ZM21.5783 27.6989L22.5951 28.7291C23.0062 29.1456 23.0058 29.8201 22.5943 30.2362C22.1824 30.6526 21.5145 30.6526 21.1026 30.2362L20.0856 29.2081H20.0854H20.0852L18.5926 27.6993L18.5926 27.6991V27.6988L17.5768 26.6719C17.1649 26.2555 17.1649 25.5804 17.5768 25.164C17.9884 24.748 18.6555 24.7476 19.0676 25.1632L20.0855 26.1899L21.5783 27.6989Z" fill="#8DBAD3"/>
</svg>
