<svg width="48" height="48" viewBox="0 0 48 48" fill="none" xmlns="http://www.w3.org/2000/svg">
<circle cx="24" cy="24" r="24" fill="#EBF2F5"/>
<g clip-path="url(#clip0_4264_20270)">
<path d="M27.2207 22.5622L22.5624 27.2205C22.037 27.7459 21.1851 27.7459 20.6597 27.2205C20.1343 26.6951 20.1343 25.8432 20.6597 25.3178L25.318 20.6595C25.8435 20.134 26.6953 20.134 27.2207 20.6595C27.7462 21.1848 27.7462 22.0367 27.2207 22.5622Z" fill="#8DBAD3"/>
<path d="M22.7174 27.0656C22.9111 27.8974 22.6845 28.808 22.0374 29.455L17.9008 33.5917C16.9049 34.5876 15.2845 34.5875 14.2886 33.5917C13.2927 32.5958 13.2926 30.9753 14.2885 29.9795L18.4252 25.8428C19.0722 25.1957 19.9829 24.9691 20.8146 25.1629L22.8657 23.1118C20.8582 21.9445 18.242 22.2206 16.5225 23.9401L12.3859 28.0767C10.3376 30.125 10.3375 33.4461 12.3859 35.4944C14.4342 37.5428 17.7552 37.5427 19.8035 35.4944L23.9402 31.3577C25.6597 29.6383 25.9357 27.022 24.7684 25.0146L22.7174 27.0656Z" fill="#4F7D96"/>
<path d="M29.8105 21.684L29.4555 22.0373C28.8085 22.6843 27.8978 22.9109 27.0661 22.7172L25.0151 24.7682C27.0225 25.9355 29.6388 25.6594 31.3582 23.94L35.4949 19.8033C37.5432 17.755 37.5432 14.434 35.4949 12.3856C33.4465 10.3373 30.1256 10.3373 28.0772 12.3856L23.9405 16.5223C22.2211 18.2418 21.945 20.858 23.1123 22.8654L25.1633 20.8145C24.9695 19.9827 25.1962 19.072 25.8432 18.425L29.9799 14.2883C30.9758 13.2925 32.5962 13.2925 33.5921 14.2884C34.588 15.2843 34.588 16.9047 33.5921 17.9006L33.593 17.9014L33.2124 18.282" fill="#4F7D96"/>
<path d="M17.5853 18.3368C17.6892 18.4407 17.8254 18.4927 17.9616 18.4927C18.0978 18.4927 18.2339 18.4407 18.3379 18.3368C18.5457 18.1291 18.5457 17.7921 18.3379 17.5842L17.4104 16.6568C17.2026 16.449 16.8657 16.449 16.6578 16.6568C16.45 16.8646 16.45 17.2015 16.6578 17.4094L17.5853 18.3368Z" fill="#EAB604"/>
<path d="M15.4091 20.8765H16.7206C17.0145 20.8765 17.2528 20.6382 17.2528 20.3444C17.2528 20.0505 17.0145 19.8123 16.7206 19.8123H15.4091C15.1152 19.8123 14.877 20.0505 14.877 20.3444C14.877 20.6383 15.1152 20.8765 15.4091 20.8765Z" fill="#EAB604"/>
<path d="M20.3446 17.2519C20.6385 17.2519 20.8768 17.0136 20.8768 16.7197V15.4081C20.8768 15.1143 20.6385 14.876 20.3446 14.876C20.0508 14.876 19.8125 15.1143 19.8125 15.4081V16.7197C19.8125 17.0136 20.0507 17.2519 20.3446 17.2519Z" fill="#EAB604"/>
<path d="M30.2268 29.4727C30.019 29.265 29.6821 29.265 29.4742 29.4727C29.2664 29.6805 29.2664 30.0175 29.4742 30.2253L30.4017 31.1528C30.5056 31.2566 30.6418 31.3086 30.7779 31.3086C30.9141 31.3086 31.0503 31.2566 31.1542 31.1528C31.362 30.945 31.362 30.608 31.1542 30.4002L30.2268 29.4727Z" fill="#EAB604"/>
<path d="M32.4023 26.9331H31.0907C30.7969 26.9331 30.5586 27.1714 30.5586 27.4652C30.5586 27.7591 30.7969 27.9974 31.0907 27.9974H32.4023C32.6961 27.9974 32.9344 27.7591 32.9344 27.4652C32.9344 27.1713 32.6961 26.9331 32.4023 26.9331Z" fill="#EAB604"/>
<path d="M27.4657 30.5576C27.1719 30.5576 26.9336 30.7959 26.9336 31.0898V32.4013C26.9336 32.6952 27.1719 32.9334 27.4657 32.9334C27.7596 32.9334 27.9979 32.6952 27.9979 32.4013V31.0898C27.9979 30.7959 27.7596 30.5576 27.4657 30.5576Z" fill="#EAB604"/>
</g>
<defs>
<clipPath id="clip0_4264_20270">
<rect width="27.24" height="27.24" fill="white" transform="translate(10.3203 10.3201)"/>
</clipPath>
</defs>
</svg>
