<svg width="48" height="48" viewBox="0 0 48 48" fill="none" xmlns="http://www.w3.org/2000/svg">
<circle cx="24" cy="24" r="24" fill="#EBF2F5"/>
<path fill-rule="evenodd" clip-rule="evenodd" d="M32.9798 17.1325L15.0625 17.1325C12.2217 17.1325 9.91881 19.4307 9.91881 22.2655L9.91881 31.3338C9.91881 34.1686 12.2217 36.4667 15.0625 36.4667L32.9798 36.4667C35.8206 36.4667 38.1235 34.1686 38.1235 31.3338L38.1235 22.2655C38.1235 19.4306 35.8206 17.1325 32.9798 17.1325ZM15.0625 15.0793C11.0854 15.0793 7.86133 18.2967 7.86133 22.2655L7.86133 31.3338C7.86133 35.3026 11.0854 38.5199 15.0625 38.5199L32.9798 38.5199C36.9569 38.5199 40.181 35.3026 40.181 31.3338L40.181 22.2655C40.181 18.2967 36.9569 15.0793 32.9798 15.0793L15.0625 15.0793Z" fill="#4F7D96"/>
<path fill-rule="evenodd" clip-rule="evenodd" d="M13.2021 20.3705C13.2021 19.8021 12.7419 19.3413 12.1743 19.3413C11.6067 19.3413 11.1465 19.8021 11.1465 20.3705V22.4288C11.1465 24.8918 13.1405 26.8885 15.6003 26.8885H15.7044C16.2721 26.8885 16.7322 26.4277 16.7322 25.8593C16.7322 25.2909 16.2721 24.8302 15.7044 24.8302H15.6003C14.2758 24.8302 13.2021 23.755 13.2021 22.4288V20.3705ZM34.5736 20.3705C34.5736 19.8021 35.0338 19.3413 35.6015 19.3413C36.1691 19.3413 36.6293 19.8021 36.6293 20.3705V22.4288C36.6293 24.8918 34.6352 26.8885 32.1754 26.8885H31.59C31.0223 26.8885 30.5621 26.4277 30.5621 25.8593C30.5621 25.2909 31.0223 24.8302 31.59 24.8302H32.1754C33.4999 24.8302 34.5736 23.755 34.5736 22.4288V20.3705Z" fill="#4F7D96"/>
<path fill-rule="evenodd" clip-rule="evenodd" d="M17.9969 13.2606C17.9969 13.8238 17.5367 14.2803 16.9691 14.2803C16.4015 14.2803 15.9414 13.8238 15.9414 13.2606C15.9414 11.1757 17.6449 9.48561 19.7463 9.48561H21.9353C21.9534 9.48561 21.9714 9.48607 21.9893 9.48699C22.0071 9.48607 22.0251 9.48561 22.0432 9.48561H28.1188C30.2202 9.48561 31.9236 11.1757 31.9236 13.2606C31.9236 13.8238 31.4635 14.2803 30.8959 14.2803C30.3283 14.2803 29.8682 13.8238 29.8682 13.2606C29.8682 12.302 29.0849 11.525 28.1188 11.525H22.0432C22.0251 11.525 22.0071 11.5245 21.9893 11.5236C21.9714 11.5245 21.9534 11.525 21.9353 11.525H19.7463C18.7801 11.525 17.9969 12.302 17.9969 13.2606Z" fill="#EAB604"/>
<path d="M17.5391 24.1017C17.5391 23.5322 17.9962 23.0706 18.5602 23.0706C19.1241 23.0706 19.5812 23.5322 19.5812 24.1017V27.3668C19.5812 27.9363 19.1241 28.398 18.5602 28.398C17.9962 28.398 17.5391 27.9363 17.5391 27.3668V24.1017Z" fill="#8DBAD3"/>
<path d="M27.3066 24.1017C27.3066 23.5322 27.7638 23.0706 28.3277 23.0706C28.8917 23.0706 29.3488 23.5322 29.3488 24.1017V27.3669C29.3488 27.9363 28.8917 28.398 28.3277 28.398C27.7638 28.398 27.3066 27.9363 27.3066 27.3669V24.1017Z" fill="#8DBAD3"/>
<path fill-rule="evenodd" clip-rule="evenodd" d="M20.291 26.2225C20.291 25.6586 20.7552 25.2014 21.3277 25.2014L25.6472 25.2014C26.2198 25.2014 26.6839 25.6586 26.6839 26.2225C26.6839 26.7864 26.2198 27.2436 25.6472 27.2436L21.3277 27.2436C20.7552 27.2436 20.291 26.7864 20.291 26.2225Z" fill="#4F7D96"/>
</svg>
