<svg width="48" height="48" viewBox="0 0 48 48" fill="none" xmlns="http://www.w3.org/2000/svg">
<circle cx="24" cy="24" r="24" fill="#EBF2F5"/>
<path fill-rule="evenodd" clip-rule="evenodd" d="M15.1197 12.0081C15.7779 12.0081 16.3116 12.5417 16.3116 13.2V34.8036C16.3116 35.4619 15.7779 35.9955 15.1197 35.9955C14.4614 35.9955 13.9277 35.4619 13.9277 34.8036V13.2C13.9277 12.5417 14.4614 12.0081 15.1197 12.0081Z" fill="#4F7D96"/>
<path fill-rule="evenodd" clip-rule="evenodd" d="M27.3512 21.369C27.859 21.788 27.931 22.5392 27.512 23.047C26.3908 24.4057 25.1473 25.2002 23.8285 25.5611C22.5273 25.9173 21.2515 25.8243 20.0993 25.5769C19.0375 25.3488 18.012 24.9722 17.1352 24.6502C17.0715 24.6268 17.0085 24.6037 16.9464 24.5809C15.9715 24.2238 15.25 23.9784 14.6737 23.9215C13.8385 23.8392 13.2401 24.1198 12.7968 24.5095C12.3234 24.9259 12.0378 25.4641 11.9331 25.7859C11.7295 26.4119 11.057 26.7543 10.431 26.5507C9.80498 26.347 9.46258 25.6745 9.6662 25.0485C9.88463 24.377 10.3859 23.4552 11.2227 22.7193C12.0899 21.9568 13.3254 21.3932 14.9076 21.5492C15.8422 21.6414 16.8597 22.0105 17.7662 22.3425C17.818 22.3615 17.8698 22.3804 17.9214 22.3994C18.8306 22.7328 19.7084 23.0547 20.5999 23.2462C21.5287 23.4457 22.3909 23.4831 23.1992 23.2619C23.99 23.0454 24.8274 22.5549 25.6733 21.5298C26.0922 21.0221 26.8435 20.9501 27.3512 21.369Z" fill="#EAB604"/>
<path fill-rule="evenodd" clip-rule="evenodd" d="M26.5923 12.0081C27.2506 12.0081 27.7842 12.5417 27.7842 13.2V34.8036C27.7842 35.4619 27.2506 35.9955 26.5923 35.9955C25.934 35.9955 25.4004 35.4619 25.4004 34.8036V13.2C25.4004 12.5417 25.934 12.0081 26.5923 12.0081Z" fill="#4F7D96"/>
<path fill-rule="evenodd" clip-rule="evenodd" d="M32.8261 12.2998C34.6126 12.0366 35.9112 12.5582 36.8603 13.4825C37.2435 13.8557 37.2517 14.4688 36.8785 14.852C36.5054 15.2352 35.8922 15.2433 35.5091 14.8702C34.9996 14.374 34.3079 14.0393 33.1084 14.216C32.6685 14.2808 32.2549 14.453 31.9729 14.6856C31.7073 14.9045 31.5833 15.1487 31.5833 15.4348C31.5833 15.8622 31.704 16.1322 31.9312 16.3218C32.1914 16.5389 32.7498 16.7836 33.9004 16.7836C35.2651 16.7836 36.3516 17.0583 37.0936 17.7273C37.8618 18.4199 38.0644 19.3535 38.0644 20.2025C38.0644 21.2216 37.615 22.0959 36.7858 22.6798C35.9966 23.2356 34.937 23.4803 33.7437 23.4803C32.466 23.4803 31.4489 23.1054 30.6824 22.4635C29.9295 21.8329 29.4908 21.0059 29.2435 20.2134C29.0841 19.7029 29.3688 19.1598 29.8794 19.0005C30.39 18.8411 30.933 19.1258 31.0924 19.6364C31.2633 20.1842 31.5346 20.6507 31.926 20.9786C32.3039 21.295 32.8656 21.5435 33.7437 21.5435C34.7062 21.5435 35.3227 21.3412 35.6707 21.0962C35.9787 20.8793 36.1275 20.5989 36.1275 20.2025C36.1275 19.6362 35.9949 19.3445 35.7966 19.1658C35.5721 18.9634 35.0608 18.7205 33.9004 18.7205C32.5257 18.7205 31.4415 18.4358 30.6902 17.809C29.906 17.1546 29.6464 16.266 29.6464 15.4348C29.6464 14.4625 30.1194 13.7035 30.7405 13.1913C31.3451 12.6927 32.1076 12.4057 32.8261 12.2998Z" fill="#4F7D96"/>
<path fill-rule="evenodd" clip-rule="evenodd" d="M31.0563 24.4393C31.5912 24.4357 32.0278 24.8664 32.0317 25.4012L32.0966 34.4192C32.1004 34.954 31.67 35.3905 31.1351 35.3941C30.6003 35.3977 30.1636 34.967 30.1598 34.4322L30.0949 25.4142C30.091 24.8794 30.5215 24.4429 31.0563 24.4393Z" fill="#8DBAD3"/>
<path fill-rule="evenodd" clip-rule="evenodd" d="M37.1366 25.0492C37.5552 25.3824 37.6248 25.9919 37.292 26.4105L36.5342 25.8072L35.7763 25.2039C36.1091 24.7853 36.7181 24.716 37.1366 25.0492ZM36.5342 25.8072C35.7763 25.2039 35.7763 25.2038 35.7763 25.2039L32.5312 29.2863C32.1984 29.7049 32.268 30.3144 32.6865 30.6476C33.1051 30.9808 33.7141 30.9115 34.0469 30.4929L37.2919 26.4106L37.292 26.4105C37.292 26.4104 37.292 26.4105 36.5342 25.8072Z" fill="#8DBAD3"/>
<path fill-rule="evenodd" clip-rule="evenodd" d="M32.6918 29.7453C32.8741 29.2423 33.4294 28.982 33.9323 29.1639C35.4095 29.6983 36.4807 30.4237 37.1439 31.3819C37.8167 32.3539 37.9868 33.4447 37.8922 34.536C37.846 35.0689 37.3766 35.4637 36.8438 35.4178C36.3109 35.372 35.9164 34.9028 35.9626 34.3699C36.0299 33.5944 35.9001 32.9891 35.5512 32.4851C35.1928 31.9672 34.5204 31.4368 33.2723 30.9854C32.7695 30.8035 32.5096 30.2483 32.6918 29.7453Z" fill="#8DBAD3"/>
</svg>
