<svg width="48" height="48" viewBox="0 0 48 48" fill="none" xmlns="http://www.w3.org/2000/svg">
<circle cx="24" cy="24" r="24" fill="#EBF2F5"/>
<path fill-rule="evenodd" clip-rule="evenodd" d="M25.2656 15.5604C25.2656 14.8814 24.7152 14.3311 24.0363 14.3311V14.3311C23.3573 14.3311 22.807 14.8814 22.807 15.5604V15.5604C22.807 16.2393 23.3573 16.7897 24.0363 16.7897V16.7897C24.7152 16.7897 25.2656 16.2393 25.2656 15.5604V15.5604ZM25.2656 29.4442C25.2656 28.7653 24.7152 28.2149 24.0363 28.2149V28.2149C23.3573 28.2149 22.807 28.7653 22.807 29.4442V29.4442C22.807 30.1232 23.3573 30.6735 24.0363 30.6735V30.6735C24.7152 30.6735 25.2656 30.1232 25.2656 29.4442V29.4442ZM13.6957 14.3311H19.9145C20.5934 14.3311 21.1438 14.8814 21.1438 15.5604V15.5604C21.1438 16.2393 20.5934 16.7897 19.9145 16.7897H13.6957C13.0567 16.7897 12.5387 17.3077 12.5387 17.9466V27.0579C12.5387 27.6969 13.0567 28.2149 13.6957 28.2149H19.9145C20.5934 28.2149 21.1438 28.7653 21.1438 29.4442V29.4442C21.1438 30.1232 20.5934 30.6735 19.9145 30.6735H13.6957C11.6988 30.6735 10.0801 29.0548 10.0801 27.0579V17.9466C10.0801 15.9498 11.6988 14.3311 13.6957 14.3311Z" fill="#8DBAD3"/>
<path fill-rule="evenodd" clip-rule="evenodd" d="M23.9277 39.8573C23.109 39.8573 22.4453 39.1936 22.4453 38.3749V9.52243C22.4453 8.70373 23.109 8.04004 23.9277 8.04004V8.04004C24.7464 8.04004 25.4101 8.70373 25.4101 9.52243V38.3749C25.4101 39.1936 24.7464 39.8573 23.9277 39.8573V39.8573Z" fill="#EAB604"/>
<path d="M34.3778 28.2149H28.159C27.4801 28.2149 26.9297 28.7653 26.9297 29.4442C26.9297 30.1231 27.4801 30.6735 28.159 30.6735H34.3778C36.3746 30.6735 37.9934 29.0548 37.9934 27.0579V17.9466C37.9934 15.9498 36.3746 14.3311 34.3778 14.3311H28.159C27.4801 14.3311 26.9297 14.8814 26.9297 15.5604C26.9297 16.2393 27.4801 16.7897 28.159 16.7897H34.3778C35.0168 16.7897 35.5348 17.3077 35.5348 17.9466V27.0579C35.5348 27.6969 35.0168 28.2149 34.3778 28.2149Z" fill="#4F7D96"/>
</svg>
