<svg width="48" height="48" viewBox="0 0 48 48" fill="none" xmlns="http://www.w3.org/2000/svg">
<circle cx="24" cy="24" r="24" fill="#EBF2F5"/>
<path fill-rule="evenodd" clip-rule="evenodd" d="M24.3133 25.5476C23.7426 25.5476 23.2827 26.0336 23.4185 26.588C23.9958 28.9435 25.9658 30.6783 28.3072 30.6783C30.6486 30.6783 32.6186 28.9435 33.1959 26.588C33.3317 26.0336 32.8718 25.5476 32.3011 25.5476C31.7898 25.5476 31.3771 25.9446 31.2167 26.4301C30.7501 27.8429 29.5325 28.7271 28.3072 28.7271C27.0819 28.7271 25.8643 27.8429 25.3977 26.4301C25.2373 25.9446 24.8246 25.5476 24.3133 25.5476Z" fill="#4F7D96"/>
<path fill-rule="evenodd" clip-rule="evenodd" d="M30.7069 24.4403C28.6275 23.4435 26.7525 24.0499 26.1785 24.3938C25.6778 24.6939 25.0287 24.5312 24.7286 24.0305C24.4286 23.5298 24.5912 22.8807 25.0919 22.5806C26.156 21.943 28.7857 21.1751 31.6207 22.5342C32.147 22.7865 32.3692 23.4178 32.1168 23.9441C31.8645 24.4705 31.2332 24.6926 30.7069 24.4403Z" fill="#4F7D96"/>
<path fill-rule="evenodd" clip-rule="evenodd" d="M22.7822 21.9714C21.858 21.9714 21.2941 21.0083 21.9449 20.3521C23.4752 18.8094 25.8422 17.8828 28.3171 17.8828C30.7919 17.8828 33.1589 18.8094 34.6892 20.3521C35.3401 21.0083 34.7762 21.9714 33.852 21.9714C33.4982 21.9714 33.1663 21.8152 32.9019 21.5802C31.8453 20.6412 30.251 19.9966 28.3171 19.9966C26.3831 19.9966 24.7889 20.6412 23.7323 21.5802C23.4678 21.8152 23.136 21.9714 22.7822 21.9714Z" fill="#4F7D96"/>
<path fill-rule="evenodd" clip-rule="evenodd" d="M19.9017 15.2102C20.3214 14.7869 20.9934 14.7666 21.4026 15.1648L23.3694 17.0789C23.7786 17.4772 23.7701 18.1432 23.3504 18.5666C22.9308 18.9899 22.2588 19.0102 21.8495 18.6119L19.8828 16.6978C19.4735 16.2995 19.482 15.6335 19.9017 15.2102Z" fill="#8DBAD3"/>
<path fill-rule="evenodd" clip-rule="evenodd" d="M28.4031 12.8012C29.0494 12.804 29.5704 13.2227 29.5668 13.7361L29.5493 16.2069C29.5457 16.7204 29.0187 17.1343 28.3724 17.1314C27.726 17.1285 27.205 16.7099 27.2087 16.1964L27.2262 13.7257C27.2298 13.2122 27.7567 12.7983 28.4031 12.8012Z" fill="#8DBAD3"/>
<path fill-rule="evenodd" clip-rule="evenodd" d="M36.7233 15.134C36.3036 14.7107 35.6316 14.6904 35.2224 15.0887L33.2556 17.0027C32.8464 17.401 32.8549 18.0671 33.2746 18.4904C33.6942 18.9137 34.3662 18.934 34.7755 18.5357L36.7422 16.6216C37.1515 16.2234 37.143 15.5573 36.7233 15.134Z" fill="#8DBAD3"/>
<path fill-rule="evenodd" clip-rule="evenodd" d="M9.61914 13.4268C9.61914 12.888 10.0559 12.4512 10.5948 12.4512H18.725C19.2638 12.4512 19.7006 12.888 19.7006 13.4268C19.7006 13.9656 19.2638 14.4024 18.725 14.4024H10.5948C10.0559 14.4024 9.61914 13.9656 9.61914 13.4268ZM12.4838 15.0483C12.9687 15.2834 13.1711 15.867 12.9361 16.3518C12.8315 16.5674 12.658 17.1676 12.7123 17.7068C12.7379 17.96 12.8076 18.1381 12.8984 18.2563C12.9773 18.3591 13.1203 18.4816 13.4344 18.5505C13.6982 18.6084 13.9261 18.773 14.064 19.0052C14.2019 19.2373 14.2375 19.5162 14.1622 19.7755C13.8138 20.9757 13.3277 23.8944 14.1584 26.6173C14.3157 27.1326 14.0253 27.6779 13.51 27.8351C12.9946 27.9924 12.4493 27.702 12.2921 27.1867C11.4749 24.5081 11.7333 21.7496 12.0776 20.0913C11.7913 19.9191 11.5483 19.7018 11.3511 19.4451C10.9771 18.9583 10.8211 18.4002 10.7709 17.9023C10.6739 16.9392 10.9492 15.9773 11.1803 15.5006C11.4154 15.0157 11.999 14.8132 12.4838 15.0483ZM17.0566 15.4803C17.5723 15.6366 17.8637 16.1813 17.7074 16.6969C17.3529 17.8668 17.3024 19.4072 17.4388 20.8919C17.5753 22.3777 17.886 23.6731 18.1612 24.3295C18.3696 24.8264 18.1357 25.3981 17.6388 25.6065C17.1419 25.8149 16.5702 25.581 16.3618 25.0841C15.9825 24.1795 15.6427 22.67 15.4957 21.0704C15.3486 19.4696 15.3815 17.6441 15.84 16.1311C15.9963 15.6154 16.541 15.324 17.0566 15.4803ZM20.4465 25.6165C20.7225 25.7494 20.9201 26.0043 20.98 26.3047C21.1292 27.0531 21.4363 28.0784 21.9521 28.9722C22.4719 29.873 23.1347 30.5263 23.9532 30.7609C24.4712 30.9094 24.7707 31.4496 24.6222 31.9676C24.4738 32.4856 23.9335 32.7851 23.4155 32.6366C21.9177 32.2073 20.9125 31.0746 20.2621 29.9475C19.8761 29.2786 19.5907 28.5712 19.3854 27.9224L13.6257 30.8942L16.8229 36.9334C17.075 37.4096 16.8934 38 16.4172 38.2522C15.941 38.5043 15.3506 38.3226 15.0984 37.8464L11.4399 30.9357C11.318 30.7055 11.2932 30.436 11.3712 30.1874C11.4491 29.9388 11.6232 29.7317 11.8548 29.6122L19.5758 25.6284C19.8481 25.488 20.1705 25.4835 20.4465 25.6165ZM27.8901 34.6344C25.2076 35.9118 22.6768 37.4247 21.7757 38.15C21.3559 38.4878 20.7418 38.4214 20.4039 38.0016C20.0661 37.5818 20.1326 36.9677 20.5523 36.6298C21.6314 35.7615 24.3242 34.1713 27.0512 32.8727C28.4256 32.2182 29.8449 31.6202 31.1102 31.217C32.3211 30.8311 33.5714 30.5614 34.5163 30.7402C36.3458 31.0862 37.3058 32.5635 37.7927 33.8791C38.2858 35.2116 38.4 36.6331 38.4 37.3899C38.4 37.9287 37.9632 38.3655 37.4244 38.3655C36.8856 38.3655 36.4488 37.9287 36.4488 37.3899C36.4488 36.7722 36.3489 35.5999 35.9627 34.5563C35.5703 33.4959 34.9855 32.8148 34.1536 32.6574C33.7366 32.5785 32.9072 32.6922 31.7027 33.0761C30.5525 33.4427 29.2205 34.0009 27.8901 34.6344Z" fill="#4F7D96"/>
<path fill-rule="evenodd" clip-rule="evenodd" d="M14.6026 6.73901C14.9496 6.73127 15.2746 6.90847 15.4561 7.20436L17.3089 10.2257C17.5906 10.685 17.4466 11.2857 16.9872 11.5674C16.5279 11.8491 15.9272 11.705 15.6455 11.2457L14.6676 9.65113L13.806 11.2081C13.5451 11.6795 12.9514 11.8502 12.48 11.5893C12.0085 11.3284 11.8378 10.7347 12.0987 10.2633L13.7708 7.24198C13.9389 6.93829 14.2556 6.74676 14.6026 6.73901Z" fill="#EAB604"/>
</svg>
