<svg width="48" height="48" viewBox="0 0 48 48" fill="none" xmlns="http://www.w3.org/2000/svg">
<circle cx="24" cy="24" r="24" fill="#EBF2F5"/>
<g clip-path="url(#clip0_4264_20261)">
<path d="M23.999 30.0211C23.4904 30.0211 23.0781 29.7129 23.0781 29.333V8.60798C23.0781 8.22793 23.4904 7.91992 23.999 7.91992C24.5077 7.91992 24.9199 8.22793 24.9199 8.60798V29.3328C24.9199 29.7129 24.5077 30.0211 23.999 30.0211Z" fill="#4F7D96"/>
<path d="M27.1414 33.6112H20.8602C20.3397 33.6112 19.918 33.1891 19.918 32.669C19.918 31.4647 21.7496 30.7295 24.0008 30.7295C26.252 30.7295 28.0836 31.4647 28.0836 32.669C28.0836 33.1891 27.6618 33.6112 27.1414 33.6112Z" fill="#8DBAD3"/>
<path d="M33.3027 36.2305H14.6979C14.2896 36.2305 13.9292 36.1275 13.8089 35.9765C13.6887 35.8255 13.8368 35.6617 14.1741 35.5727C14.8225 35.4017 19.0743 34.2794 19.6299 34.1324C19.7845 34.0914 19.9675 34.0696 20.1546 34.0696H27.844C28.0309 34.0696 28.2137 34.0914 28.3681 34.1322C28.9344 34.2817 33.3704 35.4524 33.8265 35.5727C34.1638 35.6617 34.3119 35.8255 34.1917 35.9765C34.0714 36.1275 33.711 36.2305 33.3027 36.2305Z" fill="#4F7D96"/>
<path d="M16.1405 25.2254C15.725 25.3764 15.2615 25.2026 15.0476 24.8158L12.6212 20.4271L10.2697 24.6094C10.0552 24.9909 9.56545 25.1444 9.15733 24.9862C8.62812 24.7811 8.45168 24.1706 8.73114 23.6766L11.7856 18.2771C11.9401 18.0072 12.2745 17.835 12.6417 17.8372C13.0086 17.839 13.3403 18.0145 13.4904 18.2858L16.6199 23.9464C16.887 24.4295 16.6593 25.0369 16.1405 25.2254Z" fill="#EAB604"/>
<path d="M38.9511 25.2254C38.5356 25.3764 38.072 25.2026 37.8581 24.8158L35.4317 20.4271L33.0802 24.6094C32.8657 24.9909 32.376 25.1444 31.9679 24.9862C31.4387 24.7811 31.2622 24.1706 31.5417 23.6766L34.5962 18.2771C34.7506 18.0072 35.0851 17.835 35.4522 17.8372C35.8191 17.839 36.1509 18.0145 36.3009 18.2858L39.4305 23.9464C39.6976 24.4295 39.4699 25.0369 38.9511 25.2254Z" fill="#EAB604"/>
<path d="M13.1177 31.5414H12.1441C9.81485 31.5414 7.91992 29.6465 7.91992 27.3172C7.91992 27.081 7.94004 26.8427 7.98004 26.6091C8.05708 26.1564 8.44941 25.8254 8.90873 25.8254H16.353C16.8123 25.8254 17.2046 26.1564 17.2819 26.6091C17.3217 26.8427 17.3418 27.081 17.3418 27.3172C17.3418 29.6465 15.4469 31.5414 13.1177 31.5414Z" fill="#4F7D96"/>
<path d="M35.8559 31.5414H34.8823C32.5531 31.5414 30.6582 29.6465 30.6582 27.3172C30.6582 27.081 30.6783 26.8427 30.7183 26.6091C30.7954 26.1564 31.1877 25.8254 31.647 25.8254H39.0913C39.5506 25.8254 39.9429 26.1564 40.0202 26.6091C40.06 26.8427 40.0801 27.081 40.0801 27.3172C40.0801 29.6465 38.1852 31.5414 35.8559 31.5414Z" fill="#4F7D96"/>
<path d="M35.6876 18.2285C34.1636 18.2285 33.0788 18.2042 32.1841 17.5023C31.3694 16.8635 30.8976 16.0229 30.4813 15.281C29.7388 13.9584 29.4559 12.9134 26.9747 12.9134C26.5555 12.9134 25.9121 12.4934 25.9121 11.975C25.9121 11.4567 26.5555 11.0366 26.9747 11.0366C30.2503 11.0366 30.8932 12.7231 31.7283 14.2111C32.4989 15.584 33.1583 16.6348 35.8293 16.6348C36.2485 16.6348 36.5377 16.9843 36.5377 17.5023C36.5377 18.0207 36.1066 18.2285 35.6876 18.2285Z" fill="#4F7D96"/>
<path d="M12.453 18.2285C13.9771 18.2285 15.0618 18.2042 15.9566 17.5023C16.7713 16.8635 17.243 16.0229 17.6593 15.281C18.4019 13.9584 18.6847 12.9134 21.166 12.9134C21.5852 12.9134 22.2285 12.4934 22.2285 11.975C22.2285 11.4567 21.5852 11.0366 21.166 11.0366C17.8903 11.0366 17.2474 12.7231 16.4123 14.2111C15.6417 15.584 14.9823 16.6348 12.3113 16.6348C11.8921 16.6348 11.603 16.9843 11.603 17.5023C11.603 18.0207 12.034 18.2285 12.453 18.2285Z" fill="#4F7D96"/>
</g>
<defs>
<clipPath id="clip0_4264_20261">
<rect width="32.16" height="32.16" fill="white" transform="translate(7.91992 7.91992)"/>
</clipPath>
</defs>
</svg>
