<svg width="48" height="48" viewBox="0 0 48 48" fill="none" xmlns="http://www.w3.org/2000/svg">
<circle cx="24" cy="24" r="24" fill="#EBF2F5"/>
<path d="M18.4593 31.7293L19.9954 26.6044C20.1164 26.2007 20.4879 25.9243 20.9092 25.9243C21.5646 25.9243 22.0248 26.5699 21.811 27.1895L18.8469 35.7785C18.3249 37.2179 17.4391 37.9376 16.1895 37.9376C16.0865 37.9376 15.9794 37.9311 15.8684 37.9182C15.5059 37.876 15.2642 37.543 15.2642 37.178V36.673C15.2642 36.4756 15.4311 36.3193 15.628 36.3321C16.1131 36.3321 16.4769 36.2425 16.7194 36.0632C16.9672 35.8892 17.1623 35.594 17.3047 35.1774L17.5815 34.4419L15.0296 27.2094C14.8083 26.5821 15.2737 25.9243 15.939 25.9243C16.3609 25.9243 16.7338 26.1986 16.8595 26.6014L18.4593 31.7293Z" fill="#8DBAD3"/>
<path d="M25.4269 33.5206C25.4269 34.0513 24.9967 34.4815 24.466 34.4815C23.9353 34.4815 23.5051 34.0513 23.5051 33.5206V26.8852C23.5051 26.3545 23.9353 25.9243 24.466 25.9243C24.9967 25.9243 25.4269 26.3545 25.4269 26.8852V33.5206Z" fill="#8DBAD3"/>
<path d="M28.5169 25.9243C29.0107 25.9243 29.4187 26.31 29.4463 26.8031L29.4524 26.9129C30.0851 26.1484 30.9155 25.7661 31.9437 25.7661C33.7258 25.7661 34.6326 26.7863 34.6643 28.8268V33.5206C34.6643 34.0513 34.234 34.4815 33.7034 34.4815C33.1727 34.4815 32.7424 34.0513 32.7424 33.5206V28.9375C32.7424 28.3944 32.6238 27.9937 32.3866 27.7354C32.1546 27.4718 31.7723 27.3399 31.2398 27.3399C30.4647 27.3399 29.8874 27.6906 29.5078 28.3918V33.5206C29.5078 34.0513 29.0776 34.4815 28.5469 34.4815C28.0162 34.4815 27.586 34.0513 27.586 33.5206V26.8552C27.586 26.3411 28.0027 25.9243 28.5169 25.9243Z" fill="#8DBAD3"/>
<path d="M15.2001 17.3165V20.5947C15.2001 21.1472 14.7522 21.5951 14.1997 21.5951C13.6471 21.5951 13.1992 21.1472 13.1992 20.5947V10.933C13.1992 10.462 13.5811 10.0801 14.0522 10.0801H17.6044C18.8908 10.0801 19.9111 10.4149 20.665 11.0845C21.4243 11.7541 21.8039 12.6399 21.8039 13.7418C21.8039 14.8701 21.4322 15.748 20.6887 16.3754C19.9506 17.0028 18.9146 17.3165 17.5806 17.3165H15.2001ZM15.2001 15.7111H17.6044C18.3161 15.7111 18.8592 15.545 19.2335 15.2128C19.6079 14.8754 19.7951 14.3903 19.7951 13.7576C19.7951 13.1355 19.6053 12.6399 19.2256 12.2708C18.846 11.8964 18.324 11.704 17.6597 11.6935H15.2001V15.7111Z" fill="#4F7D96"/>
<path d="M25.4419 20.6342C25.4419 21.1649 25.0117 21.5951 24.481 21.5951C23.9503 21.5951 23.5201 21.1649 23.5201 20.6342V13.9988C23.5201 13.4681 23.9503 13.0379 24.481 13.0379C25.0117 13.0379 25.4419 13.4681 25.4419 13.9988V20.6342Z" fill="#4F7D96"/>
<path d="M28.5318 13.0379C29.0257 13.0379 29.4336 13.4236 29.4612 13.9168L29.4674 14.0265C30.1001 13.262 30.9305 12.8798 31.9586 12.8798C33.7407 12.8798 34.6476 13.9 34.6792 15.9404V20.6342C34.6792 21.1649 34.249 21.5951 33.7183 21.5951C33.1876 21.5951 32.7574 21.1649 32.7574 20.6342V16.0511C32.7574 15.5081 32.6388 15.1074 32.4015 14.849C32.1695 14.5854 31.7873 14.4536 31.2548 14.4536C30.4797 14.4536 29.9024 14.8042 29.5228 15.5054V20.6342C29.5228 21.1649 29.0925 21.5951 28.5618 21.5951C28.0312 21.5951 27.6009 21.1649 27.6009 20.6342V13.9688C27.6009 13.4547 28.0177 13.0379 28.5318 13.0379Z" fill="#4F7D96"/>
<path d="M22.4373 24.2872H26.621C26.966 24.2872 27.2458 24.0074 27.2458 23.6624C27.2458 23.3173 26.966 23.0376 26.621 23.0376H22.4373C22.0922 23.0376 21.8125 23.3173 21.8125 23.6624C21.8125 24.0074 22.0922 24.2872 22.4373 24.2872Z" fill="#EAB604"/>
<path d="M22.4529 11.4009H26.6366C26.9817 11.4009 27.2614 11.1212 27.2614 10.7762C27.2614 10.4311 26.9817 10.1514 26.6366 10.1514H22.4529C22.1079 10.1514 21.8281 10.4311 21.8281 10.7762C21.8281 11.1212 22.1079 11.4009 22.4529 11.4009Z" fill="#EAB604"/>
</svg>
