<svg width="120" height="26" viewBox="0 0 120 26" fill="none" xmlns="http://www.w3.org/2000/svg">
<path d="M3.97808 14.08C8.44882 14.3206 10.1454 13.6706 10.1454 13.6706C14.3682 11.7935 13.3877 7.0947 13.3877 7.0947C12.304 3.07835 8.56094 2.87183 8.56094 2.87183L0.0020752 2.89279L0.0347142 17.0686L0.323997 17.068C1.06058 13.4359 3.97808 14.08 3.97808 14.08" fill="#6ACFED"/>
<path d="M21.2645 16.861L17.2677 16.9191C17.2677 16.9191 13.5506 17.7654 15.3619 21.8997C15.3619 21.8997 16.1502 23.2381 18.2294 23.1848L25.0954 23.1735L25.0729 13.3163L24.7802 13.3115C24.8059 14.3931 24.5204 16.9286 21.2645 16.861" fill="#6ACFED"/>
<path d="M2.45043 25.992C2.51112 25.9968 2.57208 25.9986 2.63334 25.9986C2.76905 26.0031 2.9049 25.9967 3.03965 25.9794L3.0385 25.7909L3.01971 17.3667L3.02 17.2769C3.0191 17.1881 3.05185 17.1024 3.11122 17.0383C3.17058 16.9742 3.25184 16.9367 3.33757 16.9339C3.33757 16.9339 3.90078 16.9267 3.90078 16.9333L8.08171 16.9231L8.20306 16.9171C10.3625 16.9106 12.4311 16.0163 13.9541 14.4307C15.477 12.8451 16.3297 10.698 16.3247 8.46154C16.3196 6.22505 15.4572 4.08217 13.9271 2.50398C12.397 0.925795 10.3244 0.0414726 8.16492 0.0454233L2.5796 0.0513994C1.97408 0.0515989 1.38819 0.273831 0.925781 0.678703L1.07749 0.682288L7.83752 0.665525L8.16838 0.66433C10.1713 0.659408 12.0941 1.47873 13.5138 2.94206C14.9334 4.40538 15.7336 6.39284 15.7384 8.46722C15.7431 10.5416 14.952 12.533 13.5391 14.0033C12.1262 15.4735 10.2072 16.3023 8.20421 16.3072L8.08052 16.3132L4.01784 16.3228L3.34222 16.33C3.22228 16.3302 3.10356 16.355 2.99285 16.4028C2.88214 16.4506 2.78161 16.5205 2.697 16.6085C2.61239 16.6966 2.54535 16.801 2.49973 16.9159C2.4541 17.0308 2.43077 17.1539 2.43108 17.2781L2.43049 17.3679L2.45014 25.9986" fill="white"/>
<path d="M1.27121 25.6024L1.25271 17.3709L1.25215 17.2811C1.25001 16.7057 1.46869 16.1529 1.86007 15.7444C2.25145 15.3359 2.78348 15.1052 3.33912 15.103L3.65122 15.1035L8.07805 15.0928L8.1968 15.0874C9.0352 15.0857 9.86506 14.9129 10.639 14.579C11.4129 14.245 12.1157 13.7564 12.7073 13.1411C13.2988 12.5258 13.7676 11.7958 14.0867 10.9929C14.4058 10.1899 14.569 9.32973 14.5671 8.46143C14.5651 7.59312 14.398 6.73372 14.0753 5.93232C13.7526 5.13091 13.2806 4.4032 12.6862 3.79076C12.0919 3.17831 11.3869 2.69313 10.6115 2.36293C9.83606 2.03273 9.00543 1.86397 8.16703 1.86631L7.83155 1.8675L0.24999 1.88546L0.137573 1.88604C0.206403 1.66966 0.30167 1.46327 0.421056 1.27192L0.508024 1.27553L7.86449 1.25757L8.16561 1.25638C9.08151 1.25357 9.98897 1.43769 10.8361 1.79823C11.6833 2.15876 12.4536 2.68865 13.103 3.3576C13.7523 4.02656 14.2681 4.82147 14.6207 5.69692C14.9733 6.57238 15.1559 7.51121 15.1581 8.45978C15.1602 9.40836 14.9819 10.3481 14.6333 11.2252C14.2847 12.1024 13.7726 12.8998 13.1263 13.572C12.4799 14.2441 11.7121 14.7777 10.8666 15.1424C10.0211 15.5071 9.11445 15.6957 8.19854 15.6973L8.04653 15.7033L3.34057 15.7135C3.14281 15.7144 2.94716 15.7556 2.76478 15.8348C2.58241 15.914 2.41688 16.0296 2.27766 16.1751C2.13844 16.3205 2.02826 16.493 1.9534 16.6826C1.87854 16.8721 1.84047 17.0751 1.84137 17.2799V17.3697L1.86016 25.749L1.85726 25.8771C1.65164 25.8108 1.45501 25.7177 1.2721 25.6" fill="white"/>
<path d="M23.8798 0.567451L23.9095 13.5946L23.9081 13.7652C23.9094 14.3426 23.6892 14.8969 23.2959 15.3062C22.9027 15.7155 22.3685 15.9462 21.811 15.9476L21.6494 15.9482L18.0974 15.9565L17.826 15.9613C16.7844 15.9646 15.7867 16.3961 15.0521 17.161C14.3176 17.9259 13.9064 18.9615 13.9088 20.0402C13.9113 21.119 14.3272 22.1526 15.0652 22.9139C15.8032 23.6752 16.8029 24.1018 17.8445 24.1L18.3471 24.0982L24.8846 24.0821L24.9845 24.0785C24.9197 24.2938 24.8284 24.4996 24.7129 24.6908L24.6262 24.6932L18.3525 24.7082L17.8457 24.7106C17.2523 24.712 16.6644 24.5924 16.1156 24.3585C15.5669 24.1246 15.0679 23.7811 14.6474 23.3476C13.798 22.472 13.3192 21.2828 13.3164 20.0416C13.3136 18.8004 13.787 17.6089 14.6325 16.7292C15.4779 15.8495 16.6262 15.3537 17.8246 15.3508L18.05 15.3556L21.6301 15.3472H21.8096C22.0095 15.3468 22.2075 15.3055 22.392 15.2258C22.5766 15.1462 22.7442 15.0296 22.8853 14.8828C23.0263 14.736 23.1381 14.5618 23.2141 14.3703C23.2901 14.1787 23.329 13.9735 23.3284 13.7664L23.3261 13.6084L23.2952 0.281948L23.2885 0.137695C23.4961 0.208833 23.694 0.307409 23.8772 0.430982L23.8798 0.567451Z" fill="white"/>
<path d="M22.7005 0.133425L22.7312 13.6155L22.7294 13.7681C22.73 14.0217 22.6332 14.2652 22.4605 14.4449C22.2877 14.6246 22.0531 14.7259 21.8082 14.7264L21.5079 14.7282L18.1639 14.736L17.8521 14.7408H17.8232C16.4689 14.7447 15.1714 15.3055 14.2162 16.2999C13.261 17.2942 12.7262 18.6408 12.7294 20.0435C12.7326 21.4461 13.2736 22.7901 14.2334 23.7797C15.1931 24.7694 16.4931 25.3238 17.8475 25.321L18.3503 25.3228L24.0385 25.309L24.202 25.3066C23.7368 25.721 23.1436 25.949 22.53 25.9495L22.3133 25.9501L18.3512 25.9597L17.8486 25.9609C17.0967 25.9627 16.3517 25.8111 15.6563 25.5148C14.961 25.2185 14.3287 24.7832 13.7958 24.2338C12.7194 23.1243 12.1127 21.6173 12.1091 20.0445C12.1056 18.4717 12.7054 16.9619 13.7768 15.8471C14.8481 14.7324 16.3031 14.104 17.8218 14.1003L18.0122 14.0997L21.6914 14.0908L21.8064 14.086C21.8874 14.0858 21.9649 14.0523 22.022 13.9929C22.0791 13.9336 22.1112 13.8531 22.111 13.7693L22.113 13.5993L22.0827 0.195086L22.0787 0.0154977C22.2089 0.00115093 22.3399 -0.00324341 22.4708 0.00235032C22.5474 0.00235032 22.6237 0.00593596 22.6988 0.012525L22.7005 0.133425Z" fill="white"/>
<path d="M8.14652 2.4756H7.70727L0 2.49357L0.00115405 3.12565L0.154022 3.12446L7.81853 3.10588L7.90724 3.1023L8.12426 3.10169L8.27222 3.10408C9.63691 3.13475 10.9349 3.72123 11.8849 4.73639C12.8349 5.75154 13.3603 7.11357 13.3472 8.5272C13.334 9.94083 12.7835 11.2921 11.8148 12.2882C10.8462 13.2843 9.53753 13.8448 8.17253 13.8483L8.05348 13.8537L3.72203 13.8639L3.31456 13.8651C2.43839 13.8666 1.59867 14.2284 0.98007 14.8711C0.361473 15.5137 0.0146557 16.3845 0.0158904 17.2919L0.0286146 22.8723L0.0274605 23.3434C0.0299986 23.9835 0.25566 24.6012 0.662929 25.0828L0.658017 24.7727L0.641535 17.3709L0.640943 17.2811C0.639264 16.5445 0.920146 15.8375 1.42181 15.3154C1.92347 14.7933 2.60483 14.499 3.31601 14.4972L3.63648 14.4924L8.02167 14.4816L8.17398 14.4756C9.71048 14.4718 11.1826 13.8361 12.2665 12.7082C13.3504 11.5803 13.9573 10.0527 13.9536 8.46139C13.95 6.87009 13.3361 5.34546 12.2471 4.22291C11.158 3.10036 9.68302 2.47183 8.14652 2.4756" fill="white"/>
<path d="M25.095 22.8652L24.9678 22.8664L18.3722 22.8826L17.8527 22.879C17.491 22.8807 17.1326 22.8086 16.7979 22.6666C16.4631 22.5247 16.1588 22.3158 15.9021 22.0519C15.6455 21.7879 15.4416 21.4742 15.3022 21.1285C15.1628 20.7829 15.0906 20.4122 15.0897 20.0376C15.0889 19.663 15.1593 19.292 15.2971 18.9456C15.4349 18.5993 15.6373 18.2845 15.8927 18.0193C16.1481 17.7541 16.4515 17.5437 16.7856 17.4001C17.1196 17.2565 17.4777 17.1825 17.8394 17.1825L18.0304 17.1771L21.5128 17.1687L21.8244 17.1651C22.6937 17.1629 23.5265 16.8031 24.1397 16.165C24.753 15.5268 25.0964 14.6626 25.0944 13.7623L25.0661 2.66728C25.0656 2.04484 24.8544 1.44226 24.4693 0.964355L24.4725 1.17027L24.5003 13.6474L24.5026 13.7162C24.5042 14.4666 24.2179 15.1869 23.7068 15.7187C23.1957 16.2506 22.5015 16.5504 21.777 16.5522L21.6559 16.5582L18.0515 16.5671L17.8382 16.5719C16.9525 16.5741 16.1039 16.9405 15.479 17.5907C14.8542 18.2409 14.5043 19.1215 14.5064 20.0388C14.5084 20.9561 14.8623 21.8351 15.49 22.4822C16.1178 23.1293 16.9681 23.4917 17.8538 23.4895L18.3523 23.4883L25.0037 23.4722L25.0964 23.4728L25.095 22.8652Z" fill="white"/>
<path d="M88.3831 10.1229C88.3831 10.1229 88.2282 9.85775 88.1531 9.75778C87.6692 9.07527 87.0339 8.52332 86.3009 8.14849C85.5678 7.77366 84.7584 7.58696 83.941 7.60412C81.8355 7.60412 80.2352 8.39545 79.0504 10.0187C77.9557 11.4637 77.4229 13.2342 77.4229 15.4322C77.4229 17.6732 77.9702 19.5311 79.0504 20.9563C80.249 22.5395 81.9309 23.3434 84.0508 23.3434C85.854 23.3434 87.2763 22.7005 88.293 21.4322C88.3311 21.3837 88.5201 21.1335 88.5201 21.1335V22.9507H91.0047V2.34692H88.3831V10.1229V10.1229ZM88.4386 15.6285C88.4386 17.1866 88.1034 18.4735 87.4445 19.4491C87.0954 19.9646 86.6264 20.3805 86.0808 20.6584C85.5353 20.9363 84.9309 21.0672 84.3236 21.0389C82.892 21.0389 81.7974 20.496 81.068 19.4252C80.416 18.4591 80.0988 17.1524 80.0988 15.4322C80.0988 13.7113 80.4236 12.4244 81.0917 11.499L81.0952 11.4942C81.8112 10.4425 82.925 9.90862 84.4051 9.90862C84.9692 9.8909 85.529 10.0165 86.0355 10.2746C86.542 10.5326 86.9797 10.9152 87.3104 11.3889C88.0595 12.4064 88.4386 13.7382 88.4386 15.3478V15.6285Z" fill="white"/>
<path d="M41.8407 22.797L36.7732 14.6799C36.7601 14.6583 36.7454 14.6379 36.7293 14.6188H32.9078V22.8586H32.3438C31.7934 22.8602 31.2649 22.6352 30.8746 22.2333C30.4843 21.8313 30.2642 21.2852 30.2626 20.7152V4.54139C30.2633 4.25876 30.3179 3.97906 30.423 3.71825C30.5282 3.45745 30.6819 3.22065 30.8754 3.02139C31.069 2.82212 31.2985 2.66429 31.5509 2.5569C31.8034 2.44951 32.0737 2.39468 32.3466 2.39552H38.1441C41.7782 2.39552 44.3172 4.90832 44.3172 8.50689C44.3172 11.4889 42.5926 13.7551 39.8155 14.4201L39.7496 14.4363L45.0558 22.6503C45.1136 22.7396 45.191 22.8586 45.191 22.8586H41.8823C41.8823 22.8586 41.8644 22.8353 41.8407 22.797ZM32.9078 12.0312V12.1647H37.854C40.0854 12.1647 41.5846 10.6952 41.5846 8.50689C41.5846 6.31855 40.0854 4.84905 37.854 4.84905H32.9078V12.0312Z" fill="white"/>
<path d="M66.9245 23.2984C65.4588 23.2984 64.3156 22.9261 63.429 22.1618C62.9899 21.7949 62.6378 21.3286 62.3999 20.7988C62.1619 20.2689 62.0444 19.6897 62.0564 19.1055C62.0564 17.3643 62.7176 16.0929 64.0763 15.219C65.2571 14.4098 66.9406 13.9842 69.0808 13.956L72.1717 13.9052C72.2137 13.904 72.2558 13.9052 72.2977 13.9088L72.2994 13.3168C72.2994 10.9752 71.1493 9.83734 68.782 9.83734C67.7411 9.83734 66.9412 10.0391 66.3367 10.4539C65.9905 10.6669 65.6914 10.9529 65.4588 11.2932C65.2261 11.6336 65.065 12.0208 64.986 12.4297L64.9525 12.5739L62.4592 12.3788L62.4974 12.1849C62.6125 11.4665 62.8738 10.7817 63.2639 10.1759C63.654 9.57004 64.164 9.05698 64.76 8.67072C65.835 7.9728 67.195 7.63281 68.9184 7.63281C70.999 7.63281 72.5052 8.18469 73.5235 9.31895C74.3881 10.3276 74.8245 11.6995 74.8245 13.4006V22.9052H72.4364V20.7947L72.3699 20.8719C71.8431 21.4769 71.2216 21.9857 70.5314 22.3767C69.4244 22.9968 68.1829 23.3141 66.9245 23.2984V23.2984ZM69.2224 15.9918C66.1356 16.0468 64.6364 17.0464 64.6364 19.0492C64.6295 19.345 64.6923 19.6381 64.8193 19.9032C64.9463 20.1683 65.1336 20.3974 65.3652 20.5708C65.9582 20.996 66.669 21.2093 67.3897 21.1783C68.6523 21.192 69.8761 20.7273 70.8308 19.8716C71.8058 19.0307 72.2994 18.064 72.2994 16.9973V15.9451C72.2994 15.9451 72.2404 15.9397 72.1676 15.9409L69.2224 15.9918Z" fill="white"/>
<path d="M119.226 7.92859C118.581 7.67533 117.895 7.55515 117.206 7.57483C116.224 7.55642 115.269 7.90109 114.511 8.54691C114.166 8.82455 113.86 9.15097 113.603 9.5166C113.562 9.57525 113.37 9.87213 113.37 9.87213V7.9687H110.797V22.925H113.37V15.0114C113.328 13.803 113.711 12.6201 114.448 11.6822C114.735 11.245 115.122 10.8881 115.575 10.6431C116.027 10.3981 116.531 10.2727 117.042 10.278C117.733 10.2727 118.421 10.374 119.083 10.5784L119.352 10.6634V7.98366L119.226 7.92859Z" fill="white"/>
<path d="M53.3224 7.57471C49.2172 7.57471 46.1211 10.9554 46.1211 15.438C46.1211 20.0847 49.1917 23.3301 53.587 23.3301C54.6519 23.3548 55.7111 23.162 56.7039 22.7625C57.6968 22.3631 58.6039 21.765 59.3735 21.0023L59.5024 20.8724L58.1933 19.039L58.0222 19.2192C57.4627 19.797 56.7982 20.2543 56.0671 20.5649C55.3361 20.8754 54.5529 21.033 53.7628 21.0286C50.7747 21.0286 49.2131 18.8415 48.9224 16.5592C48.9126 16.4784 48.9068 16.4065 48.9068 16.4065H60.3462V15.6188C60.3462 10.8076 57.5235 7.57471 53.3224 7.57471V7.57471ZM57.6073 14.287H48.8791C48.8791 14.287 48.8814 14.2176 48.8918 14.1374C49.1328 12.2992 50.4205 9.87681 53.2929 9.87681C56.3185 9.87681 57.5715 12.3058 57.7385 14.1422C57.7419 14.1811 57.7599 14.287 57.7599 14.287H57.6073" fill="white"/>
<path d="M101.187 7.57471C97.082 7.57471 93.9865 10.9554 93.9865 15.438C93.9865 20.0847 97.0565 23.3301 101.452 23.3301C102.517 23.3548 103.576 23.1619 104.569 22.7625C105.562 22.3631 106.469 21.765 107.239 21.0023L107.367 20.8724L106.058 19.039L105.887 19.2192C105.328 19.7969 104.663 20.2543 103.932 20.5648C103.201 20.8754 102.418 21.033 101.628 21.0286C98.6395 21.0286 97.0779 18.8415 96.7878 16.5592C96.7774 16.4784 96.7722 16.4065 96.7722 16.4065H108.212V15.6188C108.212 10.8076 105.389 7.57471 101.187 7.57471V7.57471ZM105.472 14.287H96.7444C96.7462 14.2369 96.7505 14.187 96.7572 14.1374C96.9982 12.2992 98.2853 9.87681 101.158 9.87681C104.184 9.87681 105.436 12.3058 105.603 14.1422C105.607 14.1811 105.625 14.287 105.625 14.287H105.472" fill="white"/>
</svg>
