<svg width="13" height="32" viewBox="0 0 13 32" fill="none" xmlns="http://www.w3.org/2000/svg">
<path d="M11.2161 4.16009C11.272 4.82983 11.2161 5.36005 11.0487 5.75073C10.8813 6.14141 10.6441 6.42048 10.3371 6.58791C10.058 6.72744 9.72317 6.7693 9.33248 6.71349C8.9697 6.65768 8.60692 6.50419 8.24415 6.25304C7.63021 5.83445 7.07209 5.34609 6.56978 4.78797C6.06748 4.20195 5.57912 3.57406 5.10472 2.90431C4.5466 2.09504 4.3373 1.56482 4.47683 1.31367C4.64427 1.03461 5.36983 0.922985 6.6535 0.978796C8.18833 1.03461 9.30458 1.31367 10.0022 1.81598C10.6999 2.31829 11.1045 3.09966 11.2161 4.16009ZM8.24415 12.3645C8.27205 13.7877 7.96509 14.6946 7.32325 15.0853C6.70931 15.4481 6.05352 15.3085 5.35587 14.6667C4.82566 14.1644 4.28149 13.6342 3.72337 13.0761C3.19315 12.5179 2.64899 11.8342 2.09087 11.025C1.61646 10.2994 1.50484 9.81106 1.75599 9.5599C2.03505 9.28084 2.77456 9.18317 3.97452 9.26689C5.59307 9.40642 6.69536 9.74129 7.28139 10.2715C7.86741 10.7738 8.18833 11.4715 8.24415 12.3645ZM10.6301 16.9271C9.40225 20.0247 8.46739 22.5781 7.82556 24.5873C7.21162 26.5686 6.8628 28.0477 6.77908 29.0244C6.69536 29.8615 6.55583 30.4894 6.36049 30.908C6.19305 31.3266 5.92795 31.522 5.56517 31.494C5.23029 31.4661 4.79775 31.1731 4.26754 30.615C3.76523 30.0848 3.15129 29.2755 2.42574 28.1872C1.89552 27.3779 1.50484 26.7082 1.25368 26.1779C1.00253 25.6477 0.876953 25.2291 0.876953 24.9222C0.876953 24.6152 1.00253 24.392 1.25368 24.2524C1.50484 24.085 1.86762 23.9734 2.34202 23.9176C2.81642 23.8617 3.27687 23.6943 3.72337 23.4153C4.19777 23.1083 4.70008 22.5083 5.23029 21.6153C5.56517 21.0572 5.91399 20.4712 6.27677 19.8572C6.66746 19.2433 7.03023 18.6433 7.36511 18.0573C7.72788 17.4713 8.06276 16.9411 8.36972 16.4666C8.67669 15.9643 8.9418 15.5457 9.16505 15.2109C10.7557 12.7551 11.6905 11.6808 11.9696 11.9877C12.2487 12.2947 11.8022 13.9412 10.6301 16.9271Z" fill="#8DBAD3"/>
</svg>
