<svg width="32" height="29" viewBox="0 0 32 29" fill="none" xmlns="http://www.w3.org/2000/svg">
<path d="M29.6191 27.5039C27.2471 27.755 25.3634 27.9225 23.9681 28.0062C22.6007 28.0899 21.5124 28.048 20.7031 27.8806C19.8939 27.7411 19.252 27.462 18.7776 27.0434C18.3311 26.6527 17.8428 26.0946 17.3126 25.3691C16.6707 24.504 16.1126 23.7366 15.6382 23.0668C15.1638 22.3971 14.7173 21.7692 14.2987 21.1831C11.2011 24.5598 7.36405 26.4016 2.78746 26.7085C1.5596 26.7644 0.917759 26.6248 0.861947 26.29C0.806135 25.9551 1.26658 25.5923 2.2433 25.2016C3.22001 24.8388 4.18276 24.3923 5.13157 23.8621C6.08038 23.3319 6.97337 22.7459 7.81055 22.104C8.67564 21.4622 9.47096 20.7925 10.1965 20.0948C10.95 19.3972 11.6058 18.6856 12.1639 17.96C11.1314 16.3973 10.2942 15.1275 9.65235 14.1508C9.01051 13.1462 8.45239 12.3509 7.97799 11.7649C7.53149 11.1788 7.1129 10.7463 6.72221 10.4672C6.33153 10.1603 5.88503 9.92306 5.38273 9.75563C4.23858 9.33704 3.75022 8.89054 3.91766 8.41614C4.113 7.91383 4.90832 7.63477 6.30362 7.57896C7.00127 7.55105 7.60125 7.57896 8.10356 7.66267C8.60587 7.74639 9.05237 7.92778 9.44305 8.20684C9.83374 8.458 10.2105 8.83473 10.5732 9.33704C10.9639 9.83934 11.4104 10.5091 11.9127 11.3463C12.0802 11.6253 12.3732 12.0718 12.7918 12.6858C13.2104 13.2997 13.6708 13.9415 14.1731 14.6113C15.0103 12.9369 15.6521 11.3463 16.0986 9.83935C16.5451 8.33242 16.8661 6.88131 17.0614 5.486C17.1172 5.17904 17.0893 4.9837 16.9777 4.89998C16.8661 4.78835 16.601 4.7744 16.1824 4.85812C15.5405 4.96974 14.9405 5.08137 14.3824 5.19299C13.8243 5.30462 13.1406 5.47205 12.3313 5.6953C11.3267 6.00227 10.5314 6.22551 9.94536 6.36504C9.35934 6.50457 8.88493 6.58829 8.52215 6.6162C8.15938 6.6441 7.85241 6.60225 7.60125 6.49062C7.37801 6.379 7.1129 6.21156 6.80593 5.98831C5.63388 5.17904 5.07576 4.66278 5.13157 4.43953C5.21529 4.18837 5.75946 4.03489 6.76407 3.97908C7.65707 3.92327 8.59192 3.83955 9.56863 3.72792C10.5732 3.58839 11.5779 3.3791 12.5825 3.10004C13.6708 2.79307 14.6475 2.48611 15.5126 2.17914C16.3777 1.84427 17.0614 1.42568 17.5637 0.923369C17.787 0.70012 17.9963 0.532683 18.1916 0.421059C18.3869 0.309435 18.6241 0.267575 18.9032 0.295481C19.1823 0.323388 19.5032 0.42106 19.866 0.588496C20.2566 0.728026 20.745 0.937321 21.331 1.21638C22.2519 1.71869 22.9635 2.15123 23.4658 2.51401C23.9681 2.84889 24.2751 3.15585 24.3867 3.43491C24.5263 3.71397 24.4705 3.99303 24.2193 4.27209C23.9961 4.52325 23.6333 4.81626 23.131 5.15113C22.7124 5.43019 22.3077 5.96041 21.9171 6.74178C21.5264 7.49524 21.1775 8.31847 20.8706 9.21146C20.5636 10.1324 20.2706 10.9835 19.9915 11.7649C19.7125 12.5183 19.4055 13.2439 19.0706 13.9415C18.7637 14.6113 18.4288 15.2671 18.066 15.9089C17.7032 16.5228 17.2986 17.1647 16.8521 17.8344C17.6614 18.7274 18.4986 19.5227 19.3636 20.2204C20.2566 20.918 21.2054 21.5738 22.2101 22.1878C23.2426 22.7738 24.3588 23.3459 25.5588 23.904C26.7587 24.4342 28.1122 24.9923 29.6191 25.5784C30.7075 25.9969 31.2377 26.3876 31.2098 26.7504C31.2098 27.1132 30.6795 27.3643 29.6191 27.5039Z" fill="#EAB604"/>
</svg>
