<svg width="42" height="72" viewBox="0 0 42 72" fill="none" xmlns="http://www.w3.org/2000/svg">
<path fill-rule="evenodd" clip-rule="evenodd" d="M0.571495 3.57735C0.571495 1.79903 2.01311 0.35742 3.79142 0.35742L37.9227 0.357422C39.701 0.357422 41.1426 1.79903 41.1426 3.57735C41.1426 5.35567 39.701 6.79728 37.9227 6.79728L3.79142 6.79728C2.01311 6.79728 0.571495 5.35566 0.571495 3.57735ZM0.571492 67.9759C0.571492 69.7542 2.0131 71.1958 3.79142 71.1958L37.9226 71.1958C39.701 71.1958 41.1426 69.7542 41.1426 67.9759C41.1426 66.1976 39.701 64.756 37.9226 64.756L3.79142 64.756C2.0131 64.756 0.571492 66.1976 0.571492 67.9759Z" fill="#4F7D96"/>
</svg>
