<svg width="109" height="88" viewBox="0 0 109 88" fill="none" xmlns="http://www.w3.org/2000/svg">
<path fill-rule="evenodd" clip-rule="evenodd" d="M102.494 77.5871V10.2906C102.494 8.33449 100.908 6.74872 98.9523 6.74872H96.6984C94.7422 6.74872 93.1565 8.33449 93.1565 10.2906V77.5871C93.1565 79.5433 94.7422 81.129 96.6984 81.129H98.9523C100.908 81.129 102.494 79.5433 102.494 77.5871ZM15.5562 77.5871L15.5562 10.2906C15.5562 8.33449 13.9705 6.74872 12.0143 6.74872H9.76037C7.80422 6.74872 6.21845 8.33449 6.21845 10.2906L6.21845 77.5871C6.21845 79.5433 7.80422 81.129 9.76037 81.129H12.0143C13.9705 81.129 15.5562 79.5433 15.5562 77.5871ZM108.612 10.2906C108.612 4.95569 104.287 0.630859 98.9523 0.630859H96.6984C91.3634 0.630859 87.0386 4.95569 87.0386 10.2906V77.5871C87.0386 82.9221 91.3634 87.2469 96.6984 87.2469H98.9523C104.287 87.2469 108.612 82.9221 108.612 77.5871V10.2906ZM21.6741 10.2906C21.6741 4.95569 17.3493 0.63086 12.0143 0.63086L9.76037 0.63086C4.42542 0.630859 0.100589 4.95569 0.100589 10.2906L0.100586 77.5871C0.100586 82.9221 4.42542 87.2469 9.76037 87.2469H12.0143C17.3493 87.2469 21.6741 82.9221 21.6741 77.5871L21.6741 10.2906Z" fill="#4F7D96"/>
</svg>
