<svg width="1048" height="1604" viewBox="0 0 1048 1604" fill="none" xmlns="http://www.w3.org/2000/svg">
<path d="M31.9619 1541H1047.96V1574C1047.96 1590.57 1034.53 1604 1017.96 1604H61.9619C45.3934 1604 31.9619 1590.57 31.9619 1574V1541Z" fill="#F5F8FA"/>
<path d="M0 0H1048V64H0V0Z" fill="#F5F8FA"/>
<path d="M0 110H1048V174H0V110Z" fill="#F5F8FA"/>
<path d="M0 220H1048V284H0V220Z" fill="#F5F8FA"/>
<path d="M0 330H1048V394H0V330Z" fill="#F5F8FA"/>
<path d="M0 440H1048V504H0V440Z" fill="#F5F8FA"/>
<path d="M0 550H1048V614H0V550Z" fill="#F5F8FA"/>
<path d="M0 660H1048V724H0V660Z" fill="#F5F8FA"/>
<path d="M0 770H1048V834H0V770Z" fill="#F5F8FA"/>
<path d="M0 880H1048V944H0V880Z" fill="#F5F8FA"/>
<path d="M0 990H1048V1054H0V990Z" fill="#F5F8FA"/>
<path d="M0 1100H1048V1164H0V1100Z" fill="#F5F8FA"/>
<path d="M0 1210H1048V1274H0V1210Z" fill="#F5F8FA"/>
<path d="M0 1320H1048V1384H0V1320Z" fill="#F5F8FA"/>
<path d="M0 1430H1048V1494H0V1430Z" fill="#F5F8FA"/>
<path d="M0 1540H1048V1604H0V1540Z" fill="#F5F8FA"/>
</svg>
