<svg width="239" height="50" viewBox="0 0 239 50" fill="none" xmlns="http://www.w3.org/2000/svg">
<g opacity="0.5">
<path d="M7.92279 27.0766C16.827 27.5393 20.206 26.2892 20.206 26.2892C28.6164 22.6794 26.6636 13.6434 26.6636 13.6434C24.5053 5.91963 17.0503 5.52246 17.0503 5.52246L0.00390625 5.56277L0.0689122 32.824L0.645067 32.8228C2.11209 25.838 7.92279 27.0766 7.92279 27.0766Z" fill="#6ACFED"/>
<path d="M42.3524 32.4246L34.3921 32.5362C34.3921 32.5362 26.9889 34.1639 30.5964 42.1144C30.5964 42.1144 32.1665 44.6882 36.3075 44.5858L49.9823 44.5639L49.9375 25.6078L49.3544 25.5986C49.4057 27.6786 48.8371 32.5546 42.3524 32.4246Z" fill="#6ACFED"/>
<path d="M4.88035 49.9842C5.00122 49.9934 5.12263 49.9968 5.24463 49.9968C5.51492 50.0056 5.78549 49.9933 6.05387 49.96L6.05157 49.5974L6.01415 33.397L6.01474 33.2244C6.01295 33.0535 6.07817 32.8888 6.19641 32.7655C6.31465 32.6422 6.47649 32.5702 6.64724 32.5648C6.64724 32.5648 7.76896 32.551 7.76896 32.5636L16.096 32.5441L16.3377 32.5326C20.6386 32.52 24.7585 30.8001 27.7918 27.7509C30.825 24.7017 32.5232 20.5727 32.5132 16.2718C32.5031 11.9708 30.7855 7.84992 27.7381 4.81494C24.6906 1.77996 20.5626 0.0793418 16.2617 0.0869394L5.1376 0.0984318C3.93162 0.0988155 2.76472 0.526185 1.84375 1.30478L2.14591 1.31168L15.6096 1.27944L16.2686 1.27714C20.2578 1.26768 24.0873 2.8433 26.9148 5.65739C29.7423 8.47148 31.3361 12.2935 31.3455 16.2827C31.355 20.2719 29.7794 24.1014 26.9653 26.9289C24.1512 29.7564 20.3291 31.3502 16.34 31.3596L16.0936 31.3711L8.00211 31.3896L6.65649 31.4034C6.4176 31.4039 6.18116 31.4515 5.96066 31.5434C5.74017 31.6353 5.53994 31.7698 5.37143 31.9391C5.20291 32.1084 5.0694 32.3092 4.97852 32.5302C4.88765 32.7511 4.84119 32.9878 4.8418 33.2267L4.84063 33.3993L4.87976 49.9968" fill="#1B7892"/>
<path d="M2.53224 49.2353L2.4954 33.4056L2.49428 33.2329C2.49003 32.1263 2.92555 31.0632 3.70505 30.2777C4.48455 29.4921 5.54418 29.0484 6.65083 29.0441L7.27243 29.0452L16.0892 29.0246L16.3257 29.0142C17.9955 29.0109 19.6483 28.6786 21.1897 28.0364C22.7311 27.3942 24.1309 26.4547 25.3091 25.2714C26.4873 24.0881 27.4208 22.6843 28.0564 21.1401C28.6919 19.596 29.017 17.9418 29.0131 16.2719C29.0092 14.6021 28.6764 12.9494 28.0337 11.4083C27.3909 9.8671 26.4509 8.46766 25.2672 7.28988C24.0834 6.1121 22.6793 5.17906 21.1349 4.54406C19.5906 3.90906 17.9362 3.58453 16.2664 3.58901L15.5983 3.59131L0.49831 3.62585L0.274414 3.62697C0.411499 3.21084 0.601239 2.81395 0.839017 2.44596L1.01223 2.4529L15.6639 2.41838L16.2636 2.41608C18.0878 2.41067 19.8951 2.76475 21.5824 3.45809C23.2697 4.15143 24.8038 5.17044 26.0971 6.45689C27.3905 7.74334 28.4176 9.27202 29.1199 10.9556C29.8223 12.6392 30.186 14.4446 30.1903 16.2688C30.1946 18.093 29.8394 19.9001 29.145 21.587C28.4507 23.2738 27.4308 24.8074 26.1435 26.0999C24.8563 27.3924 23.327 28.4187 21.643 29.12C19.959 29.8213 18.1534 30.1839 16.3292 30.1871L16.0264 30.1987L6.65372 30.2182C6.25985 30.2199 5.87017 30.2992 5.50694 30.4515C5.14371 30.6038 4.81403 30.8262 4.53676 31.1059C4.25948 31.3856 4.04002 31.7173 3.89093 32.0818C3.74183 32.4464 3.66601 32.8367 3.66781 33.2306V33.4033L3.70523 49.5173L3.69946 49.7636C3.28993 49.6361 2.8983 49.457 2.534 49.2307" fill="#1B7892"/>
<path d="M47.5602 1.0911L47.6195 26.1433L47.6166 26.4714C47.6193 27.5818 47.1807 28.6478 46.3974 29.4348C45.6141 30.2219 44.5503 30.6656 43.4399 30.6683L43.1181 30.6694L36.0436 30.6855L35.5031 30.6947C33.4286 30.7011 31.4414 31.5309 29.9785 33.0018C28.5155 34.4727 27.6965 36.4642 27.7013 38.5388C27.7062 40.6133 28.5346 42.6011 30.0045 44.065C31.4744 45.529 33.4654 46.3495 35.54 46.346L36.5409 46.3426L49.5614 46.3115L49.7605 46.3046C49.6313 46.7187 49.4495 47.1144 49.2195 47.4821L49.0468 47.4868L36.5518 47.5155L35.5422 47.5201C34.3604 47.5229 33.1896 47.2928 32.0966 46.8431C31.0036 46.3934 30.01 45.7328 29.1723 44.899C27.4806 43.2152 26.5271 40.9282 26.5215 38.5414C26.5159 36.1545 27.4588 33.8631 29.1426 32.1714C30.8265 30.4797 33.1134 29.5262 35.5003 29.5206L35.9492 29.5298L43.0796 29.5137H43.437C43.8353 29.5129 44.2295 29.4336 44.5971 29.2803C44.9647 29.1271 45.2986 28.9029 45.5795 28.6206C45.8604 28.3382 46.083 28.0033 46.2344 27.635C46.3858 27.2666 46.4632 26.872 46.4621 26.4737L46.4575 26.1698L46.3959 0.542058L46.3826 0.264648C46.7961 0.401451 47.1901 0.59102 47.555 0.828662L47.5602 1.0911Z" fill="#1B7892"/>
<path d="M45.2117 0.256587L45.2727 26.1837L45.2693 26.4771C45.2704 26.9648 45.0777 27.433 44.7336 27.7786C44.3895 28.1242 43.9222 28.319 43.4345 28.3201L42.8365 28.3235L36.1763 28.3385L35.5553 28.3477H35.4977C32.8003 28.3552 30.2163 29.4336 28.3138 31.3459C26.4113 33.2581 25.3462 35.8477 25.3526 38.5451C25.359 41.2426 26.4364 43.8271 28.3479 45.7303C30.2595 47.6335 32.8486 48.6996 35.5461 48.6943L36.5475 48.6977L47.8765 48.6712L48.2023 48.6666C47.2756 49.4634 46.0943 49.902 44.8722 49.9029L44.4405 49.904L36.5493 49.9225L35.5484 49.9248C34.0507 49.9283 32.567 49.6368 31.1821 49.0669C29.7971 48.497 28.5379 47.66 27.4764 46.6034C25.3327 44.4697 24.1243 41.5718 24.1172 38.5472C24.1101 35.5225 25.3048 32.619 27.4386 30.4752C29.5723 28.3314 32.4702 27.1231 35.4949 27.116L35.8741 27.1149L43.2019 27.0976L43.431 27.0884C43.5922 27.088 43.7466 27.0237 43.8604 26.9095C43.9741 26.7953 44.0379 26.6406 44.0376 26.4794L44.0416 26.1525L43.9812 0.375166L43.9732 0.0298032C44.2325 0.00221333 44.4936 -0.00623732 44.7542 0.00451985C44.9067 0.00451985 45.0586 0.0114153 45.2083 0.0240865L45.2117 0.256587Z" fill="#1B7892"/>
<path d="M16.2251 4.76077H15.3503L0 4.79532L0.00229848 6.01087L0.30676 6.00857L15.5719 5.97286L15.7486 5.96596L16.1808 5.96478L16.4755 5.96938C19.1935 6.02836 21.7787 7.15621 23.6708 9.10844C25.5628 11.0607 26.6092 13.6799 26.5831 16.3985C26.557 19.117 25.4605 21.7157 23.5312 23.6312C21.602 25.5467 18.9956 26.6246 16.2769 26.6314L16.0399 26.6417L7.41304 26.6613L6.60149 26.6636C4.85645 26.6665 3.18401 27.3624 1.95197 28.5982C0.719934 29.834 0.0291893 31.5086 0.0316484 33.2536L0.0569907 43.9852L0.0546922 44.8911C0.0597472 46.1222 0.50919 47.31 1.32033 48.2361L1.31055 47.6399L1.27772 33.4055L1.27654 33.2329C1.2732 31.8164 1.83262 30.4567 2.83177 29.4527C3.83091 28.4487 5.18795 27.8827 6.60438 27.8792L7.24265 27.87L15.9765 27.8492L16.2798 27.8377C19.34 27.8305 22.272 26.6079 24.4308 24.4388C26.5895 22.2698 27.7982 19.3321 27.791 16.2719C27.7837 13.2117 26.5611 10.2797 24.3921 8.12098C22.2231 5.96222 19.2853 4.75352 16.2251 4.76077Z" fill="#1B7892"/>
<path d="M49.9806 43.9716L49.7274 43.9739L36.5912 44.005L35.5564 43.998C34.8361 44.0014 34.1221 43.8626 33.4555 43.5897C32.7889 43.3167 32.1827 42.915 31.6715 42.4074C31.1604 41.8999 30.7544 41.2965 30.4767 40.6318C30.1991 39.9671 30.0553 39.2542 30.0535 38.5339C30.0518 37.8135 30.1922 37.0999 30.4666 36.4339C30.741 35.7679 31.1441 35.1625 31.6528 34.6525C32.1615 34.1425 32.7658 33.7378 33.4311 33.4617C34.0963 33.1855 34.8096 33.0433 35.5299 33.0431L35.9103 33.0328L42.8462 33.0167L43.4667 33.0098C45.198 33.0055 46.8568 32.3136 48.0781 31.0865C49.2995 29.8593 49.9834 28.1972 49.9795 26.4659L49.923 5.12935C49.922 3.93234 49.5015 2.77354 48.7346 1.85449L48.7409 2.25048L48.7961 26.2449L48.8007 26.3772C48.804 27.8203 48.2339 29.2055 47.2159 30.2283C46.1979 31.251 44.8153 31.8276 43.3722 31.8311L43.1311 31.8426L35.9524 31.8598L35.5276 31.8691C33.7635 31.8732 32.0733 32.5779 30.8288 33.8283C29.5843 35.0786 28.8875 36.7721 28.8916 38.5361C28.8957 40.3002 29.6005 41.9905 30.8508 43.2349C32.1011 44.4794 33.7946 45.1763 35.5587 45.1721L36.5515 45.1699L49.7988 45.1388L49.9835 45.1399L49.9806 43.9716Z" fill="#1B7892"/>
<path d="M176.029 19.4675C176.029 19.4675 175.721 18.9576 175.571 18.7653C174.608 17.4528 173.342 16.3914 171.882 15.6705C170.422 14.9497 168.81 14.5907 167.182 14.6237C162.989 14.6237 159.801 16.1454 157.442 19.2671C155.262 22.0459 154.2 25.4508 154.2 29.6776C154.2 33.9873 155.29 37.5602 157.442 40.301C159.829 43.3456 163.179 44.8915 167.401 44.8915C170.992 44.8915 173.825 43.6552 175.85 41.2161C175.926 41.1228 176.302 40.6417 176.302 40.6417V44.1364H181.251V4.51367H176.029V19.4675ZM176.14 30.0551C176.14 33.0514 175.472 35.5262 174.16 37.4025C173.465 38.3938 172.531 39.1936 171.444 39.7281C170.358 40.2625 169.154 40.5141 167.944 40.4598C165.093 40.4598 162.913 39.4158 161.46 37.3565C160.162 35.4987 159.53 32.9858 159.53 29.6776C159.53 26.3682 160.177 23.8934 161.507 22.1138L161.514 22.1046C162.94 20.0822 165.159 19.0554 168.106 19.0554C169.23 19.0213 170.345 19.2629 171.354 19.7592C172.362 20.2554 173.234 20.9911 173.893 21.902C175.385 23.8589 176.14 26.42 176.14 29.5153V30.0551Z" fill="#1B7892"/>
<path d="M83.3331 43.8401L73.2404 28.2302C73.2144 28.1888 73.1851 28.1496 73.1529 28.1128H65.5419V43.9586H64.4185C63.3222 43.9616 62.2697 43.529 61.4924 42.756C60.7151 41.983 60.2766 40.9329 60.2734 39.8366V8.73313C60.275 8.18962 60.3836 7.65173 60.593 7.15019C60.8025 6.64864 61.1086 6.19327 61.4941 5.81006C61.8795 5.42686 62.3367 5.12333 62.8394 4.91682C63.3422 4.7103 63.8807 4.60484 64.4242 4.60646H75.9708C83.2088 4.60646 88.2655 9.43877 88.2655 16.3591C88.2655 22.0938 84.8307 26.4518 79.2997 27.7307L79.1685 27.7617L89.7366 43.558C89.8517 43.7296 90.006 43.9586 90.006 43.9586H83.416C83.416 43.9586 83.3803 43.9138 83.3331 43.8401ZM65.5419 23.1367V23.3934H75.3929C79.8373 23.3934 82.8232 20.5675 82.8232 16.3591C82.8232 12.1507 79.8373 9.32479 75.3929 9.32479H65.5419V23.1367Z" fill="#1B7892"/>
<path d="M133.291 44.8049C130.372 44.8049 128.095 44.0889 126.329 42.619C125.455 41.9134 124.753 41.0167 124.28 39.9979C123.806 38.979 123.572 37.865 123.595 36.7415C123.595 33.393 124.912 30.9482 127.618 29.2676C129.97 27.7113 133.323 26.8929 137.586 26.8388L143.742 26.7409C143.825 26.7388 143.909 26.7411 143.993 26.7478L143.996 25.6094C143.996 21.1063 141.705 18.9182 136.991 18.9182C134.918 18.9182 133.324 19.3061 132.12 20.1038C131.431 20.5135 130.835 21.0634 130.372 21.718C129.908 22.3725 129.588 23.1171 129.43 23.9035L129.363 24.1809L124.398 23.8057L124.474 23.4327C124.703 22.0513 125.224 20.7343 126 19.5692C126.777 18.4041 127.793 17.4175 128.98 16.6747C131.121 15.3325 133.83 14.6787 137.262 14.6787C141.406 14.6787 144.406 15.74 146.434 17.9213C148.156 19.8609 149.025 22.4992 149.025 25.7706V44.0487H144.269V39.99L144.137 40.1384C143.087 41.302 141.849 42.2803 140.475 43.0323C138.27 44.2248 135.797 44.835 133.291 44.8049ZM137.868 30.7536C131.72 30.8595 128.734 32.7818 128.734 36.6333C128.72 37.2022 128.845 37.7659 129.098 38.2757C129.351 38.7854 129.724 39.226 130.185 39.5594C131.367 40.3771 132.782 40.7873 134.218 40.7278C136.732 40.7541 139.17 39.8604 141.071 38.2149C143.013 36.5977 143.996 34.7387 143.996 32.6874V30.6638C143.996 30.6638 143.879 30.6535 143.734 30.6558L137.868 30.7536Z" fill="#1B7892"/>
<path d="M237.457 15.2468C236.174 14.7598 234.807 14.5287 233.434 14.5665C231.48 14.5311 229.577 15.1939 228.067 16.4359C227.38 16.9698 226.772 17.5975 226.26 18.3007C226.177 18.4134 225.795 18.9844 225.795 18.9844V15.3239H220.67V44.0861H225.795V28.8676C225.712 26.5438 226.475 24.2689 227.943 22.4653C228.514 21.6246 229.285 20.9381 230.186 20.467C231.087 19.9959 232.091 19.7547 233.107 19.7648C234.484 19.7547 235.855 19.9495 237.174 20.3427L237.709 20.5061V15.3527L237.457 15.2468Z" fill="#1B7892"/>
<path d="M106.2 14.5664C98.0237 14.5664 91.8574 21.0678 91.8574 29.6882C91.8574 38.6241 97.9731 44.8653 106.727 44.8653C108.848 44.9128 110.957 44.5419 112.935 43.7738C114.912 43.0057 116.719 41.8554 118.252 40.3887L118.509 40.139L115.901 36.6132L115.561 36.9596C114.446 38.0707 113.123 38.9502 111.667 39.5475C110.211 40.1447 108.651 40.4478 107.077 40.4394C101.126 40.4394 98.0157 36.2333 97.4367 31.8442C97.4172 31.6888 97.4056 31.5507 97.4056 31.5507H120.189V30.0359C120.189 20.7835 114.567 14.5664 106.2 14.5664ZM114.734 27.4747H97.3504C97.3504 27.4747 97.355 27.3412 97.3757 27.1869C97.8557 23.652 100.42 18.9935 106.141 18.9935C112.167 18.9935 114.663 23.6646 114.995 27.1961C115.002 27.271 115.038 27.4747 115.038 27.4747H114.734Z" fill="#1B7892"/>
<path d="M201.531 14.5664C193.355 14.5664 187.189 21.0678 187.189 29.6882C187.189 38.6241 193.304 44.8653 202.058 44.8653C204.179 44.9127 206.289 44.5418 208.266 43.7737C210.244 43.0056 212.051 41.8553 213.584 40.3887L213.839 40.139L211.232 36.6132L210.891 36.9596C209.777 38.0707 208.454 38.9502 206.998 39.5474C205.542 40.1447 203.983 40.4478 202.409 40.4394C196.457 40.4394 193.347 36.2333 192.769 31.8442C192.748 31.6888 192.738 31.5507 192.738 31.5507H215.521V30.0359C215.521 20.7835 209.899 14.5664 201.531 14.5664ZM210.065 27.4747H192.682C192.686 27.3784 192.694 27.2824 192.708 27.1869C193.188 23.652 195.751 18.9935 201.472 18.9935C207.499 18.9935 209.994 23.6646 210.326 27.1961C210.333 27.271 210.37 27.4747 210.37 27.4747H210.065Z" fill="#1B7892"/>
</g>
</svg>
