<svg width="213" height="213" viewBox="0 0 213 213" fill="none" xmlns="http://www.w3.org/2000/svg">
<path d="M106.786 212.751C101.072 212.751 95.3671 211.778 89.9529 209.835L51.4611 196.024C36.9096 190.802 27.9418 176.424 29.6528 161.059L32.8586 132.271C33.3668 127.711 37.478 124.425 42.0367 124.933C46.5979 125.441 49.8835 129.55 49.3758 134.111L46.1699 162.899C45.3144 170.581 49.7984 177.77 57.0743 180.381L95.5661 194.192C102.584 196.711 110.341 196.786 117.407 194.405L159.647 179.947C161.67 179.214 163.498 178.176 164.937 176.941C168.42 173.952 173.666 174.352 176.655 177.835C179.644 181.317 179.243 186.564 175.761 189.552C172.788 192.104 169.139 194.198 165.21 195.608C165.171 195.622 122.752 210.141 122.752 210.141C117.585 211.882 112.182 212.751 106.786 212.751ZM128.103 127.143L138.266 122.176C142.389 120.161 144.098 115.185 142.083 111.062C140.068 106.939 135.092 105.232 130.969 107.245L120.815 112.207C111.632 116.681 101.097 116.681 91.9131 112.206L24.9395 79.5809C19.7385 77.0473 16.6286 72.0627 16.6194 66.2472C16.6107 60.4312 19.7061 55.4371 24.8996 52.8877L91.823 20.0345C101.063 15.4978 111.664 15.4978 120.905 20.0345L187.829 52.8872C192.813 55.3344 195.964 60.1495 196.258 65.7693C196.545 71.2625 194.06 76.2105 189.611 79.0054C185.725 81.4464 184.553 86.576 186.994 90.462C189.435 94.348 194.565 95.5197 198.451 93.0783C208.076 87.0322 213.461 76.4988 212.854 64.901C212.241 53.1772 205.623 43.1092 195.152 37.9688L128.229 5.11607C114.333 -1.70536 98.3951 -1.70536 84.4992 5.11607L17.5759 37.9688C6.71634 43.2995 -0.0182442 54.1449 3.71248e-05 66.2721C0.0183184 78.3992 6.78573 89.2234 17.661 94.5217L84.6342 127.148C91.5384 130.511 98.9485 132.193 106.362 132.193C113.776 132.193 121.193 130.51 128.103 127.143Z" fill="#4F7D96"/>
</svg>
