<svg width="48" height="70" viewBox="0 0 48 70" fill="none" xmlns="http://www.w3.org/2000/svg">
<path d="M26.7243 0.391113H6.8303C5.04914 0.391275 3.34098 1.12046 2.08151 2.41829C0.822045 3.71612 0.114415 5.4763 0.114258 7.31171V62.5507C0.114073 63.4586 0.287449 64.3577 0.624485 65.1966C0.961522 66.0354 1.45562 66.7977 2.07855 67.4398C2.70149 68.0819 3.44107 68.5912 4.25506 68.9388C5.06904 69.2863 5.9415 69.4652 6.82259 69.4653H9.30923V41.7811H26.7243C39.0173 41.7811 47.6017 33.2718 47.6017 21.0872C47.6017 8.90254 39.0173 0.391113 26.7243 0.391113ZM9.30923 8.95819H25.7515C33.1465 8.95819 38.115 13.8321 38.115 21.0872C38.115 28.3402 33.1465 33.214 25.7515 33.214H9.30923V8.95819Z" fill="#1B7892"/>
</svg>
