<svg width="40" height="83" viewBox="0 0 40 83" fill="none" xmlns="http://www.w3.org/2000/svg">
<path d="M35.8298 2.28836L35.9303 45.6215L35.9255 46.1889C35.9296 48.1094 35.1934 49.9529 33.8787 51.3142C32.564 52.6755 30.7785 53.443 28.9148 53.4479L28.3738 53.45L16.4991 53.4778L15.5929 53.4938C12.1113 53.505 8.77645 54.9402 6.32128 57.484C3.8661 60.0278 2.4915 63.4719 2.49956 67.0596C2.50762 70.6472 3.89769 74.0848 6.36428 76.6168C8.83086 79.1488 12.1721 80.5681 15.6537 80.5627L17.3357 80.5588L39.1898 80.505L39.525 80.4911C39.3078 81.2073 39.0023 81.8918 38.6159 82.5279L38.3252 82.5378L17.3531 82.5876L15.6586 82.5935C11.6524 82.6033 7.80661 80.9728 4.96712 78.0606C2.12764 75.1485 0.527105 71.1933 0.517621 67.0651C0.508136 62.937 2.09048 58.974 4.91655 56.048C7.74262 53.1221 11.5809 51.4728 15.5871 51.463L16.3406 51.4789L28.311 51.4491L28.909 51.4511C29.5776 51.4496 30.2394 51.3124 30.8565 51.0473C31.4736 50.7822 32.034 50.3945 32.5057 49.9062C32.9774 49.4179 33.3512 48.8386 33.6056 48.2015C33.86 47.5644 33.9901 46.8818 33.9885 46.1929L33.9788 45.6673L33.8774 1.33872L33.8533 0.86084C34.5472 1.09745 35.2089 1.42464 35.8221 1.83444L35.8298 2.28836Z" fill="#1B7892"/>
</svg>
