<svg width="47" height="71" viewBox="0 0 47 71" fill="none" xmlns="http://www.w3.org/2000/svg">
<path d="M37.5238 26.2601C33.845 20.7253 28.8398 17.9239 22.6126 17.9239C15.545 17.9239 10.1727 20.5819 6.20032 26.0371C2.52351 30.891 0.734375 36.838 0.734375 44.2205C0.734375 51.7503 2.57378 57.9939 6.19935 62.7801C10.2191 68.102 15.8657 70.8017 22.9787 70.8017C29.4987 70.8017 34.5328 68.2991 37.9807 63.3575V69.4837H46.3206V0.391602H37.5238V26.2601ZM33.9213 30.6401C36.434 34.0587 37.7062 38.5323 37.7062 43.9378V44.8814C37.7062 50.1177 36.5808 54.4421 34.3686 57.7192C33.202 59.448 31.6299 60.8445 29.7984 61.7785C27.967 62.7125 25.936 63.1537 23.8946 63.0609C19.0923 63.0609 15.4165 61.2352 12.9704 57.6375C10.7804 54.3903 9.71579 50.0022 9.71579 44.2205C9.71579 38.4408 10.8074 34.1204 13.0477 31.0105L13.0593 30.9946C15.4648 27.4587 19.2005 25.6648 24.169 25.6648C26.0657 25.6072 27.9471 26.0308 29.6477 26.8984C31.3482 27.766 32.8158 29.0509 33.9213 30.6401Z" fill="#1B7892"/>
</svg>
