<svg width="36" height="76" viewBox="0 0 36 76" fill="none" xmlns="http://www.w3.org/2000/svg">
<path d="M35.8933 73.4569L35.4684 73.4589L13.419 73.5146L11.682 73.5027C9.24465 73.5067 6.90541 72.5134 5.17844 70.7411C3.45146 68.9687 2.47806 66.5622 2.47217 64.0506C2.46629 61.539 3.42839 59.1277 5.14704 57.3468C6.86569 55.5658 9.20024 54.5609 11.6376 54.5528L12.2752 54.5369L23.9182 54.507L24.9595 54.495C26.3985 54.4917 27.8226 54.1964 29.1508 53.6258C30.4789 53.0553 31.685 52.2208 32.7001 51.17C33.7153 50.1191 34.5196 48.8725 35.0672 47.5013C35.6147 46.1301 35.8948 44.6612 35.8915 43.1785L35.7968 6.27214C35.7947 4.20183 35.0889 2.19769 33.8019 0.60791L33.8115 1.29272L33.9071 42.7942L33.913 43.0252C33.9183 45.5209 32.9613 47.9166 31.2525 49.6852C29.5437 51.4539 27.2231 52.4506 24.8012 52.4563L24.3954 52.4782L12.3487 52.5061L11.6338 52.522C8.67244 52.5294 5.83526 53.7487 3.74637 55.9117C1.65747 58.0746 0.487974 61.0041 0.49515 64.0556C0.502326 67.1071 1.68559 70.0307 3.78463 72.1832C5.88368 74.3357 8.72655 75.5408 11.6879 75.5335L13.3514 75.5275L35.589 75.4737L35.8992 75.4758L35.8933 73.4569Z" fill="#1B7892"/>
</svg>
