<svg width="47" height="71" viewBox="0 0 47 71" fill="none" xmlns="http://www.w3.org/2000/svg">
<path d="M37.342 26.3895C33.6633 20.8546 28.6571 18.0534 22.431 18.0534C15.3632 18.0534 9.99009 20.7113 6.01858 26.1685C2.34088 31.0224 0.552734 36.9694 0.552734 44.3519C0.552734 51.8817 2.393 58.1253 6.01768 62.9096C10.0365 68.2314 15.6831 70.9311 22.7971 70.9311C29.317 70.9311 34.3511 68.4286 37.7999 63.487V69.6132H46.1389V0.391602H37.342V26.3895ZM33.7406 30.7716C36.2504 34.1901 37.5246 38.6618 37.5246 44.0692V45.0109C37.5246 50.2471 36.3991 54.5715 34.1878 57.8486C33.0213 59.578 31.4489 60.9749 29.6171 61.9089C27.7853 62.843 25.7537 63.2838 23.7119 63.1903C18.9097 63.1903 15.2339 61.3666 12.7878 57.7689C10.5987 54.5237 9.53415 50.1336 9.53415 44.3519C9.53415 38.5701 10.6248 34.2498 12.866 31.1419L12.8786 31.126C15.2831 27.5881 19.0198 25.7962 23.9882 25.7962C25.8849 25.7389 27.7662 26.1627 29.4667 27.0303C31.1672 27.8978 32.6349 29.1826 33.7406 30.7716Z" fill="#1B7892"/>
</svg>
