<svg width="52" height="87" viewBox="0 0 52 87" fill="none" xmlns="http://www.w3.org/2000/svg">
<path d="M5.19305 86.8581C5.39396 86.8721 5.59883 86.88 5.8036 86.88C6.25726 86.8941 6.71129 86.8728 7.16183 86.8163L7.15797 86.1892L7.09426 58.1664L7.09614 57.8679C7.09268 57.5726 7.20193 57.2878 7.40035 57.0747C7.59877 56.8617 7.87048 56.7376 8.1569 56.729C8.1569 56.729 10.0407 56.7051 10.0407 56.727L24.0195 56.6931L24.4242 56.6733C31.6437 56.652 38.5595 53.6772 43.6512 48.4031C48.7428 43.1289 51.5935 35.987 51.5765 28.5476C51.5594 21.1082 48.6761 13.9803 43.5604 8.73092C38.4447 3.48155 31.5154 0.540454 24.2958 0.554248L5.62396 0.572087C3.60036 0.574806 1.64268 1.31376 0.0961914 2.65863L0.603374 2.6726L23.2003 2.61684L24.3074 2.61286C27.6227 2.60482 30.9072 3.26976 33.9731 4.5697C37.0391 5.86964 39.8265 7.77912 42.1763 10.1891C44.5262 12.5992 46.3923 15.4625 47.6682 18.6157C48.9442 21.7689 49.6049 25.1501 49.6127 28.5665C49.6205 31.9828 48.9752 35.3672 47.7137 38.5266C46.4522 41.6859 44.5991 44.5582 42.2603 46.9796C39.9216 49.401 37.1429 51.324 34.0829 52.6388C31.0229 53.9536 27.7416 54.6344 24.4262 54.6425L24.0137 54.6623L10.431 54.6962L8.17333 54.7181C7.36351 54.7202 6.58765 55.0536 6.0163 55.645C5.44494 56.2364 5.12485 57.0374 5.12637 57.8718L5.12538 58.1704L5.19117 86.88" fill="#1B7892"/>
</svg>
