<svg width="51" height="83" viewBox="0 0 51 83" fill="none" xmlns="http://www.w3.org/2000/svg">
<path d="M4.24983 81.5617L4.18701 54.1822L4.18602 53.8835C4.18234 52.9357 4.35989 51.9964 4.70855 51.1193C5.0572 50.2422 5.57013 49.4445 6.21802 48.7717C6.86592 48.0989 7.63609 47.5642 8.48455 47.1982C9.33301 46.8322 10.2431 46.642 11.1629 46.6385L12.2062 46.6404L27.0043 46.6046L27.4023 46.5846C30.205 46.5789 32.9791 46.0043 35.5663 44.8936C38.1534 43.7829 40.5028 42.1578 42.4803 40.1113C44.4579 38.0647 46.0247 35.6367 47.0915 32.9661C48.1582 30.2954 48.7039 27.4343 48.6974 24.5463C48.6908 21.6582 48.1322 18.7998 47.0534 16.1343C45.9746 13.4688 44.3967 11.0484 42.41 9.01134C40.4232 6.97432 38.0664 5.36058 35.4743 4.2623C32.8822 3.16403 30.1055 2.60274 27.3028 2.6105L26.1812 2.61244L0.835761 2.67421H0.460938C0.689916 1.95478 1.00812 1.26885 1.40764 0.633432L1.69947 0.643422L26.2913 0.585624L27.298 0.581649C30.3599 0.572295 33.3936 1.18473 36.2257 2.38395C39.0578 3.58317 41.6329 5.34569 43.8037 7.57078C45.9746 9.79587 47.6987 12.4399 48.8776 15.3519C50.0564 18.2638 50.6669 21.3866 50.6741 24.5418C50.6814 27.6969 50.0852 30.8226 48.9197 33.7403C47.7542 36.658 46.0423 39.3104 43.8816 41.546C41.721 43.7817 39.154 45.5567 36.3274 46.7697C33.5008 47.9827 30.47 48.6099 27.4081 48.6154L26.899 48.6334L11.1687 48.6672C10.5076 48.6701 9.8535 48.8072 9.24381 49.0707C8.63413 49.3341 8.08078 49.7187 7.61537 50.2026C7.14995 50.6864 6.7816 51.26 6.53133 51.8905C6.28107 52.5211 6.1538 53.1963 6.15679 53.8775V54.1762L6.2206 82.0496L6.20803 82.4756C5.52157 82.2542 4.86494 81.9445 4.25369 81.5538" fill="#1B7892"/>
</svg>
