<svg width="41" height="87" viewBox="0 0 41 87" fill="none" xmlns="http://www.w3.org/2000/svg">
<path d="M35.8883 0.846422L35.9907 45.6907L35.9849 46.1964C35.9869 47.0402 35.6636 47.8503 35.086 48.4484C34.5085 49.0465 33.724 49.3838 32.9051 49.3859L31.9014 49.3899L20.7232 49.4177L19.6799 49.4317H19.5842C17.341 49.4359 15.1206 49.8955 13.0499 50.7843C10.9791 51.673 9.09857 52.9735 7.5157 54.6114C5.93283 56.2493 4.67864 58.1926 3.82481 60.3301C2.97097 62.4676 2.53421 64.7576 2.53948 67.0691C2.54475 69.3806 2.99195 71.6684 3.85552 73.8018C4.71909 75.9352 5.98212 77.8723 7.57244 79.5025C9.16276 81.1327 11.0492 82.4241 13.124 83.3028C15.1988 84.1815 17.4213 84.6304 19.6645 84.6238L21.3434 84.6317L40.3611 84.584L40.908 84.578C39.3516 85.9558 37.3682 86.7142 35.3164 86.7163L34.5929 86.7183L21.3492 86.7502L19.6683 86.7541C17.1544 86.7602 14.6639 86.256 12.3391 85.2703C10.0142 84.2846 7.90058 82.8366 6.11878 81.0092C2.52028 77.3184 0.491958 72.3058 0.480033 67.0741C0.468109 61.8423 2.47355 56.8199 6.05519 53.1118C9.63683 49.4037 14.5013 47.3136 19.5784 47.3013L20.2151 47.2994L32.5149 47.2695L32.8994 47.2536C33.1695 47.2529 33.4282 47.1418 33.6189 46.9447C33.8096 46.7476 33.9167 46.4806 33.9166 46.2023L33.9253 45.6349L33.8229 1.04948L33.8104 0.452232C34.245 0.404112 34.6826 0.390106 35.1193 0.410336C35.3763 0.410336 35.6314 0.420325 35.8825 0.442242L35.8883 0.846422Z" fill="#1B7892"/>
</svg>
