<svg width="350" height="289" viewBox="0 0 350 289" fill="none" xmlns="http://www.w3.org/2000/svg">
<path d="M2 2H348V287H32C15.4315 287 2 273.569 2 257V2Z" stroke="#539DC6" stroke-width="2.32766"/>
<path d="M130.902 131.356C130.347 135.934 129.098 139.514 127.156 142.067L129.348 143.593C130.541 142.15 131.512 140.152 132.262 137.655H138.838C138.339 139.819 137.701 141.734 136.924 143.399L139.504 144.121C140.337 141.706 141.003 139.264 141.53 136.822V135.102H132.9C133.122 134.075 133.316 132.965 133.483 131.772L130.902 131.356ZM133.039 140.097C132.872 144.62 132.317 147.867 131.318 149.837C130.291 151.891 128.571 153.639 126.157 155.11L127.849 157.274C130.597 155.498 132.567 153.389 133.732 150.947C134.01 150.337 134.287 149.615 134.509 148.783C136.063 152.057 138.228 154.804 141.058 157.08L142.89 154.943C139.31 152.418 136.785 149.032 135.286 144.787C135.453 143.399 135.592 141.817 135.647 140.097H133.039ZM121.384 138.404H124.603C124.158 139.292 123.659 140.041 123.132 140.68L125.102 142.234C125.962 141.124 126.767 139.708 127.489 138.016V135.962H122.105C122.41 134.741 122.66 133.465 122.882 132.077L120.301 131.661C119.691 135.934 118.553 139.348 116.833 141.901L118.553 144.01C119.663 142.483 120.607 140.624 121.384 138.404ZM120.718 141.734V153.028C120.718 153.639 120.468 154.111 120.024 154.388L121.078 156.608C123.187 155.803 125.074 154.777 126.712 153.556L126.212 151.141C125.241 151.974 124.27 152.695 123.298 153.25V141.734H120.718ZM158.929 131.522C155.793 134.63 151.853 137.239 147.08 139.32L148.384 141.651C149.772 140.985 151.131 140.291 152.436 139.542V153.139C152.436 154.194 152.047 154.86 151.326 155.082L152.019 157.163C155.738 156.58 158.874 155.914 161.371 155.165L160.872 152.945C159.013 153.472 157.07 153.944 155.044 154.333V149.643H167.587V139.57C168.753 140.208 169.974 140.818 171.25 141.373L172.555 139.07C168.115 137.211 164.174 134.686 160.761 131.522H158.929ZM152.935 139.264C155.627 137.655 157.93 135.879 159.845 133.881C161.926 135.934 164.341 137.71 167.06 139.264H161.371C161.094 138.182 160.789 137.211 160.483 136.378L158.097 136.739C158.402 137.516 158.68 138.376 158.957 139.264H152.935ZM155.044 145.564H164.979V147.312H155.044V145.564ZM164.979 143.344H155.044V141.595H164.979V143.344ZM168.558 148.699C167.587 149.865 166.505 150.947 165.284 151.974C163.785 151.308 162.176 150.67 160.483 150.059L158.985 151.835C163.453 153.5 167.115 155.304 169.974 157.246L171.639 155.276C170.362 154.499 168.975 153.722 167.476 153.001C168.642 152.057 169.752 151.003 170.779 149.809L168.558 148.699ZM177.577 135.934V138.543H181.823C183.016 142.65 185.153 146.257 188.205 149.31C185.264 151.835 181.573 153.667 177.078 154.832L178.493 157.163C183.072 155.831 186.929 153.778 190.065 151.003C193.006 153.5 196.725 155.581 201.192 157.246L202.663 155.026C198.39 153.472 194.782 151.502 191.896 149.143C194.505 146.285 196.475 142.761 197.807 138.543H202.053V135.934H191.535C190.675 134.103 189.732 132.521 188.733 131.189L186.096 132.16C187.151 133.354 188.039 134.602 188.76 135.934H177.577ZM184.348 138.543H195.088C193.977 142.039 192.285 145.036 190.037 147.506C187.401 144.953 185.514 141.956 184.348 138.543ZM215.179 131.217C213.403 135.546 210.628 139.32 206.881 142.567L207.714 145.314C209.018 144.232 210.239 143.094 211.377 141.928V157.135H213.985V138.848C215.484 136.822 216.705 134.658 217.648 132.382L215.179 131.217ZM228.36 156.636C229.747 156.636 230.719 156.303 231.246 155.637C231.745 154.971 232.106 153.028 232.3 149.837L229.858 149.032C229.803 151.585 229.609 153.056 229.331 153.472C229.026 153.889 228.554 154.111 227.916 154.111H223.781C222.893 154.111 222.477 153.722 222.477 152.945V144.01C225.862 141.901 228.859 139.459 231.496 136.739L229.664 134.658C227.611 136.961 225.196 139.015 222.477 140.818V131.661H219.841V142.456C218.509 143.233 217.066 143.926 215.567 144.592L216.76 147.09C217.815 146.59 218.842 146.063 219.841 145.536V153.306C219.841 155.526 220.951 156.636 223.171 156.636H228.36Z" fill="#576168"/>
</svg>
