<svg width="194" height="147" viewBox="0 0 194 147" fill="none" xmlns="http://www.w3.org/2000/svg">
<path fill-rule="evenodd" clip-rule="evenodd" d="M96.6568 7.25436C96.6568 3.4434 93.8463 0.354004 90.3793 0.354004H58.0426C47.0913 0.354004 38.2136 10.1127 38.2136 22.1507C38.2136 31.7038 43.8046 39.8215 51.5859 42.7657C53.6099 43.5315 55.782 43.9473 58.0425 43.9473H109.369H109.765H141.51H145.185C148.355 43.9473 150.925 46.7722 150.925 50.2569C150.925 53.7415 148.355 56.5664 145.185 56.5664H141.51H109.765H109.369H58.0425H49.737H41.386H40.8227C40.4405 56.5664 40.0611 56.5793 39.6847 56.6047C17.972 57.5851 0.643066 77.2443 0.643066 101.352C0.643066 126.087 18.8843 146.139 41.386 146.139C42.2666 146.139 43.1407 146.108 44.0074 146.047H100.816C104.283 146.047 107.093 142.958 107.093 139.147C107.093 135.336 104.283 132.247 100.816 132.247H44.0074C43.742 132.247 43.4767 132.256 43.2118 132.274C42.6097 132.316 42.001 132.338 41.386 132.338C25.8181 132.338 13.1979 118.465 13.1979 101.352C13.1979 84.6765 25.1871 71.0717 40.2 70.3938C40.2851 70.39 40.3702 70.3852 40.4552 70.3794C40.5751 70.3713 40.6976 70.3671 40.8227 70.3671H41.386H109.765H145.185C155.289 70.3671 163.48 61.3634 163.48 50.2569C163.48 39.1503 155.289 30.1466 145.185 30.1466H109.369H58.0425C54.0252 30.1466 50.7685 26.5667 50.7685 22.1507C50.7685 17.7346 54.0252 14.1547 58.0426 14.1547H90.3793C93.8463 14.1547 96.6568 11.0653 96.6568 7.25436ZM111.268 7.25436C111.268 11.0653 114.078 14.1547 117.545 14.1547H146.751C146.998 14.1547 147.239 14.1678 147.473 14.1926C148.153 14.2647 148.837 14.2757 149.519 14.2255C150.155 14.1786 150.798 14.1547 151.447 14.1547C167.43 14.1547 181.159 29.0704 181.159 48.5361C181.159 68.0017 167.43 82.9174 151.447 82.9174C151.155 82.9174 150.864 82.9126 150.575 82.903C150.26 82.8926 149.945 82.8951 149.631 82.9107C149.542 82.9151 149.452 82.9174 149.36 82.9174H81.9135H73.7126C70.2457 82.9174 67.4352 86.0068 67.4352 89.8178C67.4352 93.6287 70.2457 96.7181 73.7126 96.7181H81.9135H81.9219H136.836H149.36C149.64 96.7181 149.919 96.7112 150.197 96.6974C150.612 96.7112 151.029 96.7181 151.447 96.7181C151.756 96.7181 152.063 96.7144 152.37 96.7069C175.287 96.147 193.714 74.7946 193.714 48.5361C193.714 21.9258 174.791 0.354004 151.447 0.354004C151.167 0.354004 150.887 0.357119 150.608 0.363321C149.789 0.381496 148.97 0.37274 148.151 0.363985C147.684 0.358994 147.217 0.354004 146.751 0.354004H117.545C114.078 0.354004 111.268 3.4434 111.268 7.25436ZM136.836 146.047H127.981C124.514 146.047 121.704 142.958 121.704 139.147C121.704 135.336 124.514 132.247 127.981 132.247H136.836C139.989 132.247 142.545 129.437 142.545 125.972C142.545 122.506 139.989 119.696 136.836 119.696H81.9219H62.1561H46.5627C37.3233 119.696 29.8333 111.463 29.8333 101.307C29.8333 91.1507 37.3233 82.9174 46.5627 82.9174C50.0209 82.9174 52.8244 86.0163 52.8244 89.8178C52.8244 93.6192 50.0209 96.7181 46.5627 96.7181C44.2571 96.7181 42.3881 98.7726 42.3881 101.307C42.3881 103.841 44.2571 105.896 46.5627 105.896H53.8309H62.1561H81.9135H81.9219H136.836C141.269 105.896 145.333 107.632 148.496 110.519C152.531 114.201 155.1 119.757 155.1 125.972C155.1 137.059 146.923 146.047 136.836 146.047Z" fill="#4F7D96"/>
</svg>
