<svg width="52" height="87" viewBox="0 0 52 87" fill="none" xmlns="http://www.w3.org/2000/svg">
<path d="M5.13006 86.4567C5.33097 86.4707 5.53584 86.4786 5.74062 86.4786C6.19427 86.4927 6.6483 86.4714 7.09884 86.4149L7.09498 85.7878L7.03128 57.7651L7.03316 57.4665C7.02969 57.1712 7.13894 56.8864 7.33736 56.6734C7.53579 56.4604 7.80749 56.3362 8.09392 56.3277C8.09392 56.3277 9.97772 56.3037 9.97772 56.3256L23.9566 56.2918L24.3613 56.2719C31.5807 56.2506 38.4965 53.2759 43.5882 48.0017C48.6798 42.7275 51.5305 35.5857 51.5135 28.1463C51.4965 20.7069 48.6131 13.5789 43.4974 8.32956C38.3817 3.08018 31.4524 0.139087 24.2329 0.15288L5.56097 0.170719C3.53737 0.173439 1.57969 0.912395 0.0332031 2.25727L0.540386 2.27123L23.1373 2.21547L24.2444 2.2115C27.5598 2.20346 30.8442 2.86839 33.9101 4.16833C36.9761 5.46827 39.7635 7.37776 42.1134 9.78777C44.4632 12.1978 46.3293 15.0611 47.6052 18.2143C48.8812 21.3675 49.5419 24.7488 49.5497 28.1651C49.5575 31.5814 48.9122 34.9658 47.6507 38.1252C46.3892 41.2845 44.5361 44.1569 42.1974 46.5783C39.8586 48.9996 37.0799 50.9226 34.0199 52.2374C30.9599 53.5522 27.6786 54.2331 24.3632 54.2411L23.9507 54.261L10.368 54.2948L8.11034 54.3167C7.30052 54.3189 6.52467 54.6523 5.95331 55.2436C5.38196 55.835 5.06186 56.636 5.06338 57.4705L5.06239 57.769L5.12818 86.4786" fill="#1B7892"/>
</svg>
