<svg width="41" height="87" viewBox="0 0 41 87" fill="none" xmlns="http://www.w3.org/2000/svg">
<path d="M35.8253 0.445054L35.9278 45.2893L35.9219 45.795C35.9239 46.6388 35.6006 47.4489 35.023 48.047C34.4455 48.6452 33.661 48.9824 32.8421 48.9845L31.8385 48.9885L20.6603 49.0163L19.6169 49.0303H19.5213C17.2781 49.0345 15.0576 49.4942 12.9869 50.3829C10.9161 51.2717 9.03558 52.5722 7.45271 54.2101C5.86984 55.848 4.61565 57.7912 3.76182 59.9287C2.90798 62.0662 2.47122 64.3562 2.47649 66.6677C2.48176 68.9792 2.92896 71.267 3.79253 73.4004C4.6561 75.5338 5.91913 77.4709 7.50945 79.1011C9.09977 80.7314 10.9862 82.0227 13.061 82.9014C15.1358 83.7802 17.3583 84.229 19.6015 84.2224L21.2804 84.2303L40.2981 84.1826L40.845 84.1766C39.2886 85.5544 37.3052 86.3129 35.2534 86.315L34.5299 86.3169L21.2863 86.3488L19.6053 86.3528C17.0914 86.3589 14.6009 85.8546 12.2761 84.8689C9.95125 83.8832 7.83759 82.4353 6.05579 80.6078C2.45729 76.9171 0.428969 71.9045 0.417045 66.6727C0.405121 61.4409 2.41057 56.4185 5.99221 52.7104C9.57385 49.0023 14.4383 46.9122 19.5154 46.8999L20.1521 46.898L32.4519 46.8681L32.8364 46.8522C33.1065 46.8515 33.3653 46.7404 33.556 46.5433C33.7467 46.3462 33.8537 46.0793 33.8536 45.801L33.8623 45.2336L33.7599 0.648113L33.7474 0.0508644C34.182 0.0027445 34.6196 -0.0112612 35.0563 0.00896832C35.3134 0.00896832 35.5684 0.0189582 35.8195 0.0408746L35.8253 0.445054Z" fill="#1B7892"/>
</svg>
