<svg width="48" height="71" viewBox="0 0 48 71" fill="none" xmlns="http://www.w3.org/2000/svg">
<path d="M26.6608 0.989746H6.76682C4.98567 0.989908 3.2775 1.71909 2.01804 3.01692C0.758568 4.31475 0.0509388 6.07494 0.0507814 7.91034V63.1493C0.0505969 64.0573 0.223972 64.9563 0.561009 65.7952C0.898045 66.6341 1.39214 67.3963 2.01508 68.0384C2.63802 68.6805 3.3776 69.1899 4.19158 69.5374C5.00557 69.8849 5.87802 70.0638 6.75911 70.0639H9.24575V42.3797H26.6608C38.9538 42.3797 47.5382 33.8704 47.5382 21.6858C47.5382 9.50117 38.9538 0.989746 26.6608 0.989746ZM9.24575 9.55683H25.688C33.083 9.55683 38.0515 14.4307 38.0515 21.6858C38.0515 28.9388 33.083 33.8126 25.688 33.8126H9.24575V9.55683Z" fill="#1B7892"/>
</svg>
