<svg width="48" height="76" viewBox="0 0 48 76" fill="none" xmlns="http://www.w3.org/2000/svg">
<path d="M28.1711 0.233454H26.7027L0.937012 0.293189L0.941859 2.39564L1.45191 2.39166L27.0755 2.32989L27.3721 2.32L28.0967 2.31796L28.5913 2.32591C33.1536 2.42749 37.4931 4.37797 40.6691 7.75448C43.8451 11.131 45.6016 15.6614 45.5577 20.3635C45.5139 25.0656 43.6732 29.5603 40.4348 32.8733C37.1964 36.1863 32.8213 38.0504 28.258 38.0616L27.86 38.0796L13.3788 38.1153L12.0186 38.1174C9.08943 38.1223 6.28208 39.3258 4.21393 41.4633C2.14578 43.6008 0.98618 46.4972 0.990134 49.5155L1.03267 68.0792L1.02782 69.646C1.03758 71.7751 1.79177 73.8292 3.15212 75.4318L3.13669 74.3985L3.08159 49.7783L3.07971 49.4817C3.07678 48.2685 3.30581 47.0666 3.75371 45.9446C4.20161 44.8227 4.85962 43.8026 5.69015 42.9427C6.52068 42.0828 7.50746 41.3999 8.59413 40.9331C9.68081 40.4662 10.8461 40.2245 12.0234 40.2218L13.0948 40.2038L27.7537 40.17L28.2628 40.1501C33.3996 40.1376 38.3212 38.0228 41.9449 34.271C45.5686 30.5193 47.5976 25.4378 47.5854 20.1445C47.5732 14.8513 45.521 9.77975 41.8801 6.0457C38.2392 2.31165 33.3079 0.220924 28.1711 0.233454Z" fill="#1B7892"/>
</svg>
