<svg width="47" height="72" viewBox="0 0 47 72" fill="none" xmlns="http://www.w3.org/2000/svg">
<path d="M37.2785 26.9881C33.5998 21.4532 28.5937 18.652 22.3675 18.652C15.2998 18.652 9.92661 21.3099 5.95511 26.7671C2.27741 31.621 0.489258 37.568 0.489258 44.9505C0.489258 52.4803 2.32953 58.7239 5.9542 63.5082C9.97299 68.83 15.6196 71.5297 22.7336 71.5297C29.2535 71.5297 34.2876 69.0272 37.7364 64.0856V70.2118H46.0754V0.990234H37.2785V26.9881ZM33.6771 31.3703C36.1869 34.7887 37.4611 39.2604 37.4611 44.6678V45.6095C37.4611 50.8457 36.3357 55.1701 34.1243 58.4473C32.9579 60.1766 31.3854 61.5735 29.5536 62.5075C27.7218 63.4416 25.6903 63.8824 23.6485 63.789C18.8462 63.789 15.1704 61.9652 12.7243 58.3676C10.5352 55.1223 9.47067 50.7323 9.47067 44.9505C9.47067 39.1688 10.5613 34.8485 12.8025 31.7405L12.8151 31.7246C15.2196 28.1867 18.9563 26.3948 23.9248 26.3948C25.8215 26.3376 27.7028 26.7613 29.4033 27.6289C31.1038 28.4965 32.5714 29.7812 33.6771 31.3703Z" fill="#1B7892"/>
</svg>
