<svg width="51" height="83" viewBox="0 0 51 83" fill="none" xmlns="http://www.w3.org/2000/svg">
<path d="M4.18635 81.1604L4.12354 53.7808L4.12255 53.4822C4.11886 52.5343 4.29642 51.5951 4.64507 50.718C4.99373 49.8409 5.50665 49.0431 6.15454 48.3703C6.80244 47.6975 7.57261 47.1629 8.42107 46.7968C9.26953 46.4308 10.1797 46.2406 11.0995 46.2371L12.1427 46.239L26.9408 46.2033L27.3389 46.1833C30.1415 46.1776 32.9157 45.6029 35.5028 44.4922C38.0899 43.3815 40.4393 41.7565 42.4169 39.7099C44.3944 37.6633 45.9613 35.2354 47.028 32.5647C48.0947 29.894 48.6404 27.033 48.6339 24.1449C48.6273 21.2569 48.0687 18.3985 46.9899 15.7329C45.9111 13.0674 44.3333 10.647 42.3465 8.60998C40.3597 6.57295 38.003 4.95921 35.4108 3.86094C32.8187 2.76266 30.042 2.20137 27.2393 2.20913L26.1177 2.21107L0.772284 2.27284H0.397461C0.62644 1.55342 0.944641 0.867483 1.34417 0.232065L1.63599 0.242055L26.2278 0.184257L27.2345 0.180281C30.2964 0.170928 33.3301 0.78336 36.1622 1.98258C38.9943 3.18181 41.5694 4.94432 43.7403 7.16941C45.9111 9.3945 47.6352 12.0386 48.8141 14.9505C49.9929 17.8625 50.6034 20.9853 50.6107 24.1404C50.6179 27.2956 50.0217 30.4213 48.8562 33.3389C47.6908 36.2566 45.9788 38.909 43.8181 41.1447C41.6575 43.3803 39.0905 45.1553 36.2639 46.3683C33.4373 47.5813 30.4065 48.2085 27.3446 48.2141L26.8355 48.232L11.1052 48.2658C10.4441 48.2688 9.79002 48.4059 9.18034 48.6693C8.57065 48.9328 8.0173 49.3174 7.55189 49.8012C7.08648 50.285 6.71812 50.8586 6.46785 51.4892C6.21759 52.1197 6.09032 52.7949 6.09331 53.4761V53.7748L6.15712 81.6482L6.14456 82.0742C5.45809 81.8528 4.80146 81.5431 4.19021 81.1524" fill="#1B7892"/>
</svg>
