<svg width="36" height="76" viewBox="0 0 36 76" fill="none" xmlns="http://www.w3.org/2000/svg">
<path d="M35.8299 73.0555L35.4049 73.0576L13.3556 73.1132L11.6186 73.1013C9.18118 73.1054 6.84194 72.1121 5.11496 70.3397C3.38798 68.5673 2.41458 66.1609 2.4087 63.6492C2.40281 61.1376 3.36492 58.7264 5.08356 56.9454C6.80221 55.1644 9.13676 54.1595 11.5741 54.1514L12.2117 54.1355L23.8547 54.1057L24.8961 54.0936C26.335 54.0903 27.7592 53.795 29.0873 53.2245C30.4155 52.654 31.6215 51.8195 32.6367 50.7686C33.6518 49.7177 34.4561 48.4711 35.0037 47.0999C35.5513 45.7288 35.8314 44.2599 35.828 42.7771L35.7333 5.87077C35.7312 3.80046 35.0254 1.79633 33.7384 0.206543L33.748 0.891355L33.8437 42.3928L33.8495 42.6238C33.8548 45.1195 32.8978 47.5152 31.189 49.2838C29.4802 51.0525 27.1596 52.0493 24.7377 52.0549L24.3319 52.0768L12.2852 52.1047L11.5703 52.1207C8.60897 52.128 5.77179 53.3473 3.68289 55.5103C1.594 57.6733 0.424498 60.6027 0.431673 63.6543C0.438849 66.7058 1.62211 69.6293 3.72116 71.7819C5.8202 73.9344 8.66308 75.1395 11.6244 75.1321L13.2879 75.1262L35.5256 75.0723L35.8357 75.0744L35.8299 73.0555Z" fill="#1B7892"/>
</svg>
