<svg width="40" height="83" viewBox="0 0 40 83" fill="none" xmlns="http://www.w3.org/2000/svg">
<path d="M35.7668 1.887L35.8673 45.2202L35.8625 45.7875C35.8666 47.708 35.1304 49.5516 33.8157 50.9128C32.5011 52.2741 30.7156 53.0416 28.8518 53.0466L28.3108 53.0486L16.4361 53.0764L15.5299 53.0924C12.0483 53.1037 8.71346 54.5389 6.25829 57.0826C3.80311 59.6264 2.42851 63.0706 2.43657 66.6582C2.44463 70.2459 3.83471 73.6834 6.30129 76.2155C8.76787 78.7475 12.1091 80.1667 15.5908 80.1614L17.2727 80.1574L39.1268 80.1037L39.462 80.0897C39.2449 80.8059 38.9393 81.4905 38.5529 82.1265L38.2622 82.1364L17.2901 82.1862L15.5956 82.1921C11.5895 82.2019 7.74362 80.5714 4.90413 77.6592C2.06465 74.7471 0.464117 70.7919 0.454632 66.6637C0.445148 62.5356 2.02749 58.5726 4.85356 55.6467C7.67963 52.7207 11.5179 51.0714 15.5241 51.0616L16.2776 51.0775L28.248 51.0477L28.846 51.0497C29.5146 51.0482 30.1764 50.911 30.7935 50.6459C31.4106 50.3809 31.9711 49.9931 32.4427 49.5048C32.9144 49.0165 33.2882 48.4373 33.5426 47.8001C33.797 47.163 33.9271 46.4805 33.9255 45.7915L33.9159 45.2659L33.8145 0.937353L33.7903 0.459473C34.4842 0.696084 35.1459 1.02328 35.7591 1.43307L35.7668 1.887Z" fill="#1B7892"/>
</svg>
