<svg width="47" height="72" viewBox="0 0 47 72" fill="none" xmlns="http://www.w3.org/2000/svg">
<path d="M37.4603 26.8588C33.7815 21.3239 28.7763 18.5226 22.5492 18.5226C15.4815 18.5226 10.1092 21.1806 6.13684 26.6357C2.46003 31.4896 0.670898 37.4366 0.670898 44.8191C0.670898 52.3489 2.51031 58.5925 6.13587 63.3788C10.1557 68.7006 15.8022 71.4004 22.9153 71.4004C29.4352 71.4004 34.4693 68.8977 37.9172 63.9561V70.0823H46.2571V0.990234H37.4603V26.8588ZM33.8579 31.2388C36.3705 34.6573 37.6428 39.1309 37.6428 44.5364V45.4801C37.6428 50.7164 36.5173 55.0407 34.3051 58.3178C33.1386 60.0467 31.5664 61.4431 29.735 62.3772C27.9036 63.3112 25.8726 63.7523 23.8311 63.6595C19.0288 63.6595 15.353 61.8338 12.9069 58.2361C10.7169 54.9889 9.65231 50.6009 9.65231 44.8191C9.65231 39.0394 10.7439 34.719 12.9843 31.6091L12.9959 31.5932C15.4013 28.0573 19.1371 26.2634 24.1055 26.2634C26.0023 26.2059 27.8837 26.6295 29.5842 27.497C31.2848 28.3646 32.7523 29.6495 33.8579 31.2388Z" fill="#1B7892"/>
</svg>
