<svg width="96" height="97" viewBox="0 0 96 97" fill="none" xmlns="http://www.w3.org/2000/svg">
<path d="M48.1514 96.5C45.5751 96.5 43.0025 96.0609 40.5611 95.1843L23.2046 88.9521C16.6431 86.596 12.5994 80.1081 13.3709 73.1749L14.8165 60.185C15.0456 58.1272 16.8994 56.6443 18.955 56.8735C21.0117 57.1028 22.4932 58.9568 22.2643 61.0152L20.8187 74.0051C20.433 77.4715 22.4548 80.7155 25.7357 81.8934L43.0922 88.1256C46.2567 89.2621 49.7543 89.2961 52.9407 88.2216L71.9873 81.6977C72.8993 81.3672 73.7236 80.8985 74.3726 80.3413C75.943 78.9924 78.3086 79.1733 79.6564 80.7446C81.004 82.316 80.8236 84.6833 79.2532 86.0319C77.9128 87.1832 76.2675 88.1281 74.4955 88.7644C74.4781 88.7706 55.3508 95.3222 55.3508 95.3222C53.0211 96.108 50.5846 96.5 48.1514 96.5ZM57.7638 57.8709L62.3462 55.6298C64.2054 54.7203 64.976 52.4751 64.0673 50.6145C63.1587 48.7542 60.915 47.9838 59.0558 48.8922L54.4775 51.1312C50.3364 53.15 45.5862 53.1502 41.445 51.131L11.2456 36.4094C8.90037 35.2661 7.49807 33.0169 7.49395 30.3928C7.49002 27.7684 8.88576 25.5149 11.2276 24.3646L41.4044 9.54018C45.571 7.49309 50.3508 7.49309 54.518 9.54018L84.6948 24.3644C86.9424 25.4686 88.3632 27.6413 88.4957 30.1772C88.6252 32.6559 87.5048 34.8885 85.4985 36.1497C83.746 37.2512 83.2179 39.5658 84.3186 41.3193C85.4192 43.0728 87.7324 43.6015 89.4845 42.4998C93.8248 39.7716 96.2526 35.0187 95.9791 29.7854C95.7026 24.4952 92.7187 19.9522 87.997 17.6327L57.8204 2.80853C51.5547 -0.26951 44.3679 -0.26951 38.102 2.80853L7.92523 17.6327C3.0285 20.0381 -0.00822659 24.9319 1.67401e-05 30.404C0.00826007 35.8762 3.05979 40.7604 7.96363 43.1512L38.1629 57.873C41.276 59.3908 44.6174 60.1497 47.9601 60.1497C51.3033 60.1496 54.6478 59.3901 57.7638 57.8709Z" fill="#4F7D96"/>
</svg>
