<svg width="215" height="178" viewBox="0 0 215 178" fill="none" xmlns="http://www.w3.org/2000/svg">
<path fill-rule="evenodd" clip-rule="evenodd" d="M169.776 69.0605C180.112 58.7788 196.826 58.7788 207.162 69.0605C213.834 75.7301 216.436 85.4478 213.988 94.553C211.54 103.658 204.415 110.768 195.295 113.203C186.176 115.639 176.448 113.03 169.776 106.361L161.575 98.1701L154.414 105.305C151.526 108.183 146.85 108.18 143.965 105.3C141.076 102.414 141.079 97.7349 143.971 94.8526L151.119 87.7301V87.728V87.726L164.406 74.4566C164.41 74.4521 164.41 74.4448 164.406 74.4402C164.401 74.4357 164.401 74.4284 164.406 74.4238L169.776 69.0605ZM154.914 51.0668C152.027 53.9501 147.347 53.9501 144.46 51.0668C141.573 48.1836 141.573 43.509 144.46 40.6257L149.642 35.4498C154.185 30.9031 154.185 23.5416 149.642 18.9949C145.044 14.6051 137.801 14.6051 133.203 18.9949L118.208 33.9698C118.206 33.9721 118.206 33.9759 118.208 33.9782C118.211 33.9806 118.211 33.9843 118.208 33.9867L107.762 44.4193C107.76 44.4217 107.756 44.4217 107.754 44.4193C107.751 44.417 107.748 44.417 107.745 44.4193L100.791 51.3805C97.9046 54.2693 93.2193 54.2719 90.33 51.3864C87.4453 48.5054 87.4427 43.8353 90.3242 40.9512L96.0025 35.2675C96.0038 35.2662 96.0059 35.2662 96.0072 35.2675C96.0085 35.2688 96.0106 35.2688 96.0119 35.2675L110.803 20.4958C110.805 20.4941 110.805 20.4913 110.803 20.4896C110.801 20.4879 110.801 20.4851 110.803 20.4834L122.748 8.55384C127.684 3.59585 134.403 0.818791 141.404 0.842929C152.097 0.830411 161.743 7.2577 165.837 17.1232C169.93 26.9887 167.664 38.3459 160.097 45.8909L154.914 51.0668ZM53.9611 77.2879L61.0365 70.2059C63.9197 67.3201 68.6002 67.3175 71.4866 70.2001C74.3707 73.0804 74.3707 77.7503 71.4866 80.6306L64.3832 87.7248C64.3808 87.7272 64.3808 87.7309 64.3832 87.7332C64.3855 87.7356 64.3855 87.7393 64.3832 87.7417L50.8065 101.301C50.8056 101.301 50.8056 101.303 50.8065 101.304C50.8073 101.304 50.8073 101.306 50.8065 101.307L45.723 106.361C38.1669 113.92 26.7943 116.187 16.9116 112.103C7.02895 108.02 0.583984 98.3917 0.583984 87.7106C0.583984 77.0295 7.02895 67.401 16.9116 63.3178C26.7943 59.2346 38.1669 61.5014 45.723 69.0605L53.9611 77.2879ZM71.5012 134.371C74.3882 131.488 74.3882 126.813 71.5012 123.93C68.6142 121.047 63.9334 121.047 61.0464 123.93L52.0771 132.888C41.7697 143.205 41.7697 159.908 52.0771 170.225C62.3984 180.506 79.1047 180.506 89.426 170.225L105.641 153.999C105.647 153.992 105.647 153.983 105.641 153.976C105.635 153.97 105.635 153.96 105.641 153.954L120.408 139.206C120.418 139.196 120.434 139.196 120.444 139.206C120.454 139.216 120.47 139.216 120.48 139.206L125.478 134.203C128.243 131.436 128.241 126.954 125.473 124.19L125.262 123.979C122.372 121.093 117.687 121.096 114.801 123.985L107.786 131.006C107.766 131.027 107.733 131.027 107.713 131.006C107.693 130.986 107.66 130.986 107.64 131.006L97.2675 141.365C97.2524 141.38 97.2524 141.405 97.2675 141.42C97.2825 141.435 97.2826 141.459 97.2675 141.474L78.9713 159.784C74.3729 164.174 67.1301 164.174 62.5318 159.784C57.9887 155.237 57.9887 147.875 62.5318 143.329L71.5012 134.371ZM18.7918 95.9565C23.4041 100.347 30.656 100.347 35.2682 95.9565L42.0268 89.2068C42.8439 88.3906 42.8439 87.0675 42.0268 86.2513L35.2682 79.5016C30.656 75.1108 23.4041 75.1108 18.7918 79.5016C14.2487 84.0483 14.2487 91.4098 18.7918 95.9565ZM180.231 95.9565C184.843 100.347 192.095 100.347 196.707 95.9565C201.15 91.3947 201.099 84.1148 196.594 79.615C192.088 75.1152 184.799 75.0647 180.231 79.5016L173.472 86.2513C172.655 87.0674 172.655 88.3906 173.472 89.2068L180.231 95.9565Z" fill="#4F7D96"/>
</svg>
