<svg width="122" height="178" viewBox="0 0 122 178" fill="none" xmlns="http://www.w3.org/2000/svg">
<path fill-rule="evenodd" clip-rule="evenodd" d="M79.1938 97.314C76.4448 94.5351 71.9878 94.535 69.2388 97.314L68.751 97.8071C66.0546 100.533 66.0546 104.952 68.751 107.678L73.6282 112.608C73.6309 112.611 73.6354 112.611 73.6381 112.608C73.6408 112.605 73.6453 112.605 73.648 112.608L88.2829 127.402C88.2856 127.405 88.2856 127.41 88.2829 127.412C88.2801 127.415 88.2801 127.42 88.2828 127.422L104.094 143.406C108.587 147.958 108.579 155.331 104.076 159.873C99.5729 164.415 92.28 164.406 87.7869 159.854L78.9198 150.89C76.0674 148.007 71.4429 148.007 68.5905 150.89C65.7382 153.774 65.7382 158.449 68.5905 161.332L77.476 170.314C87.703 180.519 104.161 180.465 114.322 170.194C124.484 159.922 124.537 143.284 114.442 132.946L98.8268 117.161H98.8252H98.8236L84.1805 102.358L84.1805 102.357V102.355L79.1938 97.314ZM43.1104 60.8291C43.1081 60.8315 43.1081 60.8353 43.1104 60.8376L49.4837 67.2804C52.338 70.1658 52.338 74.8439 49.4837 77.7293L48.7119 78.5095C46.2815 80.9665 42.3402 80.9642 39.9124 78.5045L35.526 74.0604V74.0583V74.0563L33.7155 72.226L32.7581 71.2572L22.4106 60.797L7.60292 45.8269C-2.49219 35.4885 -2.43881 18.8512 7.72244 8.57926C17.8837 -1.69265 34.3418 -1.74662 44.5687 8.45844L49.6473 13.5924C52.5047 16.4809 52.5047 21.1641 49.6473 24.0526C46.79 26.9411 42.1572 26.9411 39.2998 24.0526L34.2212 18.9186C29.6701 14.5207 22.5016 14.5207 17.9504 18.9186C13.4539 23.4736 13.4539 30.8486 17.9504 35.4036L32.7545 50.3689C32.7568 50.3713 32.7606 50.3713 32.7629 50.3689C32.7652 50.3665 32.769 50.3665 32.7713 50.3689L43.1104 60.8206C43.1127 60.8229 43.1127 60.8267 43.1104 60.8291ZM103.486 78.4965C100.634 81.3799 96.0095 81.3799 93.1572 78.4965L87.2033 72.4777C87.1977 72.4721 87.1977 72.4631 87.2033 72.4575C87.2088 72.4519 87.2088 72.4428 87.2033 72.4372L72.5786 57.6532C72.573 57.6476 72.5641 57.6476 72.5585 57.6532C72.553 57.6588 72.544 57.6588 72.5385 57.6532L67.9994 53.0647C65.4873 50.5253 65.4873 46.4081 67.9994 43.8687L69.4538 42.3984C71.85 39.9761 75.7355 39.9783 78.129 42.4033L82.4665 46.799L83.4289 47.773L85.9939 50.3717C85.9947 50.3725 85.996 50.3725 85.9968 50.3717C85.9976 50.3709 85.9989 50.3709 85.9997 50.3717L96.3443 60.829C96.3451 60.8298 96.3451 60.8311 96.3443 60.8319C96.3435 60.8327 96.3435 60.834 96.3443 60.8348L103.486 68.0547C106.339 70.9381 106.339 75.6131 103.486 78.4965ZM43.1062 114.65L50.1543 121.791C53.004 124.678 53.0014 129.353 50.1485 132.237C47.2933 135.123 42.6641 135.123 39.8089 132.237L32.7595 125.111H32.7579H32.7563L22.4104 114.652L22.4104 114.651V114.649L15.369 107.531C12.5138 104.645 12.5138 99.965 15.369 97.0787C18.2219 94.1947 22.8466 94.1921 25.7028 97.0729L32.7587 104.19L43.1062 114.65Z" fill="#8DBAD3"/>
</svg>
