<svg width="40" height="40" viewBox="0 0 40 40" fill="none" xmlns="http://www.w3.org/2000/svg">
<path fill-rule="evenodd" clip-rule="evenodd" d="M32.6989 17.6003C32.6972 17.602 32.6944 17.602 32.6927 17.6003C32.691 17.5986 32.6882 17.5986 32.6865 17.6003L18.1526 32.2104C18.1516 32.2114 18.1516 32.2131 18.1526 32.2141C18.1536 32.2151 18.1536 32.2167 18.1526 32.2177L13.1347 37.2619C10.3623 40.0487 5.86755 40.0487 3.09524 37.2619L2.97861 37.1447C0.141895 34.2931 0.141894 29.6697 2.97861 26.8181L8.70264 21.0641H8.70463H8.70663L21.8967 7.80486L26.7008 2.98642C29.5384 0.140285 34.1332 0.142883 36.9677 2.99221L37.4016 3.4284C40.001 6.04143 39.9986 10.2787 37.3963 12.8888L32.6989 17.6003Z" fill="#EAB604"/>
</svg>
