<svg width="51" height="83" viewBox="0 0 51 83" fill="none" xmlns="http://www.w3.org/2000/svg">
<path d="M4.24983 81.5622L4.18701 54.1827L4.18602 53.884C4.18234 52.9362 4.35989 51.9969 4.70855 51.1198C5.0572 50.2427 5.57013 49.445 6.21802 48.7722C6.86592 48.0994 7.63609 47.5647 8.48455 47.1987C9.33301 46.8327 10.2431 46.6425 11.1629 46.639L12.2062 46.6409L27.0043 46.6051L27.4023 46.5851C30.205 46.5794 32.9791 46.0048 35.5663 44.8941C38.1534 43.7834 40.5028 42.1583 42.4803 40.1118C44.4579 38.0652 46.0247 35.6372 47.0915 32.9666C48.1582 30.2959 48.7039 27.4348 48.6974 24.5468C48.6908 21.6587 48.1322 18.8003 47.0534 16.1348C45.9746 13.4693 44.3967 11.0489 42.41 9.01183C40.4232 6.97481 38.0664 5.36107 35.4743 4.26279C32.8822 3.16452 30.1055 2.60323 27.3028 2.61099L26.1812 2.61292L0.835761 2.6747H0.460938C0.689916 1.95527 1.00812 1.26934 1.40764 0.633921L1.69947 0.64391L26.2913 0.586112L27.298 0.582137C30.3599 0.572783 33.3936 1.18521 36.2257 2.38444C39.0578 3.58366 41.6329 5.34618 43.8037 7.57127C45.9746 9.79636 47.6987 12.4404 48.8776 15.3524C50.0564 18.2643 50.6669 21.3871 50.6741 24.5423C50.6814 27.6974 50.0852 30.8231 48.9197 33.7408C47.7542 36.6585 46.0423 39.3109 43.8816 41.5465C41.721 43.7822 39.154 45.5572 36.3274 46.7702C33.5008 47.9832 30.47 48.6104 27.4081 48.6159L26.899 48.6339L11.1687 48.6677C10.5076 48.6706 9.8535 48.8077 9.24381 49.0712C8.63413 49.3346 8.08078 49.7192 7.61537 50.2031C7.14995 50.6869 6.7816 51.2605 6.53133 51.891C6.28107 52.5216 6.1538 53.1968 6.15679 53.878V54.1767L6.2206 82.0501L6.20803 82.4761C5.52157 82.2547 4.86494 81.945 4.25369 81.5543" fill="#1B7892"/>
</svg>
