<svg width="52" height="87" viewBox="0 0 52 87" fill="none" xmlns="http://www.w3.org/2000/svg">
<path d="M5.19305 86.8576C5.39396 86.8716 5.59883 86.8795 5.8036 86.8795C6.25726 86.8936 6.71129 86.8723 7.16183 86.8158L7.15797 86.1887L7.09426 58.1659L7.09614 57.8674C7.09268 57.5721 7.20193 57.2873 7.40035 57.0743C7.59877 56.8612 7.87048 56.7371 8.1569 56.7285C8.1569 56.7285 10.0407 56.7046 10.0407 56.7265L24.0195 56.6926L24.4242 56.6728C31.6437 56.6515 38.5595 53.6768 43.6512 48.4026C48.7428 43.1284 51.5935 35.9865 51.5765 28.5471C51.5594 21.1077 48.6761 13.9798 43.5604 8.73043C38.4447 3.48106 31.5154 0.539966 24.2958 0.553759L5.62396 0.571598C3.60036 0.574317 1.64268 1.31327 0.0961914 2.65814L0.603374 2.67211L23.2003 2.61635L24.3074 2.61237C27.6227 2.60434 30.9072 3.26927 33.9731 4.56921C37.0391 5.86915 39.8265 7.77864 42.1763 10.1887C44.5262 12.5987 46.3923 15.462 47.6682 18.6152C48.9442 21.7684 49.6049 25.1497 49.6127 28.566C49.6205 31.9823 48.9752 35.3667 47.7137 38.5261C46.4522 41.6854 44.5991 44.5578 42.2603 46.9791C39.9216 49.4005 37.1429 51.3235 34.0829 52.6383C31.0229 53.9531 27.7416 54.6339 24.4262 54.642L24.0137 54.6619L10.431 54.6957L8.17333 54.7176C7.36351 54.7198 6.58765 55.0532 6.0163 55.6445C5.44494 56.2359 5.12485 57.0369 5.12637 57.8713L5.12538 58.1699L5.19117 86.8795" fill="#1B7892"/>
</svg>
