<svg width="47" height="71" viewBox="0 0 47 71" fill="none" xmlns="http://www.w3.org/2000/svg">
<path d="M37.5238 26.2611C33.845 20.7262 28.8398 17.9249 22.6126 17.9249C15.545 17.9249 10.1727 20.5829 6.20032 26.0381C2.52351 30.892 0.734375 36.839 0.734375 44.2215C0.734375 51.7512 2.57378 57.9949 6.19935 62.7811C10.2191 68.1029 15.8657 70.8027 22.9787 70.8027C29.4987 70.8027 34.5328 68.3001 37.9807 63.3585V69.4847H46.3206V0.392578H37.5238V26.2611ZM33.9213 30.6411C36.434 34.0597 37.7062 38.5333 37.7062 43.9388V44.8824C37.7062 50.1187 36.5808 54.4431 34.3686 57.7201C33.202 59.449 31.6299 60.8455 29.7984 61.7795C27.967 62.7135 25.936 63.1547 23.8946 63.0618C19.0923 63.0618 15.4165 61.2361 12.9704 57.6385C10.7804 54.3913 9.71579 50.0032 9.71579 44.2215C9.71579 38.4417 10.8074 34.1213 13.0477 31.0115L13.0593 30.9956C15.4648 27.4597 19.2005 25.6658 24.169 25.6658C26.0657 25.6082 27.9471 26.0318 29.6477 26.8994C31.3482 27.767 32.8158 29.0519 33.9213 30.6411Z" fill="#1B7892"/>
</svg>
