<svg width="40" height="83" viewBox="0 0 40 83" fill="none" xmlns="http://www.w3.org/2000/svg">
<path d="M35.8298 2.28885L35.9303 45.622L35.9255 46.1894C35.9296 48.1099 35.1934 49.9534 33.8787 51.3147C32.564 52.6759 30.7785 53.4434 28.9148 53.4484L28.3738 53.4505L16.4991 53.4783L15.5929 53.4943C12.1113 53.5055 8.77645 54.9407 6.32128 57.4845C3.8661 60.0282 2.4915 63.4724 2.49956 67.0601C2.50762 70.6477 3.89769 74.0853 6.36428 76.6173C8.83086 79.1493 12.1721 80.5686 15.6537 80.5632L17.3357 80.5592L39.1898 80.5055L39.525 80.4916C39.3078 81.2078 39.0023 81.8923 38.6159 82.5284L38.3252 82.5382L17.3531 82.5881L15.6586 82.594C11.6524 82.6038 7.80661 80.9732 4.96712 78.0611C2.12764 75.149 0.527105 71.1938 0.517621 67.0656C0.508136 62.9374 2.09048 58.9745 4.91655 56.0485C7.74262 53.1226 11.5809 51.4733 15.5871 51.4635L16.3406 51.4794L28.311 51.4495L28.909 51.4516C29.5776 51.4501 30.2394 51.3129 30.8565 51.0478C31.4736 50.7827 32.034 50.395 32.5057 49.9067C32.9774 49.4184 33.3512 48.8391 33.6056 48.202C33.86 47.5649 33.9901 46.8823 33.9885 46.1934L33.9788 45.6678L33.8774 1.33921L33.8533 0.861328C34.5472 1.09794 35.2089 1.42513 35.8221 1.83493L35.8298 2.28885Z" fill="#1B7892"/>
</svg>
