<svg width="47" height="76" viewBox="0 0 47 76" fill="none" xmlns="http://www.w3.org/2000/svg">
<path d="M27.2341 0.634822H25.7657L0 0.694556L0.00484726 2.797L0.5149 2.79303L26.1385 2.73125L26.4351 2.72137L27.1597 2.71933L27.6543 2.72728C32.2166 2.82886 36.5561 4.77934 39.7321 8.15585C42.9081 11.5324 44.6646 16.0628 44.6207 20.7648C44.5769 25.4669 42.7362 29.9617 39.4978 33.2747C36.2594 36.5876 31.8843 38.4518 27.3209 38.463L26.923 38.4809L12.4418 38.5167L11.0816 38.5187C8.15241 38.5236 5.34507 39.7272 3.27692 41.8647C1.20877 44.0021 0.0491679 46.8985 0.0531222 49.9169L0.0956595 68.4805L0.0908123 70.0474C0.100566 72.1765 0.854758 74.2306 2.21511 75.8331L2.19968 74.7999L2.14457 50.1797L2.1427 49.8831C2.13977 48.6699 2.36879 47.468 2.8167 46.346C3.2646 45.224 3.92261 44.204 4.75314 43.3441C5.58367 42.4842 6.57045 41.8013 7.65712 41.3344C8.7438 40.8676 9.90908 40.6259 11.0864 40.6231L12.1578 40.6052L26.8167 40.5713L27.3258 40.5515C32.4626 40.5389 37.3842 38.4242 41.0079 34.6724C44.6316 30.9206 46.6605 25.8392 46.6484 20.5459C46.6362 15.2526 44.584 10.1811 40.9431 6.44707C37.3022 2.71302 32.3709 0.622291 27.2341 0.634822Z" fill="#1B7892"/>
</svg>
