<svg width="47" height="71" viewBox="0 0 47 71" fill="none" xmlns="http://www.w3.org/2000/svg">
<path d="M37.342 26.3905C33.6633 20.8556 28.6571 18.0544 22.431 18.0544C15.3632 18.0544 9.99009 20.7123 6.01858 26.1695C2.34088 31.0234 0.552734 36.9704 0.552734 44.3529C0.552734 51.8826 2.393 58.1263 6.01768 62.9106C10.0365 68.2324 15.6831 70.9321 22.7971 70.9321C29.317 70.9321 34.3511 68.4295 37.7999 63.4879V69.6141H46.1389V0.392578H37.342V26.3905ZM33.7406 30.7726C36.2504 34.1911 37.5246 38.6627 37.5246 44.0702V45.0119C37.5246 50.2481 36.3991 54.5724 34.1878 57.8496C33.0213 59.579 31.4489 60.9758 29.6171 61.9099C27.7853 62.8439 25.7537 63.2848 23.7119 63.1913C18.9097 63.1913 15.2339 61.3676 12.7878 57.7699C10.5987 54.5246 9.53415 50.1346 9.53415 44.3529C9.53415 38.5711 10.6248 34.2508 12.866 31.1429L12.8786 31.127C15.2831 27.589 19.0198 25.7972 23.9882 25.7972C25.8849 25.7399 27.7662 26.1637 29.4667 27.0312C31.1672 27.8988 32.6349 29.1836 33.7406 30.7726Z" fill="#1B7892"/>
</svg>
