<svg width="48" height="70" viewBox="0 0 48 70" fill="none" xmlns="http://www.w3.org/2000/svg">
<path d="M26.7243 0.391602H6.8303C5.04914 0.391764 3.34098 1.12095 2.08151 2.41878C0.822045 3.7166 0.114415 5.47679 0.114258 7.3122V62.5512C0.114073 63.4591 0.287449 64.3582 0.624485 65.1971C0.961522 66.0359 1.45562 66.7982 2.07855 67.4403C2.70149 68.0824 3.44107 68.5917 4.25506 68.9393C5.06904 69.2868 5.9415 69.4657 6.82259 69.4658H9.30923V41.7815H26.7243C39.0173 41.7815 47.6017 33.2723 47.6017 21.0876C47.6017 8.90302 39.0173 0.391602 26.7243 0.391602ZM9.30923 8.95868H25.7515C33.1465 8.95868 38.115 13.8326 38.115 21.0876C38.115 28.3407 33.1465 33.2145 25.7515 33.2145H9.30923V8.95868Z" fill="#1B7892"/>
</svg>
