<svg width="19" height="18" viewBox="0 0 19 18" fill="none" xmlns="http://www.w3.org/2000/svg">
<path fill-rule="evenodd" clip-rule="evenodd" d="M15.12 8.17927C15.1193 8.18003 15.118 8.18004 15.1173 8.17927C15.1165 8.1785 15.1153 8.1785 15.1145 8.17927L8.61013 14.7177C8.60968 14.7182 8.60968 14.7189 8.61013 14.7194C8.61057 14.7198 8.61057 14.7205 8.61013 14.721L6.36446 16.9784C5.12377 18.2256 3.11221 18.2256 1.87152 16.9784L1.81933 16.9259C0.549808 15.6498 0.549808 13.5807 1.81933 12.3045L4.381 9.72941H4.38189H4.38278L10.2857 3.79551L12.4357 1.63911C13.7056 0.365378 15.7619 0.366541 17.0304 1.6417L17.2246 1.83691C18.388 3.00632 18.3869 4.90264 17.2223 6.07074L15.12 8.17927Z" fill="#EAB604"/>
</svg>
