<svg width="55" height="80" viewBox="0 0 55 80" fill="none" xmlns="http://www.w3.org/2000/svg">
<path fill-rule="evenodd" clip-rule="evenodd" d="M35.4744 43.4212C34.2441 42.1775 32.2495 42.1775 31.0192 43.4212L30.8009 43.6419C29.5942 44.8617 29.5942 46.8395 30.8009 48.0593L32.9836 50.2658C32.9848 50.267 32.9868 50.267 32.9881 50.2658C32.9893 50.2646 32.9913 50.2646 32.9925 50.2658L39.542 56.8867C39.5432 56.8879 39.5432 56.8899 39.542 56.8911C39.5408 56.8924 39.5408 56.8944 39.542 56.8956L46.6181 64.0488C48.6289 66.0861 48.6252 69.3854 46.6099 71.4181C44.5947 73.4507 41.3309 73.447 39.3201 71.4098L35.3518 67.3982C34.0753 66.1078 32.0056 66.1078 30.7291 67.3982C29.4526 68.6886 29.4526 70.7808 30.7291 72.0712L34.7056 76.091C39.2825 80.6581 46.648 80.634 51.1955 76.037C55.7429 71.44 55.7668 63.9943 51.249 59.3675L44.2607 52.3032H44.26H44.2593L37.7061 45.6786L37.7061 45.6779V45.6772L35.4744 43.4212ZM19.326 27.0931C19.3249 27.0941 19.3249 27.0959 19.326 27.0969L22.1782 29.9802C23.4556 31.2715 23.4556 33.3652 22.1782 34.6565L21.8328 35.0056C20.7451 36.1052 18.9813 36.1042 17.8948 35.0034L15.9318 33.0145V33.0136V33.0127L15.1215 32.1936L14.693 31.76L10.0622 27.0787L3.43532 20.3791C-1.08255 15.7524 -1.05866 8.30671 3.48881 3.70972C8.03627 -0.887275 15.4018 -0.911428 19.9786 3.65564L22.2515 5.95323C23.5302 7.24592 23.5302 9.34179 22.2515 10.6345C20.9727 11.9272 18.8994 11.9272 17.6206 10.6345L15.3478 8.3369C13.311 6.3687 10.1029 6.3687 8.06614 8.3369C6.05382 10.3754 6.05382 13.6759 8.06614 15.7144L14.6914 22.4118C14.6924 22.4129 14.6941 22.4129 14.6952 22.4118C14.6962 22.4108 14.6979 22.4108 14.6989 22.4118L19.326 27.0893C19.327 27.0903 19.327 27.092 19.326 27.0931ZM46.3461 34.9998C45.0696 36.2902 42.9999 36.2902 41.7234 34.9998L39.0589 32.3062C39.0564 32.3037 39.0564 32.2996 39.0589 32.2971C39.0613 32.2946 39.0613 32.2906 39.0589 32.2881L32.5139 25.6718C32.5114 25.6693 32.5074 25.6693 32.5049 25.6718C32.5024 25.6743 32.4984 25.6743 32.496 25.6718L30.4645 23.6183C29.3403 22.4818 29.3403 20.6393 30.4645 19.5028L31.1155 18.8448C32.1878 17.7608 33.9267 17.7617 34.9979 18.847L36.939 20.8142L37.3698 21.2501L38.5176 22.4131C38.518 22.4135 38.5186 22.4135 38.5189 22.4131C38.5193 22.4127 38.5199 22.4127 38.5202 22.4131L43.1498 27.093C43.1501 27.0934 43.1501 27.094 43.1498 27.0944C43.1494 27.0947 43.1494 27.0953 43.1498 27.0957L46.3461 30.3268C47.6226 31.6172 47.6226 33.7094 46.3461 34.9998ZM19.3241 51.1795L22.4783 54.3752C23.7537 55.6674 23.7525 57.7596 22.4757 59.0503C21.1979 60.342 19.1262 60.342 17.8485 59.0503L14.6936 55.8611H14.6929H14.6922L10.0621 51.1806L10.0621 51.1799V51.1791L6.91086 47.9936C5.63308 46.7019 5.63308 44.6076 6.91087 43.3159C8.18764 42.0252 10.2573 42.024 11.5355 43.3133L14.6933 46.4982L19.3241 51.1795Z" fill="#8DBAD3"/>
</svg>
