<svg width="97" height="80" viewBox="0 0 97 80" fill="none" xmlns="http://www.w3.org/2000/svg">
<path fill-rule="evenodd" clip-rule="evenodd" d="M76.532 30.7775C81.1575 26.1761 88.6378 26.1761 93.2633 30.7775C96.2491 33.7624 97.4136 38.1113 96.3182 42.1862C95.2228 46.261 92.0338 49.4427 87.9526 50.5327C83.8713 51.6226 79.5178 50.4553 76.532 47.4705L72.8617 43.805L69.6571 46.9982C68.3647 48.2861 66.2719 48.2849 64.9809 46.9956C63.6879 45.7042 63.6891 43.6102 64.9836 42.3203L68.1824 39.1327V39.1318V39.1309L74.1286 33.1925C74.1307 33.1904 74.1307 33.1872 74.1286 33.1851C74.1266 33.1831 74.1266 33.1798 74.1286 33.1778L76.532 30.7775ZM69.881 22.7248C68.589 24.0152 66.4942 24.0152 65.2022 22.7248C63.9102 21.4345 63.9102 19.3425 65.2022 18.0521L67.5216 15.7357C69.5548 13.701 69.5548 10.4065 67.5216 8.37169C65.4637 6.40708 62.2223 6.40708 60.1644 8.37169L53.454 15.0734C53.4529 15.0744 53.4529 15.0761 53.454 15.0772C53.455 15.0782 53.455 15.0799 53.454 15.0809L48.7789 19.7499C48.7779 19.7509 48.7762 19.7509 48.7752 19.7499C48.7741 19.7488 48.7724 19.7488 48.7714 19.7499L45.659 22.8652C44.3674 24.158 42.2706 24.1592 40.9775 22.8678C39.6865 21.5785 39.6854 19.4885 40.9749 18.1978L43.5161 15.6542C43.5167 15.6536 43.5177 15.6536 43.5182 15.6542C43.5188 15.6547 43.5198 15.6547 43.5204 15.6542L50.1398 9.04335C50.1406 9.04259 50.1406 9.04135 50.1398 9.04059C50.139 9.03983 50.139 9.0386 50.1398 9.03783L55.4856 3.69898C57.6948 1.48013 60.7017 0.237314 63.8348 0.248117C68.6202 0.242514 72.937 3.11892 74.769 7.53403C76.6011 11.9491 75.587 17.0318 72.2004 20.4084L69.881 22.7248ZM24.7014 34.4596L27.8678 31.2901C29.1581 29.9986 31.2528 29.9975 32.5445 31.2875C33.8353 32.5766 33.8353 34.6665 32.5445 35.9555L29.3655 39.1304C29.3645 39.1314 29.3645 39.1331 29.3655 39.1342C29.3666 39.1352 29.3666 39.1369 29.3655 39.1379L23.2895 45.206C23.2892 45.2063 23.2892 45.2069 23.2895 45.2073C23.2899 45.2077 23.2899 45.2083 23.2895 45.2086L21.0145 47.4705C17.633 50.8534 12.5434 51.8679 8.12059 50.0405C3.69779 48.2132 0.813477 43.9041 0.813477 39.124C0.813477 34.3439 3.69779 30.0349 8.12059 28.2075C12.5434 26.3801 17.633 27.3946 21.0145 30.7775L24.7014 34.4596ZM32.5511 60.006C33.8431 58.7157 33.8431 56.6236 32.5511 55.3333C31.259 54.043 29.1643 54.043 27.8723 55.3333L23.8582 59.3421C19.2453 63.9594 19.2453 71.4343 23.8582 76.0516C28.4773 80.6529 35.9538 80.6529 40.573 76.0516L47.8295 68.7899C47.8323 68.7871 47.8323 68.7827 47.8295 68.78C47.8268 68.7772 47.8268 68.7728 47.8295 68.7701L54.4384 62.1698C54.4428 62.1654 54.4501 62.1654 54.4545 62.1698C54.4589 62.1742 54.4662 62.1742 54.4706 62.1698L56.7074 59.9309C57.9449 58.6923 57.9438 56.6867 56.7049 55.4495L56.6105 55.3552C55.3175 54.0638 53.2207 54.065 51.9291 55.3578L48.7896 58.5002C48.7806 58.5092 48.766 58.5092 48.7569 58.5002C48.7479 58.4912 48.7333 58.4912 48.7243 58.5002L44.0822 63.1361C44.0755 63.1429 44.0755 63.1538 44.0823 63.1606C44.089 63.1673 44.089 63.1782 44.0823 63.185L35.8941 71.3789C33.8363 73.3435 30.5949 73.3435 28.537 71.3789C26.5038 69.3441 26.5038 66.0496 28.537 64.0148L32.5511 60.006ZM8.96204 42.8143C11.0262 44.7793 14.2716 44.7793 16.3357 42.8143L19.3604 39.7936C19.7261 39.4284 19.7261 38.8362 19.3604 38.4709L16.3357 35.4502C14.2716 33.4852 11.0262 33.4852 8.96204 35.4502C6.92887 37.485 6.92887 40.7795 8.96204 42.8143ZM81.2108 42.8143C83.275 44.7793 86.5204 44.7793 88.5845 42.8143C90.5728 40.7728 90.5501 37.5148 88.5337 35.501C86.5173 33.4872 83.2551 33.4646 81.2108 35.4502L78.1862 38.4709C77.8205 38.8362 77.8205 39.4284 78.1862 39.7936L81.2108 42.8143Z" fill="#4F7D96"/>
</svg>
