<svg width="68" height="63" viewBox="0 0 68 63" fill="none" xmlns="http://www.w3.org/2000/svg">
<path d="M64.3921 61.7178C59.0919 62.279 54.8829 62.6531 51.7651 62.8402C48.7097 63.0273 46.2778 62.9338 44.4695 62.5596C42.6612 62.2478 41.227 61.6243 40.167 60.6889C39.1693 59.816 38.078 58.5689 36.8933 56.9476C35.4591 55.0146 34.212 53.2998 33.1519 51.8033C32.0919 50.3067 31.0942 48.9037 30.1589 47.5943C23.2374 55.1393 14.6635 59.2548 4.43717 59.9407C1.69352 60.0654 0.259335 59.7536 0.134623 59.0053C0.00991191 58.2571 1.03878 57.4465 3.22123 56.5735C5.40368 55.7628 7.55495 54.7652 9.67504 53.5804C11.7951 52.3956 13.7905 51.0862 15.6612 49.652C17.5942 48.2178 19.3713 46.7213 20.9926 45.1624C22.6762 43.6035 24.1416 42.0134 25.3887 40.3922C23.0815 36.9003 21.2108 34.0631 19.7767 31.8806C18.3425 29.6358 17.0954 27.8587 16.0353 26.5492C15.0376 25.2398 14.1023 24.2732 13.2293 23.6497C12.3563 22.9638 11.3586 22.4338 10.2362 22.0596C7.67966 21.1243 6.58843 20.1266 6.96257 19.0665C7.39906 17.9441 9.17619 17.3206 12.294 17.1959C13.8529 17.1335 15.1935 17.1959 16.3159 17.3829C17.4383 17.57 18.436 17.9753 19.309 18.5989C20.182 19.1601 21.0238 20.0019 21.8344 21.1243C22.7074 22.2467 23.7051 23.7432 24.8275 25.6139C25.2016 26.2374 25.8563 27.2351 26.7917 28.607C27.727 29.9788 28.7559 31.413 29.8783 32.9095C31.7489 29.1682 33.1831 25.6139 34.1808 22.2467C35.1785 18.8795 35.8956 15.637 36.3321 12.5192C36.4568 11.8333 36.3944 11.3968 36.145 11.2097C35.8956 10.9603 35.3032 10.9291 34.3679 11.1162C32.9337 11.3656 31.5931 11.615 30.3459 11.8645C29.0988 12.1139 27.5711 12.488 25.7628 12.9869C23.518 13.6728 21.7409 14.1716 20.4314 14.4834C19.1219 14.7952 18.0619 14.9823 17.2513 15.0446C16.4406 15.107 15.7547 15.0134 15.1935 14.764C14.6947 14.5146 14.1023 14.1404 13.4164 13.6416C10.7974 11.8333 9.55033 10.6797 9.67504 10.1809C9.8621 9.61967 11.078 9.27671 13.3228 9.152C15.3182 9.02729 17.4071 8.84022 19.5896 8.5908C21.8344 8.27902 24.0792 7.81135 26.324 7.1878C28.7559 6.50189 30.9383 5.81597 32.8713 5.13006C34.8044 4.38179 36.3321 3.44646 37.4545 2.32406C37.9533 1.82521 38.421 1.45108 38.8575 1.20165C39.294 0.952229 39.824 0.858695 40.4476 0.92105C41.0711 0.983409 41.7882 1.20165 42.5988 1.57579C43.4718 1.88756 44.563 2.35523 45.8725 2.97879C47.9302 4.10119 49.5203 5.0677 50.6427 5.87833C51.7651 6.6266 52.451 7.31251 52.7004 7.93607C53.0122 8.55962 52.8875 9.18318 52.3263 9.80673C51.8275 10.3679 51.0168 11.0227 49.8944 11.7709C48.9591 12.3945 48.0549 13.5793 47.182 15.3252C46.309 17.0088 45.5295 18.8483 44.8436 20.8437C44.1577 22.9014 43.503 24.8033 42.8794 26.5492C42.2559 28.2328 41.57 29.8541 40.8217 31.413C40.1358 32.9095 39.3875 34.3749 38.5769 35.809C37.7663 37.1809 36.8621 38.615 35.8644 40.1116C37.6727 42.107 39.5434 43.8841 41.4764 45.443C43.4718 47.0019 45.5919 48.4672 47.8367 49.8391C50.1439 51.1485 52.6381 52.4268 55.3194 53.6739C58.0007 54.8587 61.0249 56.1058 64.3921 57.4153C66.824 58.3506 68.0088 59.2236 67.9464 60.0342C67.9464 60.8448 66.7617 61.406 64.3921 61.7178Z" fill="#EAB604"/>
</svg>
