<svg width="26" height="69" viewBox="0 0 26 69" fill="none" xmlns="http://www.w3.org/2000/svg">
<path d="M23.3948 7.32332C23.5195 8.81985 23.3948 10.0046 23.0206 10.8776C22.6465 11.7506 22.1165 12.3741 21.4306 12.7483C20.807 13.06 20.0587 13.1536 19.1858 13.0289C18.3751 12.9042 17.5645 12.5612 16.7539 12C15.3821 11.0647 14.1349 9.97344 13.0125 8.72632C11.8901 7.41685 10.7989 6.01385 9.73887 4.51731C8.49176 2.709 8.02409 1.52424 8.33587 0.96304C8.71001 0.339484 10.3313 0.0900612 13.1996 0.214771C16.6292 0.339484 19.1234 0.963042 20.6823 2.08544C22.2412 3.20785 23.1453 4.9538 23.3948 7.32332ZM16.7539 25.6559C16.8162 28.836 16.1303 30.8626 14.6961 31.7356C13.3243 32.5462 11.859 32.2344 10.3001 30.8002C9.11532 29.6778 7.89938 28.4931 6.65227 27.246C5.46751 25.9988 4.25158 24.4711 3.00446 22.6628C1.94442 21.0416 1.69499 19.9503 2.2562 19.3891C2.87975 18.7656 4.53218 18.5473 7.21347 18.7344C10.8301 19.0462 13.2931 19.7945 14.6026 20.9792C15.9121 22.1016 16.6292 23.6605 16.7539 25.6559ZM22.0853 35.851C19.3416 42.7725 17.2527 48.4781 15.8186 52.9677C14.4467 57.3949 13.6673 60.6998 13.4802 62.8822C13.2931 64.7529 12.9814 66.1559 12.5449 67.0912C12.1707 68.0266 11.5784 68.463 10.7677 68.4007C10.0195 68.3383 9.05296 67.6836 7.8682 66.4365C6.7458 65.2517 5.37398 63.4434 3.75273 61.0115C2.56797 59.2032 1.69499 57.7067 1.13379 56.5219C0.572593 55.3372 0.291992 54.4018 0.291992 53.7159C0.291992 53.03 0.572593 52.5312 1.13379 52.2194C1.69499 51.8453 2.50562 51.5958 3.56566 51.4711C4.62571 51.3464 5.65458 50.9723 6.65227 50.3487C7.71232 49.6628 8.83472 48.3222 10.0195 46.3268C10.7677 45.0797 11.5472 43.7702 12.3578 42.3984C13.2308 41.0266 14.0414 39.6859 14.7897 38.3764C15.6003 37.067 16.3486 35.8822 17.0345 34.8222C17.7204 33.6998 18.3128 32.7644 18.8116 32.0162C22.3659 26.5289 24.4548 24.1282 25.0784 24.8141C25.7019 25.5 24.7042 29.179 22.0853 35.851Z" fill="#8DBAD3"/>
</svg>
