<svg width="239" height="50" viewBox="0 0 239 50" fill="none" xmlns="http://www.w3.org/2000/svg">
<g opacity="0.5">
<path d="M7.92279 27.0775C16.827 27.5403 20.206 26.2902 20.206 26.2902C28.6164 22.6804 26.6636 13.6444 26.6636 13.6444C24.5053 5.9206 17.0503 5.52344 17.0503 5.52344L0.00390625 5.56375L0.0689122 32.8249L0.645067 32.8238C2.11209 25.8389 7.92279 27.0775 7.92279 27.0775Z" fill="#6ACFED"/>
<path d="M42.3524 32.4255L34.3921 32.5372C34.3921 32.5372 26.9889 34.1648 30.5964 42.1154C30.5964 42.1154 32.1665 44.6892 36.3075 44.5868L49.9823 44.5649L49.9375 25.6088L49.3544 25.5996C49.4057 27.6796 48.8371 32.5556 42.3524 32.4255Z" fill="#6ACFED"/>
<path d="M4.88035 49.9851C5.00122 49.9944 5.12263 49.9978 5.24463 49.9978C5.51492 50.0065 5.78549 49.9942 6.05387 49.961L6.05157 49.5984L6.01415 33.398L6.01474 33.2253C6.01295 33.0545 6.07817 32.8898 6.19641 32.7665C6.31465 32.6432 6.47649 32.5711 6.64724 32.5658C6.64724 32.5658 7.76896 32.552 7.76896 32.5646L16.096 32.545L16.3377 32.5335C20.6386 32.521 24.7585 30.8011 27.7918 27.7518C30.825 24.7026 32.5232 20.5737 32.5132 16.2728C32.5031 11.9718 30.7855 7.8509 27.7381 4.81592C24.6906 1.78094 20.5626 0.0803183 16.2617 0.087916L5.1376 0.0994084C3.93162 0.099792 2.76472 0.527162 1.84375 1.30576L2.14591 1.31266L15.6096 1.28042L16.2686 1.27812C20.2578 1.26866 24.0873 2.84428 26.9148 5.65837C29.7423 8.47245 31.3361 12.2945 31.3455 16.2837C31.355 20.2729 29.7794 24.1024 26.9653 26.9299C24.1512 29.7574 20.3291 31.3511 16.34 31.3606L16.0936 31.3721L8.00211 31.3906L6.65649 31.4043C6.4176 31.4049 6.18116 31.4524 5.96066 31.5443C5.74017 31.6363 5.53994 31.7707 5.37143 31.94C5.20291 32.1094 5.0694 32.3102 4.97852 32.5312C4.88765 32.7521 4.84119 32.9887 4.8418 33.2276L4.84063 33.4003L4.87976 49.9978" fill="#1B7892"/>
<path d="M2.53224 49.2353L2.4954 33.4056L2.49428 33.2329C2.49003 32.1263 2.92555 31.0632 3.70505 30.2777C4.48455 29.4921 5.54418 29.0484 6.65083 29.0441L7.27243 29.0452L16.0892 29.0246L16.3257 29.0142C17.9955 29.0109 19.6483 28.6786 21.1897 28.0364C22.7311 27.3942 24.1309 26.4547 25.3091 25.2714C26.4873 24.0881 27.4208 22.6843 28.0564 21.1401C28.6919 19.596 29.017 17.9418 29.0131 16.2719C29.0092 14.6021 28.6764 12.9494 28.0337 11.4083C27.3909 9.8671 26.4509 8.46766 25.2672 7.28988C24.0834 6.1121 22.6793 5.17906 21.1349 4.54406C19.5906 3.90906 17.9362 3.58453 16.2664 3.58901L15.5983 3.59131L0.49831 3.62585L0.274414 3.62697C0.411499 3.21084 0.601239 2.81395 0.839017 2.44596L1.01223 2.4529L15.6639 2.41838L16.2636 2.41608C18.0878 2.41067 19.8951 2.76475 21.5824 3.45809C23.2697 4.15143 24.8038 5.17044 26.0971 6.45689C27.3905 7.74334 28.4176 9.27202 29.1199 10.9556C29.8223 12.6392 30.186 14.4446 30.1903 16.2688C30.1946 18.093 29.8394 19.9001 29.145 21.587C28.4507 23.2738 27.4308 24.8074 26.1435 26.0999C24.8563 27.3924 23.327 28.4187 21.643 29.12C19.959 29.8213 18.1534 30.1839 16.3292 30.1871L16.0264 30.1987L6.65372 30.2182C6.25985 30.2199 5.87017 30.2992 5.50694 30.4515C5.14371 30.6038 4.81403 30.8262 4.53676 31.1059C4.25948 31.3856 4.04002 31.7173 3.89093 32.0818C3.74183 32.4464 3.66601 32.8367 3.66781 33.2306V33.4033L3.70523 49.5173L3.69946 49.7636C3.28993 49.6361 2.8983 49.457 2.534 49.2307" fill="#1B7892"/>
<path d="M47.5602 1.09208L47.6195 26.1443L47.6166 26.4724C47.6193 27.5828 47.1807 28.6488 46.3974 29.4358C45.6141 30.2229 44.5503 30.6666 43.4399 30.6692L43.1181 30.6704L36.0436 30.6865L35.5031 30.6957C33.4286 30.702 31.4414 31.5319 29.9785 33.0027C28.5155 34.4736 27.6965 36.4652 27.7013 38.5398C27.7062 40.6143 28.5346 42.602 30.0045 44.066C31.4744 45.53 33.4654 46.3504 35.54 46.347L36.5409 46.3436L49.5614 46.3125L49.7605 46.3056C49.6313 46.7196 49.4495 47.1154 49.2195 47.4831L49.0468 47.4878L36.5518 47.5165L35.5422 47.5211C34.3604 47.5239 33.1896 47.2938 32.0966 46.8441C31.0036 46.3943 30.01 45.7337 29.1723 44.9C27.4806 43.2161 26.5271 40.9292 26.5215 38.5423C26.5159 36.1555 27.4588 33.8641 29.1426 32.1724C30.8265 30.4807 33.1134 29.5272 35.5003 29.5216L35.9492 29.5308L43.0796 29.5147H43.437C43.8353 29.5139 44.2295 29.4346 44.5971 29.2813C44.9647 29.128 45.2986 28.9038 45.5795 28.6215C45.8604 28.3392 46.083 28.0043 46.2344 27.6359C46.3858 27.2676 46.4632 26.873 46.4621 26.4747L46.4575 26.1708L46.3959 0.543035L46.3826 0.265625C46.7961 0.402428 47.1901 0.591997 47.555 0.829639L47.5602 1.09208Z" fill="#1B7892"/>
<path d="M45.2117 0.256587L45.2727 26.1837L45.2693 26.4771C45.2704 26.9648 45.0777 27.433 44.7336 27.7786C44.3895 28.1242 43.9222 28.319 43.4345 28.3201L42.8365 28.3235L36.1763 28.3385L35.5553 28.3477H35.4977C32.8003 28.3552 30.2163 29.4336 28.3138 31.3459C26.4113 33.2581 25.3462 35.8477 25.3526 38.5451C25.359 41.2426 26.4364 43.8271 28.3479 45.7303C30.2595 47.6335 32.8486 48.6996 35.5461 48.6943L36.5475 48.6977L47.8765 48.6712L48.2023 48.6666C47.2756 49.4634 46.0943 49.902 44.8722 49.9029L44.4405 49.904L36.5493 49.9225L35.5484 49.9248C34.0507 49.9283 32.567 49.6368 31.1821 49.0669C29.7971 48.497 28.5379 47.66 27.4764 46.6034C25.3327 44.4697 24.1243 41.5718 24.1172 38.5472C24.1101 35.5225 25.3048 32.619 27.4386 30.4752C29.5723 28.3314 32.4702 27.1231 35.4949 27.116L35.8741 27.1149L43.2019 27.0976L43.431 27.0884C43.5922 27.088 43.7466 27.0237 43.8604 26.9095C43.9741 26.7953 44.0379 26.6406 44.0376 26.4794L44.0416 26.1525L43.9812 0.375166L43.9732 0.0298032C44.2325 0.00221333 44.4936 -0.00623732 44.7542 0.00451985C44.9067 0.00451985 45.0586 0.0114153 45.2083 0.0240865L45.2117 0.256587Z" fill="#1B7892"/>
<path d="M16.2251 4.76175H15.3503L0 4.7963L0.00229848 6.01185L0.30676 6.00955L15.5719 5.97383L15.7486 5.96694L16.1808 5.96576L16.4755 5.97035C19.1935 6.02934 21.7787 7.15719 23.6708 9.10941C25.5628 11.0616 26.6092 13.6809 26.5831 16.3994C26.557 19.118 25.4605 21.7166 23.5312 23.6321C21.602 25.5477 18.9956 26.6256 16.2769 26.6323L16.0399 26.6427L7.41304 26.6623L6.60149 26.6646C4.85645 26.6675 3.18401 27.3633 1.95197 28.5992C0.719934 29.835 0.0291893 31.5095 0.0316484 33.2546L0.0569907 43.9862L0.0546922 44.8921C0.0597472 46.1231 0.50919 47.311 1.32033 48.2371L1.31055 47.6408L1.27772 33.4065L1.27654 33.2338C1.2732 31.8174 1.83262 30.4576 2.83177 29.4537C3.83091 28.4497 5.18795 27.8836 6.60438 27.8801L7.24265 27.8709L15.9765 27.8502L16.2798 27.8387C19.34 27.8314 22.272 26.6088 24.4308 24.4398C26.5895 22.2708 27.7982 19.3331 27.791 16.2729C27.7837 13.2127 26.5611 10.2807 24.3921 8.12196C22.2231 5.9632 19.2853 4.7545 16.2251 4.76175Z" fill="#1B7892"/>
<path d="M49.9806 43.9706L49.7274 43.9729L36.5912 44.004L35.5564 43.9971C34.8361 44.0004 34.1221 43.8616 33.4555 43.5887C32.7889 43.3157 32.1827 42.914 31.6715 42.4064C31.1604 41.8989 30.7544 41.2955 30.4767 40.6308C30.1991 39.9661 30.0553 39.2532 30.0535 38.5329C30.0518 37.8125 30.1922 37.0989 30.4666 36.4329C30.741 35.7669 31.1441 35.1616 31.6528 34.6515C32.1615 34.1415 32.7658 33.7369 33.4311 33.4607C34.0963 33.1845 34.8096 33.0423 35.5299 33.0422L35.9103 33.0319L42.8462 33.0157L43.4667 33.0088C45.198 33.0045 46.8568 32.3127 48.0781 31.0855C49.2995 29.8583 49.9834 28.1963 49.9795 26.4649L49.923 5.12838C49.922 3.93136 49.5015 2.77257 48.7346 1.85352L48.7409 2.2495L48.7961 26.2439L48.8007 26.3763C48.804 27.8193 48.2339 29.2045 47.2159 30.2273C46.1979 31.2501 44.8153 31.8266 43.3722 31.8301L43.1311 31.8416L35.9524 31.8589L35.5276 31.8681C33.7635 31.8722 32.0733 32.577 30.8288 33.8273C29.5843 35.0776 28.8875 36.7711 28.8916 38.5352C28.8957 40.2993 29.6005 41.9895 30.8508 43.234C32.1011 44.4785 33.7946 45.1753 35.5587 45.1712L36.5515 45.1689L49.7988 45.1378L49.9835 45.1389L49.9806 43.9706Z" fill="#1B7892"/>
<path d="M176.029 19.4675C176.029 19.4675 175.721 18.9576 175.571 18.7653C174.608 17.4528 173.342 16.3914 171.882 15.6705C170.422 14.9497 168.81 14.5907 167.182 14.6237C162.989 14.6237 159.801 16.1454 157.442 19.2671C155.262 22.0459 154.2 25.4508 154.2 29.6776C154.2 33.9873 155.29 37.5602 157.442 40.301C159.829 43.3456 163.179 44.8915 167.401 44.8915C170.992 44.8915 173.825 43.6552 175.85 41.2161C175.926 41.1228 176.302 40.6417 176.302 40.6417V44.1364H181.251V4.51367H176.029V19.4675ZM176.14 30.0551C176.14 33.0514 175.472 35.5262 174.16 37.4025C173.465 38.3938 172.531 39.1936 171.444 39.7281C170.358 40.2625 169.154 40.5141 167.944 40.4598C165.093 40.4598 162.913 39.4158 161.46 37.3565C160.162 35.4987 159.53 32.9858 159.53 29.6776C159.53 26.3682 160.177 23.8934 161.507 22.1138L161.514 22.1046C162.94 20.0822 165.159 19.0554 168.106 19.0554C169.23 19.0213 170.345 19.2629 171.354 19.7592C172.362 20.2554 173.234 20.9911 173.893 21.902C175.385 23.8589 176.14 26.42 176.14 29.5153V30.0551Z" fill="#1B7892"/>
<path d="M83.3331 43.8411L73.2404 28.2312C73.2144 28.1898 73.1851 28.1506 73.1529 28.1138H65.5419V43.9596H64.4185C63.3222 43.9626 62.2697 43.53 61.4924 42.757C60.7151 41.984 60.2766 40.9338 60.2734 39.8376V8.73411C60.275 8.19059 60.3836 7.65271 60.593 7.15116C60.8025 6.64962 61.1086 6.19424 61.4941 5.81104C61.8795 5.42783 62.3367 5.12431 62.8394 4.91779C63.3422 4.71128 63.8807 4.60582 64.4242 4.60744H75.9708C83.2088 4.60744 88.2655 9.43975 88.2655 16.3601C88.2655 22.0947 84.8307 26.4528 79.2997 27.7316L79.1685 27.7627L89.7366 43.559C89.8517 43.7306 90.006 43.9596 90.006 43.9596H83.416C83.416 43.9596 83.3803 43.9148 83.3331 43.8411ZM65.5419 23.1377V23.3943H75.3929C79.8373 23.3943 82.8232 20.5684 82.8232 16.3601C82.8232 12.1517 79.8373 9.32576 75.3929 9.32576H65.5419V23.1377Z" fill="#1B7892"/>
<path d="M133.291 44.804C130.372 44.804 128.095 44.088 126.329 42.618C125.455 41.9125 124.753 41.0158 124.28 39.9969C123.806 38.978 123.572 37.864 123.595 36.7406C123.595 33.3921 124.912 30.9472 127.618 29.2666C129.97 27.7103 133.323 26.8919 137.586 26.8378L143.742 26.74C143.825 26.7378 143.909 26.7401 143.993 26.7469L143.996 25.6084C143.996 21.1054 141.705 18.9172 136.991 18.9172C134.918 18.9172 133.324 19.3051 132.12 20.1028C131.431 20.5125 130.835 21.0624 130.372 21.717C129.908 22.3715 129.588 23.1161 129.43 23.9025L129.363 24.1799L124.398 23.8047L124.474 23.4317C124.703 22.0503 125.224 20.7334 126 19.5683C126.777 18.4032 127.793 17.4165 128.98 16.6737C131.121 15.3316 133.83 14.6777 137.262 14.6777C141.406 14.6777 144.406 15.739 146.434 17.9203C148.156 19.8599 149.025 22.4982 149.025 25.7696V44.0477H144.269V39.989L144.137 40.1374C143.087 41.301 141.849 42.2794 140.475 43.0313C138.27 44.2239 135.797 44.834 133.291 44.804ZM137.868 30.7527C131.72 30.8586 128.734 32.7809 128.734 36.6324C128.72 37.2012 128.845 37.7649 129.098 38.2747C129.351 38.7845 129.724 39.2251 130.185 39.5585C131.367 40.3761 132.782 40.7863 134.218 40.7268C136.732 40.7532 139.17 39.8595 141.071 38.214C143.013 36.5967 143.996 34.7377 143.996 32.6864V30.6628C143.996 30.6628 143.879 30.6525 143.734 30.6548L137.868 30.7527Z" fill="#1B7892"/>
<path d="M237.457 15.2468C236.174 14.7598 234.807 14.5287 233.434 14.5665C231.48 14.5311 229.577 15.1939 228.067 16.4359C227.38 16.9698 226.772 17.5975 226.26 18.3007C226.177 18.4134 225.795 18.9844 225.795 18.9844V15.3239H220.67V44.0861H225.795V28.8676C225.712 26.5438 226.475 24.2689 227.943 22.4653C228.514 21.6246 229.285 20.9381 230.186 20.467C231.087 19.9959 232.091 19.7547 233.107 19.7648C234.484 19.7547 235.855 19.9495 237.174 20.3427L237.709 20.5061V15.3527L237.457 15.2468Z" fill="#1B7892"/>
<path d="M106.2 14.5664C98.0237 14.5664 91.8574 21.0678 91.8574 29.6882C91.8574 38.6241 97.9731 44.8653 106.727 44.8653C108.848 44.9128 110.957 44.5419 112.935 43.7738C114.912 43.0057 116.719 41.8554 118.252 40.3887L118.509 40.139L115.901 36.6132L115.561 36.9596C114.446 38.0707 113.123 38.9502 111.667 39.5475C110.211 40.1447 108.651 40.4478 107.077 40.4394C101.126 40.4394 98.0157 36.2333 97.4367 31.8442C97.4172 31.6888 97.4056 31.5507 97.4056 31.5507H120.189V30.0359C120.189 20.7835 114.567 14.5664 106.2 14.5664ZM114.734 27.4747H97.3504C97.3504 27.4747 97.355 27.3412 97.3757 27.1869C97.8557 23.652 100.42 18.9935 106.141 18.9935C112.167 18.9935 114.663 23.6646 114.995 27.1961C115.002 27.271 115.038 27.4747 115.038 27.4747H114.734Z" fill="#1B7892"/>
<path d="M201.531 14.5664C193.355 14.5664 187.189 21.0678 187.189 29.6882C187.189 38.6241 193.304 44.8653 202.058 44.8653C204.179 44.9127 206.289 44.5418 208.266 43.7737C210.244 43.0056 212.051 41.8553 213.584 40.3887L213.839 40.139L211.232 36.6132L210.891 36.9596C209.777 38.0707 208.454 38.9502 206.998 39.5474C205.542 40.1447 203.983 40.4478 202.409 40.4394C196.457 40.4394 193.347 36.2333 192.769 31.8442C192.748 31.6888 192.738 31.5507 192.738 31.5507H215.521V30.0359C215.521 20.7835 209.899 14.5664 201.531 14.5664ZM210.065 27.4747H192.682C192.686 27.3784 192.694 27.2824 192.708 27.1869C193.188 23.652 195.751 18.9935 201.472 18.9935C207.499 18.9935 209.994 23.6646 210.326 27.1961C210.333 27.271 210.37 27.4747 210.37 27.4747H210.065Z" fill="#1B7892"/>
</g>
</svg>
