<svg width="91" height="159" viewBox="0 0 91 159" fill="none" xmlns="http://www.w3.org/2000/svg">
<path fill-rule="evenodd" clip-rule="evenodd" d="M0.266349 7.32965C0.26635 3.35602 3.4876 0.134762 7.46123 0.134762L83.727 0.134765C87.7006 0.134765 90.9219 3.35602 90.9219 7.32965C90.9219 11.3033 87.7006 14.5245 83.727 14.5245L7.46123 14.5245C3.4876 14.5245 0.266349 11.3033 0.266349 7.32965ZM0.266343 151.227C0.266343 155.201 3.4876 158.422 7.46122 158.422L83.727 158.422C87.7006 158.422 90.9219 155.201 90.9219 151.227C90.9219 147.254 87.7006 144.032 83.727 144.032L7.46122 144.032C3.4876 144.032 0.266343 147.254 0.266343 151.227Z" fill="#4F7D96"/>
</svg>
