<svg width="36" height="76" viewBox="0 0 36 76" fill="none" xmlns="http://www.w3.org/2000/svg">
<path d="M35.8933 73.4564L35.4684 73.4584L13.419 73.5141L11.682 73.5022C9.24465 73.5063 6.90541 72.513 5.17844 70.7406C3.45146 68.9682 2.47806 66.5617 2.47217 64.0501C2.46629 61.5385 3.42839 59.1272 5.14704 57.3463C6.86569 55.5653 9.20024 54.5604 11.6376 54.5523L12.2752 54.5364L23.9182 54.5065L24.9595 54.4945C26.3985 54.4912 27.8226 54.1959 29.1508 53.6254C30.4789 53.0548 31.685 52.2203 32.7001 51.1695C33.7153 50.1186 34.5196 48.872 35.0672 47.5008C35.6147 46.1296 35.8948 44.6607 35.8915 43.178L35.7968 6.27165C35.7947 4.20134 35.0889 2.19721 33.8019 0.607422L33.8115 1.29223L33.9071 42.7937L33.913 43.0247C33.9183 45.5204 32.9613 47.9161 31.2525 49.6847C29.5437 51.4534 27.2231 52.4501 24.8012 52.4558L24.3954 52.4777L12.3487 52.5056L11.6338 52.5215C8.67244 52.5289 5.83526 53.7482 3.74637 55.9112C1.65747 58.0742 0.487974 61.0036 0.49515 64.0551C0.502326 67.1066 1.68559 70.0302 3.78463 72.1827C5.88368 74.3352 8.72655 75.5404 11.6879 75.533L13.3514 75.527L35.589 75.4732L35.8992 75.4753L35.8933 73.4564Z" fill="#1B7892"/>
</svg>
