<svg width="47" height="71" viewBox="0 0 47 71" fill="none" xmlns="http://www.w3.org/2000/svg">
<path d="M37.342 26.3885C33.6633 20.8536 28.6571 18.0524 22.431 18.0524C15.3632 18.0524 9.99009 20.7103 6.01858 26.1675C2.34088 31.0214 0.552734 36.9684 0.552734 44.3509C0.552734 51.8807 2.393 58.1243 6.01768 62.9086C10.0365 68.2304 15.6831 70.9301 22.7971 70.9301C29.317 70.9301 34.3511 68.4276 37.7999 63.486V69.6122H46.1389V0.390625H37.342V26.3885ZM33.7406 30.7707C36.2504 34.1891 37.5246 38.6608 37.5246 44.0682V45.0099C37.5246 50.2461 36.3991 54.5705 34.1878 57.8477C33.0213 59.577 31.4489 60.9739 29.6171 61.9079C27.7853 62.842 25.7537 63.2828 23.7119 63.1894C18.9097 63.1894 15.2339 61.3656 12.7878 57.7679C10.5987 54.5227 9.53415 50.1327 9.53415 44.3509C9.53415 38.5691 10.6248 34.2489 12.866 31.1409L12.8786 31.125C15.2831 27.5871 19.0198 25.7952 23.9882 25.7952C25.8849 25.738 27.7662 26.1617 29.4667 27.0293C31.1672 27.8969 32.6349 29.1816 33.7406 30.7707Z" fill="#1B7892"/>
</svg>
