<svg width="48" height="70" viewBox="0 0 48 70" fill="none" xmlns="http://www.w3.org/2000/svg">
<path d="M26.7243 0.390625H6.8303C5.04914 0.390787 3.34098 1.11997 2.08151 2.4178C0.822045 3.71563 0.114415 5.47581 0.114258 7.31122V62.5502C0.114073 63.4581 0.287449 64.3572 0.624485 65.1961C0.961522 66.035 1.45562 66.7972 2.07855 67.4393C2.70149 68.0814 3.44107 68.5907 4.25506 68.9383C5.06904 69.2858 5.9415 69.4647 6.82259 69.4648H9.30923V41.7806H26.7243C39.0173 41.7806 47.6017 33.2713 47.6017 21.0867C47.6017 8.90205 39.0173 0.390625 26.7243 0.390625ZM9.30923 8.95771H25.7515C33.1465 8.95771 38.115 13.8316 38.115 21.0867C38.115 28.3397 33.1465 33.2135 25.7515 33.2135H9.30923V8.95771Z" fill="#1B7892"/>
</svg>
