<svg width="47" height="71" viewBox="0 0 47 71" fill="none" xmlns="http://www.w3.org/2000/svg">
<path d="M37.5238 26.2591C33.845 20.7243 28.8398 17.923 22.6126 17.923C15.545 17.923 10.1727 20.581 6.20032 26.0361C2.52351 30.89 0.734375 36.837 0.734375 44.2195C0.734375 51.7493 2.57378 57.9929 6.19935 62.7792C10.2191 68.101 15.8657 70.8008 22.9787 70.8008C29.4987 70.8008 34.5328 68.2981 37.9807 63.3565V69.4827H46.3206V0.390625H37.5238V26.2591ZM33.9213 30.6392C36.434 34.0577 37.7062 38.5313 37.7062 43.9368V44.8805C37.7062 50.1168 36.5808 54.4411 34.3686 57.7182C33.202 59.447 31.6299 60.8435 29.7984 61.7775C27.967 62.7116 25.936 63.1527 23.8946 63.0599C19.0923 63.0599 15.4165 61.2342 12.9704 57.6365C10.7804 54.3893 9.71579 50.0013 9.71579 44.2195C9.71579 38.4398 10.8074 34.1194 13.0477 31.0095L13.0593 30.9936C15.4648 27.4577 19.2005 25.6638 24.169 25.6638C26.0657 25.6062 27.9471 26.0299 29.6477 26.8974C31.3482 27.765 32.8158 29.0499 33.9213 30.6392Z" fill="#1B7892"/>
</svg>
