<svg width="47" height="76" viewBox="0 0 47 76" fill="none" xmlns="http://www.w3.org/2000/svg">
<path d="M27.2341 0.632869H25.7657L0 0.692603L0.00484726 2.79505L0.5149 2.79108L26.1385 2.7293L26.4351 2.71941L27.1597 2.71738L27.6543 2.72533C32.2166 2.8269 36.5561 4.77738 39.7321 8.1539C42.9081 11.5304 44.6646 16.0608 44.6207 20.7629C44.5769 25.465 42.7362 29.9597 39.4978 33.2727C36.2594 36.5857 31.8843 38.4498 27.3209 38.461L26.923 38.479L12.4418 38.5147L11.0816 38.5168C8.15241 38.5217 5.34507 39.7252 3.27692 41.8627C1.20877 44.0002 0.0491679 46.8966 0.0531222 49.915L0.0956595 68.4786L0.0908123 70.0455C0.100566 72.1745 0.854758 74.2287 2.21511 75.8312L2.19968 74.798L2.14457 50.1778L2.1427 49.8811C2.13977 48.6679 2.36879 47.466 2.8167 46.344C3.2646 45.2221 3.92261 44.202 4.75314 43.3421C5.58367 42.4822 6.57045 41.7993 7.65712 41.3325C8.7438 40.8656 9.90908 40.6239 11.0864 40.6212L12.1578 40.6032L26.8167 40.5694L27.3258 40.5495C32.4626 40.537 37.3842 38.4222 41.0079 34.6704C44.6316 30.9187 46.6605 25.8372 46.6484 20.5439C46.6362 15.2507 44.584 10.1792 40.9431 6.44512C37.3022 2.71107 32.3709 0.620338 27.2341 0.632869Z" fill="#1B7892"/>
</svg>
