<svg width="244" height="195" viewBox="0 0 244 195" fill="none" xmlns="http://www.w3.org/2000/svg">
<path fill-rule="evenodd" clip-rule="evenodd" d="M229.383 172.829V22.4557C229.383 18.0848 225.84 14.5414 221.469 14.5414H216.432C212.061 14.5414 208.518 18.0848 208.518 22.4557V172.829C208.518 177.2 212.061 180.743 216.432 180.743H221.469C225.84 180.743 229.383 177.2 229.383 172.829ZM35.1214 172.829L35.1214 22.4557C35.1214 18.0848 31.578 14.5414 27.207 14.5414H22.1706C17.7996 14.5414 14.2562 18.0848 14.2562 22.4557L14.2562 172.829C14.2562 177.2 17.7996 180.743 22.1706 180.743H27.207C31.578 180.743 35.1214 177.2 35.1214 172.829ZM243.053 22.4557C243.053 10.5349 233.39 0.871094 221.469 0.871094H216.432C204.512 0.871094 194.848 10.5349 194.848 22.4557V172.829C194.848 184.75 204.512 194.413 216.432 194.413H221.469C233.39 194.413 243.053 184.75 243.053 172.829V22.4557ZM48.7917 22.4557C48.7917 10.5349 39.1279 0.871096 27.207 0.871095L22.1706 0.871095C10.2497 0.871094 0.585945 10.5349 0.585944 22.4557L0.585938 172.829C0.585938 184.75 10.2497 194.413 22.1706 194.413H27.207C39.1279 194.413 48.7916 184.75 48.7916 172.829L48.7917 22.4557Z" fill="#4F7D96"/>
</svg>
