<svg width="41" height="87" viewBox="0 0 41 87" fill="none" xmlns="http://www.w3.org/2000/svg">
<path d="M35.8883 0.845445L35.9907 45.6897L35.9849 46.1954C35.9869 47.0392 35.6636 47.8493 35.086 48.4474C34.5085 49.0456 33.724 49.3828 32.9051 49.3849L31.9014 49.3889L20.7232 49.4167L19.6799 49.4307H19.5842C17.341 49.4349 15.1206 49.8945 13.0499 50.7833C10.9791 51.6721 9.09857 52.9725 7.5157 54.6104C5.93283 56.2484 4.67864 58.1916 3.82481 60.3291C2.97097 62.4666 2.53421 64.7566 2.53948 67.0681C2.54475 69.3796 2.99195 71.6674 3.85552 73.8008C4.71909 75.9342 5.98212 77.8713 7.57244 79.5015C9.16276 81.1318 11.0492 82.4231 13.124 83.3018C15.1988 84.1806 17.4213 84.6294 19.6645 84.6228L21.3434 84.6307L40.3611 84.583L40.908 84.577C39.3516 85.9548 37.3682 86.7133 35.3164 86.7153L34.5929 86.7173L21.3492 86.7492L19.6683 86.7532C17.1544 86.7592 14.6639 86.255 12.3391 85.2693C10.0142 84.2836 7.90058 82.8357 6.11878 81.0082C2.52028 77.3175 0.491958 72.3048 0.480033 67.0731C0.468109 61.8413 2.47355 56.8189 6.05519 53.1108C9.63683 49.4027 14.5013 47.3126 19.5784 47.3003L20.2151 47.2984L32.5149 47.2685L32.8994 47.2526C33.1695 47.2519 33.4282 47.1408 33.6189 46.9437C33.8096 46.7466 33.9167 46.4797 33.9166 46.2013L33.9253 45.634L33.8229 1.0485L33.8104 0.451255C34.245 0.403135 34.6826 0.389129 35.1193 0.409359C35.3763 0.409359 35.6314 0.419349 35.8825 0.441265L35.8883 0.845445Z" fill="#1B7892"/>
</svg>
