<svg width="40" height="83" viewBox="0 0 40 83" fill="none" xmlns="http://www.w3.org/2000/svg">
<path d="M35.8298 2.2869L35.9303 45.6201L35.9255 46.1874C35.9296 48.1079 35.1934 49.9515 33.8787 51.3127C32.564 52.674 30.7785 53.4415 28.9148 53.4465L28.3738 53.4485L16.4991 53.4763L15.5929 53.4923C12.1113 53.5036 8.77645 54.9388 6.32128 57.4825C3.8661 60.0263 2.4915 63.4705 2.49956 67.0581C2.50762 70.6458 3.89769 74.0834 6.36428 76.6154C8.83086 79.1474 12.1721 80.5667 15.6537 80.5613L17.3357 80.5573L39.1898 80.5036L39.525 80.4896C39.3078 81.2058 39.0023 81.8904 38.6159 82.5264L38.3252 82.5363L17.3531 82.5861L15.6586 82.592C11.6524 82.6018 7.80661 80.9713 4.96712 78.0592C2.12764 75.147 0.527105 71.1918 0.517621 67.0636C0.508136 62.9355 2.09048 58.9725 4.91655 56.0466C7.74262 53.1206 11.5809 51.4713 15.5871 51.4615L16.3406 51.4775L28.311 51.4476L28.909 51.4496C29.5776 51.4481 30.2394 51.3109 30.8565 51.0458C31.4736 50.7808 32.034 50.393 32.5057 49.9047C32.9774 49.4164 33.3512 48.8372 33.6056 48.2001C33.86 47.5629 33.9901 46.8804 33.9885 46.1914L33.9788 45.6658L33.8774 1.33725L33.8533 0.859375C34.5472 1.09599 35.2089 1.42318 35.8221 1.83297L35.8298 2.2869Z" fill="#1B7892"/>
</svg>
