<svg width="451" height="91" viewBox="0 0 451 91" fill="none" xmlns="http://www.w3.org/2000/svg">
<path d="M1 1H420C436.569 1 450 14.4315 450 31V90H1V1Z" fill="#E9F1F7"/>
<path d="M110.984 37.056V39.36H119.336V37.056H116.36C116.12 36.192 115.808 35.256 115.424 34.224L113.048 34.872C113.384 35.592 113.696 36.312 113.984 37.056H110.984ZM111.872 40.68V42.84H118.448V40.68H111.872ZM111.872 44.04V46.2H118.448V44.04H111.872ZM118.664 47.616H111.632V56.352H113.984V55.08H118.664V53.976L119.72 55.728C121.928 54 123.56 51.864 124.64 49.296V56.472H127.04V49.152C127.976 51.528 129.488 53.712 131.6 55.728L133.232 53.688C131.216 52.248 129.752 50.64 128.84 48.84H132.44V46.488H127.04V44.856H131.6V35.064H120.08V44.856H124.64V46.488H119.336V48.84H122.888C121.928 50.64 120.512 52.152 118.664 53.4V47.616ZM113.984 52.872V49.824H116.336V52.872H113.984ZM129.272 42.672H127.04V40.968H129.272V42.672ZM124.64 42.672H122.432V40.968H124.64V42.672ZM122.432 38.952V37.272H124.64V38.952H122.432ZM127.04 37.272H129.272V38.952H127.04V37.272ZM137.288 38.064V40.56H140.936C141.944 44.04 143.744 47.088 146.336 49.728C143.84 51.84 140.672 53.376 136.856 54.36L138.2 56.568C142.112 55.464 145.424 53.712 148.112 51.336C150.656 53.448 153.848 55.224 157.688 56.664L159.08 54.528C155.432 53.184 152.36 51.552 149.888 49.584C152.096 47.16 153.776 44.16 154.928 40.56H158.552V38.064H149.48C148.76 36.504 147.968 35.16 147.104 34.032L144.584 34.944C145.448 35.928 146.192 36.96 146.792 38.064H137.288ZM143.336 40.56H152.336C151.4 43.464 149.984 45.96 148.112 48.024C145.904 45.864 144.32 43.392 143.336 40.56ZM175.448 35.712V37.776H178.856V38.832H175.832V47.976H178.856V49.008H175.208V51.096H178.856V53.4H180.968V51.096H184.688V49.008H180.968V47.976H183.992V38.832H180.968V37.776H184.424V35.712H180.968V34.368H178.856V35.712H175.448ZM181.976 45.96H180.872V44.328H181.976V45.96ZM178.952 45.96H177.872V44.328H178.952V45.96ZM177.872 42.384V40.824H178.952V42.384H177.872ZM180.872 40.824H181.976V42.384H180.872V40.824ZM172.352 34.656L170.528 35.784C171.632 37.272 172.52 38.616 173.168 39.816L174.992 38.568C174.368 37.44 173.504 36.144 172.352 34.656ZM181.232 53.856C180.344 53.856 179.456 53.832 178.592 53.808C177.68 53.736 176.888 53.568 176.216 53.328C175.544 52.992 174.992 52.56 174.584 52.032V42.12H170.744V44.328H172.352V51.72C171.776 52.104 171.104 52.824 170.336 53.904V52.224L168.032 52.8V46.296H170.288V44.088H168.032V42.048H169.568V40.536C169.64 40.68 169.736 40.824 169.832 40.968L171.368 39.336C170.192 37.632 168.92 35.976 167.576 34.368H165.944C164.84 36.624 163.664 38.568 162.368 40.2L163.688 42.048C163.856 41.808 164.024 41.592 164.192 41.352V42.048H165.68V44.088H163.208V46.296H165.68V53.256C164.72 53.424 163.736 53.568 162.752 53.688L163.328 56.088C165.608 55.704 167.768 55.224 169.808 54.648L171.224 56.52C172.304 54.696 173 53.808 173.336 53.808C173.576 53.808 173.84 53.952 174.128 54.288C174.656 54.912 175.328 55.368 176.12 55.656C176.96 55.92 177.896 56.064 178.928 56.088C179.648 56.112 180.344 56.136 181.04 56.136H184.328L184.952 53.784C183.776 53.832 182.528 53.856 181.232 53.856ZM164.408 47.232L162.656 47.832C163.064 49.296 163.4 50.832 163.64 52.464L165.44 51.984C165.152 50.208 164.792 48.624 164.408 47.232ZM169.184 46.896C168.896 48.552 168.608 49.92 168.272 51.024L169.88 51.6C170.312 50.4 170.648 48.984 170.936 47.4L169.184 46.896ZM165.224 39.864C165.872 38.856 166.472 37.824 167 36.768C167.576 37.488 168.272 38.52 169.136 39.864H165.224ZM200.528 38.448L198.752 39.312C199.184 40.008 199.616 40.776 200 41.64H196.712V44.016H210.32V41.64H206.936C207.416 40.8 207.848 39.888 208.232 38.88L207.032 38.448H209.888V36.192H204.68C204.44 35.424 204.224 34.704 203.984 34.08L201.392 34.512C201.68 35.04 201.92 35.592 202.16 36.192H197.288V38.448H200.528ZM202.376 41.64C201.896 40.488 201.392 39.432 200.84 38.448H205.736C205.328 39.552 204.848 40.632 204.296 41.64H202.376ZM191.696 56.28C193.328 56.28 194.168 55.464 194.168 53.832V47.208C194.72 46.944 195.272 46.68 195.848 46.392V43.848C195.296 44.136 194.744 44.424 194.168 44.712V41.04H195.896V38.616H194.168V34.368H191.624V38.616H188.96V41.04H191.624V45.768C190.592 46.152 189.536 46.44 188.456 46.68L189.104 49.2C189.944 48.912 190.784 48.624 191.624 48.312V53.184C191.624 53.712 191.36 54 190.832 54C190.256 54 189.656 53.952 189.032 53.856L189.584 56.28H191.696ZM201.056 44.28C200.864 44.832 200.624 45.408 200.336 46.032H196.4V48.432H199.136C198.656 49.248 198.152 50.112 197.576 51C199.112 51.6 200.528 52.2 201.872 52.776C200.456 53.424 198.56 53.952 196.208 54.384L197.168 56.64C200.504 55.968 202.976 55.104 204.584 54C206.456 54.864 207.992 55.704 209.24 56.472L210.608 54.48C209.24 53.712 207.824 53.016 206.36 52.368C207.272 51.264 207.92 49.968 208.28 48.432H210.728V46.032H202.88C203.072 45.552 203.288 45.072 203.48 44.568L201.056 44.28ZM205.928 48.432C205.544 49.584 204.92 50.544 204.08 51.36C202.952 50.88 201.8 50.424 200.648 50.016C200.984 49.512 201.32 48.984 201.656 48.432H205.928ZM220.424 37.536V39.36C220.352 46.416 218.408 51.552 214.592 54.768L216.536 56.472C219.56 53.856 221.528 50.136 222.416 45.336C223.424 47.448 224.792 49.344 226.568 51.072C224.696 52.368 222.368 53.448 219.632 54.36L221.096 56.688C224.072 55.728 226.592 54.456 228.656 52.872C230.384 54.216 232.448 55.44 234.848 56.544L236.528 54.312C234.32 53.376 232.352 52.32 230.624 51.12C232.76 48.912 234.176 46.248 234.872 43.08V41.616H230.12C230.552 40.224 231.008 38.592 231.44 36.72V35.088H216.56V37.536H220.424ZM228.536 49.512C225.656 47.016 223.784 44.112 222.92 40.752C222.944 40.296 222.968 39.84 222.968 39.36V37.536H228.68C228.08 40.32 227.528 42.432 227 43.896H232.208C231.512 46.008 230.288 47.88 228.536 49.512ZM241.424 50.04C241.28 52.128 240.92 53.976 240.368 55.608L242.48 56.28C242.96 54.552 243.272 52.56 243.416 50.304L241.424 50.04ZM245.864 49.848L244.016 50.208C244.28 51.648 244.52 53.328 244.712 55.2L246.824 54.696C246.536 52.944 246.2 51.336 245.864 49.848ZM247.784 43.584L246.104 44.136C246.32 44.76 246.536 45.408 246.728 46.104C245.816 46.368 244.904 46.584 243.992 46.752C245.288 45.096 246.896 42.456 248.792 38.832L246.608 37.992C246.08 39.048 245.6 40.032 245.144 40.944C244.496 41.064 243.824 41.184 243.152 41.28C244.184 39.696 245.192 37.656 246.2 35.208L243.944 34.296C243.224 36.576 242.408 38.664 241.472 40.584C241.184 40.992 240.872 41.28 240.488 41.448L241.088 43.584C242.096 43.392 243.08 43.224 244.016 43.056C243.104 44.664 242.36 45.792 241.736 46.44C241.448 46.728 241.112 46.944 240.704 47.112L241.304 49.224C243.128 48.984 245.096 48.528 247.16 47.832C247.208 48.12 247.28 48.408 247.352 48.744L249.128 48.264C248.744 46.512 248.288 44.952 247.784 43.584ZM248.144 49.2L246.44 49.8C246.872 50.688 247.28 51.72 247.64 52.896L249.464 52.08C249.08 51.048 248.648 50.088 248.144 49.2ZM248.6 36.072V38.328H254.12V39.744H249.44V48.84H252.224C251.264 50.664 249.8 52.176 247.88 53.424L249.2 55.608C251.48 53.832 253.136 51.576 254.192 48.84V56.328H256.592V48.888C257.504 51.24 259.04 53.4 261.2 55.368L262.832 53.304C260.864 51.96 259.448 50.472 258.584 48.84H261.416V39.744H256.568V38.328H262.28V36.072H256.568V34.464H254.12V36.072H248.6ZM259.304 46.776H256.352V41.808H259.304V46.776ZM254.384 46.776H251.552V41.808H254.384V46.776ZM257.432 42.528C257.216 43.824 256.976 44.928 256.688 45.792L258.08 46.296C258.416 45.336 258.704 44.208 258.944 42.912L257.432 42.528ZM253.232 42.672L251.816 43.128C252.152 44.136 252.44 45.168 252.68 46.248L254.096 45.888C253.856 44.664 253.568 43.584 253.232 42.672ZM285.992 45.552H278.864C279.056 45.192 279.2 44.832 279.32 44.448L276.704 44.112V34.92H267.8V37.272H274.256V40.56C272.264 41.472 269.96 42.264 267.344 42.936L268.352 45.24C270.584 44.496 272.552 43.68 274.256 42.792V44.208H276.656C276.512 44.64 276.368 45.096 276.176 45.552H270.08V56.52H272.528V55.704H283.544V56.52H285.992V45.552ZM272.528 53.4V51.768H283.544V53.4H272.528ZM272.528 49.56V47.832H283.544V49.56H272.528ZM278.192 34.92V37.272H279.56L278.192 38.592C279.392 39.408 280.328 40.152 280.976 40.848L282.392 39.432C281.648 38.712 280.76 37.992 279.728 37.272H284.576V39.792C282.728 40.632 280.568 41.376 278.12 42.024L279.056 44.184C281.144 43.512 282.992 42.768 284.576 41.952V44.88H287V34.92H278.192ZM269.912 37.488L268.472 38.856C269.816 39.72 270.848 40.56 271.568 41.328L273.008 39.888C272.168 39.096 271.136 38.304 269.912 37.488ZM305.048 35.712V37.776H308.456V38.832H305.432V47.976H308.456V49.008H304.808V51.096H308.456V53.4H310.568V51.096H314.288V49.008H310.568V47.976H313.592V38.832H310.568V37.776H314.024V35.712H310.568V34.368H308.456V35.712H305.048ZM311.576 45.96H310.472V44.328H311.576V45.96ZM308.552 45.96H307.472V44.328H308.552V45.96ZM307.472 42.384V40.824H308.552V42.384H307.472ZM310.472 40.824H311.576V42.384H310.472V40.824ZM301.952 34.656L300.128 35.784C301.232 37.272 302.12 38.616 302.768 39.816L304.592 38.568C303.968 37.44 303.104 36.144 301.952 34.656ZM310.832 53.856C309.944 53.856 309.056 53.832 308.192 53.808C307.28 53.736 306.488 53.568 305.816 53.328C305.144 52.992 304.592 52.56 304.184 52.032V42.12H300.344V44.328H301.952V51.72C301.376 52.104 300.704 52.824 299.936 53.904V52.224L297.632 52.8V46.296H299.888V44.088H297.632V42.048H299.168V40.536C299.24 40.68 299.336 40.824 299.432 40.968L300.968 39.336C299.792 37.632 298.52 35.976 297.176 34.368H295.544C294.44 36.624 293.264 38.568 291.968 40.2L293.288 42.048C293.456 41.808 293.624 41.592 293.792 41.352V42.048H295.28V44.088H292.808V46.296H295.28V53.256C294.32 53.424 293.336 53.568 292.352 53.688L292.928 56.088C295.208 55.704 297.368 55.224 299.408 54.648L300.824 56.52C301.904 54.696 302.6 53.808 302.936 53.808C303.176 53.808 303.44 53.952 303.728 54.288C304.256 54.912 304.928 55.368 305.72 55.656C306.56 55.92 307.496 56.064 308.528 56.088C309.248 56.112 309.944 56.136 310.64 56.136H313.928L314.552 53.784C313.376 53.832 312.128 53.856 310.832 53.856ZM294.008 47.232L292.256 47.832C292.664 49.296 293 50.832 293.24 52.464L295.04 51.984C294.752 50.208 294.392 48.624 294.008 47.232ZM298.784 46.896C298.496 48.552 298.208 49.92 297.872 51.024L299.48 51.6C299.912 50.4 300.248 48.984 300.536 47.4L298.784 46.896ZM294.824 39.864C295.472 38.856 296.072 37.824 296.6 36.768C297.176 37.488 297.872 38.52 298.736 39.864H294.824ZM330.128 38.448L328.352 39.312C328.784 40.008 329.216 40.776 329.6 41.64H326.312V44.016H339.92V41.64H336.536C337.016 40.8 337.448 39.888 337.832 38.88L336.632 38.448H339.488V36.192H334.28C334.04 35.424 333.824 34.704 333.584 34.08L330.992 34.512C331.28 35.04 331.52 35.592 331.76 36.192H326.888V38.448H330.128ZM331.976 41.64C331.496 40.488 330.992 39.432 330.44 38.448H335.336C334.928 39.552 334.448 40.632 333.896 41.64H331.976ZM321.296 56.28C322.928 56.28 323.768 55.464 323.768 53.832V47.208C324.32 46.944 324.872 46.68 325.448 46.392V43.848C324.896 44.136 324.344 44.424 323.768 44.712V41.04H325.496V38.616H323.768V34.368H321.224V38.616H318.56V41.04H321.224V45.768C320.192 46.152 319.136 46.44 318.056 46.68L318.704 49.2C319.544 48.912 320.384 48.624 321.224 48.312V53.184C321.224 53.712 320.96 54 320.432 54C319.856 54 319.256 53.952 318.632 53.856L319.184 56.28H321.296ZM330.656 44.28C330.464 44.832 330.224 45.408 329.936 46.032H326V48.432H328.736C328.256 49.248 327.752 50.112 327.176 51C328.712 51.6 330.128 52.2 331.472 52.776C330.056 53.424 328.16 53.952 325.808 54.384L326.768 56.64C330.104 55.968 332.576 55.104 334.184 54C336.056 54.864 337.592 55.704 338.84 56.472L340.208 54.48C338.84 53.712 337.424 53.016 335.96 52.368C336.872 51.264 337.52 49.968 337.88 48.432H340.328V46.032H332.48C332.672 45.552 332.888 45.072 333.08 44.568L330.656 44.28ZM335.528 48.432C335.144 49.584 334.52 50.544 333.68 51.36C332.552 50.88 331.4 50.424 330.248 50.016C330.584 49.512 330.92 48.984 331.256 48.432H335.528Z" fill="#175378"/>
<path d="M1 1H420C436.569 1 450 14.4315 450 31V90H1V1Z" stroke="#539DC6" stroke-width="2"/>
</svg>
