<svg width="93" height="93" viewBox="0 0 93 93" fill="none" xmlns="http://www.w3.org/2000/svg">
<path d="M2 32C2 15.4315 15.4315 2 32 2H91V91H2V32Z" fill="#E9F1F7"/>
<path d="M23.496 35.992V41.344H32.232V35.992H23.496ZM29.784 39.544H25.92V37.792H29.784V39.544ZM33.744 35.992V41.344H42.504V35.992H33.744ZM40.08 39.64H36.168V37.744H40.08V39.64ZM24.36 42.4V50.848H31.728V52.192H22.536V54.304H31.728V57.472H34.272V54.304H43.464V52.192H34.272V50.848H41.64V42.4H24.36ZM39.168 48.88H34.272V47.488H39.168V48.88ZM31.728 48.88H26.832V47.488H31.728V48.88ZM26.832 45.76V44.368H31.728V45.76H26.832ZM34.272 44.368H39.168V45.76H34.272V44.368ZM50.424 36.376V38.776H67.224V36.376H50.424ZM48.552 43.408V45.832H54.504V46.312C54.408 48.664 53.928 50.56 53.016 52.048C52.104 53.392 50.376 54.544 47.784 55.456L49.128 57.568C51.816 56.632 53.736 55.312 54.936 53.632C56.16 51.808 56.832 49.36 56.952 46.312V45.832H60.504V54.472C60.504 56.224 61.344 57.112 63.048 57.112H66.864C67.704 57.112 68.328 56.848 68.76 56.368C69.192 55.864 69.504 54.256 69.672 51.544L67.416 50.824C67.368 52.768 67.248 53.944 67.08 54.328C66.936 54.688 66.696 54.88 66.408 54.88H63.768C63.216 54.88 62.952 54.568 62.952 53.944V45.832H69.312V43.408H48.552Z" fill="#175378"/>
<path d="M2 32C2 15.4315 15.4315 2 32 2H91V91H2V32Z" stroke="#539DC6" stroke-width="2.32766"/>
</svg>
